%TF.GenerationSoftware,KiCad,Pcbnew,9.0.0*%
%TF.CreationDate,2025-03-20T00:14:52+10:00*%
%TF.ProjectId,PicoSax,5069636f-5361-4782-9e6b-696361645f70,rev?*%
%TF.SameCoordinates,Original*%
%TF.FileFunction,Soldermask,Top*%
%TF.FilePolarity,Negative*%
%FSLAX46Y46*%
G04 Gerber Fmt 4.6, Leading zero omitted, Abs format (unit mm)*
G04 Created by KiCad (PCBNEW 9.0.0) date 2025-03-20 00:14:52*
%MOMM*%
%LPD*%
G01*
G04 APERTURE LIST*
G04 Aperture macros list*
%AMRoundRect*
0 Rectangle with rounded corners*
0 $1 Rounding radius*
0 $2 $3 $4 $5 $6 $7 $8 $9 X,Y pos of 4 corners*
0 Add a 4 corners polygon primitive as box body*
4,1,4,$2,$3,$4,$5,$6,$7,$8,$9,$2,$3,0*
0 Add four circle primitives for the rounded corners*
1,1,$1+$1,$2,$3*
1,1,$1+$1,$4,$5*
1,1,$1+$1,$6,$7*
1,1,$1+$1,$8,$9*
0 Add four rect primitives between the rounded corners*
20,1,$1+$1,$2,$3,$4,$5,0*
20,1,$1+$1,$4,$5,$6,$7,0*
20,1,$1+$1,$6,$7,$8,$9,0*
20,1,$1+$1,$8,$9,$2,$3,0*%
%AMFreePoly0*
4,1,37,0.800000,0.796148,0.878414,0.796148,1.032228,0.765552,1.177117,0.705537,1.307515,0.618408,1.418408,0.507515,1.505537,0.377117,1.565552,0.232228,1.596148,0.078414,1.596148,-0.078414,1.565552,-0.232228,1.505537,-0.377117,1.418408,-0.507515,1.307515,-0.618408,1.177117,-0.705537,1.032228,-0.765552,0.878414,-0.796148,0.800000,-0.796148,0.800000,-0.800000,-1.400000,-0.800000,
-1.403843,-0.796157,-1.439018,-0.796157,-1.511114,-0.766294,-1.566294,-0.711114,-1.596157,-0.639018,-1.596157,-0.603843,-1.600000,-0.600000,-1.600000,0.600000,-1.596157,0.603843,-1.596157,0.639018,-1.566294,0.711114,-1.511114,0.766294,-1.439018,0.796157,-1.403843,0.796157,-1.400000,0.800000,0.800000,0.800000,0.800000,0.796148,0.800000,0.796148,$1*%
%AMFreePoly1*
4,1,37,1.403843,0.796157,1.439018,0.796157,1.511114,0.766294,1.566294,0.711114,1.596157,0.639018,1.596157,0.603843,1.600000,0.600000,1.600000,-0.600000,1.596157,-0.603843,1.596157,-0.639018,1.566294,-0.711114,1.511114,-0.766294,1.439018,-0.796157,1.403843,-0.796157,1.400000,-0.800000,-0.800000,-0.800000,-0.800000,-0.796148,-0.878414,-0.796148,-1.032228,-0.765552,-1.177117,-0.705537,
-1.307515,-0.618408,-1.418408,-0.507515,-1.505537,-0.377117,-1.565552,-0.232228,-1.596148,-0.078414,-1.596148,0.078414,-1.565552,0.232228,-1.505537,0.377117,-1.418408,0.507515,-1.307515,0.618408,-1.177117,0.705537,-1.032228,0.765552,-0.878414,0.796148,-0.800000,0.796148,-0.800000,0.800000,1.400000,0.800000,1.403843,0.796157,1.403843,0.796157,$1*%
%AMFreePoly2*
4,1,37,0.603843,0.796157,0.639018,0.796157,0.711114,0.766294,0.766294,0.711114,0.796157,0.639018,0.796157,0.603843,0.800000,0.600000,0.800000,-0.600000,0.796157,-0.603843,0.796157,-0.639018,0.766294,-0.711114,0.711114,-0.766294,0.639018,-0.796157,0.603843,-0.796157,0.600000,-0.800000,0.000000,-0.800000,0.000000,-0.796148,-0.078414,-0.796148,-0.232228,-0.765552,-0.377117,-0.705537,
-0.507515,-0.618408,-0.618408,-0.507515,-0.705537,-0.377117,-0.765552,-0.232228,-0.796148,-0.078414,-0.796148,0.078414,-0.765552,0.232228,-0.705537,0.377117,-0.618408,0.507515,-0.507515,0.618408,-0.377117,0.705537,-0.232228,0.765552,-0.078414,0.796148,0.000000,0.796148,0.000000,0.800000,0.600000,0.800000,0.603843,0.796157,0.603843,0.796157,$1*%
%AMFreePoly3*
4,1,37,0.000000,0.796148,0.078414,0.796148,0.232228,0.765552,0.377117,0.705537,0.507515,0.618408,0.618408,0.507515,0.705537,0.377117,0.765552,0.232228,0.796148,0.078414,0.796148,-0.078414,0.765552,-0.232228,0.705537,-0.377117,0.618408,-0.507515,0.507515,-0.618408,0.377117,-0.705537,0.232228,-0.765552,0.078414,-0.796148,0.000000,-0.796148,0.000000,-0.800000,-0.600000,-0.800000,
-0.603843,-0.796157,-0.639018,-0.796157,-0.711114,-0.766294,-0.766294,-0.711114,-0.796157,-0.639018,-0.796157,-0.603843,-0.800000,-0.600000,-0.800000,0.600000,-0.796157,0.603843,-0.796157,0.639018,-0.766294,0.711114,-0.711114,0.766294,-0.639018,0.796157,-0.603843,0.796157,-0.600000,0.800000,0.000000,0.800000,0.000000,0.796148,0.000000,0.796148,$1*%
G04 Aperture macros list end*
%ADD10RoundRect,0.250000X-0.450000X0.350000X-0.450000X-0.350000X0.450000X-0.350000X0.450000X0.350000X0*%
%ADD11RoundRect,0.250000X0.450000X-0.350000X0.450000X0.350000X-0.450000X0.350000X-0.450000X-0.350000X0*%
%ADD12C,1.400000*%
%ADD13O,1.400000X1.400000*%
%ADD14RoundRect,0.250000X0.337500X0.475000X-0.337500X0.475000X-0.337500X-0.475000X0.337500X-0.475000X0*%
%ADD15C,2.000000*%
%ADD16C,2.500000*%
%ADD17RoundRect,0.250000X-0.475000X0.337500X-0.475000X-0.337500X0.475000X-0.337500X0.475000X0.337500X0*%
%ADD18R,0.812800X0.762000*%
%ADD19RoundRect,0.250000X0.475000X-0.337500X0.475000X0.337500X-0.475000X0.337500X-0.475000X-0.337500X0*%
%ADD20C,3.200000*%
%ADD21RoundRect,0.195000X1.055000X0.455000X-1.055000X0.455000X-1.055000X-0.455000X1.055000X-0.455000X0*%
%ADD22RoundRect,0.190500X0.762000X0.444500X-0.762000X0.444500X-0.762000X-0.444500X0.762000X-0.444500X0*%
%ADD23C,2.200000*%
%ADD24C,1.850000*%
%ADD25FreePoly0,180.000000*%
%ADD26RoundRect,0.200000X0.600000X0.600000X-0.600000X0.600000X-0.600000X-0.600000X0.600000X-0.600000X0*%
%ADD27RoundRect,0.800000X0.800000X0.000010X-0.800000X0.000010X-0.800000X-0.000010X0.800000X-0.000010X0*%
%ADD28C,1.600000*%
%ADD29FreePoly1,180.000000*%
%ADD30FreePoly2,180.000000*%
%ADD31FreePoly3,180.000000*%
%ADD32R,2.540000X1.520000*%
%ADD33RoundRect,0.250000X1.020000X0.510000X-1.020000X0.510000X-1.020000X-0.510000X1.020000X-0.510000X0*%
%ADD34RoundRect,0.250000X-0.337500X-0.475000X0.337500X-0.475000X0.337500X0.475000X-0.337500X0.475000X0*%
%ADD35RoundRect,0.250000X0.350000X0.450000X-0.350000X0.450000X-0.350000X-0.450000X0.350000X-0.450000X0*%
%ADD36R,0.762000X0.812800*%
%ADD37O,2.500000X2.000000*%
%ADD38C,3.000000*%
%ADD39O,2.000000X2.500000*%
%ADD40RoundRect,0.250000X-0.350000X-0.450000X0.350000X-0.450000X0.350000X0.450000X-0.350000X0.450000X0*%
%ADD41R,1.700000X1.700000*%
%ADD42O,1.700000X1.700000*%
%ADD43R,2.200000X2.200000*%
%ADD44O,2.200000X2.200000*%
G04 APERTURE END LIST*
D10*
%TO.C,R9*%
X129000000Y-59000000D03*
X129000000Y-61000000D03*
%TD*%
D11*
%TO.C,R3*%
X59000000Y-100000000D03*
X59000000Y-98000000D03*
%TD*%
D12*
%TO.C,R17*%
X123000000Y-198190000D03*
D13*
X123000000Y-205810000D03*
%TD*%
D14*
%TO.C,C10*%
X133037500Y-181000000D03*
X130962500Y-181000000D03*
%TD*%
D15*
%TO.C,SWE1*%
X65000000Y-106000000D03*
X75000000Y-106000000D03*
D16*
X68225000Y-110810000D03*
X71775000Y-101190000D03*
%TD*%
D17*
%TO.C,C8*%
X124000000Y-144962500D03*
X124000000Y-147037500D03*
%TD*%
%TO.C,C6*%
X120000000Y-106962500D03*
X120000000Y-109037500D03*
%TD*%
D11*
%TO.C,R6*%
X54000000Y-157000000D03*
X54000000Y-155000000D03*
%TD*%
D18*
%TO.C,L7*%
X70544401Y-195549999D03*
X70544401Y-194450001D03*
X69455599Y-194450001D03*
X69455599Y-195549999D03*
%TD*%
%TO.C,L12*%
X65544401Y-87549999D03*
X65544401Y-86450001D03*
X64455599Y-86450001D03*
X64455599Y-87549999D03*
%TD*%
%TO.C,L3*%
X129455599Y-105450001D03*
X129455599Y-106549999D03*
X130544401Y-106549999D03*
X130544401Y-105450001D03*
%TD*%
D11*
%TO.C,R2*%
X54000000Y-81000000D03*
X54000000Y-79000000D03*
%TD*%
D19*
%TO.C,C13*%
X77000000Y-143037500D03*
X77000000Y-140962500D03*
%TD*%
D18*
%TO.C,L6*%
X134455599Y-162450001D03*
X134455599Y-163549999D03*
X135544401Y-163549999D03*
X135544401Y-162450001D03*
%TD*%
D20*
%TO.C,M4*%
X115000000Y-71000000D03*
%TD*%
D11*
%TO.C,R7*%
X80000000Y-190000000D03*
X80000000Y-188000000D03*
%TD*%
D17*
%TO.C,C7*%
X120000000Y-125962500D03*
X120000000Y-128037500D03*
%TD*%
D11*
%TO.C,R5*%
X54000000Y-138000000D03*
X54000000Y-136000000D03*
%TD*%
D18*
%TO.C,L2*%
X134455599Y-86450001D03*
X134455599Y-87549999D03*
X135544401Y-87549999D03*
X135544401Y-86450001D03*
%TD*%
D21*
%TO.C,U2*%
X106000000Y-95000000D03*
D22*
X106296895Y-92512218D03*
X106296895Y-90012218D03*
X106296895Y-87472218D03*
X94896895Y-87512218D03*
X94896895Y-90012218D03*
X94896895Y-92512218D03*
X94896895Y-95012218D03*
%TD*%
D19*
%TO.C,C2*%
X89000000Y-81037500D03*
X89000000Y-78962500D03*
%TD*%
D23*
%TO.C,A1*%
X102725000Y-204462500D03*
D24*
X102425000Y-201432500D03*
X97575000Y-201432500D03*
D23*
X97275000Y-204462500D03*
D25*
X109690000Y-204592500D03*
D26*
X108890000Y-204592500D03*
D27*
X109690000Y-202052500D03*
D28*
X108890000Y-202052500D03*
D29*
X109690000Y-199512500D03*
D30*
X108890000Y-199512500D03*
D27*
X109690000Y-196972500D03*
D28*
X108890000Y-196972500D03*
D27*
X109690000Y-194432500D03*
D28*
X108890000Y-194432500D03*
D27*
X109690000Y-191892500D03*
D28*
X108890000Y-191892500D03*
D27*
X109690000Y-189352500D03*
D28*
X108890000Y-189352500D03*
D29*
X109690000Y-186812500D03*
D30*
X108890000Y-186812500D03*
D27*
X109690000Y-184272500D03*
D28*
X108890000Y-184272500D03*
D27*
X109690000Y-181732500D03*
D28*
X108890000Y-181732500D03*
D27*
X109690000Y-179192500D03*
D28*
X108890000Y-179192500D03*
D27*
X109690000Y-176652500D03*
D28*
X108890000Y-176652500D03*
D29*
X109690000Y-174112500D03*
D30*
X108890000Y-174112500D03*
D27*
X109690000Y-171572500D03*
D28*
X108890000Y-171572500D03*
D27*
X109690000Y-169032500D03*
D28*
X108890000Y-169032500D03*
D27*
X109690000Y-166492500D03*
D28*
X108890000Y-166492500D03*
D27*
X109690000Y-163952500D03*
D28*
X108890000Y-163952500D03*
D29*
X109690000Y-161412500D03*
D30*
X108890000Y-161412500D03*
D27*
X109690000Y-158872500D03*
D28*
X108890000Y-158872500D03*
D27*
X109690000Y-156332500D03*
D28*
X108890000Y-156332500D03*
X91110000Y-156332500D03*
D27*
X90310000Y-156332500D03*
D28*
X91110000Y-158872500D03*
D27*
X90310000Y-158872500D03*
D31*
X91110000Y-161412500D03*
D25*
X90310000Y-161412500D03*
D28*
X91110000Y-163952500D03*
D27*
X90310000Y-163952500D03*
D28*
X91110000Y-166492500D03*
D27*
X90310000Y-166492500D03*
D28*
X91110000Y-169032500D03*
D27*
X90310000Y-169032500D03*
D28*
X91110000Y-171572500D03*
D27*
X90310000Y-171572500D03*
D31*
X91110000Y-174112500D03*
D25*
X90310000Y-174112500D03*
D28*
X91110000Y-176652500D03*
D27*
X90310000Y-176652500D03*
D28*
X91110000Y-179192500D03*
D27*
X90310000Y-179192500D03*
D28*
X91110000Y-181732500D03*
D27*
X90310000Y-181732500D03*
D28*
X91110000Y-184272500D03*
D27*
X90310000Y-184272500D03*
D31*
X91110000Y-186812500D03*
D25*
X90310000Y-186812500D03*
D28*
X91110000Y-189352500D03*
D27*
X90310000Y-189352500D03*
D28*
X91110000Y-191892500D03*
D27*
X90310000Y-191892500D03*
D28*
X91110000Y-194432500D03*
D27*
X90310000Y-194432500D03*
D28*
X91110000Y-196972500D03*
D27*
X90310000Y-196972500D03*
D31*
X91110000Y-199512500D03*
D25*
X90310000Y-199512500D03*
D28*
X91110000Y-202052500D03*
D27*
X90310000Y-202052500D03*
D28*
X91110000Y-204592500D03*
D27*
X90310000Y-204592500D03*
%TD*%
D19*
%TO.C,C14*%
X80000000Y-124037500D03*
X80000000Y-121962500D03*
%TD*%
D10*
%TO.C,R13*%
X146000000Y-150000000D03*
X146000000Y-152000000D03*
%TD*%
%TO.C,R12*%
X141000000Y-131000000D03*
X141000000Y-133000000D03*
%TD*%
D18*
%TO.C,L4*%
X129455599Y-124450001D03*
X129455599Y-125549999D03*
X130544401Y-125549999D03*
X130544401Y-124450001D03*
%TD*%
D15*
%TO.C,SWDup1*%
X135000000Y-67000000D03*
X145000000Y-67000000D03*
D16*
X138225000Y-71810000D03*
X141775000Y-62190000D03*
%TD*%
D15*
%TO.C,U1*%
X86030000Y-99870000D03*
X86030000Y-102410000D03*
X86030000Y-104950000D03*
X86030000Y-107490000D03*
X86030000Y-110030000D03*
X86030000Y-112570000D03*
X86030000Y-115110000D03*
X86030000Y-117650000D03*
X86030000Y-120190000D03*
X86030000Y-122730000D03*
X86030000Y-125270000D03*
X86030000Y-127810000D03*
X86030000Y-130350000D03*
X86030000Y-132890000D03*
X86030000Y-135430000D03*
X86030000Y-137970000D03*
X86030000Y-140510000D03*
X86030000Y-143050000D03*
X86030000Y-145590000D03*
X86030000Y-148130000D03*
X88570000Y-99870000D03*
X88570000Y-102410000D03*
X88570000Y-104950000D03*
X88570000Y-107490000D03*
X88570000Y-110030000D03*
X88570000Y-112570000D03*
X88570000Y-115110000D03*
X88570000Y-117650000D03*
X88570000Y-120190000D03*
X88570000Y-122730000D03*
X88570000Y-125270000D03*
X88570000Y-127810000D03*
X88570000Y-130350000D03*
X88570000Y-132890000D03*
X88570000Y-135430000D03*
X88570000Y-137970000D03*
X88570000Y-140510000D03*
X88570000Y-143050000D03*
X88570000Y-145590000D03*
X88570000Y-148130000D03*
X91110000Y-99870000D03*
X91110000Y-102410000D03*
X91110000Y-104950000D03*
X91110000Y-107490000D03*
X91110000Y-110030000D03*
X91110000Y-112570000D03*
X91110000Y-115110000D03*
X91110000Y-117650000D03*
X91110000Y-120190000D03*
X91110000Y-122730000D03*
X91110000Y-125270000D03*
X91110000Y-127810000D03*
X91110000Y-130350000D03*
X91110000Y-132890000D03*
X91110000Y-135430000D03*
X91110000Y-137970000D03*
X91110000Y-140510000D03*
X91110000Y-143050000D03*
X91110000Y-145590000D03*
X91110000Y-148130000D03*
X93650000Y-99870000D03*
X93650000Y-102410000D03*
X93650000Y-104950000D03*
X93650000Y-107490000D03*
X93650000Y-110030000D03*
X93650000Y-112570000D03*
X93650000Y-115110000D03*
X93650000Y-117650000D03*
X93650000Y-120190000D03*
X93650000Y-122730000D03*
X93650000Y-125270000D03*
X93650000Y-127810000D03*
X93650000Y-130350000D03*
X93650000Y-132890000D03*
X93650000Y-135430000D03*
X93650000Y-137970000D03*
X93650000Y-140510000D03*
X93650000Y-143050000D03*
X93650000Y-145590000D03*
X93650000Y-148130000D03*
X96190000Y-99870000D03*
X96190000Y-102410000D03*
X96190000Y-104950000D03*
X96190000Y-107490000D03*
X96190000Y-110030000D03*
X96190000Y-112570000D03*
X96190000Y-115110000D03*
X96190000Y-117650000D03*
X96190000Y-120190000D03*
X96190000Y-122730000D03*
X96190000Y-125270000D03*
X96190000Y-127810000D03*
X96190000Y-130350000D03*
X96190000Y-132890000D03*
X96190000Y-135430000D03*
X96190000Y-137970000D03*
X96190000Y-140510000D03*
X96190000Y-143050000D03*
X96190000Y-145590000D03*
X96190000Y-148130000D03*
X98730000Y-99870000D03*
X98730000Y-102410000D03*
X98730000Y-104950000D03*
X98730000Y-107490000D03*
X98730000Y-110030000D03*
X98730000Y-112570000D03*
X98730000Y-115110000D03*
X98730000Y-117650000D03*
X98730000Y-120190000D03*
X98730000Y-122730000D03*
X98730000Y-125270000D03*
X98730000Y-127810000D03*
X98730000Y-130350000D03*
X98730000Y-132890000D03*
X98730000Y-135430000D03*
X98730000Y-137970000D03*
X98730000Y-140510000D03*
X98730000Y-143050000D03*
X98730000Y-145590000D03*
X98730000Y-148130000D03*
X101270000Y-99870000D03*
X101270000Y-102410000D03*
X101270000Y-104950000D03*
X101270000Y-107490000D03*
X101270000Y-110030000D03*
X101270000Y-112570000D03*
X101270000Y-115110000D03*
X101270000Y-117650000D03*
X101270000Y-120190000D03*
X101270000Y-122730000D03*
X101270000Y-125270000D03*
X101270000Y-127810000D03*
X101270000Y-130350000D03*
X101270000Y-132890000D03*
X101270000Y-135430000D03*
X101270000Y-137970000D03*
X101270000Y-140510000D03*
X101270000Y-143050000D03*
X101270000Y-145590000D03*
X101270000Y-148130000D03*
X103810000Y-99870000D03*
X103810000Y-102410000D03*
X103810000Y-104950000D03*
X103810000Y-107490000D03*
X103810000Y-110030000D03*
X103810000Y-112570000D03*
X103810000Y-115110000D03*
X103810000Y-117650000D03*
X103810000Y-120190000D03*
X103810000Y-122730000D03*
X103810000Y-125270000D03*
X103810000Y-127810000D03*
X103810000Y-130350000D03*
X103810000Y-132890000D03*
X103810000Y-135430000D03*
X103810000Y-137970000D03*
X103810000Y-140510000D03*
X103810000Y-143050000D03*
X103810000Y-145590000D03*
X103810000Y-148130000D03*
X106350000Y-99870000D03*
X106350000Y-102410000D03*
X106350000Y-104950000D03*
X106350000Y-107490000D03*
X106350000Y-110030000D03*
X106350000Y-112570000D03*
X106350000Y-115110000D03*
X106350000Y-117650000D03*
X106350000Y-120190000D03*
X106350000Y-122730000D03*
X106350000Y-125270000D03*
X106350000Y-127810000D03*
X106350000Y-130350000D03*
X106350000Y-132890000D03*
X106350000Y-135430000D03*
X106350000Y-137970000D03*
X106350000Y-140510000D03*
X106350000Y-143050000D03*
X106350000Y-145590000D03*
X106350000Y-148130000D03*
X108890000Y-99870000D03*
X108890000Y-102410000D03*
X108890000Y-104950000D03*
X108890000Y-107490000D03*
X108890000Y-110030000D03*
X108890000Y-112570000D03*
X108890000Y-115110000D03*
X108890000Y-117650000D03*
X108890000Y-120190000D03*
X108890000Y-122730000D03*
X108890000Y-125270000D03*
X108890000Y-127810000D03*
X108890000Y-130350000D03*
X108890000Y-132890000D03*
X108890000Y-135430000D03*
X108890000Y-137970000D03*
X108890000Y-140510000D03*
X108890000Y-143050000D03*
X108890000Y-145590000D03*
X108890000Y-148130000D03*
X111430000Y-99870000D03*
X111430000Y-102410000D03*
X111430000Y-104950000D03*
X111430000Y-107490000D03*
X111430000Y-110030000D03*
X111430000Y-112570000D03*
X111430000Y-115110000D03*
X111430000Y-117650000D03*
X111430000Y-120190000D03*
X111430000Y-122730000D03*
X111430000Y-125270000D03*
X111430000Y-127810000D03*
X111430000Y-130350000D03*
X111430000Y-132890000D03*
X111430000Y-135430000D03*
X111430000Y-137970000D03*
X111430000Y-140510000D03*
X111430000Y-143050000D03*
X111430000Y-145590000D03*
X111430000Y-148130000D03*
X113970000Y-99870000D03*
X113970000Y-102410000D03*
X113970000Y-104950000D03*
X113970000Y-107490000D03*
X113970000Y-110030000D03*
X113970000Y-112570000D03*
X113970000Y-115110000D03*
X113970000Y-117650000D03*
X113970000Y-120190000D03*
X113970000Y-122730000D03*
X113970000Y-125270000D03*
X113970000Y-127810000D03*
X113970000Y-130350000D03*
X113970000Y-132890000D03*
X113970000Y-135430000D03*
X113970000Y-137970000D03*
X113970000Y-140510000D03*
X113970000Y-143050000D03*
X113970000Y-145590000D03*
X113970000Y-148130000D03*
%TD*%
%TO.C,SWA1*%
X135000000Y-106000000D03*
X125000000Y-106000000D03*
D16*
X131775000Y-101190000D03*
X128225000Y-110810000D03*
%TD*%
D20*
%TO.C,M3*%
X85000000Y-71000000D03*
%TD*%
%TO.C,M5*%
X60000000Y-180000000D03*
%TD*%
D11*
%TO.C,R4*%
X59000000Y-119000000D03*
X59000000Y-117000000D03*
%TD*%
D15*
%TO.C,SWGs1*%
X140000000Y-144000000D03*
X130000000Y-144000000D03*
D16*
X136775000Y-139190000D03*
X133225000Y-148810000D03*
%TD*%
D10*
%TO.C,R10*%
X146000000Y-93000000D03*
X146000000Y-95000000D03*
%TD*%
D32*
%TO.C,U3*%
X92120000Y-76390000D03*
D33*
X92120000Y-78930000D03*
X92120000Y-81470000D03*
X92120000Y-84010000D03*
X108880000Y-84010000D03*
X108880000Y-81470000D03*
X108880000Y-78930000D03*
X108880000Y-76390000D03*
%TD*%
D20*
%TO.C,M2*%
X110000000Y-58000000D03*
%TD*%
D34*
%TO.C,C4*%
X126962500Y-68000000D03*
X129037500Y-68000000D03*
%TD*%
D10*
%TO.C,R14*%
X146000000Y-169000000D03*
X146000000Y-171000000D03*
%TD*%
D17*
%TO.C,C9*%
X124000000Y-163962500D03*
X124000000Y-166037500D03*
%TD*%
D10*
%TO.C,R11*%
X141000000Y-112000000D03*
X141000000Y-114000000D03*
%TD*%
D35*
%TO.C,R8*%
X73000000Y-73000000D03*
X71000000Y-73000000D03*
%TD*%
D36*
%TO.C,L13*%
X59450001Y-67544401D03*
X60549999Y-67544401D03*
X60549999Y-66455599D03*
X59450001Y-66455599D03*
%TD*%
D15*
%TO.C,SWCTRL1*%
X65000000Y-195000000D03*
X75000000Y-195000000D03*
D16*
X68225000Y-199810000D03*
X71775000Y-190190000D03*
%TD*%
D18*
%TO.C,L9*%
X65544401Y-144549999D03*
X65544401Y-143450001D03*
X64455599Y-143450001D03*
X64455599Y-144549999D03*
%TD*%
D15*
%TO.C,SWF1*%
X60000000Y-87000000D03*
X70000000Y-87000000D03*
D16*
X63225000Y-91810000D03*
X66775000Y-82190000D03*
%TD*%
D15*
%TO.C,SWSPR1*%
X140000000Y-163000000D03*
X130000000Y-163000000D03*
D16*
X136775000Y-158190000D03*
X133225000Y-167810000D03*
%TD*%
D20*
%TO.C,M6*%
X144000000Y-183000000D03*
%TD*%
D15*
%TO.C,SWC1*%
X60000000Y-163000000D03*
X70000000Y-163000000D03*
D16*
X63225000Y-167810000D03*
X66775000Y-158190000D03*
%TD*%
D37*
%TO.C,J4*%
X84400000Y-156382500D03*
X84400000Y-158922500D03*
X84400000Y-161462500D03*
X84400000Y-164002500D03*
X84400000Y-166542500D03*
X84400000Y-169082500D03*
X84400000Y-171622500D03*
X84400000Y-174162500D03*
X84400000Y-176702500D03*
X84400000Y-179242500D03*
X84400000Y-181782500D03*
X84400000Y-184322500D03*
X84400000Y-186862500D03*
X84400000Y-189402500D03*
X84400000Y-191942500D03*
X84400000Y-194482500D03*
X84400000Y-197022500D03*
X84400000Y-199562500D03*
X84400000Y-202102500D03*
X84400000Y-204642500D03*
%TD*%
D14*
%TO.C,C16*%
X73037500Y-75000000D03*
X70962500Y-75000000D03*
%TD*%
D15*
%TO.C,SWB1*%
X140000000Y-87000000D03*
X130000000Y-87000000D03*
D16*
X136775000Y-82190000D03*
X133225000Y-91810000D03*
%TD*%
D10*
%TO.C,R18*%
X128000000Y-178000000D03*
X128000000Y-180000000D03*
%TD*%
D18*
%TO.C,L1*%
X139455599Y-66450001D03*
X139455599Y-67549999D03*
X140544401Y-67549999D03*
X140544401Y-66450001D03*
%TD*%
D19*
%TO.C,C12*%
X76000000Y-162037500D03*
X76000000Y-159962500D03*
%TD*%
D12*
%TO.C,R16*%
X147000000Y-205810000D03*
D13*
X147000000Y-198190000D03*
%TD*%
D38*
%TO.C,J2*%
X130000000Y-205000000D03*
X140000000Y-205000000D03*
D39*
X142500000Y-195000000D03*
X135000000Y-195000000D03*
X127500000Y-195000000D03*
X140000000Y-192500000D03*
X130000000Y-192500000D03*
%TD*%
D18*
%TO.C,L5*%
X134455599Y-143450001D03*
X134455599Y-144549999D03*
X135544401Y-144549999D03*
X135544401Y-143450001D03*
%TD*%
%TO.C,L10*%
X70544401Y-125549999D03*
X70544401Y-124450001D03*
X69455599Y-124450001D03*
X69455599Y-125549999D03*
%TD*%
D14*
%TO.C,C3*%
X91037500Y-87000000D03*
X88962500Y-87000000D03*
%TD*%
D19*
%TO.C,C15*%
X81000000Y-105037500D03*
X81000000Y-102962500D03*
%TD*%
D40*
%TO.C,R15*%
X127000000Y-74000000D03*
X129000000Y-74000000D03*
%TD*%
D15*
%TO.C,SWEb1*%
X60000000Y-144000000D03*
X70000000Y-144000000D03*
D16*
X63225000Y-148810000D03*
X66775000Y-139190000D03*
%TD*%
D15*
%TO.C,SWG1*%
X135000000Y-125000000D03*
X125000000Y-125000000D03*
D16*
X131775000Y-120190000D03*
X128225000Y-129810000D03*
%TD*%
D20*
%TO.C,M1*%
X90000000Y-58000000D03*
%TD*%
D18*
%TO.C,L8*%
X65544401Y-163549999D03*
X65544401Y-162450001D03*
X64455599Y-162450001D03*
X64455599Y-163549999D03*
%TD*%
D15*
%TO.C,SWBb1*%
X55000000Y-67000000D03*
X65000000Y-67000000D03*
D16*
X58225000Y-71810000D03*
X61775000Y-62190000D03*
%TD*%
D37*
%TO.C,J1*%
X115100000Y-204542500D03*
X115100000Y-202002500D03*
X115100000Y-199462500D03*
X115100000Y-196922500D03*
X115100000Y-194382500D03*
X115100000Y-191842500D03*
X115100000Y-189302500D03*
X115100000Y-186762500D03*
X115100000Y-184222500D03*
X115100000Y-181682500D03*
X115100000Y-179142500D03*
X115100000Y-176602500D03*
X115100000Y-174062500D03*
X115100000Y-171522500D03*
X115100000Y-168982500D03*
X115100000Y-166442500D03*
X115100000Y-163902500D03*
X115100000Y-161362500D03*
X115100000Y-158822500D03*
X115100000Y-156282500D03*
%TD*%
D40*
%TO.C,R19*%
X131000000Y-178000000D03*
X133000000Y-178000000D03*
%TD*%
D15*
%TO.C,SWD1*%
X65000000Y-125000000D03*
X75000000Y-125000000D03*
D16*
X68225000Y-129810000D03*
X71775000Y-120190000D03*
%TD*%
D18*
%TO.C,L11*%
X70544401Y-106549999D03*
X70544401Y-105450001D03*
X69455599Y-105450001D03*
X69455599Y-106549999D03*
%TD*%
D17*
%TO.C,C11*%
X80000000Y-193962500D03*
X80000000Y-196037500D03*
%TD*%
D34*
%TO.C,C5*%
X126962500Y-76000000D03*
X129037500Y-76000000D03*
%TD*%
D14*
%TO.C,C17*%
X73037500Y-69000000D03*
X70962500Y-69000000D03*
%TD*%
D10*
%TO.C,R1*%
X71000000Y-60000000D03*
X71000000Y-62000000D03*
%TD*%
D19*
%TO.C,C1*%
X86000000Y-81037500D03*
X86000000Y-78962500D03*
%TD*%
D15*
%TO.C,SW8va1*%
X117000000Y-87000000D03*
X127000000Y-87000000D03*
D16*
X120225000Y-82190000D03*
X123775000Y-91810000D03*
%TD*%
D41*
%TO.C,J3*%
X62000000Y-207000000D03*
D42*
X64540000Y-207000000D03*
%TD*%
D15*
%TO.C,SW8vb1*%
X83000000Y-87000000D03*
X73000000Y-87000000D03*
D16*
X79775000Y-91810000D03*
X76225000Y-82190000D03*
%TD*%
D43*
%TO.C,D1*%
X79710000Y-207000000D03*
D44*
X69550000Y-207000000D03*
%TD*%
M02*
