%TF.GenerationSoftware,KiCad,Pcbnew,9.0.0*%
%TF.CreationDate,2025-03-20T00:15:00+10:00*%
%TF.ProjectId,PicoSax,5069636f-5361-4782-9e6b-696361645f70,rev?*%
%TF.SameCoordinates,Original*%
%TF.FileFunction,Drillmap*%
%TF.FilePolarity,Positive*%
%FSLAX45Y45*%
G04 Gerber Fmt 4.5, Leading zero omitted, Abs format (unit mm)*
G04 Created by KiCad (PCBNEW 9.0.0) date 2025-03-20 00:15:00*
%MOMM*%
%LPD*%
G01*
G04 APERTURE LIST*
%ADD10C,0.050000*%
%ADD11C,0.200000*%
%ADD12C,0.185000*%
%ADD13C,0.220000*%
%ADD14C,0.320000*%
G04 APERTURE END LIST*
D10*
X5000000Y-5000000D02*
X15000000Y-5000000D01*
X15000000Y-21000000D01*
X5000000Y-21000000D01*
X5000000Y-5000000D01*
D11*
D12*
X9665000Y-20050750D02*
X9850000Y-20235750D01*
X9850000Y-20050750D02*
X9665000Y-20235750D01*
X10150000Y-20050750D02*
X10335000Y-20235750D01*
X10335000Y-20050750D02*
X10150000Y-20235750D01*
D13*
X9837500Y-20446250D02*
G75*
G02*
X9617500Y-20446250I-110000J0D01*
G01*
X9617500Y-20446250D02*
G75*
G02*
X9837500Y-20446250I110000J0D01*
G01*
X10382500Y-20446250D02*
G75*
G02*
X10162500Y-20446250I-110000J0D01*
G01*
X10162500Y-20446250D02*
G75*
G02*
X10382500Y-20446250I110000J0D01*
G01*
D14*
X6000000Y-17840000D02*
X6000000Y-18160000D01*
X5840000Y-18000000D02*
X6160000Y-18000000D01*
X8500000Y-6940000D02*
X8500000Y-7260000D01*
X8340000Y-7100000D02*
X8660000Y-7100000D01*
X9000000Y-5640000D02*
X9000000Y-5960000D01*
X8840000Y-5800000D02*
X9160000Y-5800000D01*
X11000000Y-5640000D02*
X11000000Y-5960000D01*
X10840000Y-5800000D02*
X11160000Y-5800000D01*
X11500000Y-6940000D02*
X11500000Y-7260000D01*
X11340000Y-7100000D02*
X11660000Y-7100000D01*
X14400000Y-18140000D02*
X14400000Y-18460000D01*
X14240000Y-18300000D02*
X14560000Y-18300000D01*
D11*
X5258277Y-21313984D02*
X5258277Y-21113984D01*
X5258277Y-21113984D02*
X5305896Y-21113984D01*
X5305896Y-21113984D02*
X5334467Y-21123508D01*
X5334467Y-21123508D02*
X5353515Y-21142555D01*
X5353515Y-21142555D02*
X5363039Y-21161603D01*
X5363039Y-21161603D02*
X5372563Y-21199698D01*
X5372563Y-21199698D02*
X5372563Y-21228270D01*
X5372563Y-21228270D02*
X5363039Y-21266365D01*
X5363039Y-21266365D02*
X5353515Y-21285412D01*
X5353515Y-21285412D02*
X5334467Y-21304460D01*
X5334467Y-21304460D02*
X5305896Y-21313984D01*
X5305896Y-21313984D02*
X5258277Y-21313984D01*
X5458277Y-21313984D02*
X5458277Y-21180650D01*
X5458277Y-21218746D02*
X5467801Y-21199698D01*
X5467801Y-21199698D02*
X5477324Y-21190174D01*
X5477324Y-21190174D02*
X5496372Y-21180650D01*
X5496372Y-21180650D02*
X5515420Y-21180650D01*
X5582086Y-21313984D02*
X5582086Y-21180650D01*
X5582086Y-21113984D02*
X5572563Y-21123508D01*
X5572563Y-21123508D02*
X5582086Y-21133031D01*
X5582086Y-21133031D02*
X5591610Y-21123508D01*
X5591610Y-21123508D02*
X5582086Y-21113984D01*
X5582086Y-21113984D02*
X5582086Y-21133031D01*
X5705896Y-21313984D02*
X5686848Y-21304460D01*
X5686848Y-21304460D02*
X5677324Y-21285412D01*
X5677324Y-21285412D02*
X5677324Y-21113984D01*
X5810658Y-21313984D02*
X5791610Y-21304460D01*
X5791610Y-21304460D02*
X5782086Y-21285412D01*
X5782086Y-21285412D02*
X5782086Y-21113984D01*
X6039229Y-21313984D02*
X6039229Y-21113984D01*
X6039229Y-21113984D02*
X6105896Y-21256841D01*
X6105896Y-21256841D02*
X6172562Y-21113984D01*
X6172562Y-21113984D02*
X6172562Y-21313984D01*
X6353515Y-21313984D02*
X6353515Y-21209222D01*
X6353515Y-21209222D02*
X6343991Y-21190174D01*
X6343991Y-21190174D02*
X6324943Y-21180650D01*
X6324943Y-21180650D02*
X6286848Y-21180650D01*
X6286848Y-21180650D02*
X6267801Y-21190174D01*
X6353515Y-21304460D02*
X6334467Y-21313984D01*
X6334467Y-21313984D02*
X6286848Y-21313984D01*
X6286848Y-21313984D02*
X6267801Y-21304460D01*
X6267801Y-21304460D02*
X6258277Y-21285412D01*
X6258277Y-21285412D02*
X6258277Y-21266365D01*
X6258277Y-21266365D02*
X6267801Y-21247317D01*
X6267801Y-21247317D02*
X6286848Y-21237793D01*
X6286848Y-21237793D02*
X6334467Y-21237793D01*
X6334467Y-21237793D02*
X6353515Y-21228270D01*
X6448753Y-21180650D02*
X6448753Y-21380650D01*
X6448753Y-21190174D02*
X6467801Y-21180650D01*
X6467801Y-21180650D02*
X6505896Y-21180650D01*
X6505896Y-21180650D02*
X6524943Y-21190174D01*
X6524943Y-21190174D02*
X6534467Y-21199698D01*
X6534467Y-21199698D02*
X6543991Y-21218746D01*
X6543991Y-21218746D02*
X6543991Y-21275889D01*
X6543991Y-21275889D02*
X6534467Y-21294936D01*
X6534467Y-21294936D02*
X6524943Y-21304460D01*
X6524943Y-21304460D02*
X6505896Y-21313984D01*
X6505896Y-21313984D02*
X6467801Y-21313984D01*
X6467801Y-21313984D02*
X6448753Y-21304460D01*
X6629705Y-21294936D02*
X6639229Y-21304460D01*
X6639229Y-21304460D02*
X6629705Y-21313984D01*
X6629705Y-21313984D02*
X6620182Y-21304460D01*
X6620182Y-21304460D02*
X6629705Y-21294936D01*
X6629705Y-21294936D02*
X6629705Y-21313984D01*
X6629705Y-21190174D02*
X6639229Y-21199698D01*
X6639229Y-21199698D02*
X6629705Y-21209222D01*
X6629705Y-21209222D02*
X6620182Y-21199698D01*
X6620182Y-21199698D02*
X6629705Y-21190174D01*
X6629705Y-21190174D02*
X6629705Y-21209222D01*
D12*
X4812500Y-21550000D02*
X4997500Y-21735000D01*
X4997500Y-21550000D02*
X4812500Y-21735000D01*
D11*
X5363039Y-21733984D02*
X5248753Y-21733984D01*
X5305896Y-21733984D02*
X5305896Y-21533984D01*
X5305896Y-21533984D02*
X5286848Y-21562555D01*
X5286848Y-21562555D02*
X5267801Y-21581603D01*
X5267801Y-21581603D02*
X5248753Y-21591127D01*
X5448753Y-21714936D02*
X5458277Y-21724460D01*
X5458277Y-21724460D02*
X5448753Y-21733984D01*
X5448753Y-21733984D02*
X5439229Y-21724460D01*
X5439229Y-21724460D02*
X5448753Y-21714936D01*
X5448753Y-21714936D02*
X5448753Y-21733984D01*
X5572563Y-21619698D02*
X5553515Y-21610174D01*
X5553515Y-21610174D02*
X5543991Y-21600650D01*
X5543991Y-21600650D02*
X5534467Y-21581603D01*
X5534467Y-21581603D02*
X5534467Y-21572079D01*
X5534467Y-21572079D02*
X5543991Y-21553031D01*
X5543991Y-21553031D02*
X5553515Y-21543508D01*
X5553515Y-21543508D02*
X5572563Y-21533984D01*
X5572563Y-21533984D02*
X5610658Y-21533984D01*
X5610658Y-21533984D02*
X5629705Y-21543508D01*
X5629705Y-21543508D02*
X5639229Y-21553031D01*
X5639229Y-21553031D02*
X5648753Y-21572079D01*
X5648753Y-21572079D02*
X5648753Y-21581603D01*
X5648753Y-21581603D02*
X5639229Y-21600650D01*
X5639229Y-21600650D02*
X5629705Y-21610174D01*
X5629705Y-21610174D02*
X5610658Y-21619698D01*
X5610658Y-21619698D02*
X5572563Y-21619698D01*
X5572563Y-21619698D02*
X5553515Y-21629222D01*
X5553515Y-21629222D02*
X5543991Y-21638746D01*
X5543991Y-21638746D02*
X5534467Y-21657793D01*
X5534467Y-21657793D02*
X5534467Y-21695889D01*
X5534467Y-21695889D02*
X5543991Y-21714936D01*
X5543991Y-21714936D02*
X5553515Y-21724460D01*
X5553515Y-21724460D02*
X5572563Y-21733984D01*
X5572563Y-21733984D02*
X5610658Y-21733984D01*
X5610658Y-21733984D02*
X5629705Y-21724460D01*
X5629705Y-21724460D02*
X5639229Y-21714936D01*
X5639229Y-21714936D02*
X5648753Y-21695889D01*
X5648753Y-21695889D02*
X5648753Y-21657793D01*
X5648753Y-21657793D02*
X5639229Y-21638746D01*
X5639229Y-21638746D02*
X5629705Y-21629222D01*
X5629705Y-21629222D02*
X5610658Y-21619698D01*
X5829705Y-21533984D02*
X5734467Y-21533984D01*
X5734467Y-21533984D02*
X5724943Y-21629222D01*
X5724943Y-21629222D02*
X5734467Y-21619698D01*
X5734467Y-21619698D02*
X5753515Y-21610174D01*
X5753515Y-21610174D02*
X5801134Y-21610174D01*
X5801134Y-21610174D02*
X5820182Y-21619698D01*
X5820182Y-21619698D02*
X5829705Y-21629222D01*
X5829705Y-21629222D02*
X5839229Y-21648270D01*
X5839229Y-21648270D02*
X5839229Y-21695889D01*
X5839229Y-21695889D02*
X5829705Y-21714936D01*
X5829705Y-21714936D02*
X5820182Y-21724460D01*
X5820182Y-21724460D02*
X5801134Y-21733984D01*
X5801134Y-21733984D02*
X5753515Y-21733984D01*
X5753515Y-21733984D02*
X5734467Y-21724460D01*
X5734467Y-21724460D02*
X5724943Y-21714936D01*
X5963039Y-21533984D02*
X5982086Y-21533984D01*
X5982086Y-21533984D02*
X6001134Y-21543508D01*
X6001134Y-21543508D02*
X6010658Y-21553031D01*
X6010658Y-21553031D02*
X6020182Y-21572079D01*
X6020182Y-21572079D02*
X6029705Y-21610174D01*
X6029705Y-21610174D02*
X6029705Y-21657793D01*
X6029705Y-21657793D02*
X6020182Y-21695889D01*
X6020182Y-21695889D02*
X6010658Y-21714936D01*
X6010658Y-21714936D02*
X6001134Y-21724460D01*
X6001134Y-21724460D02*
X5982086Y-21733984D01*
X5982086Y-21733984D02*
X5963039Y-21733984D01*
X5963039Y-21733984D02*
X5943991Y-21724460D01*
X5943991Y-21724460D02*
X5934467Y-21714936D01*
X5934467Y-21714936D02*
X5924943Y-21695889D01*
X5924943Y-21695889D02*
X5915420Y-21657793D01*
X5915420Y-21657793D02*
X5915420Y-21610174D01*
X5915420Y-21610174D02*
X5924943Y-21572079D01*
X5924943Y-21572079D02*
X5934467Y-21553031D01*
X5934467Y-21553031D02*
X5943991Y-21543508D01*
X5943991Y-21543508D02*
X5963039Y-21533984D01*
X6115420Y-21733984D02*
X6115420Y-21600650D01*
X6115420Y-21619698D02*
X6124943Y-21610174D01*
X6124943Y-21610174D02*
X6143991Y-21600650D01*
X6143991Y-21600650D02*
X6172563Y-21600650D01*
X6172563Y-21600650D02*
X6191610Y-21610174D01*
X6191610Y-21610174D02*
X6201134Y-21629222D01*
X6201134Y-21629222D02*
X6201134Y-21733984D01*
X6201134Y-21629222D02*
X6210658Y-21610174D01*
X6210658Y-21610174D02*
X6229705Y-21600650D01*
X6229705Y-21600650D02*
X6258277Y-21600650D01*
X6258277Y-21600650D02*
X6277324Y-21610174D01*
X6277324Y-21610174D02*
X6286848Y-21629222D01*
X6286848Y-21629222D02*
X6286848Y-21733984D01*
X6382086Y-21733984D02*
X6382086Y-21600650D01*
X6382086Y-21619698D02*
X6391610Y-21610174D01*
X6391610Y-21610174D02*
X6410658Y-21600650D01*
X6410658Y-21600650D02*
X6439229Y-21600650D01*
X6439229Y-21600650D02*
X6458277Y-21610174D01*
X6458277Y-21610174D02*
X6467801Y-21629222D01*
X6467801Y-21629222D02*
X6467801Y-21733984D01*
X6467801Y-21629222D02*
X6477324Y-21610174D01*
X6477324Y-21610174D02*
X6496372Y-21600650D01*
X6496372Y-21600650D02*
X6524943Y-21600650D01*
X6524943Y-21600650D02*
X6543991Y-21610174D01*
X6543991Y-21610174D02*
X6553515Y-21629222D01*
X6553515Y-21629222D02*
X6553515Y-21733984D01*
X6943991Y-21524460D02*
X6772563Y-21781603D01*
X7201134Y-21533984D02*
X7220182Y-21533984D01*
X7220182Y-21533984D02*
X7239229Y-21543508D01*
X7239229Y-21543508D02*
X7248753Y-21553031D01*
X7248753Y-21553031D02*
X7258277Y-21572079D01*
X7258277Y-21572079D02*
X7267801Y-21610174D01*
X7267801Y-21610174D02*
X7267801Y-21657793D01*
X7267801Y-21657793D02*
X7258277Y-21695889D01*
X7258277Y-21695889D02*
X7248753Y-21714936D01*
X7248753Y-21714936D02*
X7239229Y-21724460D01*
X7239229Y-21724460D02*
X7220182Y-21733984D01*
X7220182Y-21733984D02*
X7201134Y-21733984D01*
X7201134Y-21733984D02*
X7182086Y-21724460D01*
X7182086Y-21724460D02*
X7172563Y-21714936D01*
X7172563Y-21714936D02*
X7163039Y-21695889D01*
X7163039Y-21695889D02*
X7153515Y-21657793D01*
X7153515Y-21657793D02*
X7153515Y-21610174D01*
X7153515Y-21610174D02*
X7163039Y-21572079D01*
X7163039Y-21572079D02*
X7172563Y-21553031D01*
X7172563Y-21553031D02*
X7182086Y-21543508D01*
X7182086Y-21543508D02*
X7201134Y-21533984D01*
X7353515Y-21714936D02*
X7363039Y-21724460D01*
X7363039Y-21724460D02*
X7353515Y-21733984D01*
X7353515Y-21733984D02*
X7343991Y-21724460D01*
X7343991Y-21724460D02*
X7353515Y-21714936D01*
X7353515Y-21714936D02*
X7353515Y-21733984D01*
X7486848Y-21533984D02*
X7505896Y-21533984D01*
X7505896Y-21533984D02*
X7524944Y-21543508D01*
X7524944Y-21543508D02*
X7534467Y-21553031D01*
X7534467Y-21553031D02*
X7543991Y-21572079D01*
X7543991Y-21572079D02*
X7553515Y-21610174D01*
X7553515Y-21610174D02*
X7553515Y-21657793D01*
X7553515Y-21657793D02*
X7543991Y-21695889D01*
X7543991Y-21695889D02*
X7534467Y-21714936D01*
X7534467Y-21714936D02*
X7524944Y-21724460D01*
X7524944Y-21724460D02*
X7505896Y-21733984D01*
X7505896Y-21733984D02*
X7486848Y-21733984D01*
X7486848Y-21733984D02*
X7467801Y-21724460D01*
X7467801Y-21724460D02*
X7458277Y-21714936D01*
X7458277Y-21714936D02*
X7448753Y-21695889D01*
X7448753Y-21695889D02*
X7439229Y-21657793D01*
X7439229Y-21657793D02*
X7439229Y-21610174D01*
X7439229Y-21610174D02*
X7448753Y-21572079D01*
X7448753Y-21572079D02*
X7458277Y-21553031D01*
X7458277Y-21553031D02*
X7467801Y-21543508D01*
X7467801Y-21543508D02*
X7486848Y-21533984D01*
X7620182Y-21533984D02*
X7753515Y-21533984D01*
X7753515Y-21533984D02*
X7667801Y-21733984D01*
X7820182Y-21553031D02*
X7829706Y-21543508D01*
X7829706Y-21543508D02*
X7848753Y-21533984D01*
X7848753Y-21533984D02*
X7896372Y-21533984D01*
X7896372Y-21533984D02*
X7915420Y-21543508D01*
X7915420Y-21543508D02*
X7924944Y-21553031D01*
X7924944Y-21553031D02*
X7934467Y-21572079D01*
X7934467Y-21572079D02*
X7934467Y-21591127D01*
X7934467Y-21591127D02*
X7924944Y-21619698D01*
X7924944Y-21619698D02*
X7810658Y-21733984D01*
X7810658Y-21733984D02*
X7934467Y-21733984D01*
X8048753Y-21619698D02*
X8029706Y-21610174D01*
X8029706Y-21610174D02*
X8020182Y-21600650D01*
X8020182Y-21600650D02*
X8010658Y-21581603D01*
X8010658Y-21581603D02*
X8010658Y-21572079D01*
X8010658Y-21572079D02*
X8020182Y-21553031D01*
X8020182Y-21553031D02*
X8029706Y-21543508D01*
X8029706Y-21543508D02*
X8048753Y-21533984D01*
X8048753Y-21533984D02*
X8086848Y-21533984D01*
X8086848Y-21533984D02*
X8105896Y-21543508D01*
X8105896Y-21543508D02*
X8115420Y-21553031D01*
X8115420Y-21553031D02*
X8124944Y-21572079D01*
X8124944Y-21572079D02*
X8124944Y-21581603D01*
X8124944Y-21581603D02*
X8115420Y-21600650D01*
X8115420Y-21600650D02*
X8105896Y-21610174D01*
X8105896Y-21610174D02*
X8086848Y-21619698D01*
X8086848Y-21619698D02*
X8048753Y-21619698D01*
X8048753Y-21619698D02*
X8029706Y-21629222D01*
X8029706Y-21629222D02*
X8020182Y-21638746D01*
X8020182Y-21638746D02*
X8010658Y-21657793D01*
X8010658Y-21657793D02*
X8010658Y-21695889D01*
X8010658Y-21695889D02*
X8020182Y-21714936D01*
X8020182Y-21714936D02*
X8029706Y-21724460D01*
X8029706Y-21724460D02*
X8048753Y-21733984D01*
X8048753Y-21733984D02*
X8086848Y-21733984D01*
X8086848Y-21733984D02*
X8105896Y-21724460D01*
X8105896Y-21724460D02*
X8115420Y-21714936D01*
X8115420Y-21714936D02*
X8124944Y-21695889D01*
X8124944Y-21695889D02*
X8124944Y-21657793D01*
X8124944Y-21657793D02*
X8115420Y-21638746D01*
X8115420Y-21638746D02*
X8105896Y-21629222D01*
X8105896Y-21629222D02*
X8086848Y-21619698D01*
X8201134Y-21533984D02*
X8201134Y-21572079D01*
X8277325Y-21533984D02*
X8277325Y-21572079D01*
X8572563Y-21810174D02*
X8563039Y-21800650D01*
X8563039Y-21800650D02*
X8543991Y-21772079D01*
X8543991Y-21772079D02*
X8534468Y-21753031D01*
X8534468Y-21753031D02*
X8524944Y-21724460D01*
X8524944Y-21724460D02*
X8515420Y-21676841D01*
X8515420Y-21676841D02*
X8515420Y-21638746D01*
X8515420Y-21638746D02*
X8524944Y-21591127D01*
X8524944Y-21591127D02*
X8534468Y-21562555D01*
X8534468Y-21562555D02*
X8543991Y-21543508D01*
X8543991Y-21543508D02*
X8563039Y-21514936D01*
X8563039Y-21514936D02*
X8572563Y-21505412D01*
X8639230Y-21553031D02*
X8648753Y-21543508D01*
X8648753Y-21543508D02*
X8667801Y-21533984D01*
X8667801Y-21533984D02*
X8715420Y-21533984D01*
X8715420Y-21533984D02*
X8734468Y-21543508D01*
X8734468Y-21543508D02*
X8743991Y-21553031D01*
X8743991Y-21553031D02*
X8753515Y-21572079D01*
X8753515Y-21572079D02*
X8753515Y-21591127D01*
X8753515Y-21591127D02*
X8743991Y-21619698D01*
X8743991Y-21619698D02*
X8629706Y-21733984D01*
X8629706Y-21733984D02*
X8753515Y-21733984D01*
X8991611Y-21733984D02*
X8991611Y-21533984D01*
X9077325Y-21733984D02*
X9077325Y-21629222D01*
X9077325Y-21629222D02*
X9067801Y-21610174D01*
X9067801Y-21610174D02*
X9048753Y-21600650D01*
X9048753Y-21600650D02*
X9020182Y-21600650D01*
X9020182Y-21600650D02*
X9001134Y-21610174D01*
X9001134Y-21610174D02*
X8991611Y-21619698D01*
X9201134Y-21733984D02*
X9182087Y-21724460D01*
X9182087Y-21724460D02*
X9172563Y-21714936D01*
X9172563Y-21714936D02*
X9163039Y-21695889D01*
X9163039Y-21695889D02*
X9163039Y-21638746D01*
X9163039Y-21638746D02*
X9172563Y-21619698D01*
X9172563Y-21619698D02*
X9182087Y-21610174D01*
X9182087Y-21610174D02*
X9201134Y-21600650D01*
X9201134Y-21600650D02*
X9229706Y-21600650D01*
X9229706Y-21600650D02*
X9248753Y-21610174D01*
X9248753Y-21610174D02*
X9258277Y-21619698D01*
X9258277Y-21619698D02*
X9267801Y-21638746D01*
X9267801Y-21638746D02*
X9267801Y-21695889D01*
X9267801Y-21695889D02*
X9258277Y-21714936D01*
X9258277Y-21714936D02*
X9248753Y-21724460D01*
X9248753Y-21724460D02*
X9229706Y-21733984D01*
X9229706Y-21733984D02*
X9201134Y-21733984D01*
X9382087Y-21733984D02*
X9363039Y-21724460D01*
X9363039Y-21724460D02*
X9353515Y-21705412D01*
X9353515Y-21705412D02*
X9353515Y-21533984D01*
X9534468Y-21724460D02*
X9515420Y-21733984D01*
X9515420Y-21733984D02*
X9477325Y-21733984D01*
X9477325Y-21733984D02*
X9458277Y-21724460D01*
X9458277Y-21724460D02*
X9448753Y-21705412D01*
X9448753Y-21705412D02*
X9448753Y-21629222D01*
X9448753Y-21629222D02*
X9458277Y-21610174D01*
X9458277Y-21610174D02*
X9477325Y-21600650D01*
X9477325Y-21600650D02*
X9515420Y-21600650D01*
X9515420Y-21600650D02*
X9534468Y-21610174D01*
X9534468Y-21610174D02*
X9543992Y-21629222D01*
X9543992Y-21629222D02*
X9543992Y-21648270D01*
X9543992Y-21648270D02*
X9448753Y-21667317D01*
X9620182Y-21724460D02*
X9639230Y-21733984D01*
X9639230Y-21733984D02*
X9677325Y-21733984D01*
X9677325Y-21733984D02*
X9696373Y-21724460D01*
X9696373Y-21724460D02*
X9705896Y-21705412D01*
X9705896Y-21705412D02*
X9705896Y-21695889D01*
X9705896Y-21695889D02*
X9696373Y-21676841D01*
X9696373Y-21676841D02*
X9677325Y-21667317D01*
X9677325Y-21667317D02*
X9648753Y-21667317D01*
X9648753Y-21667317D02*
X9629706Y-21657793D01*
X9629706Y-21657793D02*
X9620182Y-21638746D01*
X9620182Y-21638746D02*
X9620182Y-21629222D01*
X9620182Y-21629222D02*
X9629706Y-21610174D01*
X9629706Y-21610174D02*
X9648753Y-21600650D01*
X9648753Y-21600650D02*
X9677325Y-21600650D01*
X9677325Y-21600650D02*
X9696373Y-21610174D01*
X9772563Y-21810174D02*
X9782087Y-21800650D01*
X9782087Y-21800650D02*
X9801134Y-21772079D01*
X9801134Y-21772079D02*
X9810658Y-21753031D01*
X9810658Y-21753031D02*
X9820182Y-21724460D01*
X9820182Y-21724460D02*
X9829706Y-21676841D01*
X9829706Y-21676841D02*
X9829706Y-21638746D01*
X9829706Y-21638746D02*
X9820182Y-21591127D01*
X9820182Y-21591127D02*
X9810658Y-21562555D01*
X9810658Y-21562555D02*
X9801134Y-21543508D01*
X9801134Y-21543508D02*
X9782087Y-21514936D01*
X9782087Y-21514936D02*
X9772563Y-21505412D01*
X10134468Y-21810174D02*
X10124944Y-21800650D01*
X10124944Y-21800650D02*
X10105896Y-21772079D01*
X10105896Y-21772079D02*
X10096373Y-21753031D01*
X10096373Y-21753031D02*
X10086849Y-21724460D01*
X10086849Y-21724460D02*
X10077325Y-21676841D01*
X10077325Y-21676841D02*
X10077325Y-21638746D01*
X10077325Y-21638746D02*
X10086849Y-21591127D01*
X10086849Y-21591127D02*
X10096373Y-21562555D01*
X10096373Y-21562555D02*
X10105896Y-21543508D01*
X10105896Y-21543508D02*
X10124944Y-21514936D01*
X10124944Y-21514936D02*
X10134468Y-21505412D01*
X10210658Y-21600650D02*
X10210658Y-21733984D01*
X10210658Y-21619698D02*
X10220182Y-21610174D01*
X10220182Y-21610174D02*
X10239230Y-21600650D01*
X10239230Y-21600650D02*
X10267801Y-21600650D01*
X10267801Y-21600650D02*
X10286849Y-21610174D01*
X10286849Y-21610174D02*
X10296373Y-21629222D01*
X10296373Y-21629222D02*
X10296373Y-21733984D01*
X10420182Y-21733984D02*
X10401134Y-21724460D01*
X10401134Y-21724460D02*
X10391611Y-21714936D01*
X10391611Y-21714936D02*
X10382087Y-21695889D01*
X10382087Y-21695889D02*
X10382087Y-21638746D01*
X10382087Y-21638746D02*
X10391611Y-21619698D01*
X10391611Y-21619698D02*
X10401134Y-21610174D01*
X10401134Y-21610174D02*
X10420182Y-21600650D01*
X10420182Y-21600650D02*
X10448754Y-21600650D01*
X10448754Y-21600650D02*
X10467801Y-21610174D01*
X10467801Y-21610174D02*
X10477325Y-21619698D01*
X10477325Y-21619698D02*
X10486849Y-21638746D01*
X10486849Y-21638746D02*
X10486849Y-21695889D01*
X10486849Y-21695889D02*
X10477325Y-21714936D01*
X10477325Y-21714936D02*
X10467801Y-21724460D01*
X10467801Y-21724460D02*
X10448754Y-21733984D01*
X10448754Y-21733984D02*
X10420182Y-21733984D01*
X10543992Y-21600650D02*
X10620182Y-21600650D01*
X10572563Y-21533984D02*
X10572563Y-21705412D01*
X10572563Y-21705412D02*
X10582087Y-21724460D01*
X10582087Y-21724460D02*
X10601134Y-21733984D01*
X10601134Y-21733984D02*
X10620182Y-21733984D01*
X10839230Y-21600650D02*
X10839230Y-21800650D01*
X10839230Y-21610174D02*
X10858277Y-21600650D01*
X10858277Y-21600650D02*
X10896373Y-21600650D01*
X10896373Y-21600650D02*
X10915420Y-21610174D01*
X10915420Y-21610174D02*
X10924944Y-21619698D01*
X10924944Y-21619698D02*
X10934468Y-21638746D01*
X10934468Y-21638746D02*
X10934468Y-21695889D01*
X10934468Y-21695889D02*
X10924944Y-21714936D01*
X10924944Y-21714936D02*
X10915420Y-21724460D01*
X10915420Y-21724460D02*
X10896373Y-21733984D01*
X10896373Y-21733984D02*
X10858277Y-21733984D01*
X10858277Y-21733984D02*
X10839230Y-21724460D01*
X11048754Y-21733984D02*
X11029706Y-21724460D01*
X11029706Y-21724460D02*
X11020182Y-21705412D01*
X11020182Y-21705412D02*
X11020182Y-21533984D01*
X11210658Y-21733984D02*
X11210658Y-21629222D01*
X11210658Y-21629222D02*
X11201134Y-21610174D01*
X11201134Y-21610174D02*
X11182087Y-21600650D01*
X11182087Y-21600650D02*
X11143992Y-21600650D01*
X11143992Y-21600650D02*
X11124944Y-21610174D01*
X11210658Y-21724460D02*
X11191611Y-21733984D01*
X11191611Y-21733984D02*
X11143992Y-21733984D01*
X11143992Y-21733984D02*
X11124944Y-21724460D01*
X11124944Y-21724460D02*
X11115420Y-21705412D01*
X11115420Y-21705412D02*
X11115420Y-21686365D01*
X11115420Y-21686365D02*
X11124944Y-21667317D01*
X11124944Y-21667317D02*
X11143992Y-21657793D01*
X11143992Y-21657793D02*
X11191611Y-21657793D01*
X11191611Y-21657793D02*
X11210658Y-21648270D01*
X11277325Y-21600650D02*
X11353515Y-21600650D01*
X11305896Y-21533984D02*
X11305896Y-21705412D01*
X11305896Y-21705412D02*
X11315420Y-21724460D01*
X11315420Y-21724460D02*
X11334468Y-21733984D01*
X11334468Y-21733984D02*
X11353515Y-21733984D01*
X11496373Y-21724460D02*
X11477325Y-21733984D01*
X11477325Y-21733984D02*
X11439230Y-21733984D01*
X11439230Y-21733984D02*
X11420182Y-21724460D01*
X11420182Y-21724460D02*
X11410658Y-21705412D01*
X11410658Y-21705412D02*
X11410658Y-21629222D01*
X11410658Y-21629222D02*
X11420182Y-21610174D01*
X11420182Y-21610174D02*
X11439230Y-21600650D01*
X11439230Y-21600650D02*
X11477325Y-21600650D01*
X11477325Y-21600650D02*
X11496373Y-21610174D01*
X11496373Y-21610174D02*
X11505896Y-21629222D01*
X11505896Y-21629222D02*
X11505896Y-21648270D01*
X11505896Y-21648270D02*
X11410658Y-21667317D01*
X11677325Y-21733984D02*
X11677325Y-21533984D01*
X11677325Y-21724460D02*
X11658277Y-21733984D01*
X11658277Y-21733984D02*
X11620182Y-21733984D01*
X11620182Y-21733984D02*
X11601134Y-21724460D01*
X11601134Y-21724460D02*
X11591611Y-21714936D01*
X11591611Y-21714936D02*
X11582087Y-21695889D01*
X11582087Y-21695889D02*
X11582087Y-21638746D01*
X11582087Y-21638746D02*
X11591611Y-21619698D01*
X11591611Y-21619698D02*
X11601134Y-21610174D01*
X11601134Y-21610174D02*
X11620182Y-21600650D01*
X11620182Y-21600650D02*
X11658277Y-21600650D01*
X11658277Y-21600650D02*
X11677325Y-21610174D01*
X11753515Y-21810174D02*
X11763039Y-21800650D01*
X11763039Y-21800650D02*
X11782087Y-21772079D01*
X11782087Y-21772079D02*
X11791611Y-21753031D01*
X11791611Y-21753031D02*
X11801134Y-21724460D01*
X11801134Y-21724460D02*
X11810658Y-21676841D01*
X11810658Y-21676841D02*
X11810658Y-21638746D01*
X11810658Y-21638746D02*
X11801134Y-21591127D01*
X11801134Y-21591127D02*
X11791611Y-21562555D01*
X11791611Y-21562555D02*
X11782087Y-21543508D01*
X11782087Y-21543508D02*
X11763039Y-21514936D01*
X11763039Y-21514936D02*
X11753515Y-21505412D01*
X4997500Y-21947500D02*
G75*
G02*
X4797500Y-21947500I-100000J0D01*
G01*
X4797500Y-21947500D02*
G75*
G02*
X4997500Y-21947500I100000J0D01*
G01*
X5248753Y-21858031D02*
X5258277Y-21848508D01*
X5258277Y-21848508D02*
X5277324Y-21838984D01*
X5277324Y-21838984D02*
X5324944Y-21838984D01*
X5324944Y-21838984D02*
X5343991Y-21848508D01*
X5343991Y-21848508D02*
X5353515Y-21858031D01*
X5353515Y-21858031D02*
X5363039Y-21877079D01*
X5363039Y-21877079D02*
X5363039Y-21896127D01*
X5363039Y-21896127D02*
X5353515Y-21924698D01*
X5353515Y-21924698D02*
X5239229Y-22038984D01*
X5239229Y-22038984D02*
X5363039Y-22038984D01*
X5448753Y-22019936D02*
X5458277Y-22029460D01*
X5458277Y-22029460D02*
X5448753Y-22038984D01*
X5448753Y-22038984D02*
X5439229Y-22029460D01*
X5439229Y-22029460D02*
X5448753Y-22019936D01*
X5448753Y-22019936D02*
X5448753Y-22038984D01*
X5534467Y-21858031D02*
X5543991Y-21848508D01*
X5543991Y-21848508D02*
X5563039Y-21838984D01*
X5563039Y-21838984D02*
X5610658Y-21838984D01*
X5610658Y-21838984D02*
X5629705Y-21848508D01*
X5629705Y-21848508D02*
X5639229Y-21858031D01*
X5639229Y-21858031D02*
X5648753Y-21877079D01*
X5648753Y-21877079D02*
X5648753Y-21896127D01*
X5648753Y-21896127D02*
X5639229Y-21924698D01*
X5639229Y-21924698D02*
X5524944Y-22038984D01*
X5524944Y-22038984D02*
X5648753Y-22038984D01*
X5772562Y-21838984D02*
X5791610Y-21838984D01*
X5791610Y-21838984D02*
X5810658Y-21848508D01*
X5810658Y-21848508D02*
X5820182Y-21858031D01*
X5820182Y-21858031D02*
X5829705Y-21877079D01*
X5829705Y-21877079D02*
X5839229Y-21915174D01*
X5839229Y-21915174D02*
X5839229Y-21962793D01*
X5839229Y-21962793D02*
X5829705Y-22000889D01*
X5829705Y-22000889D02*
X5820182Y-22019936D01*
X5820182Y-22019936D02*
X5810658Y-22029460D01*
X5810658Y-22029460D02*
X5791610Y-22038984D01*
X5791610Y-22038984D02*
X5772562Y-22038984D01*
X5772562Y-22038984D02*
X5753515Y-22029460D01*
X5753515Y-22029460D02*
X5743991Y-22019936D01*
X5743991Y-22019936D02*
X5734467Y-22000889D01*
X5734467Y-22000889D02*
X5724943Y-21962793D01*
X5724943Y-21962793D02*
X5724943Y-21915174D01*
X5724943Y-21915174D02*
X5734467Y-21877079D01*
X5734467Y-21877079D02*
X5743991Y-21858031D01*
X5743991Y-21858031D02*
X5753515Y-21848508D01*
X5753515Y-21848508D02*
X5772562Y-21838984D01*
X5963039Y-21838984D02*
X5982086Y-21838984D01*
X5982086Y-21838984D02*
X6001134Y-21848508D01*
X6001134Y-21848508D02*
X6010658Y-21858031D01*
X6010658Y-21858031D02*
X6020182Y-21877079D01*
X6020182Y-21877079D02*
X6029705Y-21915174D01*
X6029705Y-21915174D02*
X6029705Y-21962793D01*
X6029705Y-21962793D02*
X6020182Y-22000889D01*
X6020182Y-22000889D02*
X6010658Y-22019936D01*
X6010658Y-22019936D02*
X6001134Y-22029460D01*
X6001134Y-22029460D02*
X5982086Y-22038984D01*
X5982086Y-22038984D02*
X5963039Y-22038984D01*
X5963039Y-22038984D02*
X5943991Y-22029460D01*
X5943991Y-22029460D02*
X5934467Y-22019936D01*
X5934467Y-22019936D02*
X5924943Y-22000889D01*
X5924943Y-22000889D02*
X5915420Y-21962793D01*
X5915420Y-21962793D02*
X5915420Y-21915174D01*
X5915420Y-21915174D02*
X5924943Y-21877079D01*
X5924943Y-21877079D02*
X5934467Y-21858031D01*
X5934467Y-21858031D02*
X5943991Y-21848508D01*
X5943991Y-21848508D02*
X5963039Y-21838984D01*
X6115420Y-22038984D02*
X6115420Y-21905650D01*
X6115420Y-21924698D02*
X6124943Y-21915174D01*
X6124943Y-21915174D02*
X6143991Y-21905650D01*
X6143991Y-21905650D02*
X6172563Y-21905650D01*
X6172563Y-21905650D02*
X6191610Y-21915174D01*
X6191610Y-21915174D02*
X6201134Y-21934222D01*
X6201134Y-21934222D02*
X6201134Y-22038984D01*
X6201134Y-21934222D02*
X6210658Y-21915174D01*
X6210658Y-21915174D02*
X6229705Y-21905650D01*
X6229705Y-21905650D02*
X6258277Y-21905650D01*
X6258277Y-21905650D02*
X6277324Y-21915174D01*
X6277324Y-21915174D02*
X6286848Y-21934222D01*
X6286848Y-21934222D02*
X6286848Y-22038984D01*
X6382086Y-22038984D02*
X6382086Y-21905650D01*
X6382086Y-21924698D02*
X6391610Y-21915174D01*
X6391610Y-21915174D02*
X6410658Y-21905650D01*
X6410658Y-21905650D02*
X6439229Y-21905650D01*
X6439229Y-21905650D02*
X6458277Y-21915174D01*
X6458277Y-21915174D02*
X6467801Y-21934222D01*
X6467801Y-21934222D02*
X6467801Y-22038984D01*
X6467801Y-21934222D02*
X6477324Y-21915174D01*
X6477324Y-21915174D02*
X6496372Y-21905650D01*
X6496372Y-21905650D02*
X6524943Y-21905650D01*
X6524943Y-21905650D02*
X6543991Y-21915174D01*
X6543991Y-21915174D02*
X6553515Y-21934222D01*
X6553515Y-21934222D02*
X6553515Y-22038984D01*
X6943991Y-21829460D02*
X6772563Y-22086603D01*
X7201134Y-21838984D02*
X7220182Y-21838984D01*
X7220182Y-21838984D02*
X7239229Y-21848508D01*
X7239229Y-21848508D02*
X7248753Y-21858031D01*
X7248753Y-21858031D02*
X7258277Y-21877079D01*
X7258277Y-21877079D02*
X7267801Y-21915174D01*
X7267801Y-21915174D02*
X7267801Y-21962793D01*
X7267801Y-21962793D02*
X7258277Y-22000889D01*
X7258277Y-22000889D02*
X7248753Y-22019936D01*
X7248753Y-22019936D02*
X7239229Y-22029460D01*
X7239229Y-22029460D02*
X7220182Y-22038984D01*
X7220182Y-22038984D02*
X7201134Y-22038984D01*
X7201134Y-22038984D02*
X7182086Y-22029460D01*
X7182086Y-22029460D02*
X7172563Y-22019936D01*
X7172563Y-22019936D02*
X7163039Y-22000889D01*
X7163039Y-22000889D02*
X7153515Y-21962793D01*
X7153515Y-21962793D02*
X7153515Y-21915174D01*
X7153515Y-21915174D02*
X7163039Y-21877079D01*
X7163039Y-21877079D02*
X7172563Y-21858031D01*
X7172563Y-21858031D02*
X7182086Y-21848508D01*
X7182086Y-21848508D02*
X7201134Y-21838984D01*
X7353515Y-22019936D02*
X7363039Y-22029460D01*
X7363039Y-22029460D02*
X7353515Y-22038984D01*
X7353515Y-22038984D02*
X7343991Y-22029460D01*
X7343991Y-22029460D02*
X7353515Y-22019936D01*
X7353515Y-22019936D02*
X7353515Y-22038984D01*
X7486848Y-21838984D02*
X7505896Y-21838984D01*
X7505896Y-21838984D02*
X7524944Y-21848508D01*
X7524944Y-21848508D02*
X7534467Y-21858031D01*
X7534467Y-21858031D02*
X7543991Y-21877079D01*
X7543991Y-21877079D02*
X7553515Y-21915174D01*
X7553515Y-21915174D02*
X7553515Y-21962793D01*
X7553515Y-21962793D02*
X7543991Y-22000889D01*
X7543991Y-22000889D02*
X7534467Y-22019936D01*
X7534467Y-22019936D02*
X7524944Y-22029460D01*
X7524944Y-22029460D02*
X7505896Y-22038984D01*
X7505896Y-22038984D02*
X7486848Y-22038984D01*
X7486848Y-22038984D02*
X7467801Y-22029460D01*
X7467801Y-22029460D02*
X7458277Y-22019936D01*
X7458277Y-22019936D02*
X7448753Y-22000889D01*
X7448753Y-22000889D02*
X7439229Y-21962793D01*
X7439229Y-21962793D02*
X7439229Y-21915174D01*
X7439229Y-21915174D02*
X7448753Y-21877079D01*
X7448753Y-21877079D02*
X7458277Y-21858031D01*
X7458277Y-21858031D02*
X7467801Y-21848508D01*
X7467801Y-21848508D02*
X7486848Y-21838984D01*
X7667801Y-21924698D02*
X7648753Y-21915174D01*
X7648753Y-21915174D02*
X7639229Y-21905650D01*
X7639229Y-21905650D02*
X7629706Y-21886603D01*
X7629706Y-21886603D02*
X7629706Y-21877079D01*
X7629706Y-21877079D02*
X7639229Y-21858031D01*
X7639229Y-21858031D02*
X7648753Y-21848508D01*
X7648753Y-21848508D02*
X7667801Y-21838984D01*
X7667801Y-21838984D02*
X7705896Y-21838984D01*
X7705896Y-21838984D02*
X7724944Y-21848508D01*
X7724944Y-21848508D02*
X7734467Y-21858031D01*
X7734467Y-21858031D02*
X7743991Y-21877079D01*
X7743991Y-21877079D02*
X7743991Y-21886603D01*
X7743991Y-21886603D02*
X7734467Y-21905650D01*
X7734467Y-21905650D02*
X7724944Y-21915174D01*
X7724944Y-21915174D02*
X7705896Y-21924698D01*
X7705896Y-21924698D02*
X7667801Y-21924698D01*
X7667801Y-21924698D02*
X7648753Y-21934222D01*
X7648753Y-21934222D02*
X7639229Y-21943746D01*
X7639229Y-21943746D02*
X7629706Y-21962793D01*
X7629706Y-21962793D02*
X7629706Y-22000889D01*
X7629706Y-22000889D02*
X7639229Y-22019936D01*
X7639229Y-22019936D02*
X7648753Y-22029460D01*
X7648753Y-22029460D02*
X7667801Y-22038984D01*
X7667801Y-22038984D02*
X7705896Y-22038984D01*
X7705896Y-22038984D02*
X7724944Y-22029460D01*
X7724944Y-22029460D02*
X7734467Y-22019936D01*
X7734467Y-22019936D02*
X7743991Y-22000889D01*
X7743991Y-22000889D02*
X7743991Y-21962793D01*
X7743991Y-21962793D02*
X7734467Y-21943746D01*
X7734467Y-21943746D02*
X7724944Y-21934222D01*
X7724944Y-21934222D02*
X7705896Y-21924698D01*
X7915420Y-21838984D02*
X7877325Y-21838984D01*
X7877325Y-21838984D02*
X7858277Y-21848508D01*
X7858277Y-21848508D02*
X7848753Y-21858031D01*
X7848753Y-21858031D02*
X7829706Y-21886603D01*
X7829706Y-21886603D02*
X7820182Y-21924698D01*
X7820182Y-21924698D02*
X7820182Y-22000889D01*
X7820182Y-22000889D02*
X7829706Y-22019936D01*
X7829706Y-22019936D02*
X7839229Y-22029460D01*
X7839229Y-22029460D02*
X7858277Y-22038984D01*
X7858277Y-22038984D02*
X7896372Y-22038984D01*
X7896372Y-22038984D02*
X7915420Y-22029460D01*
X7915420Y-22029460D02*
X7924944Y-22019936D01*
X7924944Y-22019936D02*
X7934467Y-22000889D01*
X7934467Y-22000889D02*
X7934467Y-21953270D01*
X7934467Y-21953270D02*
X7924944Y-21934222D01*
X7924944Y-21934222D02*
X7915420Y-21924698D01*
X7915420Y-21924698D02*
X7896372Y-21915174D01*
X7896372Y-21915174D02*
X7858277Y-21915174D01*
X7858277Y-21915174D02*
X7839229Y-21924698D01*
X7839229Y-21924698D02*
X7829706Y-21934222D01*
X7829706Y-21934222D02*
X7820182Y-21953270D01*
X8105896Y-21838984D02*
X8067801Y-21838984D01*
X8067801Y-21838984D02*
X8048753Y-21848508D01*
X8048753Y-21848508D02*
X8039229Y-21858031D01*
X8039229Y-21858031D02*
X8020182Y-21886603D01*
X8020182Y-21886603D02*
X8010658Y-21924698D01*
X8010658Y-21924698D02*
X8010658Y-22000889D01*
X8010658Y-22000889D02*
X8020182Y-22019936D01*
X8020182Y-22019936D02*
X8029706Y-22029460D01*
X8029706Y-22029460D02*
X8048753Y-22038984D01*
X8048753Y-22038984D02*
X8086848Y-22038984D01*
X8086848Y-22038984D02*
X8105896Y-22029460D01*
X8105896Y-22029460D02*
X8115420Y-22019936D01*
X8115420Y-22019936D02*
X8124944Y-22000889D01*
X8124944Y-22000889D02*
X8124944Y-21953270D01*
X8124944Y-21953270D02*
X8115420Y-21934222D01*
X8115420Y-21934222D02*
X8105896Y-21924698D01*
X8105896Y-21924698D02*
X8086848Y-21915174D01*
X8086848Y-21915174D02*
X8048753Y-21915174D01*
X8048753Y-21915174D02*
X8029706Y-21924698D01*
X8029706Y-21924698D02*
X8020182Y-21934222D01*
X8020182Y-21934222D02*
X8010658Y-21953270D01*
X8201134Y-21838984D02*
X8201134Y-21877079D01*
X8277325Y-21838984D02*
X8277325Y-21877079D01*
X8572563Y-22115174D02*
X8563039Y-22105650D01*
X8563039Y-22105650D02*
X8543991Y-22077079D01*
X8543991Y-22077079D02*
X8534468Y-22058031D01*
X8534468Y-22058031D02*
X8524944Y-22029460D01*
X8524944Y-22029460D02*
X8515420Y-21981841D01*
X8515420Y-21981841D02*
X8515420Y-21943746D01*
X8515420Y-21943746D02*
X8524944Y-21896127D01*
X8524944Y-21896127D02*
X8534468Y-21867555D01*
X8534468Y-21867555D02*
X8543991Y-21848508D01*
X8543991Y-21848508D02*
X8563039Y-21819936D01*
X8563039Y-21819936D02*
X8572563Y-21810412D01*
X8639230Y-21858031D02*
X8648753Y-21848508D01*
X8648753Y-21848508D02*
X8667801Y-21838984D01*
X8667801Y-21838984D02*
X8715420Y-21838984D01*
X8715420Y-21838984D02*
X8734468Y-21848508D01*
X8734468Y-21848508D02*
X8743991Y-21858031D01*
X8743991Y-21858031D02*
X8753515Y-21877079D01*
X8753515Y-21877079D02*
X8753515Y-21896127D01*
X8753515Y-21896127D02*
X8743991Y-21924698D01*
X8743991Y-21924698D02*
X8629706Y-22038984D01*
X8629706Y-22038984D02*
X8753515Y-22038984D01*
X8991611Y-22038984D02*
X8991611Y-21838984D01*
X9077325Y-22038984D02*
X9077325Y-21934222D01*
X9077325Y-21934222D02*
X9067801Y-21915174D01*
X9067801Y-21915174D02*
X9048753Y-21905650D01*
X9048753Y-21905650D02*
X9020182Y-21905650D01*
X9020182Y-21905650D02*
X9001134Y-21915174D01*
X9001134Y-21915174D02*
X8991611Y-21924698D01*
X9201134Y-22038984D02*
X9182087Y-22029460D01*
X9182087Y-22029460D02*
X9172563Y-22019936D01*
X9172563Y-22019936D02*
X9163039Y-22000889D01*
X9163039Y-22000889D02*
X9163039Y-21943746D01*
X9163039Y-21943746D02*
X9172563Y-21924698D01*
X9172563Y-21924698D02*
X9182087Y-21915174D01*
X9182087Y-21915174D02*
X9201134Y-21905650D01*
X9201134Y-21905650D02*
X9229706Y-21905650D01*
X9229706Y-21905650D02*
X9248753Y-21915174D01*
X9248753Y-21915174D02*
X9258277Y-21924698D01*
X9258277Y-21924698D02*
X9267801Y-21943746D01*
X9267801Y-21943746D02*
X9267801Y-22000889D01*
X9267801Y-22000889D02*
X9258277Y-22019936D01*
X9258277Y-22019936D02*
X9248753Y-22029460D01*
X9248753Y-22029460D02*
X9229706Y-22038984D01*
X9229706Y-22038984D02*
X9201134Y-22038984D01*
X9382087Y-22038984D02*
X9363039Y-22029460D01*
X9363039Y-22029460D02*
X9353515Y-22010412D01*
X9353515Y-22010412D02*
X9353515Y-21838984D01*
X9534468Y-22029460D02*
X9515420Y-22038984D01*
X9515420Y-22038984D02*
X9477325Y-22038984D01*
X9477325Y-22038984D02*
X9458277Y-22029460D01*
X9458277Y-22029460D02*
X9448753Y-22010412D01*
X9448753Y-22010412D02*
X9448753Y-21934222D01*
X9448753Y-21934222D02*
X9458277Y-21915174D01*
X9458277Y-21915174D02*
X9477325Y-21905650D01*
X9477325Y-21905650D02*
X9515420Y-21905650D01*
X9515420Y-21905650D02*
X9534468Y-21915174D01*
X9534468Y-21915174D02*
X9543992Y-21934222D01*
X9543992Y-21934222D02*
X9543992Y-21953270D01*
X9543992Y-21953270D02*
X9448753Y-21972317D01*
X9620182Y-22029460D02*
X9639230Y-22038984D01*
X9639230Y-22038984D02*
X9677325Y-22038984D01*
X9677325Y-22038984D02*
X9696373Y-22029460D01*
X9696373Y-22029460D02*
X9705896Y-22010412D01*
X9705896Y-22010412D02*
X9705896Y-22000889D01*
X9705896Y-22000889D02*
X9696373Y-21981841D01*
X9696373Y-21981841D02*
X9677325Y-21972317D01*
X9677325Y-21972317D02*
X9648753Y-21972317D01*
X9648753Y-21972317D02*
X9629706Y-21962793D01*
X9629706Y-21962793D02*
X9620182Y-21943746D01*
X9620182Y-21943746D02*
X9620182Y-21934222D01*
X9620182Y-21934222D02*
X9629706Y-21915174D01*
X9629706Y-21915174D02*
X9648753Y-21905650D01*
X9648753Y-21905650D02*
X9677325Y-21905650D01*
X9677325Y-21905650D02*
X9696373Y-21915174D01*
X9772563Y-22115174D02*
X9782087Y-22105650D01*
X9782087Y-22105650D02*
X9801134Y-22077079D01*
X9801134Y-22077079D02*
X9810658Y-22058031D01*
X9810658Y-22058031D02*
X9820182Y-22029460D01*
X9820182Y-22029460D02*
X9829706Y-21981841D01*
X9829706Y-21981841D02*
X9829706Y-21943746D01*
X9829706Y-21943746D02*
X9820182Y-21896127D01*
X9820182Y-21896127D02*
X9810658Y-21867555D01*
X9810658Y-21867555D02*
X9801134Y-21848508D01*
X9801134Y-21848508D02*
X9782087Y-21819936D01*
X9782087Y-21819936D02*
X9772563Y-21810412D01*
X10134468Y-22115174D02*
X10124944Y-22105650D01*
X10124944Y-22105650D02*
X10105896Y-22077079D01*
X10105896Y-22077079D02*
X10096373Y-22058031D01*
X10096373Y-22058031D02*
X10086849Y-22029460D01*
X10086849Y-22029460D02*
X10077325Y-21981841D01*
X10077325Y-21981841D02*
X10077325Y-21943746D01*
X10077325Y-21943746D02*
X10086849Y-21896127D01*
X10086849Y-21896127D02*
X10096373Y-21867555D01*
X10096373Y-21867555D02*
X10105896Y-21848508D01*
X10105896Y-21848508D02*
X10124944Y-21819936D01*
X10124944Y-21819936D02*
X10134468Y-21810412D01*
X10210658Y-21905650D02*
X10210658Y-22038984D01*
X10210658Y-21924698D02*
X10220182Y-21915174D01*
X10220182Y-21915174D02*
X10239230Y-21905650D01*
X10239230Y-21905650D02*
X10267801Y-21905650D01*
X10267801Y-21905650D02*
X10286849Y-21915174D01*
X10286849Y-21915174D02*
X10296373Y-21934222D01*
X10296373Y-21934222D02*
X10296373Y-22038984D01*
X10420182Y-22038984D02*
X10401134Y-22029460D01*
X10401134Y-22029460D02*
X10391611Y-22019936D01*
X10391611Y-22019936D02*
X10382087Y-22000889D01*
X10382087Y-22000889D02*
X10382087Y-21943746D01*
X10382087Y-21943746D02*
X10391611Y-21924698D01*
X10391611Y-21924698D02*
X10401134Y-21915174D01*
X10401134Y-21915174D02*
X10420182Y-21905650D01*
X10420182Y-21905650D02*
X10448754Y-21905650D01*
X10448754Y-21905650D02*
X10467801Y-21915174D01*
X10467801Y-21915174D02*
X10477325Y-21924698D01*
X10477325Y-21924698D02*
X10486849Y-21943746D01*
X10486849Y-21943746D02*
X10486849Y-22000889D01*
X10486849Y-22000889D02*
X10477325Y-22019936D01*
X10477325Y-22019936D02*
X10467801Y-22029460D01*
X10467801Y-22029460D02*
X10448754Y-22038984D01*
X10448754Y-22038984D02*
X10420182Y-22038984D01*
X10543992Y-21905650D02*
X10620182Y-21905650D01*
X10572563Y-21838984D02*
X10572563Y-22010412D01*
X10572563Y-22010412D02*
X10582087Y-22029460D01*
X10582087Y-22029460D02*
X10601134Y-22038984D01*
X10601134Y-22038984D02*
X10620182Y-22038984D01*
X10839230Y-21905650D02*
X10839230Y-22105650D01*
X10839230Y-21915174D02*
X10858277Y-21905650D01*
X10858277Y-21905650D02*
X10896373Y-21905650D01*
X10896373Y-21905650D02*
X10915420Y-21915174D01*
X10915420Y-21915174D02*
X10924944Y-21924698D01*
X10924944Y-21924698D02*
X10934468Y-21943746D01*
X10934468Y-21943746D02*
X10934468Y-22000889D01*
X10934468Y-22000889D02*
X10924944Y-22019936D01*
X10924944Y-22019936D02*
X10915420Y-22029460D01*
X10915420Y-22029460D02*
X10896373Y-22038984D01*
X10896373Y-22038984D02*
X10858277Y-22038984D01*
X10858277Y-22038984D02*
X10839230Y-22029460D01*
X11048754Y-22038984D02*
X11029706Y-22029460D01*
X11029706Y-22029460D02*
X11020182Y-22010412D01*
X11020182Y-22010412D02*
X11020182Y-21838984D01*
X11210658Y-22038984D02*
X11210658Y-21934222D01*
X11210658Y-21934222D02*
X11201134Y-21915174D01*
X11201134Y-21915174D02*
X11182087Y-21905650D01*
X11182087Y-21905650D02*
X11143992Y-21905650D01*
X11143992Y-21905650D02*
X11124944Y-21915174D01*
X11210658Y-22029460D02*
X11191611Y-22038984D01*
X11191611Y-22038984D02*
X11143992Y-22038984D01*
X11143992Y-22038984D02*
X11124944Y-22029460D01*
X11124944Y-22029460D02*
X11115420Y-22010412D01*
X11115420Y-22010412D02*
X11115420Y-21991365D01*
X11115420Y-21991365D02*
X11124944Y-21972317D01*
X11124944Y-21972317D02*
X11143992Y-21962793D01*
X11143992Y-21962793D02*
X11191611Y-21962793D01*
X11191611Y-21962793D02*
X11210658Y-21953270D01*
X11277325Y-21905650D02*
X11353515Y-21905650D01*
X11305896Y-21838984D02*
X11305896Y-22010412D01*
X11305896Y-22010412D02*
X11315420Y-22029460D01*
X11315420Y-22029460D02*
X11334468Y-22038984D01*
X11334468Y-22038984D02*
X11353515Y-22038984D01*
X11496373Y-22029460D02*
X11477325Y-22038984D01*
X11477325Y-22038984D02*
X11439230Y-22038984D01*
X11439230Y-22038984D02*
X11420182Y-22029460D01*
X11420182Y-22029460D02*
X11410658Y-22010412D01*
X11410658Y-22010412D02*
X11410658Y-21934222D01*
X11410658Y-21934222D02*
X11420182Y-21915174D01*
X11420182Y-21915174D02*
X11439230Y-21905650D01*
X11439230Y-21905650D02*
X11477325Y-21905650D01*
X11477325Y-21905650D02*
X11496373Y-21915174D01*
X11496373Y-21915174D02*
X11505896Y-21934222D01*
X11505896Y-21934222D02*
X11505896Y-21953270D01*
X11505896Y-21953270D02*
X11410658Y-21972317D01*
X11677325Y-22038984D02*
X11677325Y-21838984D01*
X11677325Y-22029460D02*
X11658277Y-22038984D01*
X11658277Y-22038984D02*
X11620182Y-22038984D01*
X11620182Y-22038984D02*
X11601134Y-22029460D01*
X11601134Y-22029460D02*
X11591611Y-22019936D01*
X11591611Y-22019936D02*
X11582087Y-22000889D01*
X11582087Y-22000889D02*
X11582087Y-21943746D01*
X11582087Y-21943746D02*
X11591611Y-21924698D01*
X11591611Y-21924698D02*
X11601134Y-21915174D01*
X11601134Y-21915174D02*
X11620182Y-21905650D01*
X11620182Y-21905650D02*
X11658277Y-21905650D01*
X11658277Y-21905650D02*
X11677325Y-21915174D01*
X11753515Y-22115174D02*
X11763039Y-22105650D01*
X11763039Y-22105650D02*
X11782087Y-22077079D01*
X11782087Y-22077079D02*
X11791611Y-22058031D01*
X11791611Y-22058031D02*
X11801134Y-22029460D01*
X11801134Y-22029460D02*
X11810658Y-21981841D01*
X11810658Y-21981841D02*
X11810658Y-21943746D01*
X11810658Y-21943746D02*
X11801134Y-21896127D01*
X11801134Y-21896127D02*
X11791611Y-21867555D01*
X11791611Y-21867555D02*
X11782087Y-21848508D01*
X11782087Y-21848508D02*
X11763039Y-21819936D01*
X11763039Y-21819936D02*
X11753515Y-21810412D01*
X4897500Y-22167500D02*
X4897500Y-22367500D01*
X4797500Y-22267500D02*
X4997500Y-22267500D01*
X5239229Y-22158984D02*
X5363039Y-22158984D01*
X5363039Y-22158984D02*
X5296372Y-22235174D01*
X5296372Y-22235174D02*
X5324944Y-22235174D01*
X5324944Y-22235174D02*
X5343991Y-22244698D01*
X5343991Y-22244698D02*
X5353515Y-22254222D01*
X5353515Y-22254222D02*
X5363039Y-22273270D01*
X5363039Y-22273270D02*
X5363039Y-22320889D01*
X5363039Y-22320889D02*
X5353515Y-22339936D01*
X5353515Y-22339936D02*
X5343991Y-22349460D01*
X5343991Y-22349460D02*
X5324944Y-22358984D01*
X5324944Y-22358984D02*
X5267801Y-22358984D01*
X5267801Y-22358984D02*
X5248753Y-22349460D01*
X5248753Y-22349460D02*
X5239229Y-22339936D01*
X5448753Y-22339936D02*
X5458277Y-22349460D01*
X5458277Y-22349460D02*
X5448753Y-22358984D01*
X5448753Y-22358984D02*
X5439229Y-22349460D01*
X5439229Y-22349460D02*
X5448753Y-22339936D01*
X5448753Y-22339936D02*
X5448753Y-22358984D01*
X5534467Y-22178031D02*
X5543991Y-22168508D01*
X5543991Y-22168508D02*
X5563039Y-22158984D01*
X5563039Y-22158984D02*
X5610658Y-22158984D01*
X5610658Y-22158984D02*
X5629705Y-22168508D01*
X5629705Y-22168508D02*
X5639229Y-22178031D01*
X5639229Y-22178031D02*
X5648753Y-22197079D01*
X5648753Y-22197079D02*
X5648753Y-22216127D01*
X5648753Y-22216127D02*
X5639229Y-22244698D01*
X5639229Y-22244698D02*
X5524944Y-22358984D01*
X5524944Y-22358984D02*
X5648753Y-22358984D01*
X5772562Y-22158984D02*
X5791610Y-22158984D01*
X5791610Y-22158984D02*
X5810658Y-22168508D01*
X5810658Y-22168508D02*
X5820182Y-22178031D01*
X5820182Y-22178031D02*
X5829705Y-22197079D01*
X5829705Y-22197079D02*
X5839229Y-22235174D01*
X5839229Y-22235174D02*
X5839229Y-22282793D01*
X5839229Y-22282793D02*
X5829705Y-22320889D01*
X5829705Y-22320889D02*
X5820182Y-22339936D01*
X5820182Y-22339936D02*
X5810658Y-22349460D01*
X5810658Y-22349460D02*
X5791610Y-22358984D01*
X5791610Y-22358984D02*
X5772562Y-22358984D01*
X5772562Y-22358984D02*
X5753515Y-22349460D01*
X5753515Y-22349460D02*
X5743991Y-22339936D01*
X5743991Y-22339936D02*
X5734467Y-22320889D01*
X5734467Y-22320889D02*
X5724943Y-22282793D01*
X5724943Y-22282793D02*
X5724943Y-22235174D01*
X5724943Y-22235174D02*
X5734467Y-22197079D01*
X5734467Y-22197079D02*
X5743991Y-22178031D01*
X5743991Y-22178031D02*
X5753515Y-22168508D01*
X5753515Y-22168508D02*
X5772562Y-22158984D01*
X5963039Y-22158984D02*
X5982086Y-22158984D01*
X5982086Y-22158984D02*
X6001134Y-22168508D01*
X6001134Y-22168508D02*
X6010658Y-22178031D01*
X6010658Y-22178031D02*
X6020182Y-22197079D01*
X6020182Y-22197079D02*
X6029705Y-22235174D01*
X6029705Y-22235174D02*
X6029705Y-22282793D01*
X6029705Y-22282793D02*
X6020182Y-22320889D01*
X6020182Y-22320889D02*
X6010658Y-22339936D01*
X6010658Y-22339936D02*
X6001134Y-22349460D01*
X6001134Y-22349460D02*
X5982086Y-22358984D01*
X5982086Y-22358984D02*
X5963039Y-22358984D01*
X5963039Y-22358984D02*
X5943991Y-22349460D01*
X5943991Y-22349460D02*
X5934467Y-22339936D01*
X5934467Y-22339936D02*
X5924943Y-22320889D01*
X5924943Y-22320889D02*
X5915420Y-22282793D01*
X5915420Y-22282793D02*
X5915420Y-22235174D01*
X5915420Y-22235174D02*
X5924943Y-22197079D01*
X5924943Y-22197079D02*
X5934467Y-22178031D01*
X5934467Y-22178031D02*
X5943991Y-22168508D01*
X5943991Y-22168508D02*
X5963039Y-22158984D01*
X6115420Y-22358984D02*
X6115420Y-22225650D01*
X6115420Y-22244698D02*
X6124943Y-22235174D01*
X6124943Y-22235174D02*
X6143991Y-22225650D01*
X6143991Y-22225650D02*
X6172563Y-22225650D01*
X6172563Y-22225650D02*
X6191610Y-22235174D01*
X6191610Y-22235174D02*
X6201134Y-22254222D01*
X6201134Y-22254222D02*
X6201134Y-22358984D01*
X6201134Y-22254222D02*
X6210658Y-22235174D01*
X6210658Y-22235174D02*
X6229705Y-22225650D01*
X6229705Y-22225650D02*
X6258277Y-22225650D01*
X6258277Y-22225650D02*
X6277324Y-22235174D01*
X6277324Y-22235174D02*
X6286848Y-22254222D01*
X6286848Y-22254222D02*
X6286848Y-22358984D01*
X6382086Y-22358984D02*
X6382086Y-22225650D01*
X6382086Y-22244698D02*
X6391610Y-22235174D01*
X6391610Y-22235174D02*
X6410658Y-22225650D01*
X6410658Y-22225650D02*
X6439229Y-22225650D01*
X6439229Y-22225650D02*
X6458277Y-22235174D01*
X6458277Y-22235174D02*
X6467801Y-22254222D01*
X6467801Y-22254222D02*
X6467801Y-22358984D01*
X6467801Y-22254222D02*
X6477324Y-22235174D01*
X6477324Y-22235174D02*
X6496372Y-22225650D01*
X6496372Y-22225650D02*
X6524943Y-22225650D01*
X6524943Y-22225650D02*
X6543991Y-22235174D01*
X6543991Y-22235174D02*
X6553515Y-22254222D01*
X6553515Y-22254222D02*
X6553515Y-22358984D01*
X6943991Y-22149460D02*
X6772563Y-22406603D01*
X7201134Y-22158984D02*
X7220182Y-22158984D01*
X7220182Y-22158984D02*
X7239229Y-22168508D01*
X7239229Y-22168508D02*
X7248753Y-22178031D01*
X7248753Y-22178031D02*
X7258277Y-22197079D01*
X7258277Y-22197079D02*
X7267801Y-22235174D01*
X7267801Y-22235174D02*
X7267801Y-22282793D01*
X7267801Y-22282793D02*
X7258277Y-22320889D01*
X7258277Y-22320889D02*
X7248753Y-22339936D01*
X7248753Y-22339936D02*
X7239229Y-22349460D01*
X7239229Y-22349460D02*
X7220182Y-22358984D01*
X7220182Y-22358984D02*
X7201134Y-22358984D01*
X7201134Y-22358984D02*
X7182086Y-22349460D01*
X7182086Y-22349460D02*
X7172563Y-22339936D01*
X7172563Y-22339936D02*
X7163039Y-22320889D01*
X7163039Y-22320889D02*
X7153515Y-22282793D01*
X7153515Y-22282793D02*
X7153515Y-22235174D01*
X7153515Y-22235174D02*
X7163039Y-22197079D01*
X7163039Y-22197079D02*
X7172563Y-22178031D01*
X7172563Y-22178031D02*
X7182086Y-22168508D01*
X7182086Y-22168508D02*
X7201134Y-22158984D01*
X7353515Y-22339936D02*
X7363039Y-22349460D01*
X7363039Y-22349460D02*
X7353515Y-22358984D01*
X7353515Y-22358984D02*
X7343991Y-22349460D01*
X7343991Y-22349460D02*
X7353515Y-22339936D01*
X7353515Y-22339936D02*
X7353515Y-22358984D01*
X7553515Y-22358984D02*
X7439229Y-22358984D01*
X7496372Y-22358984D02*
X7496372Y-22158984D01*
X7496372Y-22158984D02*
X7477325Y-22187555D01*
X7477325Y-22187555D02*
X7458277Y-22206603D01*
X7458277Y-22206603D02*
X7439229Y-22216127D01*
X7629706Y-22178031D02*
X7639229Y-22168508D01*
X7639229Y-22168508D02*
X7658277Y-22158984D01*
X7658277Y-22158984D02*
X7705896Y-22158984D01*
X7705896Y-22158984D02*
X7724944Y-22168508D01*
X7724944Y-22168508D02*
X7734467Y-22178031D01*
X7734467Y-22178031D02*
X7743991Y-22197079D01*
X7743991Y-22197079D02*
X7743991Y-22216127D01*
X7743991Y-22216127D02*
X7734467Y-22244698D01*
X7734467Y-22244698D02*
X7620182Y-22358984D01*
X7620182Y-22358984D02*
X7743991Y-22358984D01*
X7915420Y-22158984D02*
X7877325Y-22158984D01*
X7877325Y-22158984D02*
X7858277Y-22168508D01*
X7858277Y-22168508D02*
X7848753Y-22178031D01*
X7848753Y-22178031D02*
X7829706Y-22206603D01*
X7829706Y-22206603D02*
X7820182Y-22244698D01*
X7820182Y-22244698D02*
X7820182Y-22320889D01*
X7820182Y-22320889D02*
X7829706Y-22339936D01*
X7829706Y-22339936D02*
X7839229Y-22349460D01*
X7839229Y-22349460D02*
X7858277Y-22358984D01*
X7858277Y-22358984D02*
X7896372Y-22358984D01*
X7896372Y-22358984D02*
X7915420Y-22349460D01*
X7915420Y-22349460D02*
X7924944Y-22339936D01*
X7924944Y-22339936D02*
X7934467Y-22320889D01*
X7934467Y-22320889D02*
X7934467Y-22273270D01*
X7934467Y-22273270D02*
X7924944Y-22254222D01*
X7924944Y-22254222D02*
X7915420Y-22244698D01*
X7915420Y-22244698D02*
X7896372Y-22235174D01*
X7896372Y-22235174D02*
X7858277Y-22235174D01*
X7858277Y-22235174D02*
X7839229Y-22244698D01*
X7839229Y-22244698D02*
X7829706Y-22254222D01*
X7829706Y-22254222D02*
X7820182Y-22273270D01*
X8058277Y-22158984D02*
X8077325Y-22158984D01*
X8077325Y-22158984D02*
X8096372Y-22168508D01*
X8096372Y-22168508D02*
X8105896Y-22178031D01*
X8105896Y-22178031D02*
X8115420Y-22197079D01*
X8115420Y-22197079D02*
X8124944Y-22235174D01*
X8124944Y-22235174D02*
X8124944Y-22282793D01*
X8124944Y-22282793D02*
X8115420Y-22320889D01*
X8115420Y-22320889D02*
X8105896Y-22339936D01*
X8105896Y-22339936D02*
X8096372Y-22349460D01*
X8096372Y-22349460D02*
X8077325Y-22358984D01*
X8077325Y-22358984D02*
X8058277Y-22358984D01*
X8058277Y-22358984D02*
X8039229Y-22349460D01*
X8039229Y-22349460D02*
X8029706Y-22339936D01*
X8029706Y-22339936D02*
X8020182Y-22320889D01*
X8020182Y-22320889D02*
X8010658Y-22282793D01*
X8010658Y-22282793D02*
X8010658Y-22235174D01*
X8010658Y-22235174D02*
X8020182Y-22197079D01*
X8020182Y-22197079D02*
X8029706Y-22178031D01*
X8029706Y-22178031D02*
X8039229Y-22168508D01*
X8039229Y-22168508D02*
X8058277Y-22158984D01*
X8201134Y-22158984D02*
X8201134Y-22197079D01*
X8277325Y-22158984D02*
X8277325Y-22197079D01*
X8572563Y-22435174D02*
X8563039Y-22425650D01*
X8563039Y-22425650D02*
X8543991Y-22397079D01*
X8543991Y-22397079D02*
X8534468Y-22378031D01*
X8534468Y-22378031D02*
X8524944Y-22349460D01*
X8524944Y-22349460D02*
X8515420Y-22301841D01*
X8515420Y-22301841D02*
X8515420Y-22263746D01*
X8515420Y-22263746D02*
X8524944Y-22216127D01*
X8524944Y-22216127D02*
X8534468Y-22187555D01*
X8534468Y-22187555D02*
X8543991Y-22168508D01*
X8543991Y-22168508D02*
X8563039Y-22139936D01*
X8563039Y-22139936D02*
X8572563Y-22130412D01*
X8734468Y-22158984D02*
X8696372Y-22158984D01*
X8696372Y-22158984D02*
X8677325Y-22168508D01*
X8677325Y-22168508D02*
X8667801Y-22178031D01*
X8667801Y-22178031D02*
X8648753Y-22206603D01*
X8648753Y-22206603D02*
X8639230Y-22244698D01*
X8639230Y-22244698D02*
X8639230Y-22320889D01*
X8639230Y-22320889D02*
X8648753Y-22339936D01*
X8648753Y-22339936D02*
X8658277Y-22349460D01*
X8658277Y-22349460D02*
X8677325Y-22358984D01*
X8677325Y-22358984D02*
X8715420Y-22358984D01*
X8715420Y-22358984D02*
X8734468Y-22349460D01*
X8734468Y-22349460D02*
X8743991Y-22339936D01*
X8743991Y-22339936D02*
X8753515Y-22320889D01*
X8753515Y-22320889D02*
X8753515Y-22273270D01*
X8753515Y-22273270D02*
X8743991Y-22254222D01*
X8743991Y-22254222D02*
X8734468Y-22244698D01*
X8734468Y-22244698D02*
X8715420Y-22235174D01*
X8715420Y-22235174D02*
X8677325Y-22235174D01*
X8677325Y-22235174D02*
X8658277Y-22244698D01*
X8658277Y-22244698D02*
X8648753Y-22254222D01*
X8648753Y-22254222D02*
X8639230Y-22273270D01*
X8991611Y-22358984D02*
X8991611Y-22158984D01*
X9077325Y-22358984D02*
X9077325Y-22254222D01*
X9077325Y-22254222D02*
X9067801Y-22235174D01*
X9067801Y-22235174D02*
X9048753Y-22225650D01*
X9048753Y-22225650D02*
X9020182Y-22225650D01*
X9020182Y-22225650D02*
X9001134Y-22235174D01*
X9001134Y-22235174D02*
X8991611Y-22244698D01*
X9201134Y-22358984D02*
X9182087Y-22349460D01*
X9182087Y-22349460D02*
X9172563Y-22339936D01*
X9172563Y-22339936D02*
X9163039Y-22320889D01*
X9163039Y-22320889D02*
X9163039Y-22263746D01*
X9163039Y-22263746D02*
X9172563Y-22244698D01*
X9172563Y-22244698D02*
X9182087Y-22235174D01*
X9182087Y-22235174D02*
X9201134Y-22225650D01*
X9201134Y-22225650D02*
X9229706Y-22225650D01*
X9229706Y-22225650D02*
X9248753Y-22235174D01*
X9248753Y-22235174D02*
X9258277Y-22244698D01*
X9258277Y-22244698D02*
X9267801Y-22263746D01*
X9267801Y-22263746D02*
X9267801Y-22320889D01*
X9267801Y-22320889D02*
X9258277Y-22339936D01*
X9258277Y-22339936D02*
X9248753Y-22349460D01*
X9248753Y-22349460D02*
X9229706Y-22358984D01*
X9229706Y-22358984D02*
X9201134Y-22358984D01*
X9382087Y-22358984D02*
X9363039Y-22349460D01*
X9363039Y-22349460D02*
X9353515Y-22330412D01*
X9353515Y-22330412D02*
X9353515Y-22158984D01*
X9534468Y-22349460D02*
X9515420Y-22358984D01*
X9515420Y-22358984D02*
X9477325Y-22358984D01*
X9477325Y-22358984D02*
X9458277Y-22349460D01*
X9458277Y-22349460D02*
X9448753Y-22330412D01*
X9448753Y-22330412D02*
X9448753Y-22254222D01*
X9448753Y-22254222D02*
X9458277Y-22235174D01*
X9458277Y-22235174D02*
X9477325Y-22225650D01*
X9477325Y-22225650D02*
X9515420Y-22225650D01*
X9515420Y-22225650D02*
X9534468Y-22235174D01*
X9534468Y-22235174D02*
X9543992Y-22254222D01*
X9543992Y-22254222D02*
X9543992Y-22273270D01*
X9543992Y-22273270D02*
X9448753Y-22292317D01*
X9620182Y-22349460D02*
X9639230Y-22358984D01*
X9639230Y-22358984D02*
X9677325Y-22358984D01*
X9677325Y-22358984D02*
X9696373Y-22349460D01*
X9696373Y-22349460D02*
X9705896Y-22330412D01*
X9705896Y-22330412D02*
X9705896Y-22320889D01*
X9705896Y-22320889D02*
X9696373Y-22301841D01*
X9696373Y-22301841D02*
X9677325Y-22292317D01*
X9677325Y-22292317D02*
X9648753Y-22292317D01*
X9648753Y-22292317D02*
X9629706Y-22282793D01*
X9629706Y-22282793D02*
X9620182Y-22263746D01*
X9620182Y-22263746D02*
X9620182Y-22254222D01*
X9620182Y-22254222D02*
X9629706Y-22235174D01*
X9629706Y-22235174D02*
X9648753Y-22225650D01*
X9648753Y-22225650D02*
X9677325Y-22225650D01*
X9677325Y-22225650D02*
X9696373Y-22235174D01*
X9772563Y-22435174D02*
X9782087Y-22425650D01*
X9782087Y-22425650D02*
X9801134Y-22397079D01*
X9801134Y-22397079D02*
X9810658Y-22378031D01*
X9810658Y-22378031D02*
X9820182Y-22349460D01*
X9820182Y-22349460D02*
X9829706Y-22301841D01*
X9829706Y-22301841D02*
X9829706Y-22263746D01*
X9829706Y-22263746D02*
X9820182Y-22216127D01*
X9820182Y-22216127D02*
X9810658Y-22187555D01*
X9810658Y-22187555D02*
X9801134Y-22168508D01*
X9801134Y-22168508D02*
X9782087Y-22139936D01*
X9782087Y-22139936D02*
X9772563Y-22130412D01*
X10134468Y-22435174D02*
X10124944Y-22425650D01*
X10124944Y-22425650D02*
X10105896Y-22397079D01*
X10105896Y-22397079D02*
X10096373Y-22378031D01*
X10096373Y-22378031D02*
X10086849Y-22349460D01*
X10086849Y-22349460D02*
X10077325Y-22301841D01*
X10077325Y-22301841D02*
X10077325Y-22263746D01*
X10077325Y-22263746D02*
X10086849Y-22216127D01*
X10086849Y-22216127D02*
X10096373Y-22187555D01*
X10096373Y-22187555D02*
X10105896Y-22168508D01*
X10105896Y-22168508D02*
X10124944Y-22139936D01*
X10124944Y-22139936D02*
X10134468Y-22130412D01*
X10210658Y-22225650D02*
X10210658Y-22358984D01*
X10210658Y-22244698D02*
X10220182Y-22235174D01*
X10220182Y-22235174D02*
X10239230Y-22225650D01*
X10239230Y-22225650D02*
X10267801Y-22225650D01*
X10267801Y-22225650D02*
X10286849Y-22235174D01*
X10286849Y-22235174D02*
X10296373Y-22254222D01*
X10296373Y-22254222D02*
X10296373Y-22358984D01*
X10420182Y-22358984D02*
X10401134Y-22349460D01*
X10401134Y-22349460D02*
X10391611Y-22339936D01*
X10391611Y-22339936D02*
X10382087Y-22320889D01*
X10382087Y-22320889D02*
X10382087Y-22263746D01*
X10382087Y-22263746D02*
X10391611Y-22244698D01*
X10391611Y-22244698D02*
X10401134Y-22235174D01*
X10401134Y-22235174D02*
X10420182Y-22225650D01*
X10420182Y-22225650D02*
X10448754Y-22225650D01*
X10448754Y-22225650D02*
X10467801Y-22235174D01*
X10467801Y-22235174D02*
X10477325Y-22244698D01*
X10477325Y-22244698D02*
X10486849Y-22263746D01*
X10486849Y-22263746D02*
X10486849Y-22320889D01*
X10486849Y-22320889D02*
X10477325Y-22339936D01*
X10477325Y-22339936D02*
X10467801Y-22349460D01*
X10467801Y-22349460D02*
X10448754Y-22358984D01*
X10448754Y-22358984D02*
X10420182Y-22358984D01*
X10543992Y-22225650D02*
X10620182Y-22225650D01*
X10572563Y-22158984D02*
X10572563Y-22330412D01*
X10572563Y-22330412D02*
X10582087Y-22349460D01*
X10582087Y-22349460D02*
X10601134Y-22358984D01*
X10601134Y-22358984D02*
X10620182Y-22358984D01*
X10839230Y-22225650D02*
X10839230Y-22425650D01*
X10839230Y-22235174D02*
X10858277Y-22225650D01*
X10858277Y-22225650D02*
X10896373Y-22225650D01*
X10896373Y-22225650D02*
X10915420Y-22235174D01*
X10915420Y-22235174D02*
X10924944Y-22244698D01*
X10924944Y-22244698D02*
X10934468Y-22263746D01*
X10934468Y-22263746D02*
X10934468Y-22320889D01*
X10934468Y-22320889D02*
X10924944Y-22339936D01*
X10924944Y-22339936D02*
X10915420Y-22349460D01*
X10915420Y-22349460D02*
X10896373Y-22358984D01*
X10896373Y-22358984D02*
X10858277Y-22358984D01*
X10858277Y-22358984D02*
X10839230Y-22349460D01*
X11048754Y-22358984D02*
X11029706Y-22349460D01*
X11029706Y-22349460D02*
X11020182Y-22330412D01*
X11020182Y-22330412D02*
X11020182Y-22158984D01*
X11210658Y-22358984D02*
X11210658Y-22254222D01*
X11210658Y-22254222D02*
X11201134Y-22235174D01*
X11201134Y-22235174D02*
X11182087Y-22225650D01*
X11182087Y-22225650D02*
X11143992Y-22225650D01*
X11143992Y-22225650D02*
X11124944Y-22235174D01*
X11210658Y-22349460D02*
X11191611Y-22358984D01*
X11191611Y-22358984D02*
X11143992Y-22358984D01*
X11143992Y-22358984D02*
X11124944Y-22349460D01*
X11124944Y-22349460D02*
X11115420Y-22330412D01*
X11115420Y-22330412D02*
X11115420Y-22311365D01*
X11115420Y-22311365D02*
X11124944Y-22292317D01*
X11124944Y-22292317D02*
X11143992Y-22282793D01*
X11143992Y-22282793D02*
X11191611Y-22282793D01*
X11191611Y-22282793D02*
X11210658Y-22273270D01*
X11277325Y-22225650D02*
X11353515Y-22225650D01*
X11305896Y-22158984D02*
X11305896Y-22330412D01*
X11305896Y-22330412D02*
X11315420Y-22349460D01*
X11315420Y-22349460D02*
X11334468Y-22358984D01*
X11334468Y-22358984D02*
X11353515Y-22358984D01*
X11496373Y-22349460D02*
X11477325Y-22358984D01*
X11477325Y-22358984D02*
X11439230Y-22358984D01*
X11439230Y-22358984D02*
X11420182Y-22349460D01*
X11420182Y-22349460D02*
X11410658Y-22330412D01*
X11410658Y-22330412D02*
X11410658Y-22254222D01*
X11410658Y-22254222D02*
X11420182Y-22235174D01*
X11420182Y-22235174D02*
X11439230Y-22225650D01*
X11439230Y-22225650D02*
X11477325Y-22225650D01*
X11477325Y-22225650D02*
X11496373Y-22235174D01*
X11496373Y-22235174D02*
X11505896Y-22254222D01*
X11505896Y-22254222D02*
X11505896Y-22273270D01*
X11505896Y-22273270D02*
X11410658Y-22292317D01*
X11677325Y-22358984D02*
X11677325Y-22158984D01*
X11677325Y-22349460D02*
X11658277Y-22358984D01*
X11658277Y-22358984D02*
X11620182Y-22358984D01*
X11620182Y-22358984D02*
X11601134Y-22349460D01*
X11601134Y-22349460D02*
X11591611Y-22339936D01*
X11591611Y-22339936D02*
X11582087Y-22320889D01*
X11582087Y-22320889D02*
X11582087Y-22263746D01*
X11582087Y-22263746D02*
X11591611Y-22244698D01*
X11591611Y-22244698D02*
X11601134Y-22235174D01*
X11601134Y-22235174D02*
X11620182Y-22225650D01*
X11620182Y-22225650D02*
X11658277Y-22225650D01*
X11658277Y-22225650D02*
X11677325Y-22235174D01*
X11753515Y-22435174D02*
X11763039Y-22425650D01*
X11763039Y-22425650D02*
X11782087Y-22397079D01*
X11782087Y-22397079D02*
X11791611Y-22378031D01*
X11791611Y-22378031D02*
X11801134Y-22349460D01*
X11801134Y-22349460D02*
X11810658Y-22301841D01*
X11810658Y-22301841D02*
X11810658Y-22263746D01*
X11810658Y-22263746D02*
X11801134Y-22216127D01*
X11801134Y-22216127D02*
X11791611Y-22187555D01*
X11791611Y-22187555D02*
X11782087Y-22168508D01*
X11782087Y-22168508D02*
X11763039Y-22139936D01*
X11763039Y-22139936D02*
X11753515Y-22130412D01*
M02*
