%TF.GenerationSoftware,KiCad,Pcbnew,9.0.0*%
%TF.CreationDate,2025-03-25T20:45:54+10:00*%
%TF.ProjectId,PicoSax,5069636f-5361-4782-9e6b-696361645f70,rev?*%
%TF.SameCoordinates,Original*%
%TF.FileFunction,Drillmap*%
%TF.FilePolarity,Positive*%
%FSLAX45Y45*%
G04 Gerber Fmt 4.5, Leading zero omitted, Abs format (unit mm)*
G04 Created by KiCad (PCBNEW 9.0.0) date 2025-03-25 20:45:54*
%MOMM*%
%LPD*%
G01*
G04 APERTURE LIST*
%ADD10C,0.050000*%
%ADD11C,0.200000*%
%ADD12C,0.100000*%
%ADD13C,0.110000*%
%ADD14C,0.170000*%
G04 APERTURE END LIST*
D10*
X5000000Y-5000000D02*
X15000000Y-5000000D01*
X15000000Y-21000000D01*
X5000000Y-21000000D01*
X5000000Y-5000000D01*
D11*
D12*
X5985000Y-17385000D02*
X6015000Y-17415000D01*
X6015000Y-17385000D02*
X5985000Y-17415000D01*
X6685000Y-6385000D02*
X6715000Y-6415000D01*
X6715000Y-6385000D02*
X6685000Y-6415000D01*
X6685000Y-6585000D02*
X6715000Y-6615000D01*
X6715000Y-6585000D02*
X6685000Y-6615000D01*
X6785000Y-17401250D02*
X6815000Y-17431250D01*
X6815000Y-17401250D02*
X6785000Y-17431250D01*
X7285000Y-6685000D02*
X7315000Y-6715000D01*
X7315000Y-6685000D02*
X7285000Y-6715000D01*
X8285000Y-7885000D02*
X8315000Y-7915000D01*
X8315000Y-7885000D02*
X8285000Y-7915000D01*
X9085000Y-8985000D02*
X9115000Y-9015000D01*
X9115000Y-8985000D02*
X9085000Y-9015000D01*
X10885000Y-8685000D02*
X10915000Y-8715000D01*
X10915000Y-8685000D02*
X10885000Y-8715000D01*
X12685000Y-6585000D02*
X12715000Y-6615000D01*
X12715000Y-6585000D02*
X12685000Y-6615000D01*
X13585000Y-6385000D02*
X13615000Y-6415000D01*
X13615000Y-6385000D02*
X13585000Y-6415000D01*
X13685000Y-6585000D02*
X13715000Y-6615000D01*
X13715000Y-6585000D02*
X13685000Y-6615000D01*
X13935000Y-18185000D02*
X13965000Y-18215000D01*
X13965000Y-18185000D02*
X13935000Y-18215000D01*
X5872500Y-7181000D02*
G75*
G02*
X5772500Y-7181000I-50000J0D01*
G01*
X5772500Y-7181000D02*
G75*
G02*
X5872500Y-7181000I50000J0D01*
G01*
X6227500Y-6219000D02*
G75*
G02*
X6127500Y-6219000I-50000J0D01*
G01*
X6127500Y-6219000D02*
G75*
G02*
X6227500Y-6219000I50000J0D01*
G01*
X6250000Y-20700000D02*
G75*
G02*
X6150000Y-20700000I-50000J0D01*
G01*
X6150000Y-20700000D02*
G75*
G02*
X6250000Y-20700000I50000J0D01*
G01*
X6372500Y-9181000D02*
G75*
G02*
X6272500Y-9181000I-50000J0D01*
G01*
X6272500Y-9181000D02*
G75*
G02*
X6372500Y-9181000I50000J0D01*
G01*
X6372500Y-14881000D02*
G75*
G02*
X6272500Y-14881000I-50000J0D01*
G01*
X6272500Y-14881000D02*
G75*
G02*
X6372500Y-14881000I50000J0D01*
G01*
X6372500Y-16781000D02*
G75*
G02*
X6272500Y-16781000I-50000J0D01*
G01*
X6272500Y-16781000D02*
G75*
G02*
X6372500Y-16781000I50000J0D01*
G01*
X6504000Y-20700000D02*
G75*
G02*
X6404000Y-20700000I-50000J0D01*
G01*
X6404000Y-20700000D02*
G75*
G02*
X6504000Y-20700000I50000J0D01*
G01*
X6727500Y-8219000D02*
G75*
G02*
X6627500Y-8219000I-50000J0D01*
G01*
X6627500Y-8219000D02*
G75*
G02*
X6727500Y-8219000I50000J0D01*
G01*
X6727500Y-13919000D02*
G75*
G02*
X6627500Y-13919000I-50000J0D01*
G01*
X6627500Y-13919000D02*
G75*
G02*
X6727500Y-13919000I50000J0D01*
G01*
X6727500Y-15819000D02*
G75*
G02*
X6627500Y-15819000I-50000J0D01*
G01*
X6627500Y-15819000D02*
G75*
G02*
X6727500Y-15819000I50000J0D01*
G01*
X6872500Y-11081000D02*
G75*
G02*
X6772500Y-11081000I-50000J0D01*
G01*
X6772500Y-11081000D02*
G75*
G02*
X6872500Y-11081000I50000J0D01*
G01*
X6872500Y-12981000D02*
G75*
G02*
X6772500Y-12981000I-50000J0D01*
G01*
X6772500Y-12981000D02*
G75*
G02*
X6872500Y-12981000I50000J0D01*
G01*
X6872500Y-19981000D02*
G75*
G02*
X6772500Y-19981000I-50000J0D01*
G01*
X6772500Y-19981000D02*
G75*
G02*
X6872500Y-19981000I50000J0D01*
G01*
X7227500Y-10119000D02*
G75*
G02*
X7127500Y-10119000I-50000J0D01*
G01*
X7127500Y-10119000D02*
G75*
G02*
X7227500Y-10119000I50000J0D01*
G01*
X7227500Y-12019000D02*
G75*
G02*
X7127500Y-12019000I-50000J0D01*
G01*
X7127500Y-12019000D02*
G75*
G02*
X7227500Y-12019000I50000J0D01*
G01*
X7227500Y-19019000D02*
G75*
G02*
X7127500Y-19019000I-50000J0D01*
G01*
X7127500Y-19019000D02*
G75*
G02*
X7227500Y-19019000I50000J0D01*
G01*
X7672500Y-8219000D02*
G75*
G02*
X7572500Y-8219000I-50000J0D01*
G01*
X7572500Y-8219000D02*
G75*
G02*
X7672500Y-8219000I50000J0D01*
G01*
X8027500Y-9181000D02*
G75*
G02*
X7927500Y-9181000I-50000J0D01*
G01*
X7927500Y-9181000D02*
G75*
G02*
X8027500Y-9181000I50000J0D01*
G01*
X8490000Y-15638250D02*
G75*
G02*
X8390000Y-15638250I-50000J0D01*
G01*
X8390000Y-15638250D02*
G75*
G02*
X8490000Y-15638250I50000J0D01*
G01*
X8490000Y-15892250D02*
G75*
G02*
X8390000Y-15892250I-50000J0D01*
G01*
X8390000Y-15892250D02*
G75*
G02*
X8490000Y-15892250I50000J0D01*
G01*
X8490000Y-16146250D02*
G75*
G02*
X8390000Y-16146250I-50000J0D01*
G01*
X8390000Y-16146250D02*
G75*
G02*
X8490000Y-16146250I50000J0D01*
G01*
X8490000Y-16400250D02*
G75*
G02*
X8390000Y-16400250I-50000J0D01*
G01*
X8390000Y-16400250D02*
G75*
G02*
X8490000Y-16400250I50000J0D01*
G01*
X8490000Y-16654250D02*
G75*
G02*
X8390000Y-16654250I-50000J0D01*
G01*
X8390000Y-16654250D02*
G75*
G02*
X8490000Y-16654250I50000J0D01*
G01*
X8490000Y-16908250D02*
G75*
G02*
X8390000Y-16908250I-50000J0D01*
G01*
X8390000Y-16908250D02*
G75*
G02*
X8490000Y-16908250I50000J0D01*
G01*
X8490000Y-17162250D02*
G75*
G02*
X8390000Y-17162250I-50000J0D01*
G01*
X8390000Y-17162250D02*
G75*
G02*
X8490000Y-17162250I50000J0D01*
G01*
X8490000Y-17416250D02*
G75*
G02*
X8390000Y-17416250I-50000J0D01*
G01*
X8390000Y-17416250D02*
G75*
G02*
X8490000Y-17416250I50000J0D01*
G01*
X8490000Y-17670250D02*
G75*
G02*
X8390000Y-17670250I-50000J0D01*
G01*
X8390000Y-17670250D02*
G75*
G02*
X8490000Y-17670250I50000J0D01*
G01*
X8490000Y-17924250D02*
G75*
G02*
X8390000Y-17924250I-50000J0D01*
G01*
X8390000Y-17924250D02*
G75*
G02*
X8490000Y-17924250I50000J0D01*
G01*
X8490000Y-18178250D02*
G75*
G02*
X8390000Y-18178250I-50000J0D01*
G01*
X8390000Y-18178250D02*
G75*
G02*
X8490000Y-18178250I50000J0D01*
G01*
X8490000Y-18432250D02*
G75*
G02*
X8390000Y-18432250I-50000J0D01*
G01*
X8390000Y-18432250D02*
G75*
G02*
X8490000Y-18432250I50000J0D01*
G01*
X8490000Y-18686250D02*
G75*
G02*
X8390000Y-18686250I-50000J0D01*
G01*
X8390000Y-18686250D02*
G75*
G02*
X8490000Y-18686250I50000J0D01*
G01*
X8490000Y-18940250D02*
G75*
G02*
X8390000Y-18940250I-50000J0D01*
G01*
X8390000Y-18940250D02*
G75*
G02*
X8490000Y-18940250I50000J0D01*
G01*
X8490000Y-19194250D02*
G75*
G02*
X8390000Y-19194250I-50000J0D01*
G01*
X8390000Y-19194250D02*
G75*
G02*
X8490000Y-19194250I50000J0D01*
G01*
X8490000Y-19448250D02*
G75*
G02*
X8390000Y-19448250I-50000J0D01*
G01*
X8390000Y-19448250D02*
G75*
G02*
X8490000Y-19448250I50000J0D01*
G01*
X8490000Y-19702250D02*
G75*
G02*
X8390000Y-19702250I-50000J0D01*
G01*
X8390000Y-19702250D02*
G75*
G02*
X8490000Y-19702250I50000J0D01*
G01*
X8490000Y-19956250D02*
G75*
G02*
X8390000Y-19956250I-50000J0D01*
G01*
X8390000Y-19956250D02*
G75*
G02*
X8490000Y-19956250I50000J0D01*
G01*
X8490000Y-20210250D02*
G75*
G02*
X8390000Y-20210250I-50000J0D01*
G01*
X8390000Y-20210250D02*
G75*
G02*
X8490000Y-20210250I50000J0D01*
G01*
X8490000Y-20464250D02*
G75*
G02*
X8390000Y-20464250I-50000J0D01*
G01*
X8390000Y-20464250D02*
G75*
G02*
X8490000Y-20464250I50000J0D01*
G01*
X8653000Y-9987000D02*
G75*
G02*
X8553000Y-9987000I-50000J0D01*
G01*
X8553000Y-9987000D02*
G75*
G02*
X8653000Y-9987000I50000J0D01*
G01*
X8653000Y-10241000D02*
G75*
G02*
X8553000Y-10241000I-50000J0D01*
G01*
X8553000Y-10241000D02*
G75*
G02*
X8653000Y-10241000I50000J0D01*
G01*
X8653000Y-10495000D02*
G75*
G02*
X8553000Y-10495000I-50000J0D01*
G01*
X8553000Y-10495000D02*
G75*
G02*
X8653000Y-10495000I50000J0D01*
G01*
X8653000Y-10749000D02*
G75*
G02*
X8553000Y-10749000I-50000J0D01*
G01*
X8553000Y-10749000D02*
G75*
G02*
X8653000Y-10749000I50000J0D01*
G01*
X8653000Y-11003000D02*
G75*
G02*
X8553000Y-11003000I-50000J0D01*
G01*
X8553000Y-11003000D02*
G75*
G02*
X8653000Y-11003000I50000J0D01*
G01*
X8653000Y-11257000D02*
G75*
G02*
X8553000Y-11257000I-50000J0D01*
G01*
X8553000Y-11257000D02*
G75*
G02*
X8653000Y-11257000I50000J0D01*
G01*
X8653000Y-11511000D02*
G75*
G02*
X8553000Y-11511000I-50000J0D01*
G01*
X8553000Y-11511000D02*
G75*
G02*
X8653000Y-11511000I50000J0D01*
G01*
X8653000Y-11765000D02*
G75*
G02*
X8553000Y-11765000I-50000J0D01*
G01*
X8553000Y-11765000D02*
G75*
G02*
X8653000Y-11765000I50000J0D01*
G01*
X8653000Y-12019000D02*
G75*
G02*
X8553000Y-12019000I-50000J0D01*
G01*
X8553000Y-12019000D02*
G75*
G02*
X8653000Y-12019000I50000J0D01*
G01*
X8653000Y-12273000D02*
G75*
G02*
X8553000Y-12273000I-50000J0D01*
G01*
X8553000Y-12273000D02*
G75*
G02*
X8653000Y-12273000I50000J0D01*
G01*
X8653000Y-12527000D02*
G75*
G02*
X8553000Y-12527000I-50000J0D01*
G01*
X8553000Y-12527000D02*
G75*
G02*
X8653000Y-12527000I50000J0D01*
G01*
X8653000Y-12781000D02*
G75*
G02*
X8553000Y-12781000I-50000J0D01*
G01*
X8553000Y-12781000D02*
G75*
G02*
X8653000Y-12781000I50000J0D01*
G01*
X8653000Y-13035000D02*
G75*
G02*
X8553000Y-13035000I-50000J0D01*
G01*
X8553000Y-13035000D02*
G75*
G02*
X8653000Y-13035000I50000J0D01*
G01*
X8653000Y-13289000D02*
G75*
G02*
X8553000Y-13289000I-50000J0D01*
G01*
X8553000Y-13289000D02*
G75*
G02*
X8653000Y-13289000I50000J0D01*
G01*
X8653000Y-13543000D02*
G75*
G02*
X8553000Y-13543000I-50000J0D01*
G01*
X8553000Y-13543000D02*
G75*
G02*
X8653000Y-13543000I50000J0D01*
G01*
X8653000Y-13797000D02*
G75*
G02*
X8553000Y-13797000I-50000J0D01*
G01*
X8553000Y-13797000D02*
G75*
G02*
X8653000Y-13797000I50000J0D01*
G01*
X8653000Y-14051000D02*
G75*
G02*
X8553000Y-14051000I-50000J0D01*
G01*
X8553000Y-14051000D02*
G75*
G02*
X8653000Y-14051000I50000J0D01*
G01*
X8653000Y-14305000D02*
G75*
G02*
X8553000Y-14305000I-50000J0D01*
G01*
X8553000Y-14305000D02*
G75*
G02*
X8653000Y-14305000I50000J0D01*
G01*
X8653000Y-14559000D02*
G75*
G02*
X8553000Y-14559000I-50000J0D01*
G01*
X8553000Y-14559000D02*
G75*
G02*
X8653000Y-14559000I50000J0D01*
G01*
X8653000Y-14813000D02*
G75*
G02*
X8553000Y-14813000I-50000J0D01*
G01*
X8553000Y-14813000D02*
G75*
G02*
X8653000Y-14813000I50000J0D01*
G01*
X8907000Y-9987000D02*
G75*
G02*
X8807000Y-9987000I-50000J0D01*
G01*
X8807000Y-9987000D02*
G75*
G02*
X8907000Y-9987000I50000J0D01*
G01*
X8907000Y-10241000D02*
G75*
G02*
X8807000Y-10241000I-50000J0D01*
G01*
X8807000Y-10241000D02*
G75*
G02*
X8907000Y-10241000I50000J0D01*
G01*
X8907000Y-10495000D02*
G75*
G02*
X8807000Y-10495000I-50000J0D01*
G01*
X8807000Y-10495000D02*
G75*
G02*
X8907000Y-10495000I50000J0D01*
G01*
X8907000Y-10749000D02*
G75*
G02*
X8807000Y-10749000I-50000J0D01*
G01*
X8807000Y-10749000D02*
G75*
G02*
X8907000Y-10749000I50000J0D01*
G01*
X8907000Y-11003000D02*
G75*
G02*
X8807000Y-11003000I-50000J0D01*
G01*
X8807000Y-11003000D02*
G75*
G02*
X8907000Y-11003000I50000J0D01*
G01*
X8907000Y-11257000D02*
G75*
G02*
X8807000Y-11257000I-50000J0D01*
G01*
X8807000Y-11257000D02*
G75*
G02*
X8907000Y-11257000I50000J0D01*
G01*
X8907000Y-11511000D02*
G75*
G02*
X8807000Y-11511000I-50000J0D01*
G01*
X8807000Y-11511000D02*
G75*
G02*
X8907000Y-11511000I50000J0D01*
G01*
X8907000Y-11765000D02*
G75*
G02*
X8807000Y-11765000I-50000J0D01*
G01*
X8807000Y-11765000D02*
G75*
G02*
X8907000Y-11765000I50000J0D01*
G01*
X8907000Y-12019000D02*
G75*
G02*
X8807000Y-12019000I-50000J0D01*
G01*
X8807000Y-12019000D02*
G75*
G02*
X8907000Y-12019000I50000J0D01*
G01*
X8907000Y-12273000D02*
G75*
G02*
X8807000Y-12273000I-50000J0D01*
G01*
X8807000Y-12273000D02*
G75*
G02*
X8907000Y-12273000I50000J0D01*
G01*
X8907000Y-12527000D02*
G75*
G02*
X8807000Y-12527000I-50000J0D01*
G01*
X8807000Y-12527000D02*
G75*
G02*
X8907000Y-12527000I50000J0D01*
G01*
X8907000Y-12781000D02*
G75*
G02*
X8807000Y-12781000I-50000J0D01*
G01*
X8807000Y-12781000D02*
G75*
G02*
X8907000Y-12781000I50000J0D01*
G01*
X8907000Y-13035000D02*
G75*
G02*
X8807000Y-13035000I-50000J0D01*
G01*
X8807000Y-13035000D02*
G75*
G02*
X8907000Y-13035000I50000J0D01*
G01*
X8907000Y-13289000D02*
G75*
G02*
X8807000Y-13289000I-50000J0D01*
G01*
X8807000Y-13289000D02*
G75*
G02*
X8907000Y-13289000I50000J0D01*
G01*
X8907000Y-13543000D02*
G75*
G02*
X8807000Y-13543000I-50000J0D01*
G01*
X8807000Y-13543000D02*
G75*
G02*
X8907000Y-13543000I50000J0D01*
G01*
X8907000Y-13797000D02*
G75*
G02*
X8807000Y-13797000I-50000J0D01*
G01*
X8807000Y-13797000D02*
G75*
G02*
X8907000Y-13797000I50000J0D01*
G01*
X8907000Y-14051000D02*
G75*
G02*
X8807000Y-14051000I-50000J0D01*
G01*
X8807000Y-14051000D02*
G75*
G02*
X8907000Y-14051000I50000J0D01*
G01*
X8907000Y-14305000D02*
G75*
G02*
X8807000Y-14305000I-50000J0D01*
G01*
X8807000Y-14305000D02*
G75*
G02*
X8907000Y-14305000I50000J0D01*
G01*
X8907000Y-14559000D02*
G75*
G02*
X8807000Y-14559000I-50000J0D01*
G01*
X8807000Y-14559000D02*
G75*
G02*
X8907000Y-14559000I50000J0D01*
G01*
X8907000Y-14813000D02*
G75*
G02*
X8807000Y-14813000I-50000J0D01*
G01*
X8807000Y-14813000D02*
G75*
G02*
X8907000Y-14813000I50000J0D01*
G01*
X9161000Y-9987000D02*
G75*
G02*
X9061000Y-9987000I-50000J0D01*
G01*
X9061000Y-9987000D02*
G75*
G02*
X9161000Y-9987000I50000J0D01*
G01*
X9161000Y-10241000D02*
G75*
G02*
X9061000Y-10241000I-50000J0D01*
G01*
X9061000Y-10241000D02*
G75*
G02*
X9161000Y-10241000I50000J0D01*
G01*
X9161000Y-10495000D02*
G75*
G02*
X9061000Y-10495000I-50000J0D01*
G01*
X9061000Y-10495000D02*
G75*
G02*
X9161000Y-10495000I50000J0D01*
G01*
X9161000Y-10749000D02*
G75*
G02*
X9061000Y-10749000I-50000J0D01*
G01*
X9061000Y-10749000D02*
G75*
G02*
X9161000Y-10749000I50000J0D01*
G01*
X9161000Y-11003000D02*
G75*
G02*
X9061000Y-11003000I-50000J0D01*
G01*
X9061000Y-11003000D02*
G75*
G02*
X9161000Y-11003000I50000J0D01*
G01*
X9161000Y-11257000D02*
G75*
G02*
X9061000Y-11257000I-50000J0D01*
G01*
X9061000Y-11257000D02*
G75*
G02*
X9161000Y-11257000I50000J0D01*
G01*
X9161000Y-11511000D02*
G75*
G02*
X9061000Y-11511000I-50000J0D01*
G01*
X9061000Y-11511000D02*
G75*
G02*
X9161000Y-11511000I50000J0D01*
G01*
X9161000Y-11765000D02*
G75*
G02*
X9061000Y-11765000I-50000J0D01*
G01*
X9061000Y-11765000D02*
G75*
G02*
X9161000Y-11765000I50000J0D01*
G01*
X9161000Y-12019000D02*
G75*
G02*
X9061000Y-12019000I-50000J0D01*
G01*
X9061000Y-12019000D02*
G75*
G02*
X9161000Y-12019000I50000J0D01*
G01*
X9161000Y-12273000D02*
G75*
G02*
X9061000Y-12273000I-50000J0D01*
G01*
X9061000Y-12273000D02*
G75*
G02*
X9161000Y-12273000I50000J0D01*
G01*
X9161000Y-12527000D02*
G75*
G02*
X9061000Y-12527000I-50000J0D01*
G01*
X9061000Y-12527000D02*
G75*
G02*
X9161000Y-12527000I50000J0D01*
G01*
X9161000Y-12781000D02*
G75*
G02*
X9061000Y-12781000I-50000J0D01*
G01*
X9061000Y-12781000D02*
G75*
G02*
X9161000Y-12781000I50000J0D01*
G01*
X9161000Y-13035000D02*
G75*
G02*
X9061000Y-13035000I-50000J0D01*
G01*
X9061000Y-13035000D02*
G75*
G02*
X9161000Y-13035000I50000J0D01*
G01*
X9161000Y-13289000D02*
G75*
G02*
X9061000Y-13289000I-50000J0D01*
G01*
X9061000Y-13289000D02*
G75*
G02*
X9161000Y-13289000I50000J0D01*
G01*
X9161000Y-13543000D02*
G75*
G02*
X9061000Y-13543000I-50000J0D01*
G01*
X9061000Y-13543000D02*
G75*
G02*
X9161000Y-13543000I50000J0D01*
G01*
X9161000Y-13797000D02*
G75*
G02*
X9061000Y-13797000I-50000J0D01*
G01*
X9061000Y-13797000D02*
G75*
G02*
X9161000Y-13797000I50000J0D01*
G01*
X9161000Y-14051000D02*
G75*
G02*
X9061000Y-14051000I-50000J0D01*
G01*
X9061000Y-14051000D02*
G75*
G02*
X9161000Y-14051000I50000J0D01*
G01*
X9161000Y-14305000D02*
G75*
G02*
X9061000Y-14305000I-50000J0D01*
G01*
X9061000Y-14305000D02*
G75*
G02*
X9161000Y-14305000I50000J0D01*
G01*
X9161000Y-14559000D02*
G75*
G02*
X9061000Y-14559000I-50000J0D01*
G01*
X9061000Y-14559000D02*
G75*
G02*
X9161000Y-14559000I50000J0D01*
G01*
X9161000Y-14813000D02*
G75*
G02*
X9061000Y-14813000I-50000J0D01*
G01*
X9061000Y-14813000D02*
G75*
G02*
X9161000Y-14813000I50000J0D01*
G01*
X9161000Y-15633250D02*
G75*
G02*
X9061000Y-15633250I-50000J0D01*
G01*
X9061000Y-15633250D02*
G75*
G02*
X9161000Y-15633250I50000J0D01*
G01*
X9161000Y-15887250D02*
G75*
G02*
X9061000Y-15887250I-50000J0D01*
G01*
X9061000Y-15887250D02*
G75*
G02*
X9161000Y-15887250I50000J0D01*
G01*
X9161000Y-16141250D02*
G75*
G02*
X9061000Y-16141250I-50000J0D01*
G01*
X9061000Y-16141250D02*
G75*
G02*
X9161000Y-16141250I50000J0D01*
G01*
X9161000Y-16395250D02*
G75*
G02*
X9061000Y-16395250I-50000J0D01*
G01*
X9061000Y-16395250D02*
G75*
G02*
X9161000Y-16395250I50000J0D01*
G01*
X9161000Y-16649250D02*
G75*
G02*
X9061000Y-16649250I-50000J0D01*
G01*
X9061000Y-16649250D02*
G75*
G02*
X9161000Y-16649250I50000J0D01*
G01*
X9161000Y-16903250D02*
G75*
G02*
X9061000Y-16903250I-50000J0D01*
G01*
X9061000Y-16903250D02*
G75*
G02*
X9161000Y-16903250I50000J0D01*
G01*
X9161000Y-17157250D02*
G75*
G02*
X9061000Y-17157250I-50000J0D01*
G01*
X9061000Y-17157250D02*
G75*
G02*
X9161000Y-17157250I50000J0D01*
G01*
X9161000Y-17411250D02*
G75*
G02*
X9061000Y-17411250I-50000J0D01*
G01*
X9061000Y-17411250D02*
G75*
G02*
X9161000Y-17411250I50000J0D01*
G01*
X9161000Y-17665250D02*
G75*
G02*
X9061000Y-17665250I-50000J0D01*
G01*
X9061000Y-17665250D02*
G75*
G02*
X9161000Y-17665250I50000J0D01*
G01*
X9161000Y-17919250D02*
G75*
G02*
X9061000Y-17919250I-50000J0D01*
G01*
X9061000Y-17919250D02*
G75*
G02*
X9161000Y-17919250I50000J0D01*
G01*
X9161000Y-18173250D02*
G75*
G02*
X9061000Y-18173250I-50000J0D01*
G01*
X9061000Y-18173250D02*
G75*
G02*
X9161000Y-18173250I50000J0D01*
G01*
X9161000Y-18427250D02*
G75*
G02*
X9061000Y-18427250I-50000J0D01*
G01*
X9061000Y-18427250D02*
G75*
G02*
X9161000Y-18427250I50000J0D01*
G01*
X9161000Y-18681250D02*
G75*
G02*
X9061000Y-18681250I-50000J0D01*
G01*
X9061000Y-18681250D02*
G75*
G02*
X9161000Y-18681250I50000J0D01*
G01*
X9161000Y-18935250D02*
G75*
G02*
X9061000Y-18935250I-50000J0D01*
G01*
X9061000Y-18935250D02*
G75*
G02*
X9161000Y-18935250I50000J0D01*
G01*
X9161000Y-19189250D02*
G75*
G02*
X9061000Y-19189250I-50000J0D01*
G01*
X9061000Y-19189250D02*
G75*
G02*
X9161000Y-19189250I50000J0D01*
G01*
X9161000Y-19443250D02*
G75*
G02*
X9061000Y-19443250I-50000J0D01*
G01*
X9061000Y-19443250D02*
G75*
G02*
X9161000Y-19443250I50000J0D01*
G01*
X9161000Y-19697250D02*
G75*
G02*
X9061000Y-19697250I-50000J0D01*
G01*
X9061000Y-19697250D02*
G75*
G02*
X9161000Y-19697250I50000J0D01*
G01*
X9161000Y-19951250D02*
G75*
G02*
X9061000Y-19951250I-50000J0D01*
G01*
X9061000Y-19951250D02*
G75*
G02*
X9161000Y-19951250I50000J0D01*
G01*
X9161000Y-20205250D02*
G75*
G02*
X9061000Y-20205250I-50000J0D01*
G01*
X9061000Y-20205250D02*
G75*
G02*
X9161000Y-20205250I50000J0D01*
G01*
X9161000Y-20459250D02*
G75*
G02*
X9061000Y-20459250I-50000J0D01*
G01*
X9061000Y-20459250D02*
G75*
G02*
X9161000Y-20459250I50000J0D01*
G01*
X9415000Y-9987000D02*
G75*
G02*
X9315000Y-9987000I-50000J0D01*
G01*
X9315000Y-9987000D02*
G75*
G02*
X9415000Y-9987000I50000J0D01*
G01*
X9415000Y-10241000D02*
G75*
G02*
X9315000Y-10241000I-50000J0D01*
G01*
X9315000Y-10241000D02*
G75*
G02*
X9415000Y-10241000I50000J0D01*
G01*
X9415000Y-10495000D02*
G75*
G02*
X9315000Y-10495000I-50000J0D01*
G01*
X9315000Y-10495000D02*
G75*
G02*
X9415000Y-10495000I50000J0D01*
G01*
X9415000Y-10749000D02*
G75*
G02*
X9315000Y-10749000I-50000J0D01*
G01*
X9315000Y-10749000D02*
G75*
G02*
X9415000Y-10749000I50000J0D01*
G01*
X9415000Y-11003000D02*
G75*
G02*
X9315000Y-11003000I-50000J0D01*
G01*
X9315000Y-11003000D02*
G75*
G02*
X9415000Y-11003000I50000J0D01*
G01*
X9415000Y-11257000D02*
G75*
G02*
X9315000Y-11257000I-50000J0D01*
G01*
X9315000Y-11257000D02*
G75*
G02*
X9415000Y-11257000I50000J0D01*
G01*
X9415000Y-11511000D02*
G75*
G02*
X9315000Y-11511000I-50000J0D01*
G01*
X9315000Y-11511000D02*
G75*
G02*
X9415000Y-11511000I50000J0D01*
G01*
X9415000Y-11765000D02*
G75*
G02*
X9315000Y-11765000I-50000J0D01*
G01*
X9315000Y-11765000D02*
G75*
G02*
X9415000Y-11765000I50000J0D01*
G01*
X9415000Y-12019000D02*
G75*
G02*
X9315000Y-12019000I-50000J0D01*
G01*
X9315000Y-12019000D02*
G75*
G02*
X9415000Y-12019000I50000J0D01*
G01*
X9415000Y-12273000D02*
G75*
G02*
X9315000Y-12273000I-50000J0D01*
G01*
X9315000Y-12273000D02*
G75*
G02*
X9415000Y-12273000I50000J0D01*
G01*
X9415000Y-12527000D02*
G75*
G02*
X9315000Y-12527000I-50000J0D01*
G01*
X9315000Y-12527000D02*
G75*
G02*
X9415000Y-12527000I50000J0D01*
G01*
X9415000Y-12781000D02*
G75*
G02*
X9315000Y-12781000I-50000J0D01*
G01*
X9315000Y-12781000D02*
G75*
G02*
X9415000Y-12781000I50000J0D01*
G01*
X9415000Y-13035000D02*
G75*
G02*
X9315000Y-13035000I-50000J0D01*
G01*
X9315000Y-13035000D02*
G75*
G02*
X9415000Y-13035000I50000J0D01*
G01*
X9415000Y-13289000D02*
G75*
G02*
X9315000Y-13289000I-50000J0D01*
G01*
X9315000Y-13289000D02*
G75*
G02*
X9415000Y-13289000I50000J0D01*
G01*
X9415000Y-13543000D02*
G75*
G02*
X9315000Y-13543000I-50000J0D01*
G01*
X9315000Y-13543000D02*
G75*
G02*
X9415000Y-13543000I50000J0D01*
G01*
X9415000Y-13797000D02*
G75*
G02*
X9315000Y-13797000I-50000J0D01*
G01*
X9315000Y-13797000D02*
G75*
G02*
X9415000Y-13797000I50000J0D01*
G01*
X9415000Y-14051000D02*
G75*
G02*
X9315000Y-14051000I-50000J0D01*
G01*
X9315000Y-14051000D02*
G75*
G02*
X9415000Y-14051000I50000J0D01*
G01*
X9415000Y-14305000D02*
G75*
G02*
X9315000Y-14305000I-50000J0D01*
G01*
X9315000Y-14305000D02*
G75*
G02*
X9415000Y-14305000I50000J0D01*
G01*
X9415000Y-14559000D02*
G75*
G02*
X9315000Y-14559000I-50000J0D01*
G01*
X9315000Y-14559000D02*
G75*
G02*
X9415000Y-14559000I50000J0D01*
G01*
X9415000Y-14813000D02*
G75*
G02*
X9315000Y-14813000I-50000J0D01*
G01*
X9315000Y-14813000D02*
G75*
G02*
X9415000Y-14813000I50000J0D01*
G01*
X9669000Y-9987000D02*
G75*
G02*
X9569000Y-9987000I-50000J0D01*
G01*
X9569000Y-9987000D02*
G75*
G02*
X9669000Y-9987000I50000J0D01*
G01*
X9669000Y-10241000D02*
G75*
G02*
X9569000Y-10241000I-50000J0D01*
G01*
X9569000Y-10241000D02*
G75*
G02*
X9669000Y-10241000I50000J0D01*
G01*
X9669000Y-10495000D02*
G75*
G02*
X9569000Y-10495000I-50000J0D01*
G01*
X9569000Y-10495000D02*
G75*
G02*
X9669000Y-10495000I50000J0D01*
G01*
X9669000Y-10749000D02*
G75*
G02*
X9569000Y-10749000I-50000J0D01*
G01*
X9569000Y-10749000D02*
G75*
G02*
X9669000Y-10749000I50000J0D01*
G01*
X9669000Y-11003000D02*
G75*
G02*
X9569000Y-11003000I-50000J0D01*
G01*
X9569000Y-11003000D02*
G75*
G02*
X9669000Y-11003000I50000J0D01*
G01*
X9669000Y-11257000D02*
G75*
G02*
X9569000Y-11257000I-50000J0D01*
G01*
X9569000Y-11257000D02*
G75*
G02*
X9669000Y-11257000I50000J0D01*
G01*
X9669000Y-11511000D02*
G75*
G02*
X9569000Y-11511000I-50000J0D01*
G01*
X9569000Y-11511000D02*
G75*
G02*
X9669000Y-11511000I50000J0D01*
G01*
X9669000Y-11765000D02*
G75*
G02*
X9569000Y-11765000I-50000J0D01*
G01*
X9569000Y-11765000D02*
G75*
G02*
X9669000Y-11765000I50000J0D01*
G01*
X9669000Y-12019000D02*
G75*
G02*
X9569000Y-12019000I-50000J0D01*
G01*
X9569000Y-12019000D02*
G75*
G02*
X9669000Y-12019000I50000J0D01*
G01*
X9669000Y-12273000D02*
G75*
G02*
X9569000Y-12273000I-50000J0D01*
G01*
X9569000Y-12273000D02*
G75*
G02*
X9669000Y-12273000I50000J0D01*
G01*
X9669000Y-12527000D02*
G75*
G02*
X9569000Y-12527000I-50000J0D01*
G01*
X9569000Y-12527000D02*
G75*
G02*
X9669000Y-12527000I50000J0D01*
G01*
X9669000Y-12781000D02*
G75*
G02*
X9569000Y-12781000I-50000J0D01*
G01*
X9569000Y-12781000D02*
G75*
G02*
X9669000Y-12781000I50000J0D01*
G01*
X9669000Y-13035000D02*
G75*
G02*
X9569000Y-13035000I-50000J0D01*
G01*
X9569000Y-13035000D02*
G75*
G02*
X9669000Y-13035000I50000J0D01*
G01*
X9669000Y-13289000D02*
G75*
G02*
X9569000Y-13289000I-50000J0D01*
G01*
X9569000Y-13289000D02*
G75*
G02*
X9669000Y-13289000I50000J0D01*
G01*
X9669000Y-13543000D02*
G75*
G02*
X9569000Y-13543000I-50000J0D01*
G01*
X9569000Y-13543000D02*
G75*
G02*
X9669000Y-13543000I50000J0D01*
G01*
X9669000Y-13797000D02*
G75*
G02*
X9569000Y-13797000I-50000J0D01*
G01*
X9569000Y-13797000D02*
G75*
G02*
X9669000Y-13797000I50000J0D01*
G01*
X9669000Y-14051000D02*
G75*
G02*
X9569000Y-14051000I-50000J0D01*
G01*
X9569000Y-14051000D02*
G75*
G02*
X9669000Y-14051000I50000J0D01*
G01*
X9669000Y-14305000D02*
G75*
G02*
X9569000Y-14305000I-50000J0D01*
G01*
X9569000Y-14305000D02*
G75*
G02*
X9669000Y-14305000I50000J0D01*
G01*
X9669000Y-14559000D02*
G75*
G02*
X9569000Y-14559000I-50000J0D01*
G01*
X9569000Y-14559000D02*
G75*
G02*
X9669000Y-14559000I50000J0D01*
G01*
X9669000Y-14813000D02*
G75*
G02*
X9569000Y-14813000I-50000J0D01*
G01*
X9569000Y-14813000D02*
G75*
G02*
X9669000Y-14813000I50000J0D01*
G01*
X9923000Y-9987000D02*
G75*
G02*
X9823000Y-9987000I-50000J0D01*
G01*
X9823000Y-9987000D02*
G75*
G02*
X9923000Y-9987000I50000J0D01*
G01*
X9923000Y-10241000D02*
G75*
G02*
X9823000Y-10241000I-50000J0D01*
G01*
X9823000Y-10241000D02*
G75*
G02*
X9923000Y-10241000I50000J0D01*
G01*
X9923000Y-10495000D02*
G75*
G02*
X9823000Y-10495000I-50000J0D01*
G01*
X9823000Y-10495000D02*
G75*
G02*
X9923000Y-10495000I50000J0D01*
G01*
X9923000Y-10749000D02*
G75*
G02*
X9823000Y-10749000I-50000J0D01*
G01*
X9823000Y-10749000D02*
G75*
G02*
X9923000Y-10749000I50000J0D01*
G01*
X9923000Y-11003000D02*
G75*
G02*
X9823000Y-11003000I-50000J0D01*
G01*
X9823000Y-11003000D02*
G75*
G02*
X9923000Y-11003000I50000J0D01*
G01*
X9923000Y-11257000D02*
G75*
G02*
X9823000Y-11257000I-50000J0D01*
G01*
X9823000Y-11257000D02*
G75*
G02*
X9923000Y-11257000I50000J0D01*
G01*
X9923000Y-11511000D02*
G75*
G02*
X9823000Y-11511000I-50000J0D01*
G01*
X9823000Y-11511000D02*
G75*
G02*
X9923000Y-11511000I50000J0D01*
G01*
X9923000Y-11765000D02*
G75*
G02*
X9823000Y-11765000I-50000J0D01*
G01*
X9823000Y-11765000D02*
G75*
G02*
X9923000Y-11765000I50000J0D01*
G01*
X9923000Y-12019000D02*
G75*
G02*
X9823000Y-12019000I-50000J0D01*
G01*
X9823000Y-12019000D02*
G75*
G02*
X9923000Y-12019000I50000J0D01*
G01*
X9923000Y-12273000D02*
G75*
G02*
X9823000Y-12273000I-50000J0D01*
G01*
X9823000Y-12273000D02*
G75*
G02*
X9923000Y-12273000I50000J0D01*
G01*
X9923000Y-12527000D02*
G75*
G02*
X9823000Y-12527000I-50000J0D01*
G01*
X9823000Y-12527000D02*
G75*
G02*
X9923000Y-12527000I50000J0D01*
G01*
X9923000Y-12781000D02*
G75*
G02*
X9823000Y-12781000I-50000J0D01*
G01*
X9823000Y-12781000D02*
G75*
G02*
X9923000Y-12781000I50000J0D01*
G01*
X9923000Y-13035000D02*
G75*
G02*
X9823000Y-13035000I-50000J0D01*
G01*
X9823000Y-13035000D02*
G75*
G02*
X9923000Y-13035000I50000J0D01*
G01*
X9923000Y-13289000D02*
G75*
G02*
X9823000Y-13289000I-50000J0D01*
G01*
X9823000Y-13289000D02*
G75*
G02*
X9923000Y-13289000I50000J0D01*
G01*
X9923000Y-13543000D02*
G75*
G02*
X9823000Y-13543000I-50000J0D01*
G01*
X9823000Y-13543000D02*
G75*
G02*
X9923000Y-13543000I50000J0D01*
G01*
X9923000Y-13797000D02*
G75*
G02*
X9823000Y-13797000I-50000J0D01*
G01*
X9823000Y-13797000D02*
G75*
G02*
X9923000Y-13797000I50000J0D01*
G01*
X9923000Y-14051000D02*
G75*
G02*
X9823000Y-14051000I-50000J0D01*
G01*
X9823000Y-14051000D02*
G75*
G02*
X9923000Y-14051000I50000J0D01*
G01*
X9923000Y-14305000D02*
G75*
G02*
X9823000Y-14305000I-50000J0D01*
G01*
X9823000Y-14305000D02*
G75*
G02*
X9923000Y-14305000I50000J0D01*
G01*
X9923000Y-14559000D02*
G75*
G02*
X9823000Y-14559000I-50000J0D01*
G01*
X9823000Y-14559000D02*
G75*
G02*
X9923000Y-14559000I50000J0D01*
G01*
X9923000Y-14813000D02*
G75*
G02*
X9823000Y-14813000I-50000J0D01*
G01*
X9823000Y-14813000D02*
G75*
G02*
X9923000Y-14813000I50000J0D01*
G01*
X10177000Y-9987000D02*
G75*
G02*
X10077000Y-9987000I-50000J0D01*
G01*
X10077000Y-9987000D02*
G75*
G02*
X10177000Y-9987000I50000J0D01*
G01*
X10177000Y-10241000D02*
G75*
G02*
X10077000Y-10241000I-50000J0D01*
G01*
X10077000Y-10241000D02*
G75*
G02*
X10177000Y-10241000I50000J0D01*
G01*
X10177000Y-10495000D02*
G75*
G02*
X10077000Y-10495000I-50000J0D01*
G01*
X10077000Y-10495000D02*
G75*
G02*
X10177000Y-10495000I50000J0D01*
G01*
X10177000Y-10749000D02*
G75*
G02*
X10077000Y-10749000I-50000J0D01*
G01*
X10077000Y-10749000D02*
G75*
G02*
X10177000Y-10749000I50000J0D01*
G01*
X10177000Y-11003000D02*
G75*
G02*
X10077000Y-11003000I-50000J0D01*
G01*
X10077000Y-11003000D02*
G75*
G02*
X10177000Y-11003000I50000J0D01*
G01*
X10177000Y-11257000D02*
G75*
G02*
X10077000Y-11257000I-50000J0D01*
G01*
X10077000Y-11257000D02*
G75*
G02*
X10177000Y-11257000I50000J0D01*
G01*
X10177000Y-11511000D02*
G75*
G02*
X10077000Y-11511000I-50000J0D01*
G01*
X10077000Y-11511000D02*
G75*
G02*
X10177000Y-11511000I50000J0D01*
G01*
X10177000Y-11765000D02*
G75*
G02*
X10077000Y-11765000I-50000J0D01*
G01*
X10077000Y-11765000D02*
G75*
G02*
X10177000Y-11765000I50000J0D01*
G01*
X10177000Y-12019000D02*
G75*
G02*
X10077000Y-12019000I-50000J0D01*
G01*
X10077000Y-12019000D02*
G75*
G02*
X10177000Y-12019000I50000J0D01*
G01*
X10177000Y-12273000D02*
G75*
G02*
X10077000Y-12273000I-50000J0D01*
G01*
X10077000Y-12273000D02*
G75*
G02*
X10177000Y-12273000I50000J0D01*
G01*
X10177000Y-12527000D02*
G75*
G02*
X10077000Y-12527000I-50000J0D01*
G01*
X10077000Y-12527000D02*
G75*
G02*
X10177000Y-12527000I50000J0D01*
G01*
X10177000Y-12781000D02*
G75*
G02*
X10077000Y-12781000I-50000J0D01*
G01*
X10077000Y-12781000D02*
G75*
G02*
X10177000Y-12781000I50000J0D01*
G01*
X10177000Y-13035000D02*
G75*
G02*
X10077000Y-13035000I-50000J0D01*
G01*
X10077000Y-13035000D02*
G75*
G02*
X10177000Y-13035000I50000J0D01*
G01*
X10177000Y-13289000D02*
G75*
G02*
X10077000Y-13289000I-50000J0D01*
G01*
X10077000Y-13289000D02*
G75*
G02*
X10177000Y-13289000I50000J0D01*
G01*
X10177000Y-13543000D02*
G75*
G02*
X10077000Y-13543000I-50000J0D01*
G01*
X10077000Y-13543000D02*
G75*
G02*
X10177000Y-13543000I50000J0D01*
G01*
X10177000Y-13797000D02*
G75*
G02*
X10077000Y-13797000I-50000J0D01*
G01*
X10077000Y-13797000D02*
G75*
G02*
X10177000Y-13797000I50000J0D01*
G01*
X10177000Y-14051000D02*
G75*
G02*
X10077000Y-14051000I-50000J0D01*
G01*
X10077000Y-14051000D02*
G75*
G02*
X10177000Y-14051000I50000J0D01*
G01*
X10177000Y-14305000D02*
G75*
G02*
X10077000Y-14305000I-50000J0D01*
G01*
X10077000Y-14305000D02*
G75*
G02*
X10177000Y-14305000I50000J0D01*
G01*
X10177000Y-14559000D02*
G75*
G02*
X10077000Y-14559000I-50000J0D01*
G01*
X10077000Y-14559000D02*
G75*
G02*
X10177000Y-14559000I50000J0D01*
G01*
X10177000Y-14813000D02*
G75*
G02*
X10077000Y-14813000I-50000J0D01*
G01*
X10077000Y-14813000D02*
G75*
G02*
X10177000Y-14813000I50000J0D01*
G01*
X10431000Y-9987000D02*
G75*
G02*
X10331000Y-9987000I-50000J0D01*
G01*
X10331000Y-9987000D02*
G75*
G02*
X10431000Y-9987000I50000J0D01*
G01*
X10431000Y-10241000D02*
G75*
G02*
X10331000Y-10241000I-50000J0D01*
G01*
X10331000Y-10241000D02*
G75*
G02*
X10431000Y-10241000I50000J0D01*
G01*
X10431000Y-10495000D02*
G75*
G02*
X10331000Y-10495000I-50000J0D01*
G01*
X10331000Y-10495000D02*
G75*
G02*
X10431000Y-10495000I50000J0D01*
G01*
X10431000Y-10749000D02*
G75*
G02*
X10331000Y-10749000I-50000J0D01*
G01*
X10331000Y-10749000D02*
G75*
G02*
X10431000Y-10749000I50000J0D01*
G01*
X10431000Y-11003000D02*
G75*
G02*
X10331000Y-11003000I-50000J0D01*
G01*
X10331000Y-11003000D02*
G75*
G02*
X10431000Y-11003000I50000J0D01*
G01*
X10431000Y-11257000D02*
G75*
G02*
X10331000Y-11257000I-50000J0D01*
G01*
X10331000Y-11257000D02*
G75*
G02*
X10431000Y-11257000I50000J0D01*
G01*
X10431000Y-11511000D02*
G75*
G02*
X10331000Y-11511000I-50000J0D01*
G01*
X10331000Y-11511000D02*
G75*
G02*
X10431000Y-11511000I50000J0D01*
G01*
X10431000Y-11765000D02*
G75*
G02*
X10331000Y-11765000I-50000J0D01*
G01*
X10331000Y-11765000D02*
G75*
G02*
X10431000Y-11765000I50000J0D01*
G01*
X10431000Y-12019000D02*
G75*
G02*
X10331000Y-12019000I-50000J0D01*
G01*
X10331000Y-12019000D02*
G75*
G02*
X10431000Y-12019000I50000J0D01*
G01*
X10431000Y-12273000D02*
G75*
G02*
X10331000Y-12273000I-50000J0D01*
G01*
X10331000Y-12273000D02*
G75*
G02*
X10431000Y-12273000I50000J0D01*
G01*
X10431000Y-12527000D02*
G75*
G02*
X10331000Y-12527000I-50000J0D01*
G01*
X10331000Y-12527000D02*
G75*
G02*
X10431000Y-12527000I50000J0D01*
G01*
X10431000Y-12781000D02*
G75*
G02*
X10331000Y-12781000I-50000J0D01*
G01*
X10331000Y-12781000D02*
G75*
G02*
X10431000Y-12781000I50000J0D01*
G01*
X10431000Y-13035000D02*
G75*
G02*
X10331000Y-13035000I-50000J0D01*
G01*
X10331000Y-13035000D02*
G75*
G02*
X10431000Y-13035000I50000J0D01*
G01*
X10431000Y-13289000D02*
G75*
G02*
X10331000Y-13289000I-50000J0D01*
G01*
X10331000Y-13289000D02*
G75*
G02*
X10431000Y-13289000I50000J0D01*
G01*
X10431000Y-13543000D02*
G75*
G02*
X10331000Y-13543000I-50000J0D01*
G01*
X10331000Y-13543000D02*
G75*
G02*
X10431000Y-13543000I50000J0D01*
G01*
X10431000Y-13797000D02*
G75*
G02*
X10331000Y-13797000I-50000J0D01*
G01*
X10331000Y-13797000D02*
G75*
G02*
X10431000Y-13797000I50000J0D01*
G01*
X10431000Y-14051000D02*
G75*
G02*
X10331000Y-14051000I-50000J0D01*
G01*
X10331000Y-14051000D02*
G75*
G02*
X10431000Y-14051000I50000J0D01*
G01*
X10431000Y-14305000D02*
G75*
G02*
X10331000Y-14305000I-50000J0D01*
G01*
X10331000Y-14305000D02*
G75*
G02*
X10431000Y-14305000I50000J0D01*
G01*
X10431000Y-14559000D02*
G75*
G02*
X10331000Y-14559000I-50000J0D01*
G01*
X10331000Y-14559000D02*
G75*
G02*
X10431000Y-14559000I50000J0D01*
G01*
X10431000Y-14813000D02*
G75*
G02*
X10331000Y-14813000I-50000J0D01*
G01*
X10331000Y-14813000D02*
G75*
G02*
X10431000Y-14813000I50000J0D01*
G01*
X10685000Y-9987000D02*
G75*
G02*
X10585000Y-9987000I-50000J0D01*
G01*
X10585000Y-9987000D02*
G75*
G02*
X10685000Y-9987000I50000J0D01*
G01*
X10685000Y-10241000D02*
G75*
G02*
X10585000Y-10241000I-50000J0D01*
G01*
X10585000Y-10241000D02*
G75*
G02*
X10685000Y-10241000I50000J0D01*
G01*
X10685000Y-10495000D02*
G75*
G02*
X10585000Y-10495000I-50000J0D01*
G01*
X10585000Y-10495000D02*
G75*
G02*
X10685000Y-10495000I50000J0D01*
G01*
X10685000Y-10749000D02*
G75*
G02*
X10585000Y-10749000I-50000J0D01*
G01*
X10585000Y-10749000D02*
G75*
G02*
X10685000Y-10749000I50000J0D01*
G01*
X10685000Y-11003000D02*
G75*
G02*
X10585000Y-11003000I-50000J0D01*
G01*
X10585000Y-11003000D02*
G75*
G02*
X10685000Y-11003000I50000J0D01*
G01*
X10685000Y-11257000D02*
G75*
G02*
X10585000Y-11257000I-50000J0D01*
G01*
X10585000Y-11257000D02*
G75*
G02*
X10685000Y-11257000I50000J0D01*
G01*
X10685000Y-11511000D02*
G75*
G02*
X10585000Y-11511000I-50000J0D01*
G01*
X10585000Y-11511000D02*
G75*
G02*
X10685000Y-11511000I50000J0D01*
G01*
X10685000Y-11765000D02*
G75*
G02*
X10585000Y-11765000I-50000J0D01*
G01*
X10585000Y-11765000D02*
G75*
G02*
X10685000Y-11765000I50000J0D01*
G01*
X10685000Y-12019000D02*
G75*
G02*
X10585000Y-12019000I-50000J0D01*
G01*
X10585000Y-12019000D02*
G75*
G02*
X10685000Y-12019000I50000J0D01*
G01*
X10685000Y-12273000D02*
G75*
G02*
X10585000Y-12273000I-50000J0D01*
G01*
X10585000Y-12273000D02*
G75*
G02*
X10685000Y-12273000I50000J0D01*
G01*
X10685000Y-12527000D02*
G75*
G02*
X10585000Y-12527000I-50000J0D01*
G01*
X10585000Y-12527000D02*
G75*
G02*
X10685000Y-12527000I50000J0D01*
G01*
X10685000Y-12781000D02*
G75*
G02*
X10585000Y-12781000I-50000J0D01*
G01*
X10585000Y-12781000D02*
G75*
G02*
X10685000Y-12781000I50000J0D01*
G01*
X10685000Y-13035000D02*
G75*
G02*
X10585000Y-13035000I-50000J0D01*
G01*
X10585000Y-13035000D02*
G75*
G02*
X10685000Y-13035000I50000J0D01*
G01*
X10685000Y-13289000D02*
G75*
G02*
X10585000Y-13289000I-50000J0D01*
G01*
X10585000Y-13289000D02*
G75*
G02*
X10685000Y-13289000I50000J0D01*
G01*
X10685000Y-13543000D02*
G75*
G02*
X10585000Y-13543000I-50000J0D01*
G01*
X10585000Y-13543000D02*
G75*
G02*
X10685000Y-13543000I50000J0D01*
G01*
X10685000Y-13797000D02*
G75*
G02*
X10585000Y-13797000I-50000J0D01*
G01*
X10585000Y-13797000D02*
G75*
G02*
X10685000Y-13797000I50000J0D01*
G01*
X10685000Y-14051000D02*
G75*
G02*
X10585000Y-14051000I-50000J0D01*
G01*
X10585000Y-14051000D02*
G75*
G02*
X10685000Y-14051000I50000J0D01*
G01*
X10685000Y-14305000D02*
G75*
G02*
X10585000Y-14305000I-50000J0D01*
G01*
X10585000Y-14305000D02*
G75*
G02*
X10685000Y-14305000I50000J0D01*
G01*
X10685000Y-14559000D02*
G75*
G02*
X10585000Y-14559000I-50000J0D01*
G01*
X10585000Y-14559000D02*
G75*
G02*
X10685000Y-14559000I50000J0D01*
G01*
X10685000Y-14813000D02*
G75*
G02*
X10585000Y-14813000I-50000J0D01*
G01*
X10585000Y-14813000D02*
G75*
G02*
X10685000Y-14813000I50000J0D01*
G01*
X10939000Y-9987000D02*
G75*
G02*
X10839000Y-9987000I-50000J0D01*
G01*
X10839000Y-9987000D02*
G75*
G02*
X10939000Y-9987000I50000J0D01*
G01*
X10939000Y-10241000D02*
G75*
G02*
X10839000Y-10241000I-50000J0D01*
G01*
X10839000Y-10241000D02*
G75*
G02*
X10939000Y-10241000I50000J0D01*
G01*
X10939000Y-10495000D02*
G75*
G02*
X10839000Y-10495000I-50000J0D01*
G01*
X10839000Y-10495000D02*
G75*
G02*
X10939000Y-10495000I50000J0D01*
G01*
X10939000Y-10749000D02*
G75*
G02*
X10839000Y-10749000I-50000J0D01*
G01*
X10839000Y-10749000D02*
G75*
G02*
X10939000Y-10749000I50000J0D01*
G01*
X10939000Y-11003000D02*
G75*
G02*
X10839000Y-11003000I-50000J0D01*
G01*
X10839000Y-11003000D02*
G75*
G02*
X10939000Y-11003000I50000J0D01*
G01*
X10939000Y-11257000D02*
G75*
G02*
X10839000Y-11257000I-50000J0D01*
G01*
X10839000Y-11257000D02*
G75*
G02*
X10939000Y-11257000I50000J0D01*
G01*
X10939000Y-11511000D02*
G75*
G02*
X10839000Y-11511000I-50000J0D01*
G01*
X10839000Y-11511000D02*
G75*
G02*
X10939000Y-11511000I50000J0D01*
G01*
X10939000Y-11765000D02*
G75*
G02*
X10839000Y-11765000I-50000J0D01*
G01*
X10839000Y-11765000D02*
G75*
G02*
X10939000Y-11765000I50000J0D01*
G01*
X10939000Y-12019000D02*
G75*
G02*
X10839000Y-12019000I-50000J0D01*
G01*
X10839000Y-12019000D02*
G75*
G02*
X10939000Y-12019000I50000J0D01*
G01*
X10939000Y-12273000D02*
G75*
G02*
X10839000Y-12273000I-50000J0D01*
G01*
X10839000Y-12273000D02*
G75*
G02*
X10939000Y-12273000I50000J0D01*
G01*
X10939000Y-12527000D02*
G75*
G02*
X10839000Y-12527000I-50000J0D01*
G01*
X10839000Y-12527000D02*
G75*
G02*
X10939000Y-12527000I50000J0D01*
G01*
X10939000Y-12781000D02*
G75*
G02*
X10839000Y-12781000I-50000J0D01*
G01*
X10839000Y-12781000D02*
G75*
G02*
X10939000Y-12781000I50000J0D01*
G01*
X10939000Y-13035000D02*
G75*
G02*
X10839000Y-13035000I-50000J0D01*
G01*
X10839000Y-13035000D02*
G75*
G02*
X10939000Y-13035000I50000J0D01*
G01*
X10939000Y-13289000D02*
G75*
G02*
X10839000Y-13289000I-50000J0D01*
G01*
X10839000Y-13289000D02*
G75*
G02*
X10939000Y-13289000I50000J0D01*
G01*
X10939000Y-13543000D02*
G75*
G02*
X10839000Y-13543000I-50000J0D01*
G01*
X10839000Y-13543000D02*
G75*
G02*
X10939000Y-13543000I50000J0D01*
G01*
X10939000Y-13797000D02*
G75*
G02*
X10839000Y-13797000I-50000J0D01*
G01*
X10839000Y-13797000D02*
G75*
G02*
X10939000Y-13797000I50000J0D01*
G01*
X10939000Y-14051000D02*
G75*
G02*
X10839000Y-14051000I-50000J0D01*
G01*
X10839000Y-14051000D02*
G75*
G02*
X10939000Y-14051000I50000J0D01*
G01*
X10939000Y-14305000D02*
G75*
G02*
X10839000Y-14305000I-50000J0D01*
G01*
X10839000Y-14305000D02*
G75*
G02*
X10939000Y-14305000I50000J0D01*
G01*
X10939000Y-14559000D02*
G75*
G02*
X10839000Y-14559000I-50000J0D01*
G01*
X10839000Y-14559000D02*
G75*
G02*
X10939000Y-14559000I50000J0D01*
G01*
X10939000Y-14813000D02*
G75*
G02*
X10839000Y-14813000I-50000J0D01*
G01*
X10839000Y-14813000D02*
G75*
G02*
X10939000Y-14813000I50000J0D01*
G01*
X10939000Y-15633250D02*
G75*
G02*
X10839000Y-15633250I-50000J0D01*
G01*
X10839000Y-15633250D02*
G75*
G02*
X10939000Y-15633250I50000J0D01*
G01*
X10939000Y-15887250D02*
G75*
G02*
X10839000Y-15887250I-50000J0D01*
G01*
X10839000Y-15887250D02*
G75*
G02*
X10939000Y-15887250I50000J0D01*
G01*
X10939000Y-16141250D02*
G75*
G02*
X10839000Y-16141250I-50000J0D01*
G01*
X10839000Y-16141250D02*
G75*
G02*
X10939000Y-16141250I50000J0D01*
G01*
X10939000Y-16395250D02*
G75*
G02*
X10839000Y-16395250I-50000J0D01*
G01*
X10839000Y-16395250D02*
G75*
G02*
X10939000Y-16395250I50000J0D01*
G01*
X10939000Y-16649250D02*
G75*
G02*
X10839000Y-16649250I-50000J0D01*
G01*
X10839000Y-16649250D02*
G75*
G02*
X10939000Y-16649250I50000J0D01*
G01*
X10939000Y-16903250D02*
G75*
G02*
X10839000Y-16903250I-50000J0D01*
G01*
X10839000Y-16903250D02*
G75*
G02*
X10939000Y-16903250I50000J0D01*
G01*
X10939000Y-17157250D02*
G75*
G02*
X10839000Y-17157250I-50000J0D01*
G01*
X10839000Y-17157250D02*
G75*
G02*
X10939000Y-17157250I50000J0D01*
G01*
X10939000Y-17411250D02*
G75*
G02*
X10839000Y-17411250I-50000J0D01*
G01*
X10839000Y-17411250D02*
G75*
G02*
X10939000Y-17411250I50000J0D01*
G01*
X10939000Y-17665250D02*
G75*
G02*
X10839000Y-17665250I-50000J0D01*
G01*
X10839000Y-17665250D02*
G75*
G02*
X10939000Y-17665250I50000J0D01*
G01*
X10939000Y-17919250D02*
G75*
G02*
X10839000Y-17919250I-50000J0D01*
G01*
X10839000Y-17919250D02*
G75*
G02*
X10939000Y-17919250I50000J0D01*
G01*
X10939000Y-18173250D02*
G75*
G02*
X10839000Y-18173250I-50000J0D01*
G01*
X10839000Y-18173250D02*
G75*
G02*
X10939000Y-18173250I50000J0D01*
G01*
X10939000Y-18427250D02*
G75*
G02*
X10839000Y-18427250I-50000J0D01*
G01*
X10839000Y-18427250D02*
G75*
G02*
X10939000Y-18427250I50000J0D01*
G01*
X10939000Y-18681250D02*
G75*
G02*
X10839000Y-18681250I-50000J0D01*
G01*
X10839000Y-18681250D02*
G75*
G02*
X10939000Y-18681250I50000J0D01*
G01*
X10939000Y-18935250D02*
G75*
G02*
X10839000Y-18935250I-50000J0D01*
G01*
X10839000Y-18935250D02*
G75*
G02*
X10939000Y-18935250I50000J0D01*
G01*
X10939000Y-19189250D02*
G75*
G02*
X10839000Y-19189250I-50000J0D01*
G01*
X10839000Y-19189250D02*
G75*
G02*
X10939000Y-19189250I50000J0D01*
G01*
X10939000Y-19443250D02*
G75*
G02*
X10839000Y-19443250I-50000J0D01*
G01*
X10839000Y-19443250D02*
G75*
G02*
X10939000Y-19443250I50000J0D01*
G01*
X10939000Y-19697250D02*
G75*
G02*
X10839000Y-19697250I-50000J0D01*
G01*
X10839000Y-19697250D02*
G75*
G02*
X10939000Y-19697250I50000J0D01*
G01*
X10939000Y-19951250D02*
G75*
G02*
X10839000Y-19951250I-50000J0D01*
G01*
X10839000Y-19951250D02*
G75*
G02*
X10939000Y-19951250I50000J0D01*
G01*
X10939000Y-20205250D02*
G75*
G02*
X10839000Y-20205250I-50000J0D01*
G01*
X10839000Y-20205250D02*
G75*
G02*
X10939000Y-20205250I50000J0D01*
G01*
X10939000Y-20459250D02*
G75*
G02*
X10839000Y-20459250I-50000J0D01*
G01*
X10839000Y-20459250D02*
G75*
G02*
X10939000Y-20459250I50000J0D01*
G01*
X11193000Y-9987000D02*
G75*
G02*
X11093000Y-9987000I-50000J0D01*
G01*
X11093000Y-9987000D02*
G75*
G02*
X11193000Y-9987000I50000J0D01*
G01*
X11193000Y-10241000D02*
G75*
G02*
X11093000Y-10241000I-50000J0D01*
G01*
X11093000Y-10241000D02*
G75*
G02*
X11193000Y-10241000I50000J0D01*
G01*
X11193000Y-10495000D02*
G75*
G02*
X11093000Y-10495000I-50000J0D01*
G01*
X11093000Y-10495000D02*
G75*
G02*
X11193000Y-10495000I50000J0D01*
G01*
X11193000Y-10749000D02*
G75*
G02*
X11093000Y-10749000I-50000J0D01*
G01*
X11093000Y-10749000D02*
G75*
G02*
X11193000Y-10749000I50000J0D01*
G01*
X11193000Y-11003000D02*
G75*
G02*
X11093000Y-11003000I-50000J0D01*
G01*
X11093000Y-11003000D02*
G75*
G02*
X11193000Y-11003000I50000J0D01*
G01*
X11193000Y-11257000D02*
G75*
G02*
X11093000Y-11257000I-50000J0D01*
G01*
X11093000Y-11257000D02*
G75*
G02*
X11193000Y-11257000I50000J0D01*
G01*
X11193000Y-11511000D02*
G75*
G02*
X11093000Y-11511000I-50000J0D01*
G01*
X11093000Y-11511000D02*
G75*
G02*
X11193000Y-11511000I50000J0D01*
G01*
X11193000Y-11765000D02*
G75*
G02*
X11093000Y-11765000I-50000J0D01*
G01*
X11093000Y-11765000D02*
G75*
G02*
X11193000Y-11765000I50000J0D01*
G01*
X11193000Y-12019000D02*
G75*
G02*
X11093000Y-12019000I-50000J0D01*
G01*
X11093000Y-12019000D02*
G75*
G02*
X11193000Y-12019000I50000J0D01*
G01*
X11193000Y-12273000D02*
G75*
G02*
X11093000Y-12273000I-50000J0D01*
G01*
X11093000Y-12273000D02*
G75*
G02*
X11193000Y-12273000I50000J0D01*
G01*
X11193000Y-12527000D02*
G75*
G02*
X11093000Y-12527000I-50000J0D01*
G01*
X11093000Y-12527000D02*
G75*
G02*
X11193000Y-12527000I50000J0D01*
G01*
X11193000Y-12781000D02*
G75*
G02*
X11093000Y-12781000I-50000J0D01*
G01*
X11093000Y-12781000D02*
G75*
G02*
X11193000Y-12781000I50000J0D01*
G01*
X11193000Y-13035000D02*
G75*
G02*
X11093000Y-13035000I-50000J0D01*
G01*
X11093000Y-13035000D02*
G75*
G02*
X11193000Y-13035000I50000J0D01*
G01*
X11193000Y-13289000D02*
G75*
G02*
X11093000Y-13289000I-50000J0D01*
G01*
X11093000Y-13289000D02*
G75*
G02*
X11193000Y-13289000I50000J0D01*
G01*
X11193000Y-13543000D02*
G75*
G02*
X11093000Y-13543000I-50000J0D01*
G01*
X11093000Y-13543000D02*
G75*
G02*
X11193000Y-13543000I50000J0D01*
G01*
X11193000Y-13797000D02*
G75*
G02*
X11093000Y-13797000I-50000J0D01*
G01*
X11093000Y-13797000D02*
G75*
G02*
X11193000Y-13797000I50000J0D01*
G01*
X11193000Y-14051000D02*
G75*
G02*
X11093000Y-14051000I-50000J0D01*
G01*
X11093000Y-14051000D02*
G75*
G02*
X11193000Y-14051000I50000J0D01*
G01*
X11193000Y-14305000D02*
G75*
G02*
X11093000Y-14305000I-50000J0D01*
G01*
X11093000Y-14305000D02*
G75*
G02*
X11193000Y-14305000I50000J0D01*
G01*
X11193000Y-14559000D02*
G75*
G02*
X11093000Y-14559000I-50000J0D01*
G01*
X11093000Y-14559000D02*
G75*
G02*
X11193000Y-14559000I50000J0D01*
G01*
X11193000Y-14813000D02*
G75*
G02*
X11093000Y-14813000I-50000J0D01*
G01*
X11093000Y-14813000D02*
G75*
G02*
X11193000Y-14813000I50000J0D01*
G01*
X11447000Y-9987000D02*
G75*
G02*
X11347000Y-9987000I-50000J0D01*
G01*
X11347000Y-9987000D02*
G75*
G02*
X11447000Y-9987000I50000J0D01*
G01*
X11447000Y-10241000D02*
G75*
G02*
X11347000Y-10241000I-50000J0D01*
G01*
X11347000Y-10241000D02*
G75*
G02*
X11447000Y-10241000I50000J0D01*
G01*
X11447000Y-10495000D02*
G75*
G02*
X11347000Y-10495000I-50000J0D01*
G01*
X11347000Y-10495000D02*
G75*
G02*
X11447000Y-10495000I50000J0D01*
G01*
X11447000Y-10749000D02*
G75*
G02*
X11347000Y-10749000I-50000J0D01*
G01*
X11347000Y-10749000D02*
G75*
G02*
X11447000Y-10749000I50000J0D01*
G01*
X11447000Y-11003000D02*
G75*
G02*
X11347000Y-11003000I-50000J0D01*
G01*
X11347000Y-11003000D02*
G75*
G02*
X11447000Y-11003000I50000J0D01*
G01*
X11447000Y-11257000D02*
G75*
G02*
X11347000Y-11257000I-50000J0D01*
G01*
X11347000Y-11257000D02*
G75*
G02*
X11447000Y-11257000I50000J0D01*
G01*
X11447000Y-11511000D02*
G75*
G02*
X11347000Y-11511000I-50000J0D01*
G01*
X11347000Y-11511000D02*
G75*
G02*
X11447000Y-11511000I50000J0D01*
G01*
X11447000Y-11765000D02*
G75*
G02*
X11347000Y-11765000I-50000J0D01*
G01*
X11347000Y-11765000D02*
G75*
G02*
X11447000Y-11765000I50000J0D01*
G01*
X11447000Y-12019000D02*
G75*
G02*
X11347000Y-12019000I-50000J0D01*
G01*
X11347000Y-12019000D02*
G75*
G02*
X11447000Y-12019000I50000J0D01*
G01*
X11447000Y-12273000D02*
G75*
G02*
X11347000Y-12273000I-50000J0D01*
G01*
X11347000Y-12273000D02*
G75*
G02*
X11447000Y-12273000I50000J0D01*
G01*
X11447000Y-12527000D02*
G75*
G02*
X11347000Y-12527000I-50000J0D01*
G01*
X11347000Y-12527000D02*
G75*
G02*
X11447000Y-12527000I50000J0D01*
G01*
X11447000Y-12781000D02*
G75*
G02*
X11347000Y-12781000I-50000J0D01*
G01*
X11347000Y-12781000D02*
G75*
G02*
X11447000Y-12781000I50000J0D01*
G01*
X11447000Y-13035000D02*
G75*
G02*
X11347000Y-13035000I-50000J0D01*
G01*
X11347000Y-13035000D02*
G75*
G02*
X11447000Y-13035000I50000J0D01*
G01*
X11447000Y-13289000D02*
G75*
G02*
X11347000Y-13289000I-50000J0D01*
G01*
X11347000Y-13289000D02*
G75*
G02*
X11447000Y-13289000I50000J0D01*
G01*
X11447000Y-13543000D02*
G75*
G02*
X11347000Y-13543000I-50000J0D01*
G01*
X11347000Y-13543000D02*
G75*
G02*
X11447000Y-13543000I50000J0D01*
G01*
X11447000Y-13797000D02*
G75*
G02*
X11347000Y-13797000I-50000J0D01*
G01*
X11347000Y-13797000D02*
G75*
G02*
X11447000Y-13797000I50000J0D01*
G01*
X11447000Y-14051000D02*
G75*
G02*
X11347000Y-14051000I-50000J0D01*
G01*
X11347000Y-14051000D02*
G75*
G02*
X11447000Y-14051000I50000J0D01*
G01*
X11447000Y-14305000D02*
G75*
G02*
X11347000Y-14305000I-50000J0D01*
G01*
X11347000Y-14305000D02*
G75*
G02*
X11447000Y-14305000I50000J0D01*
G01*
X11447000Y-14559000D02*
G75*
G02*
X11347000Y-14559000I-50000J0D01*
G01*
X11347000Y-14559000D02*
G75*
G02*
X11447000Y-14559000I50000J0D01*
G01*
X11447000Y-14813000D02*
G75*
G02*
X11347000Y-14813000I-50000J0D01*
G01*
X11347000Y-14813000D02*
G75*
G02*
X11447000Y-14813000I50000J0D01*
G01*
X11560000Y-15628250D02*
G75*
G02*
X11460000Y-15628250I-50000J0D01*
G01*
X11460000Y-15628250D02*
G75*
G02*
X11560000Y-15628250I50000J0D01*
G01*
X11560000Y-15882250D02*
G75*
G02*
X11460000Y-15882250I-50000J0D01*
G01*
X11460000Y-15882250D02*
G75*
G02*
X11560000Y-15882250I50000J0D01*
G01*
X11560000Y-16136250D02*
G75*
G02*
X11460000Y-16136250I-50000J0D01*
G01*
X11460000Y-16136250D02*
G75*
G02*
X11560000Y-16136250I50000J0D01*
G01*
X11560000Y-16390250D02*
G75*
G02*
X11460000Y-16390250I-50000J0D01*
G01*
X11460000Y-16390250D02*
G75*
G02*
X11560000Y-16390250I50000J0D01*
G01*
X11560000Y-16644250D02*
G75*
G02*
X11460000Y-16644250I-50000J0D01*
G01*
X11460000Y-16644250D02*
G75*
G02*
X11560000Y-16644250I50000J0D01*
G01*
X11560000Y-16898250D02*
G75*
G02*
X11460000Y-16898250I-50000J0D01*
G01*
X11460000Y-16898250D02*
G75*
G02*
X11560000Y-16898250I50000J0D01*
G01*
X11560000Y-17152250D02*
G75*
G02*
X11460000Y-17152250I-50000J0D01*
G01*
X11460000Y-17152250D02*
G75*
G02*
X11560000Y-17152250I50000J0D01*
G01*
X11560000Y-17406250D02*
G75*
G02*
X11460000Y-17406250I-50000J0D01*
G01*
X11460000Y-17406250D02*
G75*
G02*
X11560000Y-17406250I50000J0D01*
G01*
X11560000Y-17660250D02*
G75*
G02*
X11460000Y-17660250I-50000J0D01*
G01*
X11460000Y-17660250D02*
G75*
G02*
X11560000Y-17660250I50000J0D01*
G01*
X11560000Y-17914250D02*
G75*
G02*
X11460000Y-17914250I-50000J0D01*
G01*
X11460000Y-17914250D02*
G75*
G02*
X11560000Y-17914250I50000J0D01*
G01*
X11560000Y-18168250D02*
G75*
G02*
X11460000Y-18168250I-50000J0D01*
G01*
X11460000Y-18168250D02*
G75*
G02*
X11560000Y-18168250I50000J0D01*
G01*
X11560000Y-18422250D02*
G75*
G02*
X11460000Y-18422250I-50000J0D01*
G01*
X11460000Y-18422250D02*
G75*
G02*
X11560000Y-18422250I50000J0D01*
G01*
X11560000Y-18676250D02*
G75*
G02*
X11460000Y-18676250I-50000J0D01*
G01*
X11460000Y-18676250D02*
G75*
G02*
X11560000Y-18676250I50000J0D01*
G01*
X11560000Y-18930250D02*
G75*
G02*
X11460000Y-18930250I-50000J0D01*
G01*
X11460000Y-18930250D02*
G75*
G02*
X11560000Y-18930250I50000J0D01*
G01*
X11560000Y-19184250D02*
G75*
G02*
X11460000Y-19184250I-50000J0D01*
G01*
X11460000Y-19184250D02*
G75*
G02*
X11560000Y-19184250I50000J0D01*
G01*
X11560000Y-19438250D02*
G75*
G02*
X11460000Y-19438250I-50000J0D01*
G01*
X11460000Y-19438250D02*
G75*
G02*
X11560000Y-19438250I50000J0D01*
G01*
X11560000Y-19692250D02*
G75*
G02*
X11460000Y-19692250I-50000J0D01*
G01*
X11460000Y-19692250D02*
G75*
G02*
X11560000Y-19692250I50000J0D01*
G01*
X11560000Y-19946250D02*
G75*
G02*
X11460000Y-19946250I-50000J0D01*
G01*
X11460000Y-19946250D02*
G75*
G02*
X11560000Y-19946250I50000J0D01*
G01*
X11560000Y-20200250D02*
G75*
G02*
X11460000Y-20200250I-50000J0D01*
G01*
X11460000Y-20200250D02*
G75*
G02*
X11560000Y-20200250I50000J0D01*
G01*
X11560000Y-20454250D02*
G75*
G02*
X11460000Y-20454250I-50000J0D01*
G01*
X11460000Y-20454250D02*
G75*
G02*
X11560000Y-20454250I50000J0D01*
G01*
X12072500Y-8219000D02*
G75*
G02*
X11972500Y-8219000I-50000J0D01*
G01*
X11972500Y-8219000D02*
G75*
G02*
X12072500Y-8219000I50000J0D01*
G01*
X12427500Y-9181000D02*
G75*
G02*
X12327500Y-9181000I-50000J0D01*
G01*
X12327500Y-9181000D02*
G75*
G02*
X12427500Y-9181000I50000J0D01*
G01*
X12800000Y-19500000D02*
G75*
G02*
X12700000Y-19500000I-50000J0D01*
G01*
X12700000Y-19500000D02*
G75*
G02*
X12800000Y-19500000I50000J0D01*
G01*
X12872500Y-11081000D02*
G75*
G02*
X12772500Y-11081000I-50000J0D01*
G01*
X12772500Y-11081000D02*
G75*
G02*
X12872500Y-11081000I50000J0D01*
G01*
X12872500Y-12981000D02*
G75*
G02*
X12772500Y-12981000I-50000J0D01*
G01*
X12772500Y-12981000D02*
G75*
G02*
X12872500Y-12981000I50000J0D01*
G01*
X13050000Y-19250000D02*
G75*
G02*
X12950000Y-19250000I-50000J0D01*
G01*
X12950000Y-19250000D02*
G75*
G02*
X13050000Y-19250000I50000J0D01*
G01*
X13050000Y-20500000D02*
G75*
G02*
X12950000Y-20500000I-50000J0D01*
G01*
X12950000Y-20500000D02*
G75*
G02*
X13050000Y-20500000I50000J0D01*
G01*
X13227500Y-10119000D02*
G75*
G02*
X13127500Y-10119000I-50000J0D01*
G01*
X13127500Y-10119000D02*
G75*
G02*
X13227500Y-10119000I50000J0D01*
G01*
X13227500Y-12019000D02*
G75*
G02*
X13127500Y-12019000I-50000J0D01*
G01*
X13127500Y-12019000D02*
G75*
G02*
X13227500Y-12019000I50000J0D01*
G01*
X13372500Y-9181000D02*
G75*
G02*
X13272500Y-9181000I-50000J0D01*
G01*
X13272500Y-9181000D02*
G75*
G02*
X13372500Y-9181000I50000J0D01*
G01*
X13372500Y-14881000D02*
G75*
G02*
X13272500Y-14881000I-50000J0D01*
G01*
X13272500Y-14881000D02*
G75*
G02*
X13372500Y-14881000I50000J0D01*
G01*
X13372500Y-16781000D02*
G75*
G02*
X13272500Y-16781000I-50000J0D01*
G01*
X13272500Y-16781000D02*
G75*
G02*
X13372500Y-16781000I50000J0D01*
G01*
X13550000Y-19500000D02*
G75*
G02*
X13450000Y-19500000I-50000J0D01*
G01*
X13450000Y-19500000D02*
G75*
G02*
X13550000Y-19500000I50000J0D01*
G01*
X13727500Y-8219000D02*
G75*
G02*
X13627500Y-8219000I-50000J0D01*
G01*
X13627500Y-8219000D02*
G75*
G02*
X13727500Y-8219000I50000J0D01*
G01*
X13727500Y-13919000D02*
G75*
G02*
X13627500Y-13919000I-50000J0D01*
G01*
X13627500Y-13919000D02*
G75*
G02*
X13727500Y-13919000I50000J0D01*
G01*
X13727500Y-15819000D02*
G75*
G02*
X13627500Y-15819000I-50000J0D01*
G01*
X13627500Y-15819000D02*
G75*
G02*
X13727500Y-15819000I50000J0D01*
G01*
X13872500Y-7181000D02*
G75*
G02*
X13772500Y-7181000I-50000J0D01*
G01*
X13772500Y-7181000D02*
G75*
G02*
X13872500Y-7181000I50000J0D01*
G01*
X14050000Y-19250000D02*
G75*
G02*
X13950000Y-19250000I-50000J0D01*
G01*
X13950000Y-19250000D02*
G75*
G02*
X14050000Y-19250000I50000J0D01*
G01*
X14050000Y-20500000D02*
G75*
G02*
X13950000Y-20500000I-50000J0D01*
G01*
X13950000Y-20500000D02*
G75*
G02*
X14050000Y-20500000I50000J0D01*
G01*
X14227500Y-6219000D02*
G75*
G02*
X14127500Y-6219000I-50000J0D01*
G01*
X14127500Y-6219000D02*
G75*
G02*
X14227500Y-6219000I50000J0D01*
G01*
X14300000Y-19500000D02*
G75*
G02*
X14200000Y-19500000I-50000J0D01*
G01*
X14200000Y-19500000D02*
G75*
G02*
X14300000Y-19500000I50000J0D01*
G01*
D13*
X6955000Y-20645000D02*
X6955000Y-20755000D01*
X6900000Y-20700000D02*
X7010000Y-20700000D01*
X7971000Y-20645000D02*
X7971000Y-20755000D01*
X7916000Y-20700000D02*
X8026000Y-20700000D01*
D14*
X5560105Y-6760105D02*
X5560105Y-6639895D01*
X5439895Y-6639895D01*
X5439895Y-6760105D01*
X5560105Y-6760105D01*
X6060105Y-8760105D02*
X6060105Y-8639895D01*
X5939895Y-8639895D01*
X5939895Y-8760105D01*
X6060105Y-8760105D01*
X6060105Y-14460105D02*
X6060105Y-14339895D01*
X5939895Y-14339895D01*
X5939895Y-14460105D01*
X6060105Y-14460105D01*
X6060105Y-16360105D02*
X6060105Y-16239895D01*
X5939895Y-16239895D01*
X5939895Y-16360105D01*
X6060105Y-16360105D01*
X6560105Y-6760105D02*
X6560105Y-6639895D01*
X6439895Y-6639895D01*
X6439895Y-6760105D01*
X6560105Y-6760105D01*
X6560105Y-10660105D02*
X6560105Y-10539895D01*
X6439895Y-10539895D01*
X6439895Y-10660105D01*
X6560105Y-10660105D01*
X6560105Y-12560105D02*
X6560105Y-12439895D01*
X6439895Y-12439895D01*
X6439895Y-12560105D01*
X6560105Y-12560105D01*
X6560105Y-19560105D02*
X6560105Y-19439895D01*
X6439895Y-19439895D01*
X6439895Y-19560105D01*
X6560105Y-19560105D01*
X7060105Y-8760105D02*
X7060105Y-8639895D01*
X6939895Y-8639895D01*
X6939895Y-8760105D01*
X7060105Y-8760105D01*
X7060105Y-14460105D02*
X7060105Y-14339895D01*
X6939895Y-14339895D01*
X6939895Y-14460105D01*
X7060105Y-14460105D01*
X7060105Y-16360105D02*
X7060105Y-16239895D01*
X6939895Y-16239895D01*
X6939895Y-16360105D01*
X7060105Y-16360105D01*
X7360105Y-8760105D02*
X7360105Y-8639895D01*
X7239895Y-8639895D01*
X7239895Y-8760105D01*
X7360105Y-8760105D01*
X7560105Y-10660105D02*
X7560105Y-10539895D01*
X7439895Y-10539895D01*
X7439895Y-10660105D01*
X7560105Y-10660105D01*
X7560105Y-12560105D02*
X7560105Y-12439895D01*
X7439895Y-12439895D01*
X7439895Y-12560105D01*
X7560105Y-12560105D01*
X7560105Y-19560105D02*
X7560105Y-19439895D01*
X7439895Y-19439895D01*
X7439895Y-19560105D01*
X7560105Y-19560105D01*
X8360105Y-8760105D02*
X8360105Y-8639895D01*
X8239895Y-8639895D01*
X8239895Y-8760105D01*
X8360105Y-8760105D01*
X11760105Y-8760105D02*
X11760105Y-8639895D01*
X11639895Y-8639895D01*
X11639895Y-8760105D01*
X11760105Y-8760105D01*
X12560105Y-10660105D02*
X12560105Y-10539895D01*
X12439895Y-10539895D01*
X12439895Y-10660105D01*
X12560105Y-10660105D01*
X12560105Y-12560105D02*
X12560105Y-12439895D01*
X12439895Y-12439895D01*
X12439895Y-12560105D01*
X12560105Y-12560105D01*
X12760105Y-8760105D02*
X12760105Y-8639895D01*
X12639895Y-8639895D01*
X12639895Y-8760105D01*
X12760105Y-8760105D01*
X13060105Y-8760105D02*
X13060105Y-8639895D01*
X12939895Y-8639895D01*
X12939895Y-8760105D01*
X13060105Y-8760105D01*
X13060105Y-14460105D02*
X13060105Y-14339895D01*
X12939895Y-14339895D01*
X12939895Y-14460105D01*
X13060105Y-14460105D01*
X13060105Y-16360105D02*
X13060105Y-16239895D01*
X12939895Y-16239895D01*
X12939895Y-16360105D01*
X13060105Y-16360105D01*
X13560105Y-6760105D02*
X13560105Y-6639895D01*
X13439895Y-6639895D01*
X13439895Y-6760105D01*
X13560105Y-6760105D01*
X13560105Y-10660105D02*
X13560105Y-10539895D01*
X13439895Y-10539895D01*
X13439895Y-10660105D01*
X13560105Y-10660105D01*
X13560105Y-12560105D02*
X13560105Y-12439895D01*
X13439895Y-12439895D01*
X13439895Y-12560105D01*
X13560105Y-12560105D01*
X14060105Y-8760105D02*
X14060105Y-8639895D01*
X13939895Y-8639895D01*
X13939895Y-8760105D01*
X14060105Y-8760105D01*
X14060105Y-14460105D02*
X14060105Y-14339895D01*
X13939895Y-14339895D01*
X13939895Y-14460105D01*
X14060105Y-14460105D01*
X14060105Y-16360105D02*
X14060105Y-16239895D01*
X13939895Y-16239895D01*
X13939895Y-16360105D01*
X14060105Y-16360105D01*
X14560105Y-6760105D02*
X14560105Y-6639895D01*
X14439895Y-6639895D01*
X14439895Y-6760105D01*
X14560105Y-6760105D01*
D11*
X5258277Y-21313984D02*
X5258277Y-21113984D01*
X5258277Y-21113984D02*
X5305896Y-21113984D01*
X5305896Y-21113984D02*
X5334467Y-21123508D01*
X5334467Y-21123508D02*
X5353515Y-21142555D01*
X5353515Y-21142555D02*
X5363039Y-21161603D01*
X5363039Y-21161603D02*
X5372563Y-21199698D01*
X5372563Y-21199698D02*
X5372563Y-21228270D01*
X5372563Y-21228270D02*
X5363039Y-21266365D01*
X5363039Y-21266365D02*
X5353515Y-21285412D01*
X5353515Y-21285412D02*
X5334467Y-21304460D01*
X5334467Y-21304460D02*
X5305896Y-21313984D01*
X5305896Y-21313984D02*
X5258277Y-21313984D01*
X5458277Y-21313984D02*
X5458277Y-21180650D01*
X5458277Y-21218746D02*
X5467801Y-21199698D01*
X5467801Y-21199698D02*
X5477324Y-21190174D01*
X5477324Y-21190174D02*
X5496372Y-21180650D01*
X5496372Y-21180650D02*
X5515420Y-21180650D01*
X5582086Y-21313984D02*
X5582086Y-21180650D01*
X5582086Y-21113984D02*
X5572563Y-21123508D01*
X5572563Y-21123508D02*
X5582086Y-21133031D01*
X5582086Y-21133031D02*
X5591610Y-21123508D01*
X5591610Y-21123508D02*
X5582086Y-21113984D01*
X5582086Y-21113984D02*
X5582086Y-21133031D01*
X5705896Y-21313984D02*
X5686848Y-21304460D01*
X5686848Y-21304460D02*
X5677324Y-21285412D01*
X5677324Y-21285412D02*
X5677324Y-21113984D01*
X5810658Y-21313984D02*
X5791610Y-21304460D01*
X5791610Y-21304460D02*
X5782086Y-21285412D01*
X5782086Y-21285412D02*
X5782086Y-21113984D01*
X6039229Y-21313984D02*
X6039229Y-21113984D01*
X6039229Y-21113984D02*
X6105896Y-21256841D01*
X6105896Y-21256841D02*
X6172562Y-21113984D01*
X6172562Y-21113984D02*
X6172562Y-21313984D01*
X6353515Y-21313984D02*
X6353515Y-21209222D01*
X6353515Y-21209222D02*
X6343991Y-21190174D01*
X6343991Y-21190174D02*
X6324943Y-21180650D01*
X6324943Y-21180650D02*
X6286848Y-21180650D01*
X6286848Y-21180650D02*
X6267801Y-21190174D01*
X6353515Y-21304460D02*
X6334467Y-21313984D01*
X6334467Y-21313984D02*
X6286848Y-21313984D01*
X6286848Y-21313984D02*
X6267801Y-21304460D01*
X6267801Y-21304460D02*
X6258277Y-21285412D01*
X6258277Y-21285412D02*
X6258277Y-21266365D01*
X6258277Y-21266365D02*
X6267801Y-21247317D01*
X6267801Y-21247317D02*
X6286848Y-21237793D01*
X6286848Y-21237793D02*
X6334467Y-21237793D01*
X6334467Y-21237793D02*
X6353515Y-21228270D01*
X6448753Y-21180650D02*
X6448753Y-21380650D01*
X6448753Y-21190174D02*
X6467801Y-21180650D01*
X6467801Y-21180650D02*
X6505896Y-21180650D01*
X6505896Y-21180650D02*
X6524943Y-21190174D01*
X6524943Y-21190174D02*
X6534467Y-21199698D01*
X6534467Y-21199698D02*
X6543991Y-21218746D01*
X6543991Y-21218746D02*
X6543991Y-21275889D01*
X6543991Y-21275889D02*
X6534467Y-21294936D01*
X6534467Y-21294936D02*
X6524943Y-21304460D01*
X6524943Y-21304460D02*
X6505896Y-21313984D01*
X6505896Y-21313984D02*
X6467801Y-21313984D01*
X6467801Y-21313984D02*
X6448753Y-21304460D01*
X6629705Y-21294936D02*
X6639229Y-21304460D01*
X6639229Y-21304460D02*
X6629705Y-21313984D01*
X6629705Y-21313984D02*
X6620182Y-21304460D01*
X6620182Y-21304460D02*
X6629705Y-21294936D01*
X6629705Y-21294936D02*
X6629705Y-21313984D01*
X6629705Y-21190174D02*
X6639229Y-21199698D01*
X6639229Y-21199698D02*
X6629705Y-21209222D01*
X6629705Y-21209222D02*
X6620182Y-21199698D01*
X6620182Y-21199698D02*
X6629705Y-21190174D01*
X6629705Y-21190174D02*
X6629705Y-21209222D01*
D12*
X4967500Y-21627500D02*
X4997500Y-21657500D01*
X4997500Y-21627500D02*
X4967500Y-21657500D01*
D11*
X5296372Y-21533984D02*
X5315420Y-21533984D01*
X5315420Y-21533984D02*
X5334467Y-21543508D01*
X5334467Y-21543508D02*
X5343991Y-21553031D01*
X5343991Y-21553031D02*
X5353515Y-21572079D01*
X5353515Y-21572079D02*
X5363039Y-21610174D01*
X5363039Y-21610174D02*
X5363039Y-21657793D01*
X5363039Y-21657793D02*
X5353515Y-21695889D01*
X5353515Y-21695889D02*
X5343991Y-21714936D01*
X5343991Y-21714936D02*
X5334467Y-21724460D01*
X5334467Y-21724460D02*
X5315420Y-21733984D01*
X5315420Y-21733984D02*
X5296372Y-21733984D01*
X5296372Y-21733984D02*
X5277324Y-21724460D01*
X5277324Y-21724460D02*
X5267801Y-21714936D01*
X5267801Y-21714936D02*
X5258277Y-21695889D01*
X5258277Y-21695889D02*
X5248753Y-21657793D01*
X5248753Y-21657793D02*
X5248753Y-21610174D01*
X5248753Y-21610174D02*
X5258277Y-21572079D01*
X5258277Y-21572079D02*
X5267801Y-21553031D01*
X5267801Y-21553031D02*
X5277324Y-21543508D01*
X5277324Y-21543508D02*
X5296372Y-21533984D01*
X5448753Y-21714936D02*
X5458277Y-21724460D01*
X5458277Y-21724460D02*
X5448753Y-21733984D01*
X5448753Y-21733984D02*
X5439229Y-21724460D01*
X5439229Y-21724460D02*
X5448753Y-21714936D01*
X5448753Y-21714936D02*
X5448753Y-21733984D01*
X5524944Y-21533984D02*
X5648753Y-21533984D01*
X5648753Y-21533984D02*
X5582086Y-21610174D01*
X5582086Y-21610174D02*
X5610658Y-21610174D01*
X5610658Y-21610174D02*
X5629705Y-21619698D01*
X5629705Y-21619698D02*
X5639229Y-21629222D01*
X5639229Y-21629222D02*
X5648753Y-21648270D01*
X5648753Y-21648270D02*
X5648753Y-21695889D01*
X5648753Y-21695889D02*
X5639229Y-21714936D01*
X5639229Y-21714936D02*
X5629705Y-21724460D01*
X5629705Y-21724460D02*
X5610658Y-21733984D01*
X5610658Y-21733984D02*
X5553515Y-21733984D01*
X5553515Y-21733984D02*
X5534467Y-21724460D01*
X5534467Y-21724460D02*
X5524944Y-21714936D01*
X5772562Y-21533984D02*
X5791610Y-21533984D01*
X5791610Y-21533984D02*
X5810658Y-21543508D01*
X5810658Y-21543508D02*
X5820182Y-21553031D01*
X5820182Y-21553031D02*
X5829705Y-21572079D01*
X5829705Y-21572079D02*
X5839229Y-21610174D01*
X5839229Y-21610174D02*
X5839229Y-21657793D01*
X5839229Y-21657793D02*
X5829705Y-21695889D01*
X5829705Y-21695889D02*
X5820182Y-21714936D01*
X5820182Y-21714936D02*
X5810658Y-21724460D01*
X5810658Y-21724460D02*
X5791610Y-21733984D01*
X5791610Y-21733984D02*
X5772562Y-21733984D01*
X5772562Y-21733984D02*
X5753515Y-21724460D01*
X5753515Y-21724460D02*
X5743991Y-21714936D01*
X5743991Y-21714936D02*
X5734467Y-21695889D01*
X5734467Y-21695889D02*
X5724943Y-21657793D01*
X5724943Y-21657793D02*
X5724943Y-21610174D01*
X5724943Y-21610174D02*
X5734467Y-21572079D01*
X5734467Y-21572079D02*
X5743991Y-21553031D01*
X5743991Y-21553031D02*
X5753515Y-21543508D01*
X5753515Y-21543508D02*
X5772562Y-21533984D01*
X5963039Y-21533984D02*
X5982086Y-21533984D01*
X5982086Y-21533984D02*
X6001134Y-21543508D01*
X6001134Y-21543508D02*
X6010658Y-21553031D01*
X6010658Y-21553031D02*
X6020182Y-21572079D01*
X6020182Y-21572079D02*
X6029705Y-21610174D01*
X6029705Y-21610174D02*
X6029705Y-21657793D01*
X6029705Y-21657793D02*
X6020182Y-21695889D01*
X6020182Y-21695889D02*
X6010658Y-21714936D01*
X6010658Y-21714936D02*
X6001134Y-21724460D01*
X6001134Y-21724460D02*
X5982086Y-21733984D01*
X5982086Y-21733984D02*
X5963039Y-21733984D01*
X5963039Y-21733984D02*
X5943991Y-21724460D01*
X5943991Y-21724460D02*
X5934467Y-21714936D01*
X5934467Y-21714936D02*
X5924943Y-21695889D01*
X5924943Y-21695889D02*
X5915420Y-21657793D01*
X5915420Y-21657793D02*
X5915420Y-21610174D01*
X5915420Y-21610174D02*
X5924943Y-21572079D01*
X5924943Y-21572079D02*
X5934467Y-21553031D01*
X5934467Y-21553031D02*
X5943991Y-21543508D01*
X5943991Y-21543508D02*
X5963039Y-21533984D01*
X6115420Y-21733984D02*
X6115420Y-21600650D01*
X6115420Y-21619698D02*
X6124943Y-21610174D01*
X6124943Y-21610174D02*
X6143991Y-21600650D01*
X6143991Y-21600650D02*
X6172563Y-21600650D01*
X6172563Y-21600650D02*
X6191610Y-21610174D01*
X6191610Y-21610174D02*
X6201134Y-21629222D01*
X6201134Y-21629222D02*
X6201134Y-21733984D01*
X6201134Y-21629222D02*
X6210658Y-21610174D01*
X6210658Y-21610174D02*
X6229705Y-21600650D01*
X6229705Y-21600650D02*
X6258277Y-21600650D01*
X6258277Y-21600650D02*
X6277324Y-21610174D01*
X6277324Y-21610174D02*
X6286848Y-21629222D01*
X6286848Y-21629222D02*
X6286848Y-21733984D01*
X6382086Y-21733984D02*
X6382086Y-21600650D01*
X6382086Y-21619698D02*
X6391610Y-21610174D01*
X6391610Y-21610174D02*
X6410658Y-21600650D01*
X6410658Y-21600650D02*
X6439229Y-21600650D01*
X6439229Y-21600650D02*
X6458277Y-21610174D01*
X6458277Y-21610174D02*
X6467801Y-21629222D01*
X6467801Y-21629222D02*
X6467801Y-21733984D01*
X6467801Y-21629222D02*
X6477324Y-21610174D01*
X6477324Y-21610174D02*
X6496372Y-21600650D01*
X6496372Y-21600650D02*
X6524943Y-21600650D01*
X6524943Y-21600650D02*
X6543991Y-21610174D01*
X6543991Y-21610174D02*
X6553515Y-21629222D01*
X6553515Y-21629222D02*
X6553515Y-21733984D01*
X6943991Y-21524460D02*
X6772563Y-21781603D01*
X7201134Y-21533984D02*
X7220182Y-21533984D01*
X7220182Y-21533984D02*
X7239229Y-21543508D01*
X7239229Y-21543508D02*
X7248753Y-21553031D01*
X7248753Y-21553031D02*
X7258277Y-21572079D01*
X7258277Y-21572079D02*
X7267801Y-21610174D01*
X7267801Y-21610174D02*
X7267801Y-21657793D01*
X7267801Y-21657793D02*
X7258277Y-21695889D01*
X7258277Y-21695889D02*
X7248753Y-21714936D01*
X7248753Y-21714936D02*
X7239229Y-21724460D01*
X7239229Y-21724460D02*
X7220182Y-21733984D01*
X7220182Y-21733984D02*
X7201134Y-21733984D01*
X7201134Y-21733984D02*
X7182086Y-21724460D01*
X7182086Y-21724460D02*
X7172563Y-21714936D01*
X7172563Y-21714936D02*
X7163039Y-21695889D01*
X7163039Y-21695889D02*
X7153515Y-21657793D01*
X7153515Y-21657793D02*
X7153515Y-21610174D01*
X7153515Y-21610174D02*
X7163039Y-21572079D01*
X7163039Y-21572079D02*
X7172563Y-21553031D01*
X7172563Y-21553031D02*
X7182086Y-21543508D01*
X7182086Y-21543508D02*
X7201134Y-21533984D01*
X7353515Y-21714936D02*
X7363039Y-21724460D01*
X7363039Y-21724460D02*
X7353515Y-21733984D01*
X7353515Y-21733984D02*
X7343991Y-21724460D01*
X7343991Y-21724460D02*
X7353515Y-21714936D01*
X7353515Y-21714936D02*
X7353515Y-21733984D01*
X7486848Y-21533984D02*
X7505896Y-21533984D01*
X7505896Y-21533984D02*
X7524944Y-21543508D01*
X7524944Y-21543508D02*
X7534467Y-21553031D01*
X7534467Y-21553031D02*
X7543991Y-21572079D01*
X7543991Y-21572079D02*
X7553515Y-21610174D01*
X7553515Y-21610174D02*
X7553515Y-21657793D01*
X7553515Y-21657793D02*
X7543991Y-21695889D01*
X7543991Y-21695889D02*
X7534467Y-21714936D01*
X7534467Y-21714936D02*
X7524944Y-21724460D01*
X7524944Y-21724460D02*
X7505896Y-21733984D01*
X7505896Y-21733984D02*
X7486848Y-21733984D01*
X7486848Y-21733984D02*
X7467801Y-21724460D01*
X7467801Y-21724460D02*
X7458277Y-21714936D01*
X7458277Y-21714936D02*
X7448753Y-21695889D01*
X7448753Y-21695889D02*
X7439229Y-21657793D01*
X7439229Y-21657793D02*
X7439229Y-21610174D01*
X7439229Y-21610174D02*
X7448753Y-21572079D01*
X7448753Y-21572079D02*
X7458277Y-21553031D01*
X7458277Y-21553031D02*
X7467801Y-21543508D01*
X7467801Y-21543508D02*
X7486848Y-21533984D01*
X7743991Y-21733984D02*
X7629706Y-21733984D01*
X7686848Y-21733984D02*
X7686848Y-21533984D01*
X7686848Y-21533984D02*
X7667801Y-21562555D01*
X7667801Y-21562555D02*
X7648753Y-21581603D01*
X7648753Y-21581603D02*
X7629706Y-21591127D01*
X7934467Y-21733984D02*
X7820182Y-21733984D01*
X7877325Y-21733984D02*
X7877325Y-21533984D01*
X7877325Y-21533984D02*
X7858277Y-21562555D01*
X7858277Y-21562555D02*
X7839229Y-21581603D01*
X7839229Y-21581603D02*
X7820182Y-21591127D01*
X8048753Y-21619698D02*
X8029706Y-21610174D01*
X8029706Y-21610174D02*
X8020182Y-21600650D01*
X8020182Y-21600650D02*
X8010658Y-21581603D01*
X8010658Y-21581603D02*
X8010658Y-21572079D01*
X8010658Y-21572079D02*
X8020182Y-21553031D01*
X8020182Y-21553031D02*
X8029706Y-21543508D01*
X8029706Y-21543508D02*
X8048753Y-21533984D01*
X8048753Y-21533984D02*
X8086848Y-21533984D01*
X8086848Y-21533984D02*
X8105896Y-21543508D01*
X8105896Y-21543508D02*
X8115420Y-21553031D01*
X8115420Y-21553031D02*
X8124944Y-21572079D01*
X8124944Y-21572079D02*
X8124944Y-21581603D01*
X8124944Y-21581603D02*
X8115420Y-21600650D01*
X8115420Y-21600650D02*
X8105896Y-21610174D01*
X8105896Y-21610174D02*
X8086848Y-21619698D01*
X8086848Y-21619698D02*
X8048753Y-21619698D01*
X8048753Y-21619698D02*
X8029706Y-21629222D01*
X8029706Y-21629222D02*
X8020182Y-21638746D01*
X8020182Y-21638746D02*
X8010658Y-21657793D01*
X8010658Y-21657793D02*
X8010658Y-21695889D01*
X8010658Y-21695889D02*
X8020182Y-21714936D01*
X8020182Y-21714936D02*
X8029706Y-21724460D01*
X8029706Y-21724460D02*
X8048753Y-21733984D01*
X8048753Y-21733984D02*
X8086848Y-21733984D01*
X8086848Y-21733984D02*
X8105896Y-21724460D01*
X8105896Y-21724460D02*
X8115420Y-21714936D01*
X8115420Y-21714936D02*
X8124944Y-21695889D01*
X8124944Y-21695889D02*
X8124944Y-21657793D01*
X8124944Y-21657793D02*
X8115420Y-21638746D01*
X8115420Y-21638746D02*
X8105896Y-21629222D01*
X8105896Y-21629222D02*
X8086848Y-21619698D01*
X8201134Y-21533984D02*
X8201134Y-21572079D01*
X8277325Y-21533984D02*
X8277325Y-21572079D01*
X8572563Y-21810174D02*
X8563039Y-21800650D01*
X8563039Y-21800650D02*
X8543991Y-21772079D01*
X8543991Y-21772079D02*
X8534468Y-21753031D01*
X8534468Y-21753031D02*
X8524944Y-21724460D01*
X8524944Y-21724460D02*
X8515420Y-21676841D01*
X8515420Y-21676841D02*
X8515420Y-21638746D01*
X8515420Y-21638746D02*
X8524944Y-21591127D01*
X8524944Y-21591127D02*
X8534468Y-21562555D01*
X8534468Y-21562555D02*
X8543991Y-21543508D01*
X8543991Y-21543508D02*
X8563039Y-21514936D01*
X8563039Y-21514936D02*
X8572563Y-21505412D01*
X8753515Y-21733984D02*
X8639230Y-21733984D01*
X8696372Y-21733984D02*
X8696372Y-21533984D01*
X8696372Y-21533984D02*
X8677325Y-21562555D01*
X8677325Y-21562555D02*
X8658277Y-21581603D01*
X8658277Y-21581603D02*
X8639230Y-21591127D01*
X8829706Y-21553031D02*
X8839230Y-21543508D01*
X8839230Y-21543508D02*
X8858277Y-21533984D01*
X8858277Y-21533984D02*
X8905896Y-21533984D01*
X8905896Y-21533984D02*
X8924944Y-21543508D01*
X8924944Y-21543508D02*
X8934468Y-21553031D01*
X8934468Y-21553031D02*
X8943991Y-21572079D01*
X8943991Y-21572079D02*
X8943991Y-21591127D01*
X8943991Y-21591127D02*
X8934468Y-21619698D01*
X8934468Y-21619698D02*
X8820182Y-21733984D01*
X8820182Y-21733984D02*
X8943991Y-21733984D01*
X9182087Y-21733984D02*
X9182087Y-21533984D01*
X9267801Y-21733984D02*
X9267801Y-21629222D01*
X9267801Y-21629222D02*
X9258277Y-21610174D01*
X9258277Y-21610174D02*
X9239230Y-21600650D01*
X9239230Y-21600650D02*
X9210658Y-21600650D01*
X9210658Y-21600650D02*
X9191611Y-21610174D01*
X9191611Y-21610174D02*
X9182087Y-21619698D01*
X9391611Y-21733984D02*
X9372563Y-21724460D01*
X9372563Y-21724460D02*
X9363039Y-21714936D01*
X9363039Y-21714936D02*
X9353515Y-21695889D01*
X9353515Y-21695889D02*
X9353515Y-21638746D01*
X9353515Y-21638746D02*
X9363039Y-21619698D01*
X9363039Y-21619698D02*
X9372563Y-21610174D01*
X9372563Y-21610174D02*
X9391611Y-21600650D01*
X9391611Y-21600650D02*
X9420182Y-21600650D01*
X9420182Y-21600650D02*
X9439230Y-21610174D01*
X9439230Y-21610174D02*
X9448753Y-21619698D01*
X9448753Y-21619698D02*
X9458277Y-21638746D01*
X9458277Y-21638746D02*
X9458277Y-21695889D01*
X9458277Y-21695889D02*
X9448753Y-21714936D01*
X9448753Y-21714936D02*
X9439230Y-21724460D01*
X9439230Y-21724460D02*
X9420182Y-21733984D01*
X9420182Y-21733984D02*
X9391611Y-21733984D01*
X9572563Y-21733984D02*
X9553515Y-21724460D01*
X9553515Y-21724460D02*
X9543992Y-21705412D01*
X9543992Y-21705412D02*
X9543992Y-21533984D01*
X9724944Y-21724460D02*
X9705896Y-21733984D01*
X9705896Y-21733984D02*
X9667801Y-21733984D01*
X9667801Y-21733984D02*
X9648753Y-21724460D01*
X9648753Y-21724460D02*
X9639230Y-21705412D01*
X9639230Y-21705412D02*
X9639230Y-21629222D01*
X9639230Y-21629222D02*
X9648753Y-21610174D01*
X9648753Y-21610174D02*
X9667801Y-21600650D01*
X9667801Y-21600650D02*
X9705896Y-21600650D01*
X9705896Y-21600650D02*
X9724944Y-21610174D01*
X9724944Y-21610174D02*
X9734468Y-21629222D01*
X9734468Y-21629222D02*
X9734468Y-21648270D01*
X9734468Y-21648270D02*
X9639230Y-21667317D01*
X9810658Y-21724460D02*
X9829706Y-21733984D01*
X9829706Y-21733984D02*
X9867801Y-21733984D01*
X9867801Y-21733984D02*
X9886849Y-21724460D01*
X9886849Y-21724460D02*
X9896373Y-21705412D01*
X9896373Y-21705412D02*
X9896373Y-21695889D01*
X9896373Y-21695889D02*
X9886849Y-21676841D01*
X9886849Y-21676841D02*
X9867801Y-21667317D01*
X9867801Y-21667317D02*
X9839230Y-21667317D01*
X9839230Y-21667317D02*
X9820182Y-21657793D01*
X9820182Y-21657793D02*
X9810658Y-21638746D01*
X9810658Y-21638746D02*
X9810658Y-21629222D01*
X9810658Y-21629222D02*
X9820182Y-21610174D01*
X9820182Y-21610174D02*
X9839230Y-21600650D01*
X9839230Y-21600650D02*
X9867801Y-21600650D01*
X9867801Y-21600650D02*
X9886849Y-21610174D01*
X9963039Y-21810174D02*
X9972563Y-21800650D01*
X9972563Y-21800650D02*
X9991611Y-21772079D01*
X9991611Y-21772079D02*
X10001134Y-21753031D01*
X10001134Y-21753031D02*
X10010658Y-21724460D01*
X10010658Y-21724460D02*
X10020182Y-21676841D01*
X10020182Y-21676841D02*
X10020182Y-21638746D01*
X10020182Y-21638746D02*
X10010658Y-21591127D01*
X10010658Y-21591127D02*
X10001134Y-21562555D01*
X10001134Y-21562555D02*
X9991611Y-21543508D01*
X9991611Y-21543508D02*
X9972563Y-21514936D01*
X9972563Y-21514936D02*
X9963039Y-21505412D01*
D12*
X4997500Y-21906500D02*
G75*
G02*
X4897500Y-21906500I-50000J0D01*
G01*
X4897500Y-21906500D02*
G75*
G02*
X4997500Y-21906500I50000J0D01*
G01*
D11*
X5363039Y-21997984D02*
X5248753Y-21997984D01*
X5305896Y-21997984D02*
X5305896Y-21797984D01*
X5305896Y-21797984D02*
X5286848Y-21826555D01*
X5286848Y-21826555D02*
X5267801Y-21845603D01*
X5267801Y-21845603D02*
X5248753Y-21855127D01*
X5448753Y-21978936D02*
X5458277Y-21988460D01*
X5458277Y-21988460D02*
X5448753Y-21997984D01*
X5448753Y-21997984D02*
X5439229Y-21988460D01*
X5439229Y-21988460D02*
X5448753Y-21978936D01*
X5448753Y-21978936D02*
X5448753Y-21997984D01*
X5582086Y-21797984D02*
X5601134Y-21797984D01*
X5601134Y-21797984D02*
X5620182Y-21807508D01*
X5620182Y-21807508D02*
X5629705Y-21817031D01*
X5629705Y-21817031D02*
X5639229Y-21836079D01*
X5639229Y-21836079D02*
X5648753Y-21874174D01*
X5648753Y-21874174D02*
X5648753Y-21921793D01*
X5648753Y-21921793D02*
X5639229Y-21959889D01*
X5639229Y-21959889D02*
X5629705Y-21978936D01*
X5629705Y-21978936D02*
X5620182Y-21988460D01*
X5620182Y-21988460D02*
X5601134Y-21997984D01*
X5601134Y-21997984D02*
X5582086Y-21997984D01*
X5582086Y-21997984D02*
X5563039Y-21988460D01*
X5563039Y-21988460D02*
X5553515Y-21978936D01*
X5553515Y-21978936D02*
X5543991Y-21959889D01*
X5543991Y-21959889D02*
X5534467Y-21921793D01*
X5534467Y-21921793D02*
X5534467Y-21874174D01*
X5534467Y-21874174D02*
X5543991Y-21836079D01*
X5543991Y-21836079D02*
X5553515Y-21817031D01*
X5553515Y-21817031D02*
X5563039Y-21807508D01*
X5563039Y-21807508D02*
X5582086Y-21797984D01*
X5772562Y-21797984D02*
X5791610Y-21797984D01*
X5791610Y-21797984D02*
X5810658Y-21807508D01*
X5810658Y-21807508D02*
X5820182Y-21817031D01*
X5820182Y-21817031D02*
X5829705Y-21836079D01*
X5829705Y-21836079D02*
X5839229Y-21874174D01*
X5839229Y-21874174D02*
X5839229Y-21921793D01*
X5839229Y-21921793D02*
X5829705Y-21959889D01*
X5829705Y-21959889D02*
X5820182Y-21978936D01*
X5820182Y-21978936D02*
X5810658Y-21988460D01*
X5810658Y-21988460D02*
X5791610Y-21997984D01*
X5791610Y-21997984D02*
X5772562Y-21997984D01*
X5772562Y-21997984D02*
X5753515Y-21988460D01*
X5753515Y-21988460D02*
X5743991Y-21978936D01*
X5743991Y-21978936D02*
X5734467Y-21959889D01*
X5734467Y-21959889D02*
X5724943Y-21921793D01*
X5724943Y-21921793D02*
X5724943Y-21874174D01*
X5724943Y-21874174D02*
X5734467Y-21836079D01*
X5734467Y-21836079D02*
X5743991Y-21817031D01*
X5743991Y-21817031D02*
X5753515Y-21807508D01*
X5753515Y-21807508D02*
X5772562Y-21797984D01*
X5963039Y-21797984D02*
X5982086Y-21797984D01*
X5982086Y-21797984D02*
X6001134Y-21807508D01*
X6001134Y-21807508D02*
X6010658Y-21817031D01*
X6010658Y-21817031D02*
X6020182Y-21836079D01*
X6020182Y-21836079D02*
X6029705Y-21874174D01*
X6029705Y-21874174D02*
X6029705Y-21921793D01*
X6029705Y-21921793D02*
X6020182Y-21959889D01*
X6020182Y-21959889D02*
X6010658Y-21978936D01*
X6010658Y-21978936D02*
X6001134Y-21988460D01*
X6001134Y-21988460D02*
X5982086Y-21997984D01*
X5982086Y-21997984D02*
X5963039Y-21997984D01*
X5963039Y-21997984D02*
X5943991Y-21988460D01*
X5943991Y-21988460D02*
X5934467Y-21978936D01*
X5934467Y-21978936D02*
X5924943Y-21959889D01*
X5924943Y-21959889D02*
X5915420Y-21921793D01*
X5915420Y-21921793D02*
X5915420Y-21874174D01*
X5915420Y-21874174D02*
X5924943Y-21836079D01*
X5924943Y-21836079D02*
X5934467Y-21817031D01*
X5934467Y-21817031D02*
X5943991Y-21807508D01*
X5943991Y-21807508D02*
X5963039Y-21797984D01*
X6115420Y-21997984D02*
X6115420Y-21864650D01*
X6115420Y-21883698D02*
X6124943Y-21874174D01*
X6124943Y-21874174D02*
X6143991Y-21864650D01*
X6143991Y-21864650D02*
X6172563Y-21864650D01*
X6172563Y-21864650D02*
X6191610Y-21874174D01*
X6191610Y-21874174D02*
X6201134Y-21893222D01*
X6201134Y-21893222D02*
X6201134Y-21997984D01*
X6201134Y-21893222D02*
X6210658Y-21874174D01*
X6210658Y-21874174D02*
X6229705Y-21864650D01*
X6229705Y-21864650D02*
X6258277Y-21864650D01*
X6258277Y-21864650D02*
X6277324Y-21874174D01*
X6277324Y-21874174D02*
X6286848Y-21893222D01*
X6286848Y-21893222D02*
X6286848Y-21997984D01*
X6382086Y-21997984D02*
X6382086Y-21864650D01*
X6382086Y-21883698D02*
X6391610Y-21874174D01*
X6391610Y-21874174D02*
X6410658Y-21864650D01*
X6410658Y-21864650D02*
X6439229Y-21864650D01*
X6439229Y-21864650D02*
X6458277Y-21874174D01*
X6458277Y-21874174D02*
X6467801Y-21893222D01*
X6467801Y-21893222D02*
X6467801Y-21997984D01*
X6467801Y-21893222D02*
X6477324Y-21874174D01*
X6477324Y-21874174D02*
X6496372Y-21864650D01*
X6496372Y-21864650D02*
X6524943Y-21864650D01*
X6524943Y-21864650D02*
X6543991Y-21874174D01*
X6543991Y-21874174D02*
X6553515Y-21893222D01*
X6553515Y-21893222D02*
X6553515Y-21997984D01*
X6943991Y-21788460D02*
X6772563Y-22045603D01*
X7201134Y-21797984D02*
X7220182Y-21797984D01*
X7220182Y-21797984D02*
X7239229Y-21807508D01*
X7239229Y-21807508D02*
X7248753Y-21817031D01*
X7248753Y-21817031D02*
X7258277Y-21836079D01*
X7258277Y-21836079D02*
X7267801Y-21874174D01*
X7267801Y-21874174D02*
X7267801Y-21921793D01*
X7267801Y-21921793D02*
X7258277Y-21959889D01*
X7258277Y-21959889D02*
X7248753Y-21978936D01*
X7248753Y-21978936D02*
X7239229Y-21988460D01*
X7239229Y-21988460D02*
X7220182Y-21997984D01*
X7220182Y-21997984D02*
X7201134Y-21997984D01*
X7201134Y-21997984D02*
X7182086Y-21988460D01*
X7182086Y-21988460D02*
X7172563Y-21978936D01*
X7172563Y-21978936D02*
X7163039Y-21959889D01*
X7163039Y-21959889D02*
X7153515Y-21921793D01*
X7153515Y-21921793D02*
X7153515Y-21874174D01*
X7153515Y-21874174D02*
X7163039Y-21836079D01*
X7163039Y-21836079D02*
X7172563Y-21817031D01*
X7172563Y-21817031D02*
X7182086Y-21807508D01*
X7182086Y-21807508D02*
X7201134Y-21797984D01*
X7353515Y-21978936D02*
X7363039Y-21988460D01*
X7363039Y-21988460D02*
X7353515Y-21997984D01*
X7353515Y-21997984D02*
X7343991Y-21988460D01*
X7343991Y-21988460D02*
X7353515Y-21978936D01*
X7353515Y-21978936D02*
X7353515Y-21997984D01*
X7486848Y-21797984D02*
X7505896Y-21797984D01*
X7505896Y-21797984D02*
X7524944Y-21807508D01*
X7524944Y-21807508D02*
X7534467Y-21817031D01*
X7534467Y-21817031D02*
X7543991Y-21836079D01*
X7543991Y-21836079D02*
X7553515Y-21874174D01*
X7553515Y-21874174D02*
X7553515Y-21921793D01*
X7553515Y-21921793D02*
X7543991Y-21959889D01*
X7543991Y-21959889D02*
X7534467Y-21978936D01*
X7534467Y-21978936D02*
X7524944Y-21988460D01*
X7524944Y-21988460D02*
X7505896Y-21997984D01*
X7505896Y-21997984D02*
X7486848Y-21997984D01*
X7486848Y-21997984D02*
X7467801Y-21988460D01*
X7467801Y-21988460D02*
X7458277Y-21978936D01*
X7458277Y-21978936D02*
X7448753Y-21959889D01*
X7448753Y-21959889D02*
X7439229Y-21921793D01*
X7439229Y-21921793D02*
X7439229Y-21874174D01*
X7439229Y-21874174D02*
X7448753Y-21836079D01*
X7448753Y-21836079D02*
X7458277Y-21817031D01*
X7458277Y-21817031D02*
X7467801Y-21807508D01*
X7467801Y-21807508D02*
X7486848Y-21797984D01*
X7620182Y-21797984D02*
X7743991Y-21797984D01*
X7743991Y-21797984D02*
X7677325Y-21874174D01*
X7677325Y-21874174D02*
X7705896Y-21874174D01*
X7705896Y-21874174D02*
X7724944Y-21883698D01*
X7724944Y-21883698D02*
X7734467Y-21893222D01*
X7734467Y-21893222D02*
X7743991Y-21912270D01*
X7743991Y-21912270D02*
X7743991Y-21959889D01*
X7743991Y-21959889D02*
X7734467Y-21978936D01*
X7734467Y-21978936D02*
X7724944Y-21988460D01*
X7724944Y-21988460D02*
X7705896Y-21997984D01*
X7705896Y-21997984D02*
X7648753Y-21997984D01*
X7648753Y-21997984D02*
X7629706Y-21988460D01*
X7629706Y-21988460D02*
X7620182Y-21978936D01*
X7839229Y-21997984D02*
X7877325Y-21997984D01*
X7877325Y-21997984D02*
X7896372Y-21988460D01*
X7896372Y-21988460D02*
X7905896Y-21978936D01*
X7905896Y-21978936D02*
X7924944Y-21950365D01*
X7924944Y-21950365D02*
X7934467Y-21912270D01*
X7934467Y-21912270D02*
X7934467Y-21836079D01*
X7934467Y-21836079D02*
X7924944Y-21817031D01*
X7924944Y-21817031D02*
X7915420Y-21807508D01*
X7915420Y-21807508D02*
X7896372Y-21797984D01*
X7896372Y-21797984D02*
X7858277Y-21797984D01*
X7858277Y-21797984D02*
X7839229Y-21807508D01*
X7839229Y-21807508D02*
X7829706Y-21817031D01*
X7829706Y-21817031D02*
X7820182Y-21836079D01*
X7820182Y-21836079D02*
X7820182Y-21883698D01*
X7820182Y-21883698D02*
X7829706Y-21902746D01*
X7829706Y-21902746D02*
X7839229Y-21912270D01*
X7839229Y-21912270D02*
X7858277Y-21921793D01*
X7858277Y-21921793D02*
X7896372Y-21921793D01*
X7896372Y-21921793D02*
X7915420Y-21912270D01*
X7915420Y-21912270D02*
X7924944Y-21902746D01*
X7924944Y-21902746D02*
X7934467Y-21883698D01*
X8105896Y-21864650D02*
X8105896Y-21997984D01*
X8058277Y-21788460D02*
X8010658Y-21931317D01*
X8010658Y-21931317D02*
X8134467Y-21931317D01*
X8201134Y-21797984D02*
X8201134Y-21836079D01*
X8277325Y-21797984D02*
X8277325Y-21836079D01*
X8572563Y-22074174D02*
X8563039Y-22064650D01*
X8563039Y-22064650D02*
X8543991Y-22036079D01*
X8543991Y-22036079D02*
X8534468Y-22017031D01*
X8534468Y-22017031D02*
X8524944Y-21988460D01*
X8524944Y-21988460D02*
X8515420Y-21940841D01*
X8515420Y-21940841D02*
X8515420Y-21902746D01*
X8515420Y-21902746D02*
X8524944Y-21855127D01*
X8524944Y-21855127D02*
X8534468Y-21826555D01*
X8534468Y-21826555D02*
X8543991Y-21807508D01*
X8543991Y-21807508D02*
X8563039Y-21778936D01*
X8563039Y-21778936D02*
X8572563Y-21769412D01*
X8629706Y-21797984D02*
X8753515Y-21797984D01*
X8753515Y-21797984D02*
X8686849Y-21874174D01*
X8686849Y-21874174D02*
X8715420Y-21874174D01*
X8715420Y-21874174D02*
X8734468Y-21883698D01*
X8734468Y-21883698D02*
X8743991Y-21893222D01*
X8743991Y-21893222D02*
X8753515Y-21912270D01*
X8753515Y-21912270D02*
X8753515Y-21959889D01*
X8753515Y-21959889D02*
X8743991Y-21978936D01*
X8743991Y-21978936D02*
X8734468Y-21988460D01*
X8734468Y-21988460D02*
X8715420Y-21997984D01*
X8715420Y-21997984D02*
X8658277Y-21997984D01*
X8658277Y-21997984D02*
X8639230Y-21988460D01*
X8639230Y-21988460D02*
X8629706Y-21978936D01*
X8934468Y-21797984D02*
X8839230Y-21797984D01*
X8839230Y-21797984D02*
X8829706Y-21893222D01*
X8829706Y-21893222D02*
X8839230Y-21883698D01*
X8839230Y-21883698D02*
X8858277Y-21874174D01*
X8858277Y-21874174D02*
X8905896Y-21874174D01*
X8905896Y-21874174D02*
X8924944Y-21883698D01*
X8924944Y-21883698D02*
X8934468Y-21893222D01*
X8934468Y-21893222D02*
X8943991Y-21912270D01*
X8943991Y-21912270D02*
X8943991Y-21959889D01*
X8943991Y-21959889D02*
X8934468Y-21978936D01*
X8934468Y-21978936D02*
X8924944Y-21988460D01*
X8924944Y-21988460D02*
X8905896Y-21997984D01*
X8905896Y-21997984D02*
X8858277Y-21997984D01*
X8858277Y-21997984D02*
X8839230Y-21988460D01*
X8839230Y-21988460D02*
X8829706Y-21978936D01*
X9039230Y-21997984D02*
X9077325Y-21997984D01*
X9077325Y-21997984D02*
X9096372Y-21988460D01*
X9096372Y-21988460D02*
X9105896Y-21978936D01*
X9105896Y-21978936D02*
X9124944Y-21950365D01*
X9124944Y-21950365D02*
X9134468Y-21912270D01*
X9134468Y-21912270D02*
X9134468Y-21836079D01*
X9134468Y-21836079D02*
X9124944Y-21817031D01*
X9124944Y-21817031D02*
X9115420Y-21807508D01*
X9115420Y-21807508D02*
X9096372Y-21797984D01*
X9096372Y-21797984D02*
X9058277Y-21797984D01*
X9058277Y-21797984D02*
X9039230Y-21807508D01*
X9039230Y-21807508D02*
X9029706Y-21817031D01*
X9029706Y-21817031D02*
X9020182Y-21836079D01*
X9020182Y-21836079D02*
X9020182Y-21883698D01*
X9020182Y-21883698D02*
X9029706Y-21902746D01*
X9029706Y-21902746D02*
X9039230Y-21912270D01*
X9039230Y-21912270D02*
X9058277Y-21921793D01*
X9058277Y-21921793D02*
X9096372Y-21921793D01*
X9096372Y-21921793D02*
X9115420Y-21912270D01*
X9115420Y-21912270D02*
X9124944Y-21902746D01*
X9124944Y-21902746D02*
X9134468Y-21883698D01*
X9372563Y-21997984D02*
X9372563Y-21797984D01*
X9458277Y-21997984D02*
X9458277Y-21893222D01*
X9458277Y-21893222D02*
X9448753Y-21874174D01*
X9448753Y-21874174D02*
X9429706Y-21864650D01*
X9429706Y-21864650D02*
X9401134Y-21864650D01*
X9401134Y-21864650D02*
X9382087Y-21874174D01*
X9382087Y-21874174D02*
X9372563Y-21883698D01*
X9582087Y-21997984D02*
X9563039Y-21988460D01*
X9563039Y-21988460D02*
X9553515Y-21978936D01*
X9553515Y-21978936D02*
X9543992Y-21959889D01*
X9543992Y-21959889D02*
X9543992Y-21902746D01*
X9543992Y-21902746D02*
X9553515Y-21883698D01*
X9553515Y-21883698D02*
X9563039Y-21874174D01*
X9563039Y-21874174D02*
X9582087Y-21864650D01*
X9582087Y-21864650D02*
X9610658Y-21864650D01*
X9610658Y-21864650D02*
X9629706Y-21874174D01*
X9629706Y-21874174D02*
X9639230Y-21883698D01*
X9639230Y-21883698D02*
X9648753Y-21902746D01*
X9648753Y-21902746D02*
X9648753Y-21959889D01*
X9648753Y-21959889D02*
X9639230Y-21978936D01*
X9639230Y-21978936D02*
X9629706Y-21988460D01*
X9629706Y-21988460D02*
X9610658Y-21997984D01*
X9610658Y-21997984D02*
X9582087Y-21997984D01*
X9763039Y-21997984D02*
X9743992Y-21988460D01*
X9743992Y-21988460D02*
X9734468Y-21969412D01*
X9734468Y-21969412D02*
X9734468Y-21797984D01*
X9915420Y-21988460D02*
X9896373Y-21997984D01*
X9896373Y-21997984D02*
X9858277Y-21997984D01*
X9858277Y-21997984D02*
X9839230Y-21988460D01*
X9839230Y-21988460D02*
X9829706Y-21969412D01*
X9829706Y-21969412D02*
X9829706Y-21893222D01*
X9829706Y-21893222D02*
X9839230Y-21874174D01*
X9839230Y-21874174D02*
X9858277Y-21864650D01*
X9858277Y-21864650D02*
X9896373Y-21864650D01*
X9896373Y-21864650D02*
X9915420Y-21874174D01*
X9915420Y-21874174D02*
X9924944Y-21893222D01*
X9924944Y-21893222D02*
X9924944Y-21912270D01*
X9924944Y-21912270D02*
X9829706Y-21931317D01*
X10001134Y-21988460D02*
X10020182Y-21997984D01*
X10020182Y-21997984D02*
X10058277Y-21997984D01*
X10058277Y-21997984D02*
X10077325Y-21988460D01*
X10077325Y-21988460D02*
X10086849Y-21969412D01*
X10086849Y-21969412D02*
X10086849Y-21959889D01*
X10086849Y-21959889D02*
X10077325Y-21940841D01*
X10077325Y-21940841D02*
X10058277Y-21931317D01*
X10058277Y-21931317D02*
X10029706Y-21931317D01*
X10029706Y-21931317D02*
X10010658Y-21921793D01*
X10010658Y-21921793D02*
X10001134Y-21902746D01*
X10001134Y-21902746D02*
X10001134Y-21893222D01*
X10001134Y-21893222D02*
X10010658Y-21874174D01*
X10010658Y-21874174D02*
X10029706Y-21864650D01*
X10029706Y-21864650D02*
X10058277Y-21864650D01*
X10058277Y-21864650D02*
X10077325Y-21874174D01*
X10153515Y-22074174D02*
X10163039Y-22064650D01*
X10163039Y-22064650D02*
X10182087Y-22036079D01*
X10182087Y-22036079D02*
X10191611Y-22017031D01*
X10191611Y-22017031D02*
X10201134Y-21988460D01*
X10201134Y-21988460D02*
X10210658Y-21940841D01*
X10210658Y-21940841D02*
X10210658Y-21902746D01*
X10210658Y-21902746D02*
X10201134Y-21855127D01*
X10201134Y-21855127D02*
X10191611Y-21826555D01*
X10191611Y-21826555D02*
X10182087Y-21807508D01*
X10182087Y-21807508D02*
X10163039Y-21778936D01*
X10163039Y-21778936D02*
X10153515Y-21769412D01*
D13*
X4942500Y-22115500D02*
X4942500Y-22225500D01*
X4887500Y-22170500D02*
X4997500Y-22170500D01*
D11*
X5363039Y-22261984D02*
X5248753Y-22261984D01*
X5305896Y-22261984D02*
X5305896Y-22061984D01*
X5305896Y-22061984D02*
X5286848Y-22090555D01*
X5286848Y-22090555D02*
X5267801Y-22109603D01*
X5267801Y-22109603D02*
X5248753Y-22119127D01*
X5448753Y-22242936D02*
X5458277Y-22252460D01*
X5458277Y-22252460D02*
X5448753Y-22261984D01*
X5448753Y-22261984D02*
X5439229Y-22252460D01*
X5439229Y-22252460D02*
X5448753Y-22242936D01*
X5448753Y-22242936D02*
X5448753Y-22261984D01*
X5648753Y-22261984D02*
X5534467Y-22261984D01*
X5591610Y-22261984D02*
X5591610Y-22061984D01*
X5591610Y-22061984D02*
X5572563Y-22090555D01*
X5572563Y-22090555D02*
X5553515Y-22109603D01*
X5553515Y-22109603D02*
X5534467Y-22119127D01*
X5772562Y-22061984D02*
X5791610Y-22061984D01*
X5791610Y-22061984D02*
X5810658Y-22071508D01*
X5810658Y-22071508D02*
X5820182Y-22081031D01*
X5820182Y-22081031D02*
X5829705Y-22100079D01*
X5829705Y-22100079D02*
X5839229Y-22138174D01*
X5839229Y-22138174D02*
X5839229Y-22185793D01*
X5839229Y-22185793D02*
X5829705Y-22223889D01*
X5829705Y-22223889D02*
X5820182Y-22242936D01*
X5820182Y-22242936D02*
X5810658Y-22252460D01*
X5810658Y-22252460D02*
X5791610Y-22261984D01*
X5791610Y-22261984D02*
X5772562Y-22261984D01*
X5772562Y-22261984D02*
X5753515Y-22252460D01*
X5753515Y-22252460D02*
X5743991Y-22242936D01*
X5743991Y-22242936D02*
X5734467Y-22223889D01*
X5734467Y-22223889D02*
X5724943Y-22185793D01*
X5724943Y-22185793D02*
X5724943Y-22138174D01*
X5724943Y-22138174D02*
X5734467Y-22100079D01*
X5734467Y-22100079D02*
X5743991Y-22081031D01*
X5743991Y-22081031D02*
X5753515Y-22071508D01*
X5753515Y-22071508D02*
X5772562Y-22061984D01*
X5963039Y-22061984D02*
X5982086Y-22061984D01*
X5982086Y-22061984D02*
X6001134Y-22071508D01*
X6001134Y-22071508D02*
X6010658Y-22081031D01*
X6010658Y-22081031D02*
X6020182Y-22100079D01*
X6020182Y-22100079D02*
X6029705Y-22138174D01*
X6029705Y-22138174D02*
X6029705Y-22185793D01*
X6029705Y-22185793D02*
X6020182Y-22223889D01*
X6020182Y-22223889D02*
X6010658Y-22242936D01*
X6010658Y-22242936D02*
X6001134Y-22252460D01*
X6001134Y-22252460D02*
X5982086Y-22261984D01*
X5982086Y-22261984D02*
X5963039Y-22261984D01*
X5963039Y-22261984D02*
X5943991Y-22252460D01*
X5943991Y-22252460D02*
X5934467Y-22242936D01*
X5934467Y-22242936D02*
X5924943Y-22223889D01*
X5924943Y-22223889D02*
X5915420Y-22185793D01*
X5915420Y-22185793D02*
X5915420Y-22138174D01*
X5915420Y-22138174D02*
X5924943Y-22100079D01*
X5924943Y-22100079D02*
X5934467Y-22081031D01*
X5934467Y-22081031D02*
X5943991Y-22071508D01*
X5943991Y-22071508D02*
X5963039Y-22061984D01*
X6115420Y-22261984D02*
X6115420Y-22128650D01*
X6115420Y-22147698D02*
X6124943Y-22138174D01*
X6124943Y-22138174D02*
X6143991Y-22128650D01*
X6143991Y-22128650D02*
X6172563Y-22128650D01*
X6172563Y-22128650D02*
X6191610Y-22138174D01*
X6191610Y-22138174D02*
X6201134Y-22157222D01*
X6201134Y-22157222D02*
X6201134Y-22261984D01*
X6201134Y-22157222D02*
X6210658Y-22138174D01*
X6210658Y-22138174D02*
X6229705Y-22128650D01*
X6229705Y-22128650D02*
X6258277Y-22128650D01*
X6258277Y-22128650D02*
X6277324Y-22138174D01*
X6277324Y-22138174D02*
X6286848Y-22157222D01*
X6286848Y-22157222D02*
X6286848Y-22261984D01*
X6382086Y-22261984D02*
X6382086Y-22128650D01*
X6382086Y-22147698D02*
X6391610Y-22138174D01*
X6391610Y-22138174D02*
X6410658Y-22128650D01*
X6410658Y-22128650D02*
X6439229Y-22128650D01*
X6439229Y-22128650D02*
X6458277Y-22138174D01*
X6458277Y-22138174D02*
X6467801Y-22157222D01*
X6467801Y-22157222D02*
X6467801Y-22261984D01*
X6467801Y-22157222D02*
X6477324Y-22138174D01*
X6477324Y-22138174D02*
X6496372Y-22128650D01*
X6496372Y-22128650D02*
X6524943Y-22128650D01*
X6524943Y-22128650D02*
X6543991Y-22138174D01*
X6543991Y-22138174D02*
X6553515Y-22157222D01*
X6553515Y-22157222D02*
X6553515Y-22261984D01*
X6943991Y-22052460D02*
X6772563Y-22309603D01*
X7201134Y-22061984D02*
X7220182Y-22061984D01*
X7220182Y-22061984D02*
X7239229Y-22071508D01*
X7239229Y-22071508D02*
X7248753Y-22081031D01*
X7248753Y-22081031D02*
X7258277Y-22100079D01*
X7258277Y-22100079D02*
X7267801Y-22138174D01*
X7267801Y-22138174D02*
X7267801Y-22185793D01*
X7267801Y-22185793D02*
X7258277Y-22223889D01*
X7258277Y-22223889D02*
X7248753Y-22242936D01*
X7248753Y-22242936D02*
X7239229Y-22252460D01*
X7239229Y-22252460D02*
X7220182Y-22261984D01*
X7220182Y-22261984D02*
X7201134Y-22261984D01*
X7201134Y-22261984D02*
X7182086Y-22252460D01*
X7182086Y-22252460D02*
X7172563Y-22242936D01*
X7172563Y-22242936D02*
X7163039Y-22223889D01*
X7163039Y-22223889D02*
X7153515Y-22185793D01*
X7153515Y-22185793D02*
X7153515Y-22138174D01*
X7153515Y-22138174D02*
X7163039Y-22100079D01*
X7163039Y-22100079D02*
X7172563Y-22081031D01*
X7172563Y-22081031D02*
X7182086Y-22071508D01*
X7182086Y-22071508D02*
X7201134Y-22061984D01*
X7353515Y-22242936D02*
X7363039Y-22252460D01*
X7363039Y-22252460D02*
X7353515Y-22261984D01*
X7353515Y-22261984D02*
X7343991Y-22252460D01*
X7343991Y-22252460D02*
X7353515Y-22242936D01*
X7353515Y-22242936D02*
X7353515Y-22261984D01*
X7486848Y-22061984D02*
X7505896Y-22061984D01*
X7505896Y-22061984D02*
X7524944Y-22071508D01*
X7524944Y-22071508D02*
X7534467Y-22081031D01*
X7534467Y-22081031D02*
X7543991Y-22100079D01*
X7543991Y-22100079D02*
X7553515Y-22138174D01*
X7553515Y-22138174D02*
X7553515Y-22185793D01*
X7553515Y-22185793D02*
X7543991Y-22223889D01*
X7543991Y-22223889D02*
X7534467Y-22242936D01*
X7534467Y-22242936D02*
X7524944Y-22252460D01*
X7524944Y-22252460D02*
X7505896Y-22261984D01*
X7505896Y-22261984D02*
X7486848Y-22261984D01*
X7486848Y-22261984D02*
X7467801Y-22252460D01*
X7467801Y-22252460D02*
X7458277Y-22242936D01*
X7458277Y-22242936D02*
X7448753Y-22223889D01*
X7448753Y-22223889D02*
X7439229Y-22185793D01*
X7439229Y-22185793D02*
X7439229Y-22138174D01*
X7439229Y-22138174D02*
X7448753Y-22100079D01*
X7448753Y-22100079D02*
X7458277Y-22081031D01*
X7458277Y-22081031D02*
X7467801Y-22071508D01*
X7467801Y-22071508D02*
X7486848Y-22061984D01*
X7724944Y-22128650D02*
X7724944Y-22261984D01*
X7677325Y-22052460D02*
X7629706Y-22195317D01*
X7629706Y-22195317D02*
X7753515Y-22195317D01*
X7810658Y-22061984D02*
X7934467Y-22061984D01*
X7934467Y-22061984D02*
X7867801Y-22138174D01*
X7867801Y-22138174D02*
X7896372Y-22138174D01*
X7896372Y-22138174D02*
X7915420Y-22147698D01*
X7915420Y-22147698D02*
X7924944Y-22157222D01*
X7924944Y-22157222D02*
X7934467Y-22176270D01*
X7934467Y-22176270D02*
X7934467Y-22223889D01*
X7934467Y-22223889D02*
X7924944Y-22242936D01*
X7924944Y-22242936D02*
X7915420Y-22252460D01*
X7915420Y-22252460D02*
X7896372Y-22261984D01*
X7896372Y-22261984D02*
X7839229Y-22261984D01*
X7839229Y-22261984D02*
X7820182Y-22252460D01*
X7820182Y-22252460D02*
X7810658Y-22242936D01*
X8001134Y-22061984D02*
X8124944Y-22061984D01*
X8124944Y-22061984D02*
X8058277Y-22138174D01*
X8058277Y-22138174D02*
X8086848Y-22138174D01*
X8086848Y-22138174D02*
X8105896Y-22147698D01*
X8105896Y-22147698D02*
X8115420Y-22157222D01*
X8115420Y-22157222D02*
X8124944Y-22176270D01*
X8124944Y-22176270D02*
X8124944Y-22223889D01*
X8124944Y-22223889D02*
X8115420Y-22242936D01*
X8115420Y-22242936D02*
X8105896Y-22252460D01*
X8105896Y-22252460D02*
X8086848Y-22261984D01*
X8086848Y-22261984D02*
X8029706Y-22261984D01*
X8029706Y-22261984D02*
X8010658Y-22252460D01*
X8010658Y-22252460D02*
X8001134Y-22242936D01*
X8201134Y-22061984D02*
X8201134Y-22100079D01*
X8277325Y-22061984D02*
X8277325Y-22100079D01*
X8572563Y-22338174D02*
X8563039Y-22328650D01*
X8563039Y-22328650D02*
X8543991Y-22300079D01*
X8543991Y-22300079D02*
X8534468Y-22281031D01*
X8534468Y-22281031D02*
X8524944Y-22252460D01*
X8524944Y-22252460D02*
X8515420Y-22204841D01*
X8515420Y-22204841D02*
X8515420Y-22166746D01*
X8515420Y-22166746D02*
X8524944Y-22119127D01*
X8524944Y-22119127D02*
X8534468Y-22090555D01*
X8534468Y-22090555D02*
X8543991Y-22071508D01*
X8543991Y-22071508D02*
X8563039Y-22042936D01*
X8563039Y-22042936D02*
X8572563Y-22033412D01*
X8639230Y-22081031D02*
X8648753Y-22071508D01*
X8648753Y-22071508D02*
X8667801Y-22061984D01*
X8667801Y-22061984D02*
X8715420Y-22061984D01*
X8715420Y-22061984D02*
X8734468Y-22071508D01*
X8734468Y-22071508D02*
X8743991Y-22081031D01*
X8743991Y-22081031D02*
X8753515Y-22100079D01*
X8753515Y-22100079D02*
X8753515Y-22119127D01*
X8753515Y-22119127D02*
X8743991Y-22147698D01*
X8743991Y-22147698D02*
X8629706Y-22261984D01*
X8629706Y-22261984D02*
X8753515Y-22261984D01*
X8991611Y-22261984D02*
X8991611Y-22061984D01*
X9077325Y-22261984D02*
X9077325Y-22157222D01*
X9077325Y-22157222D02*
X9067801Y-22138174D01*
X9067801Y-22138174D02*
X9048753Y-22128650D01*
X9048753Y-22128650D02*
X9020182Y-22128650D01*
X9020182Y-22128650D02*
X9001134Y-22138174D01*
X9001134Y-22138174D02*
X8991611Y-22147698D01*
X9201134Y-22261984D02*
X9182087Y-22252460D01*
X9182087Y-22252460D02*
X9172563Y-22242936D01*
X9172563Y-22242936D02*
X9163039Y-22223889D01*
X9163039Y-22223889D02*
X9163039Y-22166746D01*
X9163039Y-22166746D02*
X9172563Y-22147698D01*
X9172563Y-22147698D02*
X9182087Y-22138174D01*
X9182087Y-22138174D02*
X9201134Y-22128650D01*
X9201134Y-22128650D02*
X9229706Y-22128650D01*
X9229706Y-22128650D02*
X9248753Y-22138174D01*
X9248753Y-22138174D02*
X9258277Y-22147698D01*
X9258277Y-22147698D02*
X9267801Y-22166746D01*
X9267801Y-22166746D02*
X9267801Y-22223889D01*
X9267801Y-22223889D02*
X9258277Y-22242936D01*
X9258277Y-22242936D02*
X9248753Y-22252460D01*
X9248753Y-22252460D02*
X9229706Y-22261984D01*
X9229706Y-22261984D02*
X9201134Y-22261984D01*
X9382087Y-22261984D02*
X9363039Y-22252460D01*
X9363039Y-22252460D02*
X9353515Y-22233412D01*
X9353515Y-22233412D02*
X9353515Y-22061984D01*
X9534468Y-22252460D02*
X9515420Y-22261984D01*
X9515420Y-22261984D02*
X9477325Y-22261984D01*
X9477325Y-22261984D02*
X9458277Y-22252460D01*
X9458277Y-22252460D02*
X9448753Y-22233412D01*
X9448753Y-22233412D02*
X9448753Y-22157222D01*
X9448753Y-22157222D02*
X9458277Y-22138174D01*
X9458277Y-22138174D02*
X9477325Y-22128650D01*
X9477325Y-22128650D02*
X9515420Y-22128650D01*
X9515420Y-22128650D02*
X9534468Y-22138174D01*
X9534468Y-22138174D02*
X9543992Y-22157222D01*
X9543992Y-22157222D02*
X9543992Y-22176270D01*
X9543992Y-22176270D02*
X9448753Y-22195317D01*
X9620182Y-22252460D02*
X9639230Y-22261984D01*
X9639230Y-22261984D02*
X9677325Y-22261984D01*
X9677325Y-22261984D02*
X9696373Y-22252460D01*
X9696373Y-22252460D02*
X9705896Y-22233412D01*
X9705896Y-22233412D02*
X9705896Y-22223889D01*
X9705896Y-22223889D02*
X9696373Y-22204841D01*
X9696373Y-22204841D02*
X9677325Y-22195317D01*
X9677325Y-22195317D02*
X9648753Y-22195317D01*
X9648753Y-22195317D02*
X9629706Y-22185793D01*
X9629706Y-22185793D02*
X9620182Y-22166746D01*
X9620182Y-22166746D02*
X9620182Y-22157222D01*
X9620182Y-22157222D02*
X9629706Y-22138174D01*
X9629706Y-22138174D02*
X9648753Y-22128650D01*
X9648753Y-22128650D02*
X9677325Y-22128650D01*
X9677325Y-22128650D02*
X9696373Y-22138174D01*
X9772563Y-22338174D02*
X9782087Y-22328650D01*
X9782087Y-22328650D02*
X9801134Y-22300079D01*
X9801134Y-22300079D02*
X9810658Y-22281031D01*
X9810658Y-22281031D02*
X9820182Y-22252460D01*
X9820182Y-22252460D02*
X9829706Y-22204841D01*
X9829706Y-22204841D02*
X9829706Y-22166746D01*
X9829706Y-22166746D02*
X9820182Y-22119127D01*
X9820182Y-22119127D02*
X9810658Y-22090555D01*
X9810658Y-22090555D02*
X9801134Y-22071508D01*
X9801134Y-22071508D02*
X9782087Y-22042936D01*
X9782087Y-22042936D02*
X9772563Y-22033412D01*
D14*
X4972605Y-22494605D02*
X4972605Y-22374395D01*
X4852395Y-22374395D01*
X4852395Y-22494605D01*
X4972605Y-22494605D01*
D11*
X5363039Y-22525984D02*
X5248753Y-22525984D01*
X5305896Y-22525984D02*
X5305896Y-22325984D01*
X5305896Y-22325984D02*
X5286848Y-22354555D01*
X5286848Y-22354555D02*
X5267801Y-22373603D01*
X5267801Y-22373603D02*
X5248753Y-22383127D01*
X5448753Y-22506936D02*
X5458277Y-22516460D01*
X5458277Y-22516460D02*
X5448753Y-22525984D01*
X5448753Y-22525984D02*
X5439229Y-22516460D01*
X5439229Y-22516460D02*
X5448753Y-22506936D01*
X5448753Y-22506936D02*
X5448753Y-22525984D01*
X5524944Y-22325984D02*
X5658277Y-22325984D01*
X5658277Y-22325984D02*
X5572563Y-22525984D01*
X5772562Y-22325984D02*
X5791610Y-22325984D01*
X5791610Y-22325984D02*
X5810658Y-22335508D01*
X5810658Y-22335508D02*
X5820182Y-22345031D01*
X5820182Y-22345031D02*
X5829705Y-22364079D01*
X5829705Y-22364079D02*
X5839229Y-22402174D01*
X5839229Y-22402174D02*
X5839229Y-22449793D01*
X5839229Y-22449793D02*
X5829705Y-22487888D01*
X5829705Y-22487888D02*
X5820182Y-22506936D01*
X5820182Y-22506936D02*
X5810658Y-22516460D01*
X5810658Y-22516460D02*
X5791610Y-22525984D01*
X5791610Y-22525984D02*
X5772562Y-22525984D01*
X5772562Y-22525984D02*
X5753515Y-22516460D01*
X5753515Y-22516460D02*
X5743991Y-22506936D01*
X5743991Y-22506936D02*
X5734467Y-22487888D01*
X5734467Y-22487888D02*
X5724943Y-22449793D01*
X5724943Y-22449793D02*
X5724943Y-22402174D01*
X5724943Y-22402174D02*
X5734467Y-22364079D01*
X5734467Y-22364079D02*
X5743991Y-22345031D01*
X5743991Y-22345031D02*
X5753515Y-22335508D01*
X5753515Y-22335508D02*
X5772562Y-22325984D01*
X5963039Y-22325984D02*
X5982086Y-22325984D01*
X5982086Y-22325984D02*
X6001134Y-22335508D01*
X6001134Y-22335508D02*
X6010658Y-22345031D01*
X6010658Y-22345031D02*
X6020182Y-22364079D01*
X6020182Y-22364079D02*
X6029705Y-22402174D01*
X6029705Y-22402174D02*
X6029705Y-22449793D01*
X6029705Y-22449793D02*
X6020182Y-22487888D01*
X6020182Y-22487888D02*
X6010658Y-22506936D01*
X6010658Y-22506936D02*
X6001134Y-22516460D01*
X6001134Y-22516460D02*
X5982086Y-22525984D01*
X5982086Y-22525984D02*
X5963039Y-22525984D01*
X5963039Y-22525984D02*
X5943991Y-22516460D01*
X5943991Y-22516460D02*
X5934467Y-22506936D01*
X5934467Y-22506936D02*
X5924943Y-22487888D01*
X5924943Y-22487888D02*
X5915420Y-22449793D01*
X5915420Y-22449793D02*
X5915420Y-22402174D01*
X5915420Y-22402174D02*
X5924943Y-22364079D01*
X5924943Y-22364079D02*
X5934467Y-22345031D01*
X5934467Y-22345031D02*
X5943991Y-22335508D01*
X5943991Y-22335508D02*
X5963039Y-22325984D01*
X6115420Y-22525984D02*
X6115420Y-22392650D01*
X6115420Y-22411698D02*
X6124943Y-22402174D01*
X6124943Y-22402174D02*
X6143991Y-22392650D01*
X6143991Y-22392650D02*
X6172563Y-22392650D01*
X6172563Y-22392650D02*
X6191610Y-22402174D01*
X6191610Y-22402174D02*
X6201134Y-22421222D01*
X6201134Y-22421222D02*
X6201134Y-22525984D01*
X6201134Y-22421222D02*
X6210658Y-22402174D01*
X6210658Y-22402174D02*
X6229705Y-22392650D01*
X6229705Y-22392650D02*
X6258277Y-22392650D01*
X6258277Y-22392650D02*
X6277324Y-22402174D01*
X6277324Y-22402174D02*
X6286848Y-22421222D01*
X6286848Y-22421222D02*
X6286848Y-22525984D01*
X6382086Y-22525984D02*
X6382086Y-22392650D01*
X6382086Y-22411698D02*
X6391610Y-22402174D01*
X6391610Y-22402174D02*
X6410658Y-22392650D01*
X6410658Y-22392650D02*
X6439229Y-22392650D01*
X6439229Y-22392650D02*
X6458277Y-22402174D01*
X6458277Y-22402174D02*
X6467801Y-22421222D01*
X6467801Y-22421222D02*
X6467801Y-22525984D01*
X6467801Y-22421222D02*
X6477324Y-22402174D01*
X6477324Y-22402174D02*
X6496372Y-22392650D01*
X6496372Y-22392650D02*
X6524943Y-22392650D01*
X6524943Y-22392650D02*
X6543991Y-22402174D01*
X6543991Y-22402174D02*
X6553515Y-22421222D01*
X6553515Y-22421222D02*
X6553515Y-22525984D01*
X6943991Y-22316460D02*
X6772563Y-22573603D01*
X7201134Y-22325984D02*
X7220182Y-22325984D01*
X7220182Y-22325984D02*
X7239229Y-22335508D01*
X7239229Y-22335508D02*
X7248753Y-22345031D01*
X7248753Y-22345031D02*
X7258277Y-22364079D01*
X7258277Y-22364079D02*
X7267801Y-22402174D01*
X7267801Y-22402174D02*
X7267801Y-22449793D01*
X7267801Y-22449793D02*
X7258277Y-22487888D01*
X7258277Y-22487888D02*
X7248753Y-22506936D01*
X7248753Y-22506936D02*
X7239229Y-22516460D01*
X7239229Y-22516460D02*
X7220182Y-22525984D01*
X7220182Y-22525984D02*
X7201134Y-22525984D01*
X7201134Y-22525984D02*
X7182086Y-22516460D01*
X7182086Y-22516460D02*
X7172563Y-22506936D01*
X7172563Y-22506936D02*
X7163039Y-22487888D01*
X7163039Y-22487888D02*
X7153515Y-22449793D01*
X7153515Y-22449793D02*
X7153515Y-22402174D01*
X7153515Y-22402174D02*
X7163039Y-22364079D01*
X7163039Y-22364079D02*
X7172563Y-22345031D01*
X7172563Y-22345031D02*
X7182086Y-22335508D01*
X7182086Y-22335508D02*
X7201134Y-22325984D01*
X7353515Y-22506936D02*
X7363039Y-22516460D01*
X7363039Y-22516460D02*
X7353515Y-22525984D01*
X7353515Y-22525984D02*
X7343991Y-22516460D01*
X7343991Y-22516460D02*
X7353515Y-22506936D01*
X7353515Y-22506936D02*
X7353515Y-22525984D01*
X7486848Y-22325984D02*
X7505896Y-22325984D01*
X7505896Y-22325984D02*
X7524944Y-22335508D01*
X7524944Y-22335508D02*
X7534467Y-22345031D01*
X7534467Y-22345031D02*
X7543991Y-22364079D01*
X7543991Y-22364079D02*
X7553515Y-22402174D01*
X7553515Y-22402174D02*
X7553515Y-22449793D01*
X7553515Y-22449793D02*
X7543991Y-22487888D01*
X7543991Y-22487888D02*
X7534467Y-22506936D01*
X7534467Y-22506936D02*
X7524944Y-22516460D01*
X7524944Y-22516460D02*
X7505896Y-22525984D01*
X7505896Y-22525984D02*
X7486848Y-22525984D01*
X7486848Y-22525984D02*
X7467801Y-22516460D01*
X7467801Y-22516460D02*
X7458277Y-22506936D01*
X7458277Y-22506936D02*
X7448753Y-22487888D01*
X7448753Y-22487888D02*
X7439229Y-22449793D01*
X7439229Y-22449793D02*
X7439229Y-22402174D01*
X7439229Y-22402174D02*
X7448753Y-22364079D01*
X7448753Y-22364079D02*
X7458277Y-22345031D01*
X7458277Y-22345031D02*
X7467801Y-22335508D01*
X7467801Y-22335508D02*
X7486848Y-22325984D01*
X7724944Y-22325984D02*
X7686848Y-22325984D01*
X7686848Y-22325984D02*
X7667801Y-22335508D01*
X7667801Y-22335508D02*
X7658277Y-22345031D01*
X7658277Y-22345031D02*
X7639229Y-22373603D01*
X7639229Y-22373603D02*
X7629706Y-22411698D01*
X7629706Y-22411698D02*
X7629706Y-22487888D01*
X7629706Y-22487888D02*
X7639229Y-22506936D01*
X7639229Y-22506936D02*
X7648753Y-22516460D01*
X7648753Y-22516460D02*
X7667801Y-22525984D01*
X7667801Y-22525984D02*
X7705896Y-22525984D01*
X7705896Y-22525984D02*
X7724944Y-22516460D01*
X7724944Y-22516460D02*
X7734467Y-22506936D01*
X7734467Y-22506936D02*
X7743991Y-22487888D01*
X7743991Y-22487888D02*
X7743991Y-22440269D01*
X7743991Y-22440269D02*
X7734467Y-22421222D01*
X7734467Y-22421222D02*
X7724944Y-22411698D01*
X7724944Y-22411698D02*
X7705896Y-22402174D01*
X7705896Y-22402174D02*
X7667801Y-22402174D01*
X7667801Y-22402174D02*
X7648753Y-22411698D01*
X7648753Y-22411698D02*
X7639229Y-22421222D01*
X7639229Y-22421222D02*
X7629706Y-22440269D01*
X7915420Y-22325984D02*
X7877325Y-22325984D01*
X7877325Y-22325984D02*
X7858277Y-22335508D01*
X7858277Y-22335508D02*
X7848753Y-22345031D01*
X7848753Y-22345031D02*
X7829706Y-22373603D01*
X7829706Y-22373603D02*
X7820182Y-22411698D01*
X7820182Y-22411698D02*
X7820182Y-22487888D01*
X7820182Y-22487888D02*
X7829706Y-22506936D01*
X7829706Y-22506936D02*
X7839229Y-22516460D01*
X7839229Y-22516460D02*
X7858277Y-22525984D01*
X7858277Y-22525984D02*
X7896372Y-22525984D01*
X7896372Y-22525984D02*
X7915420Y-22516460D01*
X7915420Y-22516460D02*
X7924944Y-22506936D01*
X7924944Y-22506936D02*
X7934467Y-22487888D01*
X7934467Y-22487888D02*
X7934467Y-22440269D01*
X7934467Y-22440269D02*
X7924944Y-22421222D01*
X7924944Y-22421222D02*
X7915420Y-22411698D01*
X7915420Y-22411698D02*
X7896372Y-22402174D01*
X7896372Y-22402174D02*
X7858277Y-22402174D01*
X7858277Y-22402174D02*
X7839229Y-22411698D01*
X7839229Y-22411698D02*
X7829706Y-22421222D01*
X7829706Y-22421222D02*
X7820182Y-22440269D01*
X8029706Y-22525984D02*
X8067801Y-22525984D01*
X8067801Y-22525984D02*
X8086848Y-22516460D01*
X8086848Y-22516460D02*
X8096372Y-22506936D01*
X8096372Y-22506936D02*
X8115420Y-22478365D01*
X8115420Y-22478365D02*
X8124944Y-22440269D01*
X8124944Y-22440269D02*
X8124944Y-22364079D01*
X8124944Y-22364079D02*
X8115420Y-22345031D01*
X8115420Y-22345031D02*
X8105896Y-22335508D01*
X8105896Y-22335508D02*
X8086848Y-22325984D01*
X8086848Y-22325984D02*
X8048753Y-22325984D01*
X8048753Y-22325984D02*
X8029706Y-22335508D01*
X8029706Y-22335508D02*
X8020182Y-22345031D01*
X8020182Y-22345031D02*
X8010658Y-22364079D01*
X8010658Y-22364079D02*
X8010658Y-22411698D01*
X8010658Y-22411698D02*
X8020182Y-22430746D01*
X8020182Y-22430746D02*
X8029706Y-22440269D01*
X8029706Y-22440269D02*
X8048753Y-22449793D01*
X8048753Y-22449793D02*
X8086848Y-22449793D01*
X8086848Y-22449793D02*
X8105896Y-22440269D01*
X8105896Y-22440269D02*
X8115420Y-22430746D01*
X8115420Y-22430746D02*
X8124944Y-22411698D01*
X8201134Y-22325984D02*
X8201134Y-22364079D01*
X8277325Y-22325984D02*
X8277325Y-22364079D01*
X8572563Y-22602174D02*
X8563039Y-22592650D01*
X8563039Y-22592650D02*
X8543991Y-22564079D01*
X8543991Y-22564079D02*
X8534468Y-22545031D01*
X8534468Y-22545031D02*
X8524944Y-22516460D01*
X8524944Y-22516460D02*
X8515420Y-22468841D01*
X8515420Y-22468841D02*
X8515420Y-22430746D01*
X8515420Y-22430746D02*
X8524944Y-22383127D01*
X8524944Y-22383127D02*
X8534468Y-22354555D01*
X8534468Y-22354555D02*
X8543991Y-22335508D01*
X8543991Y-22335508D02*
X8563039Y-22306936D01*
X8563039Y-22306936D02*
X8572563Y-22297412D01*
X8629706Y-22325984D02*
X8753515Y-22325984D01*
X8753515Y-22325984D02*
X8686849Y-22402174D01*
X8686849Y-22402174D02*
X8715420Y-22402174D01*
X8715420Y-22402174D02*
X8734468Y-22411698D01*
X8734468Y-22411698D02*
X8743991Y-22421222D01*
X8743991Y-22421222D02*
X8753515Y-22440269D01*
X8753515Y-22440269D02*
X8753515Y-22487888D01*
X8753515Y-22487888D02*
X8743991Y-22506936D01*
X8743991Y-22506936D02*
X8734468Y-22516460D01*
X8734468Y-22516460D02*
X8715420Y-22525984D01*
X8715420Y-22525984D02*
X8658277Y-22525984D01*
X8658277Y-22525984D02*
X8639230Y-22516460D01*
X8639230Y-22516460D02*
X8629706Y-22506936D01*
X8877325Y-22325984D02*
X8896372Y-22325984D01*
X8896372Y-22325984D02*
X8915420Y-22335508D01*
X8915420Y-22335508D02*
X8924944Y-22345031D01*
X8924944Y-22345031D02*
X8934468Y-22364079D01*
X8934468Y-22364079D02*
X8943991Y-22402174D01*
X8943991Y-22402174D02*
X8943991Y-22449793D01*
X8943991Y-22449793D02*
X8934468Y-22487888D01*
X8934468Y-22487888D02*
X8924944Y-22506936D01*
X8924944Y-22506936D02*
X8915420Y-22516460D01*
X8915420Y-22516460D02*
X8896372Y-22525984D01*
X8896372Y-22525984D02*
X8877325Y-22525984D01*
X8877325Y-22525984D02*
X8858277Y-22516460D01*
X8858277Y-22516460D02*
X8848753Y-22506936D01*
X8848753Y-22506936D02*
X8839230Y-22487888D01*
X8839230Y-22487888D02*
X8829706Y-22449793D01*
X8829706Y-22449793D02*
X8829706Y-22402174D01*
X8829706Y-22402174D02*
X8839230Y-22364079D01*
X8839230Y-22364079D02*
X8848753Y-22345031D01*
X8848753Y-22345031D02*
X8858277Y-22335508D01*
X8858277Y-22335508D02*
X8877325Y-22325984D01*
X9182087Y-22525984D02*
X9182087Y-22325984D01*
X9267801Y-22525984D02*
X9267801Y-22421222D01*
X9267801Y-22421222D02*
X9258277Y-22402174D01*
X9258277Y-22402174D02*
X9239230Y-22392650D01*
X9239230Y-22392650D02*
X9210658Y-22392650D01*
X9210658Y-22392650D02*
X9191611Y-22402174D01*
X9191611Y-22402174D02*
X9182087Y-22411698D01*
X9391611Y-22525984D02*
X9372563Y-22516460D01*
X9372563Y-22516460D02*
X9363039Y-22506936D01*
X9363039Y-22506936D02*
X9353515Y-22487888D01*
X9353515Y-22487888D02*
X9353515Y-22430746D01*
X9353515Y-22430746D02*
X9363039Y-22411698D01*
X9363039Y-22411698D02*
X9372563Y-22402174D01*
X9372563Y-22402174D02*
X9391611Y-22392650D01*
X9391611Y-22392650D02*
X9420182Y-22392650D01*
X9420182Y-22392650D02*
X9439230Y-22402174D01*
X9439230Y-22402174D02*
X9448753Y-22411698D01*
X9448753Y-22411698D02*
X9458277Y-22430746D01*
X9458277Y-22430746D02*
X9458277Y-22487888D01*
X9458277Y-22487888D02*
X9448753Y-22506936D01*
X9448753Y-22506936D02*
X9439230Y-22516460D01*
X9439230Y-22516460D02*
X9420182Y-22525984D01*
X9420182Y-22525984D02*
X9391611Y-22525984D01*
X9572563Y-22525984D02*
X9553515Y-22516460D01*
X9553515Y-22516460D02*
X9543992Y-22497412D01*
X9543992Y-22497412D02*
X9543992Y-22325984D01*
X9724944Y-22516460D02*
X9705896Y-22525984D01*
X9705896Y-22525984D02*
X9667801Y-22525984D01*
X9667801Y-22525984D02*
X9648753Y-22516460D01*
X9648753Y-22516460D02*
X9639230Y-22497412D01*
X9639230Y-22497412D02*
X9639230Y-22421222D01*
X9639230Y-22421222D02*
X9648753Y-22402174D01*
X9648753Y-22402174D02*
X9667801Y-22392650D01*
X9667801Y-22392650D02*
X9705896Y-22392650D01*
X9705896Y-22392650D02*
X9724944Y-22402174D01*
X9724944Y-22402174D02*
X9734468Y-22421222D01*
X9734468Y-22421222D02*
X9734468Y-22440269D01*
X9734468Y-22440269D02*
X9639230Y-22459317D01*
X9810658Y-22516460D02*
X9829706Y-22525984D01*
X9829706Y-22525984D02*
X9867801Y-22525984D01*
X9867801Y-22525984D02*
X9886849Y-22516460D01*
X9886849Y-22516460D02*
X9896373Y-22497412D01*
X9896373Y-22497412D02*
X9896373Y-22487888D01*
X9896373Y-22487888D02*
X9886849Y-22468841D01*
X9886849Y-22468841D02*
X9867801Y-22459317D01*
X9867801Y-22459317D02*
X9839230Y-22459317D01*
X9839230Y-22459317D02*
X9820182Y-22449793D01*
X9820182Y-22449793D02*
X9810658Y-22430746D01*
X9810658Y-22430746D02*
X9810658Y-22421222D01*
X9810658Y-22421222D02*
X9820182Y-22402174D01*
X9820182Y-22402174D02*
X9839230Y-22392650D01*
X9839230Y-22392650D02*
X9867801Y-22392650D01*
X9867801Y-22392650D02*
X9886849Y-22402174D01*
X9963039Y-22602174D02*
X9972563Y-22592650D01*
X9972563Y-22592650D02*
X9991611Y-22564079D01*
X9991611Y-22564079D02*
X10001134Y-22545031D01*
X10001134Y-22545031D02*
X10010658Y-22516460D01*
X10010658Y-22516460D02*
X10020182Y-22468841D01*
X10020182Y-22468841D02*
X10020182Y-22430746D01*
X10020182Y-22430746D02*
X10010658Y-22383127D01*
X10010658Y-22383127D02*
X10001134Y-22354555D01*
X10001134Y-22354555D02*
X9991611Y-22335508D01*
X9991611Y-22335508D02*
X9972563Y-22306936D01*
X9972563Y-22306936D02*
X9963039Y-22297412D01*
M02*
