%TF.GenerationSoftware,KiCad,Pcbnew,9.0.0*%
%TF.CreationDate,2025-03-25T20:45:47+10:00*%
%TF.ProjectId,PicoSax,5069636f-5361-4782-9e6b-696361645f70,rev?*%
%TF.SameCoordinates,Original*%
%TF.FileFunction,Paste,Top*%
%TF.FilePolarity,Positive*%
%FSLAX46Y46*%
G04 Gerber Fmt 4.6, Leading zero omitted, Abs format (unit mm)*
G04 Created by KiCad (PCBNEW 9.0.0) date 2025-03-25 20:45:47*
%MOMM*%
%LPD*%
G01*
G04 APERTURE LIST*
G04 Aperture macros list*
%AMRoundRect*
0 Rectangle with rounded corners*
0 $1 Rounding radius*
0 $2 $3 $4 $5 $6 $7 $8 $9 X,Y pos of 4 corners*
0 Add a 4 corners polygon primitive as box body*
4,1,4,$2,$3,$4,$5,$6,$7,$8,$9,$2,$3,0*
0 Add four circle primitives for the rounded corners*
1,1,$1+$1,$2,$3*
1,1,$1+$1,$4,$5*
1,1,$1+$1,$6,$7*
1,1,$1+$1,$8,$9*
0 Add four rect primitives between the rounded corners*
20,1,$1+$1,$2,$3,$4,$5,0*
20,1,$1+$1,$4,$5,$6,$7,0*
20,1,$1+$1,$6,$7,$8,$9,0*
20,1,$1+$1,$8,$9,$2,$3,0*%
G04 Aperture macros list end*
%ADD10RoundRect,0.250000X-0.450000X0.350000X-0.450000X-0.350000X0.450000X-0.350000X0.450000X0.350000X0*%
%ADD11RoundRect,0.250000X0.450000X-0.350000X0.450000X0.350000X-0.450000X0.350000X-0.450000X-0.350000X0*%
%ADD12RoundRect,0.250000X0.337500X0.475000X-0.337500X0.475000X-0.337500X-0.475000X0.337500X-0.475000X0*%
%ADD13RoundRect,0.250000X-0.475000X0.337500X-0.475000X-0.337500X0.475000X-0.337500X0.475000X0.337500X0*%
%ADD14R,0.812800X0.762000*%
%ADD15RoundRect,0.250000X0.475000X-0.337500X0.475000X0.337500X-0.475000X0.337500X-0.475000X-0.337500X0*%
%ADD16RoundRect,0.195000X1.055000X0.455000X-1.055000X0.455000X-1.055000X-0.455000X1.055000X-0.455000X0*%
%ADD17RoundRect,0.190500X0.762000X0.444500X-0.762000X0.444500X-0.762000X-0.444500X0.762000X-0.444500X0*%
%ADD18R,2.540000X1.520000*%
%ADD19RoundRect,0.250000X1.020000X0.510000X-1.020000X0.510000X-1.020000X-0.510000X1.020000X-0.510000X0*%
%ADD20RoundRect,0.250000X-0.337500X-0.475000X0.337500X-0.475000X0.337500X0.475000X-0.337500X0.475000X0*%
%ADD21RoundRect,0.250000X0.350000X0.450000X-0.350000X0.450000X-0.350000X-0.450000X0.350000X-0.450000X0*%
%ADD22R,0.762000X0.812800*%
%ADD23RoundRect,0.250000X-1.075000X0.400000X-1.075000X-0.400000X1.075000X-0.400000X1.075000X0.400000X0*%
%ADD24RoundRect,0.250000X-0.350000X-0.450000X0.350000X-0.450000X0.350000X0.450000X-0.350000X0.450000X0*%
G04 APERTURE END LIST*
D10*
%TO.C,R9*%
X129000000Y-59000000D03*
X129000000Y-61000000D03*
%TD*%
D11*
%TO.C,R3*%
X59000000Y-100000000D03*
X59000000Y-98000000D03*
%TD*%
D10*
%TO.C,R17*%
X123000000Y-200500000D03*
X123000000Y-202500000D03*
%TD*%
D12*
%TO.C,C10*%
X133037500Y-181000000D03*
X130962500Y-181000000D03*
%TD*%
D13*
%TO.C,C8*%
X124000000Y-144962500D03*
X124000000Y-147037500D03*
%TD*%
%TO.C,C6*%
X120000000Y-106962500D03*
X120000000Y-109037500D03*
%TD*%
D11*
%TO.C,R6*%
X54000000Y-157000000D03*
X54000000Y-155000000D03*
%TD*%
D14*
%TO.C,L7*%
X70544401Y-195549999D03*
X70544401Y-194450001D03*
X69455599Y-194450001D03*
X69455599Y-195549999D03*
%TD*%
%TO.C,L12*%
X65544401Y-87549999D03*
X65544401Y-86450001D03*
X64455599Y-86450001D03*
X64455599Y-87549999D03*
%TD*%
%TO.C,L3*%
X129455599Y-105450001D03*
X129455599Y-106549999D03*
X130544401Y-106549999D03*
X130544401Y-105450001D03*
%TD*%
D11*
%TO.C,R2*%
X54000000Y-81000000D03*
X54000000Y-79000000D03*
%TD*%
D15*
%TO.C,C13*%
X77000000Y-143037500D03*
X77000000Y-140962500D03*
%TD*%
D14*
%TO.C,L6*%
X134455599Y-162450001D03*
X134455599Y-163549999D03*
X135544401Y-163549999D03*
X135544401Y-162450001D03*
%TD*%
D11*
%TO.C,R7*%
X80000000Y-190000000D03*
X80000000Y-188000000D03*
%TD*%
D13*
%TO.C,C7*%
X120000000Y-125962500D03*
X120000000Y-128037500D03*
%TD*%
D11*
%TO.C,R5*%
X54000000Y-138000000D03*
X54000000Y-136000000D03*
%TD*%
D14*
%TO.C,L2*%
X134455599Y-86450001D03*
X134455599Y-87549999D03*
X135544401Y-87549999D03*
X135544401Y-86450001D03*
%TD*%
D16*
%TO.C,U2*%
X106000000Y-95000000D03*
D17*
X106296895Y-92512218D03*
X106296895Y-90012218D03*
X106296895Y-87472218D03*
X94896895Y-87512218D03*
X94896895Y-90012218D03*
X94896895Y-92512218D03*
X94896895Y-95012218D03*
%TD*%
D15*
%TO.C,C2*%
X89000000Y-81037500D03*
X89000000Y-78962500D03*
%TD*%
%TO.C,C14*%
X80000000Y-124037500D03*
X80000000Y-121962500D03*
%TD*%
D10*
%TO.C,R13*%
X146000000Y-150000000D03*
X146000000Y-152000000D03*
%TD*%
%TO.C,R12*%
X141000000Y-131000000D03*
X141000000Y-133000000D03*
%TD*%
D14*
%TO.C,L4*%
X129455599Y-124450001D03*
X129455599Y-125549999D03*
X130544401Y-125549999D03*
X130544401Y-124450001D03*
%TD*%
D11*
%TO.C,R4*%
X59000000Y-119000000D03*
X59000000Y-117000000D03*
%TD*%
D10*
%TO.C,R10*%
X146000000Y-93000000D03*
X146000000Y-95000000D03*
%TD*%
D18*
%TO.C,U3*%
X92120000Y-76390000D03*
D19*
X92120000Y-78930000D03*
X92120000Y-81470000D03*
X92120000Y-84010000D03*
X108880000Y-84010000D03*
X108880000Y-81470000D03*
X108880000Y-78930000D03*
X108880000Y-76390000D03*
%TD*%
D20*
%TO.C,C4*%
X126962500Y-68000000D03*
X129037500Y-68000000D03*
%TD*%
D10*
%TO.C,R14*%
X146000000Y-169000000D03*
X146000000Y-171000000D03*
%TD*%
D13*
%TO.C,C9*%
X124000000Y-163962500D03*
X124000000Y-166037500D03*
%TD*%
D10*
%TO.C,R11*%
X141000000Y-112000000D03*
X141000000Y-114000000D03*
%TD*%
D21*
%TO.C,R8*%
X73000000Y-73000000D03*
X71000000Y-73000000D03*
%TD*%
D22*
%TO.C,L13*%
X59450001Y-67544401D03*
X60549999Y-67544401D03*
X60549999Y-66455599D03*
X59450001Y-66455599D03*
%TD*%
D14*
%TO.C,L9*%
X65544401Y-144549999D03*
X65544401Y-143450001D03*
X64455599Y-143450001D03*
X64455599Y-144549999D03*
%TD*%
D12*
%TO.C,C16*%
X73037500Y-75000000D03*
X70962500Y-75000000D03*
%TD*%
D10*
%TO.C,R18*%
X128000000Y-178000000D03*
X128000000Y-180000000D03*
%TD*%
D14*
%TO.C,L1*%
X139455599Y-66450001D03*
X139455599Y-67549999D03*
X140544401Y-67549999D03*
X140544401Y-66450001D03*
%TD*%
D15*
%TO.C,C12*%
X76000000Y-162037500D03*
X76000000Y-159962500D03*
%TD*%
D23*
%TO.C,R16*%
X138000000Y-185450000D03*
X138000000Y-188550000D03*
%TD*%
D14*
%TO.C,L5*%
X134455599Y-143450001D03*
X134455599Y-144549999D03*
X135544401Y-144549999D03*
X135544401Y-143450001D03*
%TD*%
%TO.C,L10*%
X70544401Y-125549999D03*
X70544401Y-124450001D03*
X69455599Y-124450001D03*
X69455599Y-125549999D03*
%TD*%
D12*
%TO.C,C3*%
X91037500Y-87000000D03*
X88962500Y-87000000D03*
%TD*%
D15*
%TO.C,C15*%
X81000000Y-105037500D03*
X81000000Y-102962500D03*
%TD*%
D24*
%TO.C,R15*%
X127000000Y-74000000D03*
X129000000Y-74000000D03*
%TD*%
D14*
%TO.C,L8*%
X65544401Y-163549999D03*
X65544401Y-162450001D03*
X64455599Y-162450001D03*
X64455599Y-163549999D03*
%TD*%
D24*
%TO.C,R19*%
X131000000Y-178000000D03*
X133000000Y-178000000D03*
%TD*%
D14*
%TO.C,L11*%
X70544401Y-106549999D03*
X70544401Y-105450001D03*
X69455599Y-105450001D03*
X69455599Y-106549999D03*
%TD*%
D13*
%TO.C,C11*%
X80000000Y-193962500D03*
X80000000Y-196037500D03*
%TD*%
D20*
%TO.C,C5*%
X126962500Y-76000000D03*
X129037500Y-76000000D03*
%TD*%
D12*
%TO.C,C17*%
X73037500Y-69000000D03*
X70962500Y-69000000D03*
%TD*%
D10*
%TO.C,R1*%
X71000000Y-60000000D03*
X71000000Y-62000000D03*
%TD*%
D15*
%TO.C,C1*%
X86000000Y-81037500D03*
X86000000Y-78962500D03*
%TD*%
M02*
