M48
; DRILL file {KiCad 9.0.0} date 2025-03-25T20:45:54+1000
; FORMAT={-:-/ absolute / metric / decimal}
; #@! TF.CreationDate,2025-03-25T20:45:54+10:00
; #@! TF.GenerationSoftware,Kicad,Pcbnew,9.0.0
; #@! TF.FileFunction,Plated,1,2,PTH
FMAT,2
METRIC
; #@! TA.AperFunction,Plated,PTH,ViaDrill
T1C0.300
; #@! TA.AperFunction,Plated,PTH,ComponentDrill
T2C1.000
; #@! TA.AperFunction,Plated,PTH,ComponentDrill
T3C1.100
; #@! TA.AperFunction,Plated,PTH,ComponentDrill
T4C1.700
%
G90
G05
T1
X60.0Y-174.0
X67.0Y-64.0
X67.0Y-66.0
X68.0Y-174.162
X73.0Y-67.0
X83.0Y-79.0
X91.0Y-90.0
X109.0Y-87.0
X127.0Y-66.0
X136.0Y-64.0
X137.0Y-66.0
X139.5Y-182.0
T2
X58.225Y-71.81
X61.775Y-62.19
X62.0Y-207.0
X63.225Y-91.81
X63.225Y-148.81
X63.225Y-167.81
X64.54Y-207.0
X66.775Y-82.19
X66.775Y-139.19
X66.775Y-158.19
X68.225Y-110.81
X68.225Y-129.81
X68.225Y-199.81
X71.775Y-101.19
X71.775Y-120.19
X71.775Y-190.19
X76.225Y-82.19
X79.775Y-91.81
X84.4Y-156.382
X84.4Y-158.922
X84.4Y-161.463
X84.4Y-164.002
X84.4Y-166.542
X84.4Y-169.082
X84.4Y-171.623
X84.4Y-174.162
X84.4Y-176.702
X84.4Y-179.242
X84.4Y-181.782
X84.4Y-184.322
X84.4Y-186.862
X84.4Y-189.403
X84.4Y-191.942
X84.4Y-194.482
X84.4Y-197.022
X84.4Y-199.562
X84.4Y-202.102
X84.4Y-204.642
X86.03Y-99.87
X86.03Y-102.41
X86.03Y-104.95
X86.03Y-107.49
X86.03Y-110.03
X86.03Y-112.57
X86.03Y-115.11
X86.03Y-117.65
X86.03Y-120.19
X86.03Y-122.73
X86.03Y-125.27
X86.03Y-127.81
X86.03Y-130.35
X86.03Y-132.89
X86.03Y-135.43
X86.03Y-137.97
X86.03Y-140.51
X86.03Y-143.05
X86.03Y-145.59
X86.03Y-148.13
X88.57Y-99.87
X88.57Y-102.41
X88.57Y-104.95
X88.57Y-107.49
X88.57Y-110.03
X88.57Y-112.57
X88.57Y-115.11
X88.57Y-117.65
X88.57Y-120.19
X88.57Y-122.73
X88.57Y-125.27
X88.57Y-127.81
X88.57Y-130.35
X88.57Y-132.89
X88.57Y-135.43
X88.57Y-137.97
X88.57Y-140.51
X88.57Y-143.05
X88.57Y-145.59
X88.57Y-148.13
X91.11Y-99.87
X91.11Y-102.41
X91.11Y-104.95
X91.11Y-107.49
X91.11Y-110.03
X91.11Y-112.57
X91.11Y-115.11
X91.11Y-117.65
X91.11Y-120.19
X91.11Y-122.73
X91.11Y-125.27
X91.11Y-127.81
X91.11Y-130.35
X91.11Y-132.89
X91.11Y-135.43
X91.11Y-137.97
X91.11Y-140.51
X91.11Y-143.05
X91.11Y-145.59
X91.11Y-148.13
X91.11Y-156.332
X91.11Y-158.873
X91.11Y-161.412
X91.11Y-163.952
X91.11Y-166.492
X91.11Y-169.032
X91.11Y-171.572
X91.11Y-174.112
X91.11Y-176.653
X91.11Y-179.192
X91.11Y-181.732
X91.11Y-184.272
X91.11Y-186.812
X91.11Y-189.352
X91.11Y-191.892
X91.11Y-194.433
X91.11Y-196.972
X91.11Y-199.512
X91.11Y-202.052
X91.11Y-204.593
X93.65Y-99.87
X93.65Y-102.41
X93.65Y-104.95
X93.65Y-107.49
X93.65Y-110.03
X93.65Y-112.57
X93.65Y-115.11
X93.65Y-117.65
X93.65Y-120.19
X93.65Y-122.73
X93.65Y-125.27
X93.65Y-127.81
X93.65Y-130.35
X93.65Y-132.89
X93.65Y-135.43
X93.65Y-137.97
X93.65Y-140.51
X93.65Y-143.05
X93.65Y-145.59
X93.65Y-148.13
X96.19Y-99.87
X96.19Y-102.41
X96.19Y-104.95
X96.19Y-107.49
X96.19Y-110.03
X96.19Y-112.57
X96.19Y-115.11
X96.19Y-117.65
X96.19Y-120.19
X96.19Y-122.73
X96.19Y-125.27
X96.19Y-127.81
X96.19Y-130.35
X96.19Y-132.89
X96.19Y-135.43
X96.19Y-137.97
X96.19Y-140.51
X96.19Y-143.05
X96.19Y-145.59
X96.19Y-148.13
X98.73Y-99.87
X98.73Y-102.41
X98.73Y-104.95
X98.73Y-107.49
X98.73Y-110.03
X98.73Y-112.57
X98.73Y-115.11
X98.73Y-117.65
X98.73Y-120.19
X98.73Y-122.73
X98.73Y-125.27
X98.73Y-127.81
X98.73Y-130.35
X98.73Y-132.89
X98.73Y-135.43
X98.73Y-137.97
X98.73Y-140.51
X98.73Y-143.05
X98.73Y-145.59
X98.73Y-148.13
X101.27Y-99.87
X101.27Y-102.41
X101.27Y-104.95
X101.27Y-107.49
X101.27Y-110.03
X101.27Y-112.57
X101.27Y-115.11
X101.27Y-117.65
X101.27Y-120.19
X101.27Y-122.73
X101.27Y-125.27
X101.27Y-127.81
X101.27Y-130.35
X101.27Y-132.89
X101.27Y-135.43
X101.27Y-137.97
X101.27Y-140.51
X101.27Y-143.05
X101.27Y-145.59
X101.27Y-148.13
X103.81Y-99.87
X103.81Y-102.41
X103.81Y-104.95
X103.81Y-107.49
X103.81Y-110.03
X103.81Y-112.57
X103.81Y-115.11
X103.81Y-117.65
X103.81Y-120.19
X103.81Y-122.73
X103.81Y-125.27
X103.81Y-127.81
X103.81Y-130.35
X103.81Y-132.89
X103.81Y-135.43
X103.81Y-137.97
X103.81Y-140.51
X103.81Y-143.05
X103.81Y-145.59
X103.81Y-148.13
X106.35Y-99.87
X106.35Y-102.41
X106.35Y-104.95
X106.35Y-107.49
X106.35Y-110.03
X106.35Y-112.57
X106.35Y-115.11
X106.35Y-117.65
X106.35Y-120.19
X106.35Y-122.73
X106.35Y-125.27
X106.35Y-127.81
X106.35Y-130.35
X106.35Y-132.89
X106.35Y-135.43
X106.35Y-137.97
X106.35Y-140.51
X106.35Y-143.05
X106.35Y-145.59
X106.35Y-148.13
X108.89Y-99.87
X108.89Y-102.41
X108.89Y-104.95
X108.89Y-107.49
X108.89Y-110.03
X108.89Y-112.57
X108.89Y-115.11
X108.89Y-117.65
X108.89Y-120.19
X108.89Y-122.73
X108.89Y-125.27
X108.89Y-127.81
X108.89Y-130.35
X108.89Y-132.89
X108.89Y-135.43
X108.89Y-137.97
X108.89Y-140.51
X108.89Y-143.05
X108.89Y-145.59
X108.89Y-148.13
X108.89Y-156.332
X108.89Y-158.873
X108.89Y-161.412
X108.89Y-163.952
X108.89Y-166.492
X108.89Y-169.032
X108.89Y-171.572
X108.89Y-174.112
X108.89Y-176.653
X108.89Y-179.192
X108.89Y-181.732
X108.89Y-184.272
X108.89Y-186.812
X108.89Y-189.352
X108.89Y-191.892
X108.89Y-194.433
X108.89Y-196.972
X108.89Y-199.512
X108.89Y-202.052
X108.89Y-204.593
X111.43Y-99.87
X111.43Y-102.41
X111.43Y-104.95
X111.43Y-107.49
X111.43Y-110.03
X111.43Y-112.57
X111.43Y-115.11
X111.43Y-117.65
X111.43Y-120.19
X111.43Y-122.73
X111.43Y-125.27
X111.43Y-127.81
X111.43Y-130.35
X111.43Y-132.89
X111.43Y-135.43
X111.43Y-137.97
X111.43Y-140.51
X111.43Y-143.05
X111.43Y-145.59
X111.43Y-148.13
X113.97Y-99.87
X113.97Y-102.41
X113.97Y-104.95
X113.97Y-107.49
X113.97Y-110.03
X113.97Y-112.57
X113.97Y-115.11
X113.97Y-117.65
X113.97Y-120.19
X113.97Y-122.73
X113.97Y-125.27
X113.97Y-127.81
X113.97Y-130.35
X113.97Y-132.89
X113.97Y-135.43
X113.97Y-137.97
X113.97Y-140.51
X113.97Y-143.05
X113.97Y-145.59
X113.97Y-148.13
X115.1Y-156.282
X115.1Y-158.822
X115.1Y-161.362
X115.1Y-163.903
X115.1Y-166.442
X115.1Y-168.982
X115.1Y-171.522
X115.1Y-174.062
X115.1Y-176.602
X115.1Y-179.142
X115.1Y-181.683
X115.1Y-184.222
X115.1Y-186.762
X115.1Y-189.302
X115.1Y-191.843
X115.1Y-194.382
X115.1Y-196.922
X115.1Y-199.462
X115.1Y-202.002
X115.1Y-204.542
X120.225Y-82.19
X123.775Y-91.81
X127.5Y-195.0
X128.225Y-110.81
X128.225Y-129.81
X130.0Y-192.5
X130.0Y-205.0
X131.775Y-101.19
X131.775Y-120.19
X133.225Y-91.81
X133.225Y-148.81
X133.225Y-167.81
X135.0Y-195.0
X136.775Y-82.19
X136.775Y-139.19
X136.775Y-158.19
X138.225Y-71.81
X140.0Y-192.5
X140.0Y-205.0
X141.775Y-62.19
X142.5Y-195.0
T3
X69.55Y-207.0
X79.71Y-207.0
T4
X55.0Y-67.0
X60.0Y-87.0
X60.0Y-144.0
X60.0Y-163.0
X65.0Y-67.0
X65.0Y-106.0
X65.0Y-125.0
X65.0Y-195.0
X70.0Y-87.0
X70.0Y-144.0
X70.0Y-163.0
X73.0Y-87.0
X75.0Y-106.0
X75.0Y-125.0
X75.0Y-195.0
X83.0Y-87.0
X117.0Y-87.0
X125.0Y-106.0
X125.0Y-125.0
X127.0Y-87.0
X130.0Y-87.0
X130.0Y-144.0
X130.0Y-163.0
X135.0Y-67.0
X135.0Y-106.0
X135.0Y-125.0
X140.0Y-87.0
X140.0Y-144.0
X140.0Y-163.0
X145.0Y-67.0
M30
