%TF.GenerationSoftware,KiCad,Pcbnew,9.0.0*%
%TF.CreationDate,2025-03-20T00:14:52+10:00*%
%TF.ProjectId,PicoSax,5069636f-5361-4782-9e6b-696361645f70,rev?*%
%TF.SameCoordinates,Original*%
%TF.FileFunction,Legend,Bot*%
%TF.FilePolarity,Positive*%
%FSLAX46Y46*%
G04 Gerber Fmt 4.6, Leading zero omitted, Abs format (unit mm)*
G04 Created by KiCad (PCBNEW 9.0.0) date 2025-03-20 00:14:52*
%MOMM*%
%LPD*%
G01*
G04 APERTURE LIST*
G04 Aperture macros list*
%AMRoundRect*
0 Rectangle with rounded corners*
0 $1 Rounding radius*
0 $2 $3 $4 $5 $6 $7 $8 $9 X,Y pos of 4 corners*
0 Add a 4 corners polygon primitive as box body*
4,1,4,$2,$3,$4,$5,$6,$7,$8,$9,$2,$3,0*
0 Add four circle primitives for the rounded corners*
1,1,$1+$1,$2,$3*
1,1,$1+$1,$4,$5*
1,1,$1+$1,$6,$7*
1,1,$1+$1,$8,$9*
0 Add four rect primitives between the rounded corners*
20,1,$1+$1,$2,$3,$4,$5,0*
20,1,$1+$1,$4,$5,$6,$7,0*
20,1,$1+$1,$6,$7,$8,$9,0*
20,1,$1+$1,$8,$9,$2,$3,0*%
%AMFreePoly0*
4,1,37,0.603843,0.796157,0.639018,0.796157,0.711114,0.766294,0.766294,0.711114,0.796157,0.639018,0.796157,0.603843,0.800000,0.600000,0.800000,-0.600000,0.796157,-0.603843,0.796157,-0.639018,0.766294,-0.711114,0.711114,-0.766294,0.639018,-0.796157,0.603843,-0.796157,0.600000,-0.800000,0.000000,-0.800000,0.000000,-0.796148,-0.078414,-0.796148,-0.232228,-0.765552,-0.377117,-0.705537,
-0.507515,-0.618408,-0.618408,-0.507515,-0.705537,-0.377117,-0.765552,-0.232228,-0.796148,-0.078414,-0.796148,0.078414,-0.765552,0.232228,-0.705537,0.377117,-0.618408,0.507515,-0.507515,0.618408,-0.377117,0.705537,-0.232228,0.765552,-0.078414,0.796148,0.000000,0.796148,0.000000,0.800000,0.600000,0.800000,0.603843,0.796157,0.603843,0.796157,$1*%
%AMFreePoly1*
4,1,37,0.000000,0.796148,0.078414,0.796148,0.232228,0.765552,0.377117,0.705537,0.507515,0.618408,0.618408,0.507515,0.705537,0.377117,0.765552,0.232228,0.796148,0.078414,0.796148,-0.078414,0.765552,-0.232228,0.705537,-0.377117,0.618408,-0.507515,0.507515,-0.618408,0.377117,-0.705537,0.232228,-0.765552,0.078414,-0.796148,0.000000,-0.796148,0.000000,-0.800000,-0.600000,-0.800000,
-0.603843,-0.796157,-0.639018,-0.796157,-0.711114,-0.766294,-0.766294,-0.711114,-0.796157,-0.639018,-0.796157,-0.603843,-0.800000,-0.600000,-0.800000,0.600000,-0.796157,0.603843,-0.796157,0.639018,-0.766294,0.711114,-0.711114,0.766294,-0.639018,0.796157,-0.603843,0.796157,-0.600000,0.800000,0.000000,0.800000,0.000000,0.796148,0.000000,0.796148,$1*%
G04 Aperture macros list end*
%ADD10C,0.150000*%
%ADD11C,0.100000*%
%ADD12C,0.120000*%
%ADD13C,1.400000*%
%ADD14O,1.400000X1.400000*%
%ADD15C,2.000000*%
%ADD16C,2.500000*%
%ADD17C,3.200000*%
%ADD18C,2.200000*%
%ADD19C,1.850000*%
%ADD20RoundRect,0.200000X0.600000X0.600000X-0.600000X0.600000X-0.600000X-0.600000X0.600000X-0.600000X0*%
%ADD21C,1.600000*%
%ADD22FreePoly0,180.000000*%
%ADD23FreePoly1,180.000000*%
%ADD24O,2.500000X2.000000*%
%ADD25C,3.000000*%
%ADD26O,2.000000X2.500000*%
%ADD27R,1.700000X1.700000*%
%ADD28O,1.700000X1.700000*%
%ADD29R,2.200000X2.200000*%
%ADD30O,2.200000X2.200000*%
G04 APERTURE END LIST*
D10*
X51869819Y-198622493D02*
X52584104Y-198622493D01*
X52584104Y-198622493D02*
X52726961Y-198574874D01*
X52726961Y-198574874D02*
X52822200Y-198479636D01*
X52822200Y-198479636D02*
X52869819Y-198336779D01*
X52869819Y-198336779D02*
X52869819Y-198241541D01*
X52869819Y-199574874D02*
X52869819Y-199098684D01*
X52869819Y-199098684D02*
X51869819Y-199098684D01*
X52774580Y-200479636D02*
X52822200Y-200432017D01*
X52822200Y-200432017D02*
X52869819Y-200289160D01*
X52869819Y-200289160D02*
X52869819Y-200193922D01*
X52869819Y-200193922D02*
X52822200Y-200051065D01*
X52822200Y-200051065D02*
X52726961Y-199955827D01*
X52726961Y-199955827D02*
X52631723Y-199908208D01*
X52631723Y-199908208D02*
X52441247Y-199860589D01*
X52441247Y-199860589D02*
X52298390Y-199860589D01*
X52298390Y-199860589D02*
X52107914Y-199908208D01*
X52107914Y-199908208D02*
X52012676Y-199955827D01*
X52012676Y-199955827D02*
X51917438Y-200051065D01*
X51917438Y-200051065D02*
X51869819Y-200193922D01*
X51869819Y-200193922D02*
X51869819Y-200289160D01*
X51869819Y-200289160D02*
X51917438Y-200432017D01*
X51917438Y-200432017D02*
X51965057Y-200479636D01*
X51869819Y-201193922D02*
X52584104Y-201193922D01*
X52584104Y-201193922D02*
X52726961Y-201146303D01*
X52726961Y-201146303D02*
X52822200Y-201051065D01*
X52822200Y-201051065D02*
X52869819Y-200908208D01*
X52869819Y-200908208D02*
X52869819Y-200812970D01*
X52869819Y-202146303D02*
X52869819Y-201670113D01*
X52869819Y-201670113D02*
X51869819Y-201670113D01*
X52774580Y-203051065D02*
X52822200Y-203003446D01*
X52822200Y-203003446D02*
X52869819Y-202860589D01*
X52869819Y-202860589D02*
X52869819Y-202765351D01*
X52869819Y-202765351D02*
X52822200Y-202622494D01*
X52822200Y-202622494D02*
X52726961Y-202527256D01*
X52726961Y-202527256D02*
X52631723Y-202479637D01*
X52631723Y-202479637D02*
X52441247Y-202432018D01*
X52441247Y-202432018D02*
X52298390Y-202432018D01*
X52298390Y-202432018D02*
X52107914Y-202479637D01*
X52107914Y-202479637D02*
X52012676Y-202527256D01*
X52012676Y-202527256D02*
X51917438Y-202622494D01*
X51917438Y-202622494D02*
X51869819Y-202765351D01*
X51869819Y-202765351D02*
X51869819Y-202860589D01*
X51869819Y-202860589D02*
X51917438Y-203003446D01*
X51917438Y-203003446D02*
X51965057Y-203051065D01*
X51869819Y-203765351D02*
X52584104Y-203765351D01*
X52584104Y-203765351D02*
X52726961Y-203717732D01*
X52726961Y-203717732D02*
X52822200Y-203622494D01*
X52822200Y-203622494D02*
X52869819Y-203479637D01*
X52869819Y-203479637D02*
X52869819Y-203384399D01*
X52869819Y-204717732D02*
X52869819Y-204241542D01*
X52869819Y-204241542D02*
X51869819Y-204241542D01*
X52774580Y-205622494D02*
X52822200Y-205574875D01*
X52822200Y-205574875D02*
X52869819Y-205432018D01*
X52869819Y-205432018D02*
X52869819Y-205336780D01*
X52869819Y-205336780D02*
X52822200Y-205193923D01*
X52822200Y-205193923D02*
X52726961Y-205098685D01*
X52726961Y-205098685D02*
X52631723Y-205051066D01*
X52631723Y-205051066D02*
X52441247Y-205003447D01*
X52441247Y-205003447D02*
X52298390Y-205003447D01*
X52298390Y-205003447D02*
X52107914Y-205051066D01*
X52107914Y-205051066D02*
X52012676Y-205098685D01*
X52012676Y-205098685D02*
X51917438Y-205193923D01*
X51917438Y-205193923D02*
X51869819Y-205336780D01*
X51869819Y-205336780D02*
X51869819Y-205432018D01*
X51869819Y-205432018D02*
X51917438Y-205574875D01*
X51917438Y-205574875D02*
X51965057Y-205622494D01*
X51869819Y-206336780D02*
X52584104Y-206336780D01*
X52584104Y-206336780D02*
X52726961Y-206289161D01*
X52726961Y-206289161D02*
X52822200Y-206193923D01*
X52822200Y-206193923D02*
X52869819Y-206051066D01*
X52869819Y-206051066D02*
X52869819Y-205955828D01*
X52869819Y-207289161D02*
X52869819Y-206812971D01*
X52869819Y-206812971D02*
X51869819Y-206812971D01*
X52774580Y-208193923D02*
X52822200Y-208146304D01*
X52822200Y-208146304D02*
X52869819Y-208003447D01*
X52869819Y-208003447D02*
X52869819Y-207908209D01*
X52869819Y-207908209D02*
X52822200Y-207765352D01*
X52822200Y-207765352D02*
X52726961Y-207670114D01*
X52726961Y-207670114D02*
X52631723Y-207622495D01*
X52631723Y-207622495D02*
X52441247Y-207574876D01*
X52441247Y-207574876D02*
X52298390Y-207574876D01*
X52298390Y-207574876D02*
X52107914Y-207622495D01*
X52107914Y-207622495D02*
X52012676Y-207670114D01*
X52012676Y-207670114D02*
X51917438Y-207765352D01*
X51917438Y-207765352D02*
X51869819Y-207908209D01*
X51869819Y-207908209D02*
X51869819Y-208003447D01*
X51869819Y-208003447D02*
X51917438Y-208146304D01*
X51917438Y-208146304D02*
X51965057Y-208193923D01*
X69139411Y-204869819D02*
X69710839Y-204869819D01*
X69425125Y-204869819D02*
X69425125Y-203869819D01*
X69425125Y-203869819D02*
X69520363Y-204012676D01*
X69520363Y-204012676D02*
X69615601Y-204107914D01*
X69615601Y-204107914D02*
X69710839Y-204155533D01*
X68710839Y-204774580D02*
X68663220Y-204822200D01*
X68663220Y-204822200D02*
X68710839Y-204869819D01*
X68710839Y-204869819D02*
X68758458Y-204822200D01*
X68758458Y-204822200D02*
X68710839Y-204774580D01*
X68710839Y-204774580D02*
X68710839Y-204869819D01*
X68091792Y-204298390D02*
X68187030Y-204250771D01*
X68187030Y-204250771D02*
X68234649Y-204203152D01*
X68234649Y-204203152D02*
X68282268Y-204107914D01*
X68282268Y-204107914D02*
X68282268Y-204060295D01*
X68282268Y-204060295D02*
X68234649Y-203965057D01*
X68234649Y-203965057D02*
X68187030Y-203917438D01*
X68187030Y-203917438D02*
X68091792Y-203869819D01*
X68091792Y-203869819D02*
X67901316Y-203869819D01*
X67901316Y-203869819D02*
X67806078Y-203917438D01*
X67806078Y-203917438D02*
X67758459Y-203965057D01*
X67758459Y-203965057D02*
X67710840Y-204060295D01*
X67710840Y-204060295D02*
X67710840Y-204107914D01*
X67710840Y-204107914D02*
X67758459Y-204203152D01*
X67758459Y-204203152D02*
X67806078Y-204250771D01*
X67806078Y-204250771D02*
X67901316Y-204298390D01*
X67901316Y-204298390D02*
X68091792Y-204298390D01*
X68091792Y-204298390D02*
X68187030Y-204346009D01*
X68187030Y-204346009D02*
X68234649Y-204393628D01*
X68234649Y-204393628D02*
X68282268Y-204488866D01*
X68282268Y-204488866D02*
X68282268Y-204679342D01*
X68282268Y-204679342D02*
X68234649Y-204774580D01*
X68234649Y-204774580D02*
X68187030Y-204822200D01*
X68187030Y-204822200D02*
X68091792Y-204869819D01*
X68091792Y-204869819D02*
X67901316Y-204869819D01*
X67901316Y-204869819D02*
X67806078Y-204822200D01*
X67806078Y-204822200D02*
X67758459Y-204774580D01*
X67758459Y-204774580D02*
X67710840Y-204679342D01*
X67710840Y-204679342D02*
X67710840Y-204488866D01*
X67710840Y-204488866D02*
X67758459Y-204393628D01*
X67758459Y-204393628D02*
X67806078Y-204346009D01*
X67806078Y-204346009D02*
X67901316Y-204298390D01*
X67282268Y-204488866D02*
X66520364Y-204488866D01*
X65567983Y-203869819D02*
X66044173Y-203869819D01*
X66044173Y-203869819D02*
X66091792Y-204346009D01*
X66091792Y-204346009D02*
X66044173Y-204298390D01*
X66044173Y-204298390D02*
X65948935Y-204250771D01*
X65948935Y-204250771D02*
X65710840Y-204250771D01*
X65710840Y-204250771D02*
X65615602Y-204298390D01*
X65615602Y-204298390D02*
X65567983Y-204346009D01*
X65567983Y-204346009D02*
X65520364Y-204441247D01*
X65520364Y-204441247D02*
X65520364Y-204679342D01*
X65520364Y-204679342D02*
X65567983Y-204774580D01*
X65567983Y-204774580D02*
X65615602Y-204822200D01*
X65615602Y-204822200D02*
X65710840Y-204869819D01*
X65710840Y-204869819D02*
X65948935Y-204869819D01*
X65948935Y-204869819D02*
X66044173Y-204822200D01*
X66044173Y-204822200D02*
X66091792Y-204774580D01*
X65091792Y-204774580D02*
X65044173Y-204822200D01*
X65044173Y-204822200D02*
X65091792Y-204869819D01*
X65091792Y-204869819D02*
X65139411Y-204822200D01*
X65139411Y-204822200D02*
X65091792Y-204774580D01*
X65091792Y-204774580D02*
X65091792Y-204869819D01*
X64139412Y-203869819D02*
X64615602Y-203869819D01*
X64615602Y-203869819D02*
X64663221Y-204346009D01*
X64663221Y-204346009D02*
X64615602Y-204298390D01*
X64615602Y-204298390D02*
X64520364Y-204250771D01*
X64520364Y-204250771D02*
X64282269Y-204250771D01*
X64282269Y-204250771D02*
X64187031Y-204298390D01*
X64187031Y-204298390D02*
X64139412Y-204346009D01*
X64139412Y-204346009D02*
X64091793Y-204441247D01*
X64091793Y-204441247D02*
X64091793Y-204679342D01*
X64091793Y-204679342D02*
X64139412Y-204774580D01*
X64139412Y-204774580D02*
X64187031Y-204822200D01*
X64187031Y-204822200D02*
X64282269Y-204869819D01*
X64282269Y-204869819D02*
X64520364Y-204869819D01*
X64520364Y-204869819D02*
X64615602Y-204822200D01*
X64615602Y-204822200D02*
X64663221Y-204774580D01*
X63806078Y-203869819D02*
X63472745Y-204869819D01*
X63472745Y-204869819D02*
X63139412Y-203869819D01*
X62139411Y-203917438D02*
X62234649Y-203869819D01*
X62234649Y-203869819D02*
X62377506Y-203869819D01*
X62377506Y-203869819D02*
X62520363Y-203917438D01*
X62520363Y-203917438D02*
X62615601Y-204012676D01*
X62615601Y-204012676D02*
X62663220Y-204107914D01*
X62663220Y-204107914D02*
X62710839Y-204298390D01*
X62710839Y-204298390D02*
X62710839Y-204441247D01*
X62710839Y-204441247D02*
X62663220Y-204631723D01*
X62663220Y-204631723D02*
X62615601Y-204726961D01*
X62615601Y-204726961D02*
X62520363Y-204822200D01*
X62520363Y-204822200D02*
X62377506Y-204869819D01*
X62377506Y-204869819D02*
X62282268Y-204869819D01*
X62282268Y-204869819D02*
X62139411Y-204822200D01*
X62139411Y-204822200D02*
X62091792Y-204774580D01*
X62091792Y-204774580D02*
X62091792Y-204441247D01*
X62091792Y-204441247D02*
X62282268Y-204441247D01*
X61663220Y-204869819D02*
X61663220Y-203869819D01*
X61663220Y-203869819D02*
X61091792Y-204869819D01*
X61091792Y-204869819D02*
X61091792Y-203869819D01*
X60615601Y-204869819D02*
X60615601Y-203869819D01*
X60615601Y-203869819D02*
X60377506Y-203869819D01*
X60377506Y-203869819D02*
X60234649Y-203917438D01*
X60234649Y-203917438D02*
X60139411Y-204012676D01*
X60139411Y-204012676D02*
X60091792Y-204107914D01*
X60091792Y-204107914D02*
X60044173Y-204298390D01*
X60044173Y-204298390D02*
X60044173Y-204441247D01*
X60044173Y-204441247D02*
X60091792Y-204631723D01*
X60091792Y-204631723D02*
X60139411Y-204726961D01*
X60139411Y-204726961D02*
X60234649Y-204822200D01*
X60234649Y-204822200D02*
X60377506Y-204869819D01*
X60377506Y-204869819D02*
X60615601Y-204869819D01*
X112407200Y-77357143D02*
X112454819Y-77500000D01*
X112454819Y-77500000D02*
X112454819Y-77738095D01*
X112454819Y-77738095D02*
X112407200Y-77833333D01*
X112407200Y-77833333D02*
X112359580Y-77880952D01*
X112359580Y-77880952D02*
X112264342Y-77928571D01*
X112264342Y-77928571D02*
X112169104Y-77928571D01*
X112169104Y-77928571D02*
X112073866Y-77880952D01*
X112073866Y-77880952D02*
X112026247Y-77833333D01*
X112026247Y-77833333D02*
X111978628Y-77738095D01*
X111978628Y-77738095D02*
X111931009Y-77547619D01*
X111931009Y-77547619D02*
X111883390Y-77452381D01*
X111883390Y-77452381D02*
X111835771Y-77404762D01*
X111835771Y-77404762D02*
X111740533Y-77357143D01*
X111740533Y-77357143D02*
X111645295Y-77357143D01*
X111645295Y-77357143D02*
X111550057Y-77404762D01*
X111550057Y-77404762D02*
X111502438Y-77452381D01*
X111502438Y-77452381D02*
X111454819Y-77547619D01*
X111454819Y-77547619D02*
X111454819Y-77785714D01*
X111454819Y-77785714D02*
X111502438Y-77928571D01*
X111454819Y-78261905D02*
X112454819Y-78500000D01*
X112454819Y-78500000D02*
X111740533Y-78690476D01*
X111740533Y-78690476D02*
X112454819Y-78880952D01*
X112454819Y-78880952D02*
X111454819Y-79119048D01*
X111883390Y-79642857D02*
X111835771Y-79547619D01*
X111835771Y-79547619D02*
X111788152Y-79500000D01*
X111788152Y-79500000D02*
X111692914Y-79452381D01*
X111692914Y-79452381D02*
X111645295Y-79452381D01*
X111645295Y-79452381D02*
X111550057Y-79500000D01*
X111550057Y-79500000D02*
X111502438Y-79547619D01*
X111502438Y-79547619D02*
X111454819Y-79642857D01*
X111454819Y-79642857D02*
X111454819Y-79833333D01*
X111454819Y-79833333D02*
X111502438Y-79928571D01*
X111502438Y-79928571D02*
X111550057Y-79976190D01*
X111550057Y-79976190D02*
X111645295Y-80023809D01*
X111645295Y-80023809D02*
X111692914Y-80023809D01*
X111692914Y-80023809D02*
X111788152Y-79976190D01*
X111788152Y-79976190D02*
X111835771Y-79928571D01*
X111835771Y-79928571D02*
X111883390Y-79833333D01*
X111883390Y-79833333D02*
X111883390Y-79642857D01*
X111883390Y-79642857D02*
X111931009Y-79547619D01*
X111931009Y-79547619D02*
X111978628Y-79500000D01*
X111978628Y-79500000D02*
X112073866Y-79452381D01*
X112073866Y-79452381D02*
X112264342Y-79452381D01*
X112264342Y-79452381D02*
X112359580Y-79500000D01*
X112359580Y-79500000D02*
X112407200Y-79547619D01*
X112407200Y-79547619D02*
X112454819Y-79642857D01*
X112454819Y-79642857D02*
X112454819Y-79833333D01*
X112454819Y-79833333D02*
X112407200Y-79928571D01*
X112407200Y-79928571D02*
X112359580Y-79976190D01*
X112359580Y-79976190D02*
X112264342Y-80023809D01*
X112264342Y-80023809D02*
X112073866Y-80023809D01*
X112073866Y-80023809D02*
X111978628Y-79976190D01*
X111978628Y-79976190D02*
X111931009Y-79928571D01*
X111931009Y-79928571D02*
X111883390Y-79833333D01*
X111788152Y-80357143D02*
X112454819Y-80595238D01*
X112454819Y-80595238D02*
X111788152Y-80833333D01*
X112454819Y-81642857D02*
X111931009Y-81642857D01*
X111931009Y-81642857D02*
X111835771Y-81595238D01*
X111835771Y-81595238D02*
X111788152Y-81500000D01*
X111788152Y-81500000D02*
X111788152Y-81309524D01*
X111788152Y-81309524D02*
X111835771Y-81214286D01*
X112407200Y-81642857D02*
X112454819Y-81547619D01*
X112454819Y-81547619D02*
X112454819Y-81309524D01*
X112454819Y-81309524D02*
X112407200Y-81214286D01*
X112407200Y-81214286D02*
X112311961Y-81166667D01*
X112311961Y-81166667D02*
X112216723Y-81166667D01*
X112216723Y-81166667D02*
X112121485Y-81214286D01*
X112121485Y-81214286D02*
X112073866Y-81309524D01*
X112073866Y-81309524D02*
X112073866Y-81547619D01*
X112073866Y-81547619D02*
X112026247Y-81642857D01*
X112454819Y-82642857D02*
X112454819Y-82071429D01*
X112454819Y-82357143D02*
X111454819Y-82357143D01*
X111454819Y-82357143D02*
X111597676Y-82261905D01*
X111597676Y-82261905D02*
X111692914Y-82166667D01*
X111692914Y-82166667D02*
X111740533Y-82071429D01*
X59124819Y-206666666D02*
X59839104Y-206666666D01*
X59839104Y-206666666D02*
X59981961Y-206619047D01*
X59981961Y-206619047D02*
X60077200Y-206523809D01*
X60077200Y-206523809D02*
X60124819Y-206380952D01*
X60124819Y-206380952D02*
X60124819Y-206285714D01*
X59124819Y-207047619D02*
X59124819Y-207666666D01*
X59124819Y-207666666D02*
X59505771Y-207333333D01*
X59505771Y-207333333D02*
X59505771Y-207476190D01*
X59505771Y-207476190D02*
X59553390Y-207571428D01*
X59553390Y-207571428D02*
X59601009Y-207619047D01*
X59601009Y-207619047D02*
X59696247Y-207666666D01*
X59696247Y-207666666D02*
X59934342Y-207666666D01*
X59934342Y-207666666D02*
X60029580Y-207619047D01*
X60029580Y-207619047D02*
X60077200Y-207571428D01*
X60077200Y-207571428D02*
X60124819Y-207476190D01*
X60124819Y-207476190D02*
X60124819Y-207190476D01*
X60124819Y-207190476D02*
X60077200Y-207095238D01*
X60077200Y-207095238D02*
X60029580Y-207047619D01*
X87592800Y-96642856D02*
X87545180Y-96499999D01*
X87545180Y-96499999D02*
X87545180Y-96261904D01*
X87545180Y-96261904D02*
X87592800Y-96166666D01*
X87592800Y-96166666D02*
X87640419Y-96119047D01*
X87640419Y-96119047D02*
X87735657Y-96071428D01*
X87735657Y-96071428D02*
X87830895Y-96071428D01*
X87830895Y-96071428D02*
X87926133Y-96119047D01*
X87926133Y-96119047D02*
X87973752Y-96166666D01*
X87973752Y-96166666D02*
X88021371Y-96261904D01*
X88021371Y-96261904D02*
X88068990Y-96452380D01*
X88068990Y-96452380D02*
X88116609Y-96547618D01*
X88116609Y-96547618D02*
X88164228Y-96595237D01*
X88164228Y-96595237D02*
X88259466Y-96642856D01*
X88259466Y-96642856D02*
X88354704Y-96642856D01*
X88354704Y-96642856D02*
X88449942Y-96595237D01*
X88449942Y-96595237D02*
X88497561Y-96547618D01*
X88497561Y-96547618D02*
X88545180Y-96452380D01*
X88545180Y-96452380D02*
X88545180Y-96214285D01*
X88545180Y-96214285D02*
X88497561Y-96071428D01*
X88545180Y-95738094D02*
X87545180Y-95499999D01*
X87545180Y-95499999D02*
X88259466Y-95309523D01*
X88259466Y-95309523D02*
X87545180Y-95119047D01*
X87545180Y-95119047D02*
X88545180Y-94880952D01*
X88116609Y-94357142D02*
X88164228Y-94452380D01*
X88164228Y-94452380D02*
X88211847Y-94499999D01*
X88211847Y-94499999D02*
X88307085Y-94547618D01*
X88307085Y-94547618D02*
X88354704Y-94547618D01*
X88354704Y-94547618D02*
X88449942Y-94499999D01*
X88449942Y-94499999D02*
X88497561Y-94452380D01*
X88497561Y-94452380D02*
X88545180Y-94357142D01*
X88545180Y-94357142D02*
X88545180Y-94166666D01*
X88545180Y-94166666D02*
X88497561Y-94071428D01*
X88497561Y-94071428D02*
X88449942Y-94023809D01*
X88449942Y-94023809D02*
X88354704Y-93976190D01*
X88354704Y-93976190D02*
X88307085Y-93976190D01*
X88307085Y-93976190D02*
X88211847Y-94023809D01*
X88211847Y-94023809D02*
X88164228Y-94071428D01*
X88164228Y-94071428D02*
X88116609Y-94166666D01*
X88116609Y-94166666D02*
X88116609Y-94357142D01*
X88116609Y-94357142D02*
X88068990Y-94452380D01*
X88068990Y-94452380D02*
X88021371Y-94499999D01*
X88021371Y-94499999D02*
X87926133Y-94547618D01*
X87926133Y-94547618D02*
X87735657Y-94547618D01*
X87735657Y-94547618D02*
X87640419Y-94499999D01*
X87640419Y-94499999D02*
X87592800Y-94452380D01*
X87592800Y-94452380D02*
X87545180Y-94357142D01*
X87545180Y-94357142D02*
X87545180Y-94166666D01*
X87545180Y-94166666D02*
X87592800Y-94071428D01*
X87592800Y-94071428D02*
X87640419Y-94023809D01*
X87640419Y-94023809D02*
X87735657Y-93976190D01*
X87735657Y-93976190D02*
X87926133Y-93976190D01*
X87926133Y-93976190D02*
X88021371Y-94023809D01*
X88021371Y-94023809D02*
X88068990Y-94071428D01*
X88068990Y-94071428D02*
X88116609Y-94166666D01*
X88211847Y-93642856D02*
X87545180Y-93404761D01*
X87545180Y-93404761D02*
X88211847Y-93166666D01*
X87545180Y-92785713D02*
X88545180Y-92785713D01*
X88164228Y-92785713D02*
X88211847Y-92690475D01*
X88211847Y-92690475D02*
X88211847Y-92499999D01*
X88211847Y-92499999D02*
X88164228Y-92404761D01*
X88164228Y-92404761D02*
X88116609Y-92357142D01*
X88116609Y-92357142D02*
X88021371Y-92309523D01*
X88021371Y-92309523D02*
X87735657Y-92309523D01*
X87735657Y-92309523D02*
X87640419Y-92357142D01*
X87640419Y-92357142D02*
X87592800Y-92404761D01*
X87592800Y-92404761D02*
X87545180Y-92499999D01*
X87545180Y-92499999D02*
X87545180Y-92690475D01*
X87545180Y-92690475D02*
X87592800Y-92785713D01*
X87545180Y-91357142D02*
X87545180Y-91928570D01*
X87545180Y-91642856D02*
X88545180Y-91642856D01*
X88545180Y-91642856D02*
X88402323Y-91738094D01*
X88402323Y-91738094D02*
X88307085Y-91833332D01*
X88307085Y-91833332D02*
X88259466Y-91928570D01*
X75368094Y-204984819D02*
X75368094Y-203984819D01*
X75368094Y-203984819D02*
X75129999Y-203984819D01*
X75129999Y-203984819D02*
X74987142Y-204032438D01*
X74987142Y-204032438D02*
X74891904Y-204127676D01*
X74891904Y-204127676D02*
X74844285Y-204222914D01*
X74844285Y-204222914D02*
X74796666Y-204413390D01*
X74796666Y-204413390D02*
X74796666Y-204556247D01*
X74796666Y-204556247D02*
X74844285Y-204746723D01*
X74844285Y-204746723D02*
X74891904Y-204841961D01*
X74891904Y-204841961D02*
X74987142Y-204937200D01*
X74987142Y-204937200D02*
X75129999Y-204984819D01*
X75129999Y-204984819D02*
X75368094Y-204984819D01*
X73844285Y-204984819D02*
X74415713Y-204984819D01*
X74129999Y-204984819D02*
X74129999Y-203984819D01*
X74129999Y-203984819D02*
X74225237Y-204127676D01*
X74225237Y-204127676D02*
X74320475Y-204222914D01*
X74320475Y-204222914D02*
X74415713Y-204270533D01*
X79971904Y-205354819D02*
X79971904Y-204354819D01*
X79400476Y-205354819D02*
X79829047Y-204783390D01*
X79400476Y-204354819D02*
X79971904Y-204926247D01*
%TO.C,SW8va1*%
D11*
X113000000Y-78000000D02*
X131000000Y-78000000D01*
X131000000Y-96000000D01*
X113000000Y-96000000D01*
X113000000Y-78000000D01*
X114250000Y-79250000D02*
X115350000Y-79250000D01*
X115750000Y-79250000D02*
X116850000Y-79250000D01*
X117250000Y-79250000D02*
X118350000Y-79250000D01*
X118750000Y-79250000D02*
X119850000Y-79250000D01*
X120250000Y-79250000D02*
X121350000Y-79250000D01*
X121750000Y-79250000D02*
X122850000Y-79250000D01*
X123250000Y-79250000D02*
X124350000Y-79250000D01*
X124750000Y-79250000D02*
X125850000Y-79250000D01*
X126250000Y-79250000D02*
X127350000Y-79250000D01*
X127750000Y-79250000D02*
X128850000Y-79250000D01*
X129250000Y-79250000D02*
X129750000Y-79250000D01*
X129750000Y-79250000D02*
X129750000Y-80350000D01*
X129750000Y-80750000D02*
X129750000Y-81850000D01*
X129750000Y-82250000D02*
X129750000Y-83350000D01*
X129750000Y-83750000D02*
X129750000Y-84850000D01*
X129750000Y-85250000D02*
X129750000Y-86350000D01*
X129750000Y-86750000D02*
X129750000Y-87850000D01*
X129750000Y-88250000D02*
X129750000Y-89350000D01*
X129750000Y-89750000D02*
X129750000Y-90850000D01*
X129750000Y-91250000D02*
X129750000Y-92350000D01*
X129750000Y-92750000D02*
X129750000Y-93850000D01*
X129750000Y-94250000D02*
X129750000Y-94750000D01*
X129750000Y-94750000D02*
X128650000Y-94750000D01*
X128250000Y-94750000D02*
X127150000Y-94750000D01*
X126750000Y-94750000D02*
X125650000Y-94750000D01*
X125250000Y-94750000D02*
X124150000Y-94750000D01*
X123750000Y-94750000D02*
X122650000Y-94750000D01*
X122250000Y-94750000D02*
X121150000Y-94750000D01*
X120750000Y-94750000D02*
X119650000Y-94750000D01*
X119250000Y-94750000D02*
X118150000Y-94750000D01*
X117750000Y-94750000D02*
X116650000Y-94750000D01*
X116250000Y-94750000D02*
X115150000Y-94750000D01*
X114750000Y-94750000D02*
X114250000Y-94750000D01*
X114250000Y-94750000D02*
X114250000Y-93650000D01*
X114250000Y-93250000D02*
X114250000Y-92150000D01*
X114250000Y-91750000D02*
X114250000Y-90650000D01*
X114250000Y-90250000D02*
X114250000Y-89150000D01*
X114250000Y-88750000D02*
X114250000Y-87650000D01*
X114250000Y-87250000D02*
X114250000Y-86150000D01*
X114250000Y-85750000D02*
X114250000Y-84650000D01*
X114250000Y-84250000D02*
X114250000Y-83150000D01*
X114250000Y-82750000D02*
X114250000Y-81650000D01*
X114250000Y-81250000D02*
X114250000Y-80150000D01*
X114250000Y-79750000D02*
X114250000Y-79250000D01*
D12*
%TO.C,J3*%
X60670000Y-205670000D02*
X60670000Y-207000000D01*
X62000000Y-205670000D02*
X60670000Y-205670000D01*
X63270000Y-205670000D02*
X65870000Y-205670000D01*
X63270000Y-205670000D02*
X63270000Y-208330000D01*
X65870000Y-205670000D02*
X65870000Y-208330000D01*
X63270000Y-208330000D02*
X65870000Y-208330000D01*
%TO.C,SW8vb1*%
D11*
X87000000Y-96000000D02*
X69000000Y-96000000D01*
X69000000Y-78000000D01*
X87000000Y-78000000D01*
X87000000Y-96000000D01*
X85750000Y-94750000D02*
X84650000Y-94750000D01*
X84250000Y-94750000D02*
X83150000Y-94750000D01*
X82750000Y-94750000D02*
X81650000Y-94750000D01*
X81250000Y-94750000D02*
X80150000Y-94750000D01*
X79750000Y-94750000D02*
X78650000Y-94750000D01*
X78250000Y-94750000D02*
X77150000Y-94750000D01*
X76750000Y-94750000D02*
X75650000Y-94750000D01*
X75250000Y-94750000D02*
X74150000Y-94750000D01*
X73750000Y-94750000D02*
X72650000Y-94750000D01*
X72250000Y-94750000D02*
X71150000Y-94750000D01*
X70750000Y-94750000D02*
X70250000Y-94750000D01*
X70250000Y-94750000D02*
X70250000Y-93650000D01*
X70250000Y-93250000D02*
X70250000Y-92150000D01*
X70250000Y-91750000D02*
X70250000Y-90650000D01*
X70250000Y-90250000D02*
X70250000Y-89150000D01*
X70250000Y-88750000D02*
X70250000Y-87650000D01*
X70250000Y-87250000D02*
X70250000Y-86150000D01*
X70250000Y-85750000D02*
X70250000Y-84650000D01*
X70250000Y-84250000D02*
X70250000Y-83150000D01*
X70250000Y-82750000D02*
X70250000Y-81650000D01*
X70250000Y-81250000D02*
X70250000Y-80150000D01*
X70250000Y-79750000D02*
X70250000Y-79250000D01*
X70250000Y-79250000D02*
X71350000Y-79250000D01*
X71750000Y-79250000D02*
X72850000Y-79250000D01*
X73250000Y-79250000D02*
X74350000Y-79250000D01*
X74750000Y-79250000D02*
X75850000Y-79250000D01*
X76250000Y-79250000D02*
X77350000Y-79250000D01*
X77750000Y-79250000D02*
X78850000Y-79250000D01*
X79250000Y-79250000D02*
X80350000Y-79250000D01*
X80750000Y-79250000D02*
X81850000Y-79250000D01*
X82250000Y-79250000D02*
X83350000Y-79250000D01*
X83750000Y-79250000D02*
X84850000Y-79250000D01*
X85250000Y-79250000D02*
X85750000Y-79250000D01*
X85750000Y-79250000D02*
X85750000Y-80350000D01*
X85750000Y-80750000D02*
X85750000Y-81850000D01*
X85750000Y-82250000D02*
X85750000Y-83350000D01*
X85750000Y-83750000D02*
X85750000Y-84850000D01*
X85750000Y-85250000D02*
X85750000Y-86350000D01*
X85750000Y-86750000D02*
X85750000Y-87850000D01*
X85750000Y-88250000D02*
X85750000Y-89350000D01*
X85750000Y-89750000D02*
X85750000Y-90850000D01*
X85750000Y-91250000D02*
X85750000Y-92350000D01*
X85750000Y-92750000D02*
X85750000Y-93850000D01*
X85750000Y-94250000D02*
X85750000Y-94750000D01*
D12*
%TO.C,D1*%
X78370000Y-207000000D02*
X77350000Y-207000000D01*
X77350000Y-205530000D02*
X77350000Y-208470000D01*
X77350000Y-208470000D02*
X71910000Y-208470000D01*
X76570000Y-205530000D02*
X76570000Y-208470000D01*
X76450000Y-205530000D02*
X76450000Y-208470000D01*
X76330000Y-205530000D02*
X76330000Y-208470000D01*
X71910000Y-205530000D02*
X77350000Y-205530000D01*
X71910000Y-208470000D02*
X71910000Y-205530000D01*
X70890000Y-207000000D02*
X71910000Y-207000000D01*
%TD*%
%LPC*%
D13*
%TO.C,R17*%
X123000000Y-198190000D03*
D14*
X123000000Y-205810000D03*
%TD*%
D15*
%TO.C,SWE1*%
X65000000Y-106000000D03*
X75000000Y-106000000D03*
D16*
X68225000Y-110810000D03*
X71775000Y-101190000D03*
%TD*%
D17*
%TO.C,M4*%
X115000000Y-71000000D03*
%TD*%
D18*
%TO.C,A1*%
X102725000Y-204462500D03*
D19*
X102425000Y-201432500D03*
X97575000Y-201432500D03*
D18*
X97275000Y-204462500D03*
D20*
X108890000Y-204592500D03*
D21*
X108890000Y-202052500D03*
D22*
X108890000Y-199512500D03*
D21*
X108890000Y-196972500D03*
X108890000Y-194432500D03*
X108890000Y-191892500D03*
X108890000Y-189352500D03*
D22*
X108890000Y-186812500D03*
D21*
X108890000Y-184272500D03*
X108890000Y-181732500D03*
X108890000Y-179192500D03*
X108890000Y-176652500D03*
D22*
X108890000Y-174112500D03*
D21*
X108890000Y-171572500D03*
X108890000Y-169032500D03*
X108890000Y-166492500D03*
X108890000Y-163952500D03*
D22*
X108890000Y-161412500D03*
D21*
X108890000Y-158872500D03*
X108890000Y-156332500D03*
X91110000Y-156332500D03*
X91110000Y-158872500D03*
D23*
X91110000Y-161412500D03*
D21*
X91110000Y-163952500D03*
X91110000Y-166492500D03*
X91110000Y-169032500D03*
X91110000Y-171572500D03*
D23*
X91110000Y-174112500D03*
D21*
X91110000Y-176652500D03*
X91110000Y-179192500D03*
X91110000Y-181732500D03*
X91110000Y-184272500D03*
D23*
X91110000Y-186812500D03*
D21*
X91110000Y-189352500D03*
X91110000Y-191892500D03*
X91110000Y-194432500D03*
X91110000Y-196972500D03*
D23*
X91110000Y-199512500D03*
D21*
X91110000Y-202052500D03*
X91110000Y-204592500D03*
%TD*%
D15*
%TO.C,SWDup1*%
X135000000Y-67000000D03*
X145000000Y-67000000D03*
D16*
X138225000Y-71810000D03*
X141775000Y-62190000D03*
%TD*%
D15*
%TO.C,U1*%
X86030000Y-99870000D03*
X86030000Y-102410000D03*
X86030000Y-104950000D03*
X86030000Y-107490000D03*
X86030000Y-110030000D03*
X86030000Y-112570000D03*
X86030000Y-115110000D03*
X86030000Y-117650000D03*
X86030000Y-120190000D03*
X86030000Y-122730000D03*
X86030000Y-125270000D03*
X86030000Y-127810000D03*
X86030000Y-130350000D03*
X86030000Y-132890000D03*
X86030000Y-135430000D03*
X86030000Y-137970000D03*
X86030000Y-140510000D03*
X86030000Y-143050000D03*
X86030000Y-145590000D03*
X86030000Y-148130000D03*
X88570000Y-99870000D03*
X88570000Y-102410000D03*
X88570000Y-104950000D03*
X88570000Y-107490000D03*
X88570000Y-110030000D03*
X88570000Y-112570000D03*
X88570000Y-115110000D03*
X88570000Y-117650000D03*
X88570000Y-120190000D03*
X88570000Y-122730000D03*
X88570000Y-125270000D03*
X88570000Y-127810000D03*
X88570000Y-130350000D03*
X88570000Y-132890000D03*
X88570000Y-135430000D03*
X88570000Y-137970000D03*
X88570000Y-140510000D03*
X88570000Y-143050000D03*
X88570000Y-145590000D03*
X88570000Y-148130000D03*
X91110000Y-99870000D03*
X91110000Y-102410000D03*
X91110000Y-104950000D03*
X91110000Y-107490000D03*
X91110000Y-110030000D03*
X91110000Y-112570000D03*
X91110000Y-115110000D03*
X91110000Y-117650000D03*
X91110000Y-120190000D03*
X91110000Y-122730000D03*
X91110000Y-125270000D03*
X91110000Y-127810000D03*
X91110000Y-130350000D03*
X91110000Y-132890000D03*
X91110000Y-135430000D03*
X91110000Y-137970000D03*
X91110000Y-140510000D03*
X91110000Y-143050000D03*
X91110000Y-145590000D03*
X91110000Y-148130000D03*
X93650000Y-99870000D03*
X93650000Y-102410000D03*
X93650000Y-104950000D03*
X93650000Y-107490000D03*
X93650000Y-110030000D03*
X93650000Y-112570000D03*
X93650000Y-115110000D03*
X93650000Y-117650000D03*
X93650000Y-120190000D03*
X93650000Y-122730000D03*
X93650000Y-125270000D03*
X93650000Y-127810000D03*
X93650000Y-130350000D03*
X93650000Y-132890000D03*
X93650000Y-135430000D03*
X93650000Y-137970000D03*
X93650000Y-140510000D03*
X93650000Y-143050000D03*
X93650000Y-145590000D03*
X93650000Y-148130000D03*
X96190000Y-99870000D03*
X96190000Y-102410000D03*
X96190000Y-104950000D03*
X96190000Y-107490000D03*
X96190000Y-110030000D03*
X96190000Y-112570000D03*
X96190000Y-115110000D03*
X96190000Y-117650000D03*
X96190000Y-120190000D03*
X96190000Y-122730000D03*
X96190000Y-125270000D03*
X96190000Y-127810000D03*
X96190000Y-130350000D03*
X96190000Y-132890000D03*
X96190000Y-135430000D03*
X96190000Y-137970000D03*
X96190000Y-140510000D03*
X96190000Y-143050000D03*
X96190000Y-145590000D03*
X96190000Y-148130000D03*
X98730000Y-99870000D03*
X98730000Y-102410000D03*
X98730000Y-104950000D03*
X98730000Y-107490000D03*
X98730000Y-110030000D03*
X98730000Y-112570000D03*
X98730000Y-115110000D03*
X98730000Y-117650000D03*
X98730000Y-120190000D03*
X98730000Y-122730000D03*
X98730000Y-125270000D03*
X98730000Y-127810000D03*
X98730000Y-130350000D03*
X98730000Y-132890000D03*
X98730000Y-135430000D03*
X98730000Y-137970000D03*
X98730000Y-140510000D03*
X98730000Y-143050000D03*
X98730000Y-145590000D03*
X98730000Y-148130000D03*
X101270000Y-99870000D03*
X101270000Y-102410000D03*
X101270000Y-104950000D03*
X101270000Y-107490000D03*
X101270000Y-110030000D03*
X101270000Y-112570000D03*
X101270000Y-115110000D03*
X101270000Y-117650000D03*
X101270000Y-120190000D03*
X101270000Y-122730000D03*
X101270000Y-125270000D03*
X101270000Y-127810000D03*
X101270000Y-130350000D03*
X101270000Y-132890000D03*
X101270000Y-135430000D03*
X101270000Y-137970000D03*
X101270000Y-140510000D03*
X101270000Y-143050000D03*
X101270000Y-145590000D03*
X101270000Y-148130000D03*
X103810000Y-99870000D03*
X103810000Y-102410000D03*
X103810000Y-104950000D03*
X103810000Y-107490000D03*
X103810000Y-110030000D03*
X103810000Y-112570000D03*
X103810000Y-115110000D03*
X103810000Y-117650000D03*
X103810000Y-120190000D03*
X103810000Y-122730000D03*
X103810000Y-125270000D03*
X103810000Y-127810000D03*
X103810000Y-130350000D03*
X103810000Y-132890000D03*
X103810000Y-135430000D03*
X103810000Y-137970000D03*
X103810000Y-140510000D03*
X103810000Y-143050000D03*
X103810000Y-145590000D03*
X103810000Y-148130000D03*
X106350000Y-99870000D03*
X106350000Y-102410000D03*
X106350000Y-104950000D03*
X106350000Y-107490000D03*
X106350000Y-110030000D03*
X106350000Y-112570000D03*
X106350000Y-115110000D03*
X106350000Y-117650000D03*
X106350000Y-120190000D03*
X106350000Y-122730000D03*
X106350000Y-125270000D03*
X106350000Y-127810000D03*
X106350000Y-130350000D03*
X106350000Y-132890000D03*
X106350000Y-135430000D03*
X106350000Y-137970000D03*
X106350000Y-140510000D03*
X106350000Y-143050000D03*
X106350000Y-145590000D03*
X106350000Y-148130000D03*
X108890000Y-99870000D03*
X108890000Y-102410000D03*
X108890000Y-104950000D03*
X108890000Y-107490000D03*
X108890000Y-110030000D03*
X108890000Y-112570000D03*
X108890000Y-115110000D03*
X108890000Y-117650000D03*
X108890000Y-120190000D03*
X108890000Y-122730000D03*
X108890000Y-125270000D03*
X108890000Y-127810000D03*
X108890000Y-130350000D03*
X108890000Y-132890000D03*
X108890000Y-135430000D03*
X108890000Y-137970000D03*
X108890000Y-140510000D03*
X108890000Y-143050000D03*
X108890000Y-145590000D03*
X108890000Y-148130000D03*
X111430000Y-99870000D03*
X111430000Y-102410000D03*
X111430000Y-104950000D03*
X111430000Y-107490000D03*
X111430000Y-110030000D03*
X111430000Y-112570000D03*
X111430000Y-115110000D03*
X111430000Y-117650000D03*
X111430000Y-120190000D03*
X111430000Y-122730000D03*
X111430000Y-125270000D03*
X111430000Y-127810000D03*
X111430000Y-130350000D03*
X111430000Y-132890000D03*
X111430000Y-135430000D03*
X111430000Y-137970000D03*
X111430000Y-140510000D03*
X111430000Y-143050000D03*
X111430000Y-145590000D03*
X111430000Y-148130000D03*
X113970000Y-99870000D03*
X113970000Y-102410000D03*
X113970000Y-104950000D03*
X113970000Y-107490000D03*
X113970000Y-110030000D03*
X113970000Y-112570000D03*
X113970000Y-115110000D03*
X113970000Y-117650000D03*
X113970000Y-120190000D03*
X113970000Y-122730000D03*
X113970000Y-125270000D03*
X113970000Y-127810000D03*
X113970000Y-130350000D03*
X113970000Y-132890000D03*
X113970000Y-135430000D03*
X113970000Y-137970000D03*
X113970000Y-140510000D03*
X113970000Y-143050000D03*
X113970000Y-145590000D03*
X113970000Y-148130000D03*
%TD*%
%TO.C,SWA1*%
X135000000Y-106000000D03*
X125000000Y-106000000D03*
D16*
X131775000Y-101190000D03*
X128225000Y-110810000D03*
%TD*%
D17*
%TO.C,M3*%
X85000000Y-71000000D03*
%TD*%
%TO.C,M5*%
X60000000Y-180000000D03*
%TD*%
D15*
%TO.C,SWGs1*%
X140000000Y-144000000D03*
X130000000Y-144000000D03*
D16*
X136775000Y-139190000D03*
X133225000Y-148810000D03*
%TD*%
D17*
%TO.C,M2*%
X110000000Y-58000000D03*
%TD*%
D15*
%TO.C,SWCTRL1*%
X65000000Y-195000000D03*
X75000000Y-195000000D03*
D16*
X68225000Y-199810000D03*
X71775000Y-190190000D03*
%TD*%
D15*
%TO.C,SWF1*%
X60000000Y-87000000D03*
X70000000Y-87000000D03*
D16*
X63225000Y-91810000D03*
X66775000Y-82190000D03*
%TD*%
D15*
%TO.C,SWSPR1*%
X140000000Y-163000000D03*
X130000000Y-163000000D03*
D16*
X136775000Y-158190000D03*
X133225000Y-167810000D03*
%TD*%
D17*
%TO.C,M6*%
X144000000Y-183000000D03*
%TD*%
D15*
%TO.C,SWC1*%
X60000000Y-163000000D03*
X70000000Y-163000000D03*
D16*
X63225000Y-167810000D03*
X66775000Y-158190000D03*
%TD*%
D24*
%TO.C,J4*%
X84400000Y-156382500D03*
X84400000Y-158922500D03*
X84400000Y-161462500D03*
X84400000Y-164002500D03*
X84400000Y-166542500D03*
X84400000Y-169082500D03*
X84400000Y-171622500D03*
X84400000Y-174162500D03*
X84400000Y-176702500D03*
X84400000Y-179242500D03*
X84400000Y-181782500D03*
X84400000Y-184322500D03*
X84400000Y-186862500D03*
X84400000Y-189402500D03*
X84400000Y-191942500D03*
X84400000Y-194482500D03*
X84400000Y-197022500D03*
X84400000Y-199562500D03*
X84400000Y-202102500D03*
X84400000Y-204642500D03*
%TD*%
D15*
%TO.C,SWB1*%
X140000000Y-87000000D03*
X130000000Y-87000000D03*
D16*
X136775000Y-82190000D03*
X133225000Y-91810000D03*
%TD*%
D13*
%TO.C,R16*%
X147000000Y-205810000D03*
D14*
X147000000Y-198190000D03*
%TD*%
D25*
%TO.C,J2*%
X130000000Y-205000000D03*
X140000000Y-205000000D03*
D26*
X142500000Y-195000000D03*
X135000000Y-195000000D03*
X127500000Y-195000000D03*
X140000000Y-192500000D03*
X130000000Y-192500000D03*
%TD*%
D15*
%TO.C,SWEb1*%
X60000000Y-144000000D03*
X70000000Y-144000000D03*
D16*
X63225000Y-148810000D03*
X66775000Y-139190000D03*
%TD*%
D15*
%TO.C,SWG1*%
X135000000Y-125000000D03*
X125000000Y-125000000D03*
D16*
X131775000Y-120190000D03*
X128225000Y-129810000D03*
%TD*%
D17*
%TO.C,M1*%
X90000000Y-58000000D03*
%TD*%
D15*
%TO.C,SWBb1*%
X55000000Y-67000000D03*
X65000000Y-67000000D03*
D16*
X58225000Y-71810000D03*
X61775000Y-62190000D03*
%TD*%
D24*
%TO.C,J1*%
X115100000Y-204542500D03*
X115100000Y-202002500D03*
X115100000Y-199462500D03*
X115100000Y-196922500D03*
X115100000Y-194382500D03*
X115100000Y-191842500D03*
X115100000Y-189302500D03*
X115100000Y-186762500D03*
X115100000Y-184222500D03*
X115100000Y-181682500D03*
X115100000Y-179142500D03*
X115100000Y-176602500D03*
X115100000Y-174062500D03*
X115100000Y-171522500D03*
X115100000Y-168982500D03*
X115100000Y-166442500D03*
X115100000Y-163902500D03*
X115100000Y-161362500D03*
X115100000Y-158822500D03*
X115100000Y-156282500D03*
%TD*%
D15*
%TO.C,SWD1*%
X65000000Y-125000000D03*
X75000000Y-125000000D03*
D16*
X68225000Y-129810000D03*
X71775000Y-120190000D03*
%TD*%
D15*
%TO.C,SW8va1*%
X117000000Y-87000000D03*
X127000000Y-87000000D03*
D16*
X120225000Y-82190000D03*
X123775000Y-91810000D03*
%TD*%
D27*
%TO.C,J3*%
X62000000Y-207000000D03*
D28*
X64540000Y-207000000D03*
%TD*%
D15*
%TO.C,SW8vb1*%
X83000000Y-87000000D03*
X73000000Y-87000000D03*
D16*
X79775000Y-91810000D03*
X76225000Y-82190000D03*
%TD*%
D29*
%TO.C,D1*%
X79710000Y-207000000D03*
D30*
X69550000Y-207000000D03*
%TD*%
%LPD*%
M02*
