%TF.GenerationSoftware,KiCad,Pcbnew,9.0.0*%
%TF.CreationDate,2025-03-25T20:45:47+10:00*%
%TF.ProjectId,PicoSax,5069636f-5361-4782-9e6b-696361645f70,rev?*%
%TF.SameCoordinates,Original*%
%TF.FileFunction,Soldermask,Bot*%
%TF.FilePolarity,Negative*%
%FSLAX46Y46*%
G04 Gerber Fmt 4.6, Leading zero omitted, Abs format (unit mm)*
G04 Created by KiCad (PCBNEW 9.0.0) date 2025-03-25 20:45:47*
%MOMM*%
%LPD*%
G01*
G04 APERTURE LIST*
G04 Aperture macros list*
%AMRoundRect*
0 Rectangle with rounded corners*
0 $1 Rounding radius*
0 $2 $3 $4 $5 $6 $7 $8 $9 X,Y pos of 4 corners*
0 Add a 4 corners polygon primitive as box body*
4,1,4,$2,$3,$4,$5,$6,$7,$8,$9,$2,$3,0*
0 Add four circle primitives for the rounded corners*
1,1,$1+$1,$2,$3*
1,1,$1+$1,$4,$5*
1,1,$1+$1,$6,$7*
1,1,$1+$1,$8,$9*
0 Add four rect primitives between the rounded corners*
20,1,$1+$1,$2,$3,$4,$5,0*
20,1,$1+$1,$4,$5,$6,$7,0*
20,1,$1+$1,$6,$7,$8,$9,0*
20,1,$1+$1,$8,$9,$2,$3,0*%
%AMFreePoly0*
4,1,37,0.603843,0.796157,0.639018,0.796157,0.711114,0.766294,0.766294,0.711114,0.796157,0.639018,0.796157,0.603843,0.800000,0.600000,0.800000,-0.600000,0.796157,-0.603843,0.796157,-0.639018,0.766294,-0.711114,0.711114,-0.766294,0.639018,-0.796157,0.603843,-0.796157,0.600000,-0.800000,0.000000,-0.800000,0.000000,-0.796148,-0.078414,-0.796148,-0.232228,-0.765552,-0.377117,-0.705537,
-0.507515,-0.618408,-0.618408,-0.507515,-0.705537,-0.377117,-0.765552,-0.232228,-0.796148,-0.078414,-0.796148,0.078414,-0.765552,0.232228,-0.705537,0.377117,-0.618408,0.507515,-0.507515,0.618408,-0.377117,0.705537,-0.232228,0.765552,-0.078414,0.796148,0.000000,0.796148,0.000000,0.800000,0.600000,0.800000,0.603843,0.796157,0.603843,0.796157,$1*%
%AMFreePoly1*
4,1,37,0.000000,0.796148,0.078414,0.796148,0.232228,0.765552,0.377117,0.705537,0.507515,0.618408,0.618408,0.507515,0.705537,0.377117,0.765552,0.232228,0.796148,0.078414,0.796148,-0.078414,0.765552,-0.232228,0.705537,-0.377117,0.618408,-0.507515,0.507515,-0.618408,0.377117,-0.705537,0.232228,-0.765552,0.078414,-0.796148,0.000000,-0.796148,0.000000,-0.800000,-0.600000,-0.800000,
-0.603843,-0.796157,-0.639018,-0.796157,-0.711114,-0.766294,-0.766294,-0.711114,-0.796157,-0.639018,-0.796157,-0.603843,-0.800000,-0.600000,-0.800000,0.600000,-0.796157,0.603843,-0.796157,0.639018,-0.766294,0.711114,-0.711114,0.766294,-0.639018,0.796157,-0.603843,0.796157,-0.600000,0.800000,0.000000,0.800000,0.000000,0.796148,0.000000,0.796148,$1*%
G04 Aperture macros list end*
%ADD10C,2.000000*%
%ADD11C,2.500000*%
%ADD12C,3.200000*%
%ADD13C,2.200000*%
%ADD14C,1.850000*%
%ADD15RoundRect,0.200000X0.600000X0.600000X-0.600000X0.600000X-0.600000X-0.600000X0.600000X-0.600000X0*%
%ADD16C,1.600000*%
%ADD17FreePoly0,180.000000*%
%ADD18FreePoly1,180.000000*%
%ADD19C,3.000000*%
%ADD20O,2.500000X2.000000*%
%ADD21O,2.000000X2.500000*%
%ADD22R,1.700000X1.700000*%
%ADD23O,1.700000X1.700000*%
%ADD24R,2.200000X2.200000*%
%ADD25O,2.200000X2.200000*%
G04 APERTURE END LIST*
D10*
%TO.C,SWE1*%
X65000000Y-106000000D03*
X75000000Y-106000000D03*
D11*
X68225000Y-110810000D03*
X71775000Y-101190000D03*
%TD*%
D12*
%TO.C,M4*%
X115000000Y-71000000D03*
%TD*%
D13*
%TO.C,A1*%
X102725000Y-204462500D03*
D14*
X102425000Y-201432500D03*
X97575000Y-201432500D03*
D13*
X97275000Y-204462500D03*
D15*
X108890000Y-204592500D03*
D16*
X108890000Y-202052500D03*
D17*
X108890000Y-199512500D03*
D16*
X108890000Y-196972500D03*
X108890000Y-194432500D03*
X108890000Y-191892500D03*
X108890000Y-189352500D03*
D17*
X108890000Y-186812500D03*
D16*
X108890000Y-184272500D03*
X108890000Y-181732500D03*
X108890000Y-179192500D03*
X108890000Y-176652500D03*
D17*
X108890000Y-174112500D03*
D16*
X108890000Y-171572500D03*
X108890000Y-169032500D03*
X108890000Y-166492500D03*
X108890000Y-163952500D03*
D17*
X108890000Y-161412500D03*
D16*
X108890000Y-158872500D03*
X108890000Y-156332500D03*
X91110000Y-156332500D03*
X91110000Y-158872500D03*
D18*
X91110000Y-161412500D03*
D16*
X91110000Y-163952500D03*
X91110000Y-166492500D03*
X91110000Y-169032500D03*
X91110000Y-171572500D03*
D18*
X91110000Y-174112500D03*
D16*
X91110000Y-176652500D03*
X91110000Y-179192500D03*
X91110000Y-181732500D03*
X91110000Y-184272500D03*
D18*
X91110000Y-186812500D03*
D16*
X91110000Y-189352500D03*
X91110000Y-191892500D03*
X91110000Y-194432500D03*
X91110000Y-196972500D03*
D18*
X91110000Y-199512500D03*
D16*
X91110000Y-202052500D03*
X91110000Y-204592500D03*
%TD*%
D10*
%TO.C,SWDup1*%
X135000000Y-67000000D03*
X145000000Y-67000000D03*
D11*
X138225000Y-71810000D03*
X141775000Y-62190000D03*
%TD*%
D10*
%TO.C,U1*%
X86030000Y-99870000D03*
X86030000Y-102410000D03*
X86030000Y-104950000D03*
X86030000Y-107490000D03*
X86030000Y-110030000D03*
X86030000Y-112570000D03*
X86030000Y-115110000D03*
X86030000Y-117650000D03*
X86030000Y-120190000D03*
X86030000Y-122730000D03*
X86030000Y-125270000D03*
X86030000Y-127810000D03*
X86030000Y-130350000D03*
X86030000Y-132890000D03*
X86030000Y-135430000D03*
X86030000Y-137970000D03*
X86030000Y-140510000D03*
X86030000Y-143050000D03*
X86030000Y-145590000D03*
X86030000Y-148130000D03*
X88570000Y-99870000D03*
X88570000Y-102410000D03*
X88570000Y-104950000D03*
X88570000Y-107490000D03*
X88570000Y-110030000D03*
X88570000Y-112570000D03*
X88570000Y-115110000D03*
X88570000Y-117650000D03*
X88570000Y-120190000D03*
X88570000Y-122730000D03*
X88570000Y-125270000D03*
X88570000Y-127810000D03*
X88570000Y-130350000D03*
X88570000Y-132890000D03*
X88570000Y-135430000D03*
X88570000Y-137970000D03*
X88570000Y-140510000D03*
X88570000Y-143050000D03*
X88570000Y-145590000D03*
X88570000Y-148130000D03*
X91110000Y-99870000D03*
X91110000Y-102410000D03*
X91110000Y-104950000D03*
X91110000Y-107490000D03*
X91110000Y-110030000D03*
X91110000Y-112570000D03*
X91110000Y-115110000D03*
X91110000Y-117650000D03*
X91110000Y-120190000D03*
X91110000Y-122730000D03*
X91110000Y-125270000D03*
X91110000Y-127810000D03*
X91110000Y-130350000D03*
X91110000Y-132890000D03*
X91110000Y-135430000D03*
X91110000Y-137970000D03*
X91110000Y-140510000D03*
X91110000Y-143050000D03*
X91110000Y-145590000D03*
X91110000Y-148130000D03*
X93650000Y-99870000D03*
X93650000Y-102410000D03*
X93650000Y-104950000D03*
X93650000Y-107490000D03*
X93650000Y-110030000D03*
X93650000Y-112570000D03*
X93650000Y-115110000D03*
X93650000Y-117650000D03*
X93650000Y-120190000D03*
X93650000Y-122730000D03*
X93650000Y-125270000D03*
X93650000Y-127810000D03*
X93650000Y-130350000D03*
X93650000Y-132890000D03*
X93650000Y-135430000D03*
X93650000Y-137970000D03*
X93650000Y-140510000D03*
X93650000Y-143050000D03*
X93650000Y-145590000D03*
X93650000Y-148130000D03*
X96190000Y-99870000D03*
X96190000Y-102410000D03*
X96190000Y-104950000D03*
X96190000Y-107490000D03*
X96190000Y-110030000D03*
X96190000Y-112570000D03*
X96190000Y-115110000D03*
X96190000Y-117650000D03*
X96190000Y-120190000D03*
X96190000Y-122730000D03*
X96190000Y-125270000D03*
X96190000Y-127810000D03*
X96190000Y-130350000D03*
X96190000Y-132890000D03*
X96190000Y-135430000D03*
X96190000Y-137970000D03*
X96190000Y-140510000D03*
X96190000Y-143050000D03*
X96190000Y-145590000D03*
X96190000Y-148130000D03*
X98730000Y-99870000D03*
X98730000Y-102410000D03*
X98730000Y-104950000D03*
X98730000Y-107490000D03*
X98730000Y-110030000D03*
X98730000Y-112570000D03*
X98730000Y-115110000D03*
X98730000Y-117650000D03*
X98730000Y-120190000D03*
X98730000Y-122730000D03*
X98730000Y-125270000D03*
X98730000Y-127810000D03*
X98730000Y-130350000D03*
X98730000Y-132890000D03*
X98730000Y-135430000D03*
X98730000Y-137970000D03*
X98730000Y-140510000D03*
X98730000Y-143050000D03*
X98730000Y-145590000D03*
X98730000Y-148130000D03*
X101270000Y-99870000D03*
X101270000Y-102410000D03*
X101270000Y-104950000D03*
X101270000Y-107490000D03*
X101270000Y-110030000D03*
X101270000Y-112570000D03*
X101270000Y-115110000D03*
X101270000Y-117650000D03*
X101270000Y-120190000D03*
X101270000Y-122730000D03*
X101270000Y-125270000D03*
X101270000Y-127810000D03*
X101270000Y-130350000D03*
X101270000Y-132890000D03*
X101270000Y-135430000D03*
X101270000Y-137970000D03*
X101270000Y-140510000D03*
X101270000Y-143050000D03*
X101270000Y-145590000D03*
X101270000Y-148130000D03*
X103810000Y-99870000D03*
X103810000Y-102410000D03*
X103810000Y-104950000D03*
X103810000Y-107490000D03*
X103810000Y-110030000D03*
X103810000Y-112570000D03*
X103810000Y-115110000D03*
X103810000Y-117650000D03*
X103810000Y-120190000D03*
X103810000Y-122730000D03*
X103810000Y-125270000D03*
X103810000Y-127810000D03*
X103810000Y-130350000D03*
X103810000Y-132890000D03*
X103810000Y-135430000D03*
X103810000Y-137970000D03*
X103810000Y-140510000D03*
X103810000Y-143050000D03*
X103810000Y-145590000D03*
X103810000Y-148130000D03*
X106350000Y-99870000D03*
X106350000Y-102410000D03*
X106350000Y-104950000D03*
X106350000Y-107490000D03*
X106350000Y-110030000D03*
X106350000Y-112570000D03*
X106350000Y-115110000D03*
X106350000Y-117650000D03*
X106350000Y-120190000D03*
X106350000Y-122730000D03*
X106350000Y-125270000D03*
X106350000Y-127810000D03*
X106350000Y-130350000D03*
X106350000Y-132890000D03*
X106350000Y-135430000D03*
X106350000Y-137970000D03*
X106350000Y-140510000D03*
X106350000Y-143050000D03*
X106350000Y-145590000D03*
X106350000Y-148130000D03*
X108890000Y-99870000D03*
X108890000Y-102410000D03*
X108890000Y-104950000D03*
X108890000Y-107490000D03*
X108890000Y-110030000D03*
X108890000Y-112570000D03*
X108890000Y-115110000D03*
X108890000Y-117650000D03*
X108890000Y-120190000D03*
X108890000Y-122730000D03*
X108890000Y-125270000D03*
X108890000Y-127810000D03*
X108890000Y-130350000D03*
X108890000Y-132890000D03*
X108890000Y-135430000D03*
X108890000Y-137970000D03*
X108890000Y-140510000D03*
X108890000Y-143050000D03*
X108890000Y-145590000D03*
X108890000Y-148130000D03*
X111430000Y-99870000D03*
X111430000Y-102410000D03*
X111430000Y-104950000D03*
X111430000Y-107490000D03*
X111430000Y-110030000D03*
X111430000Y-112570000D03*
X111430000Y-115110000D03*
X111430000Y-117650000D03*
X111430000Y-120190000D03*
X111430000Y-122730000D03*
X111430000Y-125270000D03*
X111430000Y-127810000D03*
X111430000Y-130350000D03*
X111430000Y-132890000D03*
X111430000Y-135430000D03*
X111430000Y-137970000D03*
X111430000Y-140510000D03*
X111430000Y-143050000D03*
X111430000Y-145590000D03*
X111430000Y-148130000D03*
X113970000Y-99870000D03*
X113970000Y-102410000D03*
X113970000Y-104950000D03*
X113970000Y-107490000D03*
X113970000Y-110030000D03*
X113970000Y-112570000D03*
X113970000Y-115110000D03*
X113970000Y-117650000D03*
X113970000Y-120190000D03*
X113970000Y-122730000D03*
X113970000Y-125270000D03*
X113970000Y-127810000D03*
X113970000Y-130350000D03*
X113970000Y-132890000D03*
X113970000Y-135430000D03*
X113970000Y-137970000D03*
X113970000Y-140510000D03*
X113970000Y-143050000D03*
X113970000Y-145590000D03*
X113970000Y-148130000D03*
%TD*%
%TO.C,SWA1*%
X135000000Y-106000000D03*
X125000000Y-106000000D03*
D11*
X131775000Y-101190000D03*
X128225000Y-110810000D03*
%TD*%
D12*
%TO.C,M3*%
X85000000Y-71000000D03*
%TD*%
%TO.C,M5*%
X60000000Y-180000000D03*
%TD*%
D10*
%TO.C,SWGs1*%
X140000000Y-144000000D03*
X130000000Y-144000000D03*
D11*
X136775000Y-139190000D03*
X133225000Y-148810000D03*
%TD*%
D12*
%TO.C,M2*%
X110000000Y-58000000D03*
%TD*%
D19*
%TO.C,REF\u002A\u002A*%
X102500000Y-58000000D03*
%TD*%
D10*
%TO.C,SWCTRL1*%
X65000000Y-195000000D03*
X75000000Y-195000000D03*
D11*
X68225000Y-199810000D03*
X71775000Y-190190000D03*
%TD*%
D10*
%TO.C,SWF1*%
X60000000Y-87000000D03*
X70000000Y-87000000D03*
D11*
X63225000Y-91810000D03*
X66775000Y-82190000D03*
%TD*%
D10*
%TO.C,SWSPR1*%
X140000000Y-163000000D03*
X130000000Y-163000000D03*
D11*
X136775000Y-158190000D03*
X133225000Y-167810000D03*
%TD*%
D12*
%TO.C,M6*%
X144000000Y-183000000D03*
%TD*%
D10*
%TO.C,SWC1*%
X60000000Y-163000000D03*
X70000000Y-163000000D03*
D11*
X63225000Y-167810000D03*
X66775000Y-158190000D03*
%TD*%
D20*
%TO.C,J4*%
X84400000Y-156382500D03*
X84400000Y-158922500D03*
X84400000Y-161462500D03*
X84400000Y-164002500D03*
X84400000Y-166542500D03*
X84400000Y-169082500D03*
X84400000Y-171622500D03*
X84400000Y-174162500D03*
X84400000Y-176702500D03*
X84400000Y-179242500D03*
X84400000Y-181782500D03*
X84400000Y-184322500D03*
X84400000Y-186862500D03*
X84400000Y-189402500D03*
X84400000Y-191942500D03*
X84400000Y-194482500D03*
X84400000Y-197022500D03*
X84400000Y-199562500D03*
X84400000Y-202102500D03*
X84400000Y-204642500D03*
%TD*%
D10*
%TO.C,SWB1*%
X140000000Y-87000000D03*
X130000000Y-87000000D03*
D11*
X136775000Y-82190000D03*
X133225000Y-91810000D03*
%TD*%
D19*
%TO.C,J2*%
X130000000Y-205000000D03*
X140000000Y-205000000D03*
D21*
X142500000Y-195000000D03*
X135000000Y-195000000D03*
X127500000Y-195000000D03*
X140000000Y-192500000D03*
X130000000Y-192500000D03*
%TD*%
D10*
%TO.C,SWEb1*%
X60000000Y-144000000D03*
X70000000Y-144000000D03*
D11*
X63225000Y-148810000D03*
X66775000Y-139190000D03*
%TD*%
D10*
%TO.C,SWG1*%
X135000000Y-125000000D03*
X125000000Y-125000000D03*
D11*
X131775000Y-120190000D03*
X128225000Y-129810000D03*
%TD*%
D12*
%TO.C,M1*%
X90000000Y-58000000D03*
%TD*%
D10*
%TO.C,SWBb1*%
X55000000Y-67000000D03*
X65000000Y-67000000D03*
D11*
X58225000Y-71810000D03*
X61775000Y-62190000D03*
%TD*%
D20*
%TO.C,J1*%
X115100000Y-204542500D03*
X115100000Y-202002500D03*
X115100000Y-199462500D03*
X115100000Y-196922500D03*
X115100000Y-194382500D03*
X115100000Y-191842500D03*
X115100000Y-189302500D03*
X115100000Y-186762500D03*
X115100000Y-184222500D03*
X115100000Y-181682500D03*
X115100000Y-179142500D03*
X115100000Y-176602500D03*
X115100000Y-174062500D03*
X115100000Y-171522500D03*
X115100000Y-168982500D03*
X115100000Y-166442500D03*
X115100000Y-163902500D03*
X115100000Y-161362500D03*
X115100000Y-158822500D03*
X115100000Y-156282500D03*
%TD*%
D10*
%TO.C,SWD1*%
X65000000Y-125000000D03*
X75000000Y-125000000D03*
D11*
X68225000Y-129810000D03*
X71775000Y-120190000D03*
%TD*%
D10*
%TO.C,SW8va1*%
X127000000Y-87000000D03*
X117000000Y-87000000D03*
D11*
X120225000Y-82190000D03*
X123775000Y-91810000D03*
%TD*%
D22*
%TO.C,J3*%
X62000000Y-207000000D03*
D23*
X64540000Y-207000000D03*
%TD*%
D10*
%TO.C,SW8vb1*%
X73000000Y-87000000D03*
X83000000Y-87000000D03*
D11*
X79775000Y-91810000D03*
X76225000Y-82190000D03*
%TD*%
D24*
%TO.C,D1*%
X79710000Y-207000000D03*
D25*
X69550000Y-207000000D03*
%TD*%
M02*
