<?xml version="1.0" standalone="no"?>
 <!DOCTYPE svg PUBLIC "-//W3C//DTD SVG 1.1//EN" 
 "http://www.w3.org/Graphics/SVG/1.1/DTD/svg11.dtd"> 
<svg
  xmlns:svg="http://www.w3.org/2000/svg"
  xmlns="http://www.w3.org/2000/svg"
  xmlns:xlink="http://www.w3.org/1999/xlink"
  version="1.1"
  width="210.0072mm" height="297.0022mm" viewBox="0.0000 0.0000 210.0072 297.0022">
<title>SVG Image created as PicoSax-B_Silkscreen.svg date 2025/04/07 12:47:13 </title>
  <desc>Image generated by PCBNEW </desc>
<g style="fill:#000000; fill-opacity:1.0000;stroke:#000000; stroke-opacity:1.0000;
stroke-linecap:round; stroke-linejoin:round;"
 transform="translate(0 0) scale(1 1)">
</g>
<g style="fill:none; 
stroke:#000000; stroke-width:0.1500; stroke-opacity:1; 
stroke-linecap:round; stroke-linejoin:round;">
<text x="70.0000" y="205.0000"
transform="scale(-1 1) translate(-140.000000 0)"
textLength="7.1071" font-size="1.3333" lengthAdjust="spacingAndGlyphs"
text-anchor="start" opacity="0" stroke-opacity="0">1.8-5.5V</text>
<g class="stroked-text"><desc>1.8-5.5V</desc>
<path d="M69.1394 204.8698
L69.7108 204.8698
" />
<path d="M69.4251 204.8698
L69.4251 203.8698
" />
<path d="M69.4251 203.8698
L69.5204 204.0127
" />
<path d="M69.5204 204.0127
L69.6156 204.1079
" />
<path d="M69.6156 204.1079
L69.7108 204.1555
" />
<path d="M68.7108 204.7746
L68.6632 204.8222
" />
<path d="M68.6632 204.8222
L68.7108 204.8698
" />
<path d="M68.7108 204.8698
L68.7585 204.8222
" />
<path d="M68.7585 204.8222
L68.7108 204.7746
" />
<path d="M68.7108 204.7746
L68.7108 204.8698
" />
<path d="M68.0918 204.2984
L68.1870 204.2508
" />
<path d="M68.1870 204.2508
L68.2346 204.2032
" />
<path d="M68.2346 204.2032
L68.2823 204.1079
" />
<path d="M68.2823 204.1079
L68.2823 204.0603
" />
<path d="M68.2823 204.0603
L68.2346 203.9651
" />
<path d="M68.2346 203.9651
L68.1870 203.9174
" />
<path d="M68.1870 203.9174
L68.0918 203.8698
" />
<path d="M68.0918 203.8698
L67.9013 203.8698
" />
<path d="M67.9013 203.8698
L67.8061 203.9174
" />
<path d="M67.8061 203.9174
L67.7585 203.9651
" />
<path d="M67.7585 203.9651
L67.7108 204.0603
" />
<path d="M67.7108 204.0603
L67.7108 204.1079
" />
<path d="M67.7108 204.1079
L67.7585 204.2032
" />
<path d="M67.7585 204.2032
L67.8061 204.2508
" />
<path d="M67.8061 204.2508
L67.9013 204.2984
" />
<path d="M67.9013 204.2984
L68.0918 204.2984
" />
<path d="M68.0918 204.2984
L68.1870 204.3460
" />
<path d="M68.1870 204.3460
L68.2346 204.3936
" />
<path d="M68.2346 204.3936
L68.2823 204.4889
" />
<path d="M68.2823 204.4889
L68.2823 204.6793
" />
<path d="M68.2823 204.6793
L68.2346 204.7746
" />
<path d="M68.2346 204.7746
L68.1870 204.8222
" />
<path d="M68.1870 204.8222
L68.0918 204.8698
" />
<path d="M68.0918 204.8698
L67.9013 204.8698
" />
<path d="M67.9013 204.8698
L67.8061 204.8222
" />
<path d="M67.8061 204.8222
L67.7585 204.7746
" />
<path d="M67.7585 204.7746
L67.7108 204.6793
" />
<path d="M67.7108 204.6793
L67.7108 204.4889
" />
<path d="M67.7108 204.4889
L67.7585 204.3936
" />
<path d="M67.7585 204.3936
L67.8061 204.3460
" />
<path d="M67.8061 204.3460
L67.9013 204.2984
" />
<path d="M67.2823 204.4889
L66.5204 204.4889
" />
<path d="M65.5680 203.8698
L66.0442 203.8698
" />
<path d="M66.0442 203.8698
L66.0918 204.3460
" />
<path d="M66.0918 204.3460
L66.0442 204.2984
" />
<path d="M66.0442 204.2984
L65.9489 204.2508
" />
<path d="M65.9489 204.2508
L65.7108 204.2508
" />
<path d="M65.7108 204.2508
L65.6156 204.2984
" />
<path d="M65.6156 204.2984
L65.5680 204.3460
" />
<path d="M65.5680 204.3460
L65.5204 204.4412
" />
<path d="M65.5204 204.4412
L65.5204 204.6793
" />
<path d="M65.5204 204.6793
L65.5680 204.7746
" />
<path d="M65.5680 204.7746
L65.6156 204.8222
" />
<path d="M65.6156 204.8222
L65.7108 204.8698
" />
<path d="M65.7108 204.8698
L65.9489 204.8698
" />
<path d="M65.9489 204.8698
L66.0442 204.8222
" />
<path d="M66.0442 204.8222
L66.0918 204.7746
" />
<path d="M65.0918 204.7746
L65.0442 204.8222
" />
<path d="M65.0442 204.8222
L65.0918 204.8698
" />
<path d="M65.0918 204.8698
L65.1394 204.8222
" />
<path d="M65.1394 204.8222
L65.0918 204.7746
" />
<path d="M65.0918 204.7746
L65.0918 204.8698
" />
<path d="M64.1394 203.8698
L64.6156 203.8698
" />
<path d="M64.6156 203.8698
L64.6632 204.3460
" />
<path d="M64.6632 204.3460
L64.6156 204.2984
" />
<path d="M64.6156 204.2984
L64.5204 204.2508
" />
<path d="M64.5204 204.2508
L64.2823 204.2508
" />
<path d="M64.2823 204.2508
L64.1870 204.2984
" />
<path d="M64.1870 204.2984
L64.1394 204.3460
" />
<path d="M64.1394 204.3460
L64.0918 204.4412
" />
<path d="M64.0918 204.4412
L64.0918 204.6793
" />
<path d="M64.0918 204.6793
L64.1394 204.7746
" />
<path d="M64.1394 204.7746
L64.1870 204.8222
" />
<path d="M64.1870 204.8222
L64.2823 204.8698
" />
<path d="M64.2823 204.8698
L64.5204 204.8698
" />
<path d="M64.5204 204.8698
L64.6156 204.8222
" />
<path d="M64.6156 204.8222
L64.6632 204.7746
" />
<path d="M63.8061 203.8698
L63.4727 204.8698
" />
<path d="M63.4727 204.8698
L63.1394 203.8698
" />
</g><text x="63.0000" y="205.0000"
transform="scale(-1 1) translate(-126.000000 0)"
textLength="3.2976" font-size="1.3333" lengthAdjust="spacingAndGlyphs"
text-anchor="start" opacity="0" stroke-opacity="0">GND</text>
<g class="stroked-text"><desc>GND</desc>
<path d="M62.1394 203.9174
L62.2346 203.8698
" />
<path d="M62.2346 203.8698
L62.3775 203.8698
" />
<path d="M62.3775 203.8698
L62.5204 203.9174
" />
<path d="M62.5204 203.9174
L62.6156 204.0127
" />
<path d="M62.6156 204.0127
L62.6632 204.1079
" />
<path d="M62.6632 204.1079
L62.7108 204.2984
" />
<path d="M62.7108 204.2984
L62.7108 204.4412
" />
<path d="M62.7108 204.4412
L62.6632 204.6317
" />
<path d="M62.6632 204.6317
L62.6156 204.7270
" />
<path d="M62.6156 204.7270
L62.5204 204.8222
" />
<path d="M62.5204 204.8222
L62.3775 204.8698
" />
<path d="M62.3775 204.8698
L62.2823 204.8698
" />
<path d="M62.2823 204.8698
L62.1394 204.8222
" />
<path d="M62.1394 204.8222
L62.0918 204.7746
" />
<path d="M62.0918 204.7746
L62.0918 204.4412
" />
<path d="M62.0918 204.4412
L62.2823 204.4412
" />
<path d="M61.6632 204.8698
L61.6632 203.8698
" />
<path d="M61.6632 203.8698
L61.0918 204.8698
" />
<path d="M61.0918 204.8698
L61.0918 203.8698
" />
<path d="M60.6156 204.8698
L60.6156 203.8698
" />
<path d="M60.6156 203.8698
L60.3775 203.8698
" />
<path d="M60.3775 203.8698
L60.2346 203.9174
" />
<path d="M60.2346 203.9174
L60.1394 204.0127
" />
<path d="M60.1394 204.0127
L60.0918 204.1079
" />
<path d="M60.0918 204.1079
L60.0442 204.2984
" />
<path d="M60.0442 204.2984
L60.0442 204.4412
" />
<path d="M60.0442 204.4412
L60.0918 204.6317
" />
<path d="M60.0918 204.6317
L60.1394 204.7270
" />
<path d="M60.1394 204.7270
L60.2346 204.8222
" />
<path d="M60.2346 204.8222
L60.3775 204.8698
" />
<path d="M60.3775 204.8698
L60.6156 204.8698
" />
</g><g transform="rotate(-90.000000 53.0000 198.0000)">
<text x="53.0000" y="198.0000"
transform="scale(-1 1) translate(-106.000000 0)"
textLength="10.5357" font-size="1.3333" lengthAdjust="spacingAndGlyphs"
text-anchor="start" opacity="0" stroke-opacity="0">JLCJLCJLCJLC</text>
</g>
<g class="stroked-text"><desc>JLCJLCJLCJLC</desc>
<path d="M51.8698 198.6225
L52.5841 198.6225
" />
<path d="M52.5841 198.6225
L52.7270 198.5749
" />
<path d="M52.7270 198.5749
L52.8222 198.4796
" />
<path d="M52.8222 198.4796
L52.8698 198.3368
" />
<path d="M52.8698 198.3368
L52.8698 198.2415
" />
<path d="M52.8698 199.5749
L52.8698 199.0987
" />
<path d="M52.8698 199.0987
L51.8698 199.0987
" />
<path d="M52.7746 200.4796
L52.8222 200.4320
" />
<path d="M52.8222 200.4320
L52.8698 200.2892
" />
<path d="M52.8698 200.2892
L52.8698 200.1939
" />
<path d="M52.8698 200.1939
L52.8222 200.0511
" />
<path d="M52.8222 200.0511
L52.7270 199.9558
" />
<path d="M52.7270 199.9558
L52.6317 199.9082
" />
<path d="M52.6317 199.9082
L52.4412 199.8606
" />
<path d="M52.4412 199.8606
L52.2984 199.8606
" />
<path d="M52.2984 199.8606
L52.1079 199.9082
" />
<path d="M52.1079 199.9082
L52.0127 199.9558
" />
<path d="M52.0127 199.9558
L51.9174 200.0511
" />
<path d="M51.9174 200.0511
L51.8698 200.1939
" />
<path d="M51.8698 200.1939
L51.8698 200.2892
" />
<path d="M51.8698 200.2892
L51.9174 200.4320
" />
<path d="M51.9174 200.4320
L51.9651 200.4796
" />
<path d="M51.8698 201.1939
L52.5841 201.1939
" />
<path d="M52.5841 201.1939
L52.7270 201.1463
" />
<path d="M52.7270 201.1463
L52.8222 201.0511
" />
<path d="M52.8222 201.0511
L52.8698 200.9082
" />
<path d="M52.8698 200.9082
L52.8698 200.8130
" />
<path d="M52.8698 202.1463
L52.8698 201.6701
" />
<path d="M52.8698 201.6701
L51.8698 201.6701
" />
<path d="M52.7746 203.0511
L52.8222 203.0034
" />
<path d="M52.8222 203.0034
L52.8698 202.8606
" />
<path d="M52.8698 202.8606
L52.8698 202.7654
" />
<path d="M52.8698 202.7654
L52.8222 202.6225
" />
<path d="M52.8222 202.6225
L52.7270 202.5273
" />
<path d="M52.7270 202.5273
L52.6317 202.4796
" />
<path d="M52.6317 202.4796
L52.4412 202.4320
" />
<path d="M52.4412 202.4320
L52.2984 202.4320
" />
<path d="M52.2984 202.4320
L52.1079 202.4796
" />
<path d="M52.1079 202.4796
L52.0127 202.5273
" />
<path d="M52.0127 202.5273
L51.9174 202.6225
" />
<path d="M51.9174 202.6225
L51.8698 202.7654
" />
<path d="M51.8698 202.7654
L51.8698 202.8606
" />
<path d="M51.8698 202.8606
L51.9174 203.0034
" />
<path d="M51.9174 203.0034
L51.9651 203.0511
" />
<path d="M51.8698 203.7654
L52.5841 203.7654
" />
<path d="M52.5841 203.7654
L52.7270 203.7177
" />
<path d="M52.7270 203.7177
L52.8222 203.6225
" />
<path d="M52.8222 203.6225
L52.8698 203.4796
" />
<path d="M52.8698 203.4796
L52.8698 203.3844
" />
<path d="M52.8698 204.7177
L52.8698 204.2415
" />
<path d="M52.8698 204.2415
L51.8698 204.2415
" />
<path d="M52.7746 205.6225
L52.8222 205.5749
" />
<path d="M52.8222 205.5749
L52.8698 205.4320
" />
<path d="M52.8698 205.4320
L52.8698 205.3368
" />
<path d="M52.8698 205.3368
L52.8222 205.1939
" />
<path d="M52.8222 205.1939
L52.7270 205.0987
" />
<path d="M52.7270 205.0987
L52.6317 205.0511
" />
<path d="M52.6317 205.0511
L52.4412 205.0034
" />
<path d="M52.4412 205.0034
L52.2984 205.0034
" />
<path d="M52.2984 205.0034
L52.1079 205.0511
" />
<path d="M52.1079 205.0511
L52.0127 205.0987
" />
<path d="M52.0127 205.0987
L51.9174 205.1939
" />
<path d="M51.9174 205.1939
L51.8698 205.3368
" />
<path d="M51.8698 205.3368
L51.8698 205.4320
" />
<path d="M51.8698 205.4320
L51.9174 205.5749
" />
<path d="M51.9174 205.5749
L51.9651 205.6225
" />
<path d="M51.8698 206.3368
L52.5841 206.3368
" />
<path d="M52.5841 206.3368
L52.7270 206.2892
" />
<path d="M52.7270 206.2892
L52.8222 206.1939
" />
<path d="M52.8222 206.1939
L52.8698 206.0511
" />
<path d="M52.8698 206.0511
L52.8698 205.9558
" />
<path d="M52.8698 207.2892
L52.8698 206.8130
" />
<path d="M52.8698 206.8130
L51.8698 206.8130
" />
<path d="M52.7746 208.1939
L52.8222 208.1463
" />
<path d="M52.8222 208.1463
L52.8698 208.0034
" />
<path d="M52.8698 208.0034
L52.8698 207.9082
" />
<path d="M52.8698 207.9082
L52.8222 207.7654
" />
<path d="M52.8222 207.7654
L52.7270 207.6701
" />
<path d="M52.7270 207.6701
L52.6317 207.6225
" />
<path d="M52.6317 207.6225
L52.4412 207.5749
" />
<path d="M52.4412 207.5749
L52.2984 207.5749
" />
<path d="M52.2984 207.5749
L52.1079 207.6225
" />
<path d="M52.1079 207.6225
L52.0127 207.6701
" />
<path d="M52.0127 207.6701
L51.9174 207.7654
" />
<path d="M51.9174 207.7654
L51.8698 207.9082
" />
<path d="M51.8698 207.9082
L51.8698 208.0034
" />
<path d="M51.8698 208.0034
L51.9174 208.1463
" />
<path d="M51.9174 208.1463
L51.9651 208.1939
" />
</g><g transform="rotate(-90.000000 112.0000 80.0000)">
<text x="112.0000" y="80.5000"
transform="scale(-1 1) translate(-224.000000 0)"
textLength="5.9167" font-size="1.3333" lengthAdjust="spacingAndGlyphs"
text-anchor="middle" opacity="0" stroke-opacity="0">SW8va1</text>
</g>
<g class="stroked-text"><desc>SW8va1</desc>
<path d="M112.4072 77.3571
L112.4548 77.5000
" />
<path d="M112.4548 77.5000
L112.4548 77.7381
" />
<path d="M112.4548 77.7381
L112.4072 77.8333
" />
<path d="M112.4072 77.8333
L112.3596 77.8810
" />
<path d="M112.3596 77.8810
L112.2643 77.9286
" />
<path d="M112.2643 77.9286
L112.1691 77.9286
" />
<path d="M112.1691 77.9286
L112.0739 77.8810
" />
<path d="M112.0739 77.8810
L112.0262 77.8333
" />
<path d="M112.0262 77.8333
L111.9786 77.7381
" />
<path d="M111.9786 77.7381
L111.9310 77.5476
" />
<path d="M111.9310 77.5476
L111.8834 77.4524
" />
<path d="M111.8834 77.4524
L111.8358 77.4048
" />
<path d="M111.8358 77.4048
L111.7405 77.3571
" />
<path d="M111.7405 77.3571
L111.6453 77.3571
" />
<path d="M111.6453 77.3571
L111.5501 77.4048
" />
<path d="M111.5501 77.4048
L111.5024 77.4524
" />
<path d="M111.5024 77.4524
L111.4548 77.5476
" />
<path d="M111.4548 77.5476
L111.4548 77.7857
" />
<path d="M111.4548 77.7857
L111.5024 77.9286
" />
<path d="M111.4548 78.2619
L112.4548 78.5000
" />
<path d="M112.4548 78.5000
L111.7405 78.6905
" />
<path d="M111.7405 78.6905
L112.4548 78.8810
" />
<path d="M112.4548 78.8810
L111.4548 79.1190
" />
<path d="M111.8834 79.6429
L111.8358 79.5476
" />
<path d="M111.8358 79.5476
L111.7882 79.5000
" />
<path d="M111.7882 79.5000
L111.6929 79.4524
" />
<path d="M111.6929 79.4524
L111.6453 79.4524
" />
<path d="M111.6453 79.4524
L111.5501 79.5000
" />
<path d="M111.5501 79.5000
L111.5024 79.5476
" />
<path d="M111.5024 79.5476
L111.4548 79.6429
" />
<path d="M111.4548 79.6429
L111.4548 79.8333
" />
<path d="M111.4548 79.8333
L111.5024 79.9286
" />
<path d="M111.5024 79.9286
L111.5501 79.9762
" />
<path d="M111.5501 79.9762
L111.6453 80.0238
" />
<path d="M111.6453 80.0238
L111.6929 80.0238
" />
<path d="M111.6929 80.0238
L111.7882 79.9762
" />
<path d="M111.7882 79.9762
L111.8358 79.9286
" />
<path d="M111.8358 79.9286
L111.8834 79.8333
" />
<path d="M111.8834 79.8333
L111.8834 79.6429
" />
<path d="M111.8834 79.6429
L111.9310 79.5476
" />
<path d="M111.9310 79.5476
L111.9786 79.5000
" />
<path d="M111.9786 79.5000
L112.0739 79.4524
" />
<path d="M112.0739 79.4524
L112.2643 79.4524
" />
<path d="M112.2643 79.4524
L112.3596 79.5000
" />
<path d="M112.3596 79.5000
L112.4072 79.5476
" />
<path d="M112.4072 79.5476
L112.4548 79.6429
" />
<path d="M112.4548 79.6429
L112.4548 79.8333
" />
<path d="M112.4548 79.8333
L112.4072 79.9286
" />
<path d="M112.4072 79.9286
L112.3596 79.9762
" />
<path d="M112.3596 79.9762
L112.2643 80.0238
" />
<path d="M112.2643 80.0238
L112.0739 80.0238
" />
<path d="M112.0739 80.0238
L111.9786 79.9762
" />
<path d="M111.9786 79.9762
L111.9310 79.9286
" />
<path d="M111.9310 79.9286
L111.8834 79.8333
" />
<path d="M111.7882 80.3571
L112.4548 80.5952
" />
<path d="M112.4548 80.5952
L111.7882 80.8333
" />
<path d="M112.4548 81.6429
L111.9310 81.6429
" />
<path d="M111.9310 81.6429
L111.8358 81.5952
" />
<path d="M111.8358 81.5952
L111.7882 81.5000
" />
<path d="M111.7882 81.5000
L111.7882 81.3095
" />
<path d="M111.7882 81.3095
L111.8358 81.2143
" />
<path d="M112.4072 81.6429
L112.4548 81.5476
" />
<path d="M112.4548 81.5476
L112.4548 81.3095
" />
<path d="M112.4548 81.3095
L112.4072 81.2143
" />
<path d="M112.4072 81.2143
L112.3120 81.1667
" />
<path d="M112.3120 81.1667
L112.2167 81.1667
" />
<path d="M112.2167 81.1667
L112.1215 81.2143
" />
<path d="M112.1215 81.2143
L112.0739 81.3095
" />
<path d="M112.0739 81.3095
L112.0739 81.5476
" />
<path d="M112.0739 81.5476
L112.0262 81.6429
" />
<path d="M112.4548 82.6429
L112.4548 82.0714
" />
<path d="M112.4548 82.3571
L111.4548 82.3571
" />
<path d="M111.4548 82.3571
L111.5977 82.2619
" />
<path d="M111.5977 82.2619
L111.6929 82.1667
" />
<path d="M111.6929 82.1667
L111.7405 82.0714
" />
</g><g transform="rotate(-90.000000 59.6700 207.0000)">
<text x="59.6700" y="207.5000"
transform="scale(-1 1) translate(-119.340000 0)"
textLength="1.9643" font-size="1.3333" lengthAdjust="spacingAndGlyphs"
text-anchor="middle" opacity="0" stroke-opacity="0">J3</text>
</g>
<g class="stroked-text"><desc>J3</desc>
<path d="M59.1248 206.6667
L59.8391 206.6667
" />
<path d="M59.8391 206.6667
L59.9820 206.6190
" />
<path d="M59.9820 206.6190
L60.0772 206.5238
" />
<path d="M60.0772 206.5238
L60.1248 206.3810
" />
<path d="M60.1248 206.3810
L60.1248 206.2857
" />
<path d="M59.1248 207.0476
L59.1248 207.6667
" />
<path d="M59.1248 207.6667
L59.5058 207.3333
" />
<path d="M59.5058 207.3333
L59.5058 207.4762
" />
<path d="M59.5058 207.4762
L59.5534 207.5714
" />
<path d="M59.5534 207.5714
L59.6010 207.6190
" />
<path d="M59.6010 207.6190
L59.6962 207.6667
" />
<path d="M59.6962 207.6667
L59.9343 207.6667
" />
<path d="M59.9343 207.6667
L60.0296 207.6190
" />
<path d="M60.0296 207.6190
L60.0772 207.5714
" />
<path d="M60.0772 207.5714
L60.1248 207.4762
" />
<path d="M60.1248 207.4762
L60.1248 207.1905
" />
<path d="M60.1248 207.1905
L60.0772 207.0952
" />
<path d="M60.0772 207.0952
L60.0296 207.0476
" />
</g><g transform="rotate(-270.000000 88.0000 94.0000)">
<text x="88.0000" y="94.5000"
transform="scale(-1 1) translate(-176.000000 0)"
textLength="5.9167" font-size="1.3333" lengthAdjust="spacingAndGlyphs"
text-anchor="middle" opacity="0" stroke-opacity="0">SW8vb1</text>
</g>
<g class="stroked-text"><desc>SW8vb1</desc>
<path d="M87.5928 96.6429
L87.5452 96.5000
" />
<path d="M87.5452 96.5000
L87.5452 96.2619
" />
<path d="M87.5452 96.2619
L87.5928 96.1667
" />
<path d="M87.5928 96.1667
L87.6404 96.1190
" />
<path d="M87.6404 96.1190
L87.7357 96.0714
" />
<path d="M87.7357 96.0714
L87.8309 96.0714
" />
<path d="M87.8309 96.0714
L87.9261 96.1190
" />
<path d="M87.9261 96.1190
L87.9738 96.1667
" />
<path d="M87.9738 96.1667
L88.0214 96.2619
" />
<path d="M88.0214 96.2619
L88.0690 96.4524
" />
<path d="M88.0690 96.4524
L88.1166 96.5476
" />
<path d="M88.1166 96.5476
L88.1642 96.5952
" />
<path d="M88.1642 96.5952
L88.2595 96.6429
" />
<path d="M88.2595 96.6429
L88.3547 96.6429
" />
<path d="M88.3547 96.6429
L88.4499 96.5952
" />
<path d="M88.4499 96.5952
L88.4976 96.5476
" />
<path d="M88.4976 96.5476
L88.5452 96.4524
" />
<path d="M88.5452 96.4524
L88.5452 96.2143
" />
<path d="M88.5452 96.2143
L88.4976 96.0714
" />
<path d="M88.5452 95.7381
L87.5452 95.5000
" />
<path d="M87.5452 95.5000
L88.2595 95.3095
" />
<path d="M88.2595 95.3095
L87.5452 95.1190
" />
<path d="M87.5452 95.1190
L88.5452 94.8810
" />
<path d="M88.1166 94.3571
L88.1642 94.4524
" />
<path d="M88.1642 94.4524
L88.2118 94.5000
" />
<path d="M88.2118 94.5000
L88.3071 94.5476
" />
<path d="M88.3071 94.5476
L88.3547 94.5476
" />
<path d="M88.3547 94.5476
L88.4499 94.5000
" />
<path d="M88.4499 94.5000
L88.4976 94.4524
" />
<path d="M88.4976 94.4524
L88.5452 94.3571
" />
<path d="M88.5452 94.3571
L88.5452 94.1667
" />
<path d="M88.5452 94.1667
L88.4976 94.0714
" />
<path d="M88.4976 94.0714
L88.4499 94.0238
" />
<path d="M88.4499 94.0238
L88.3547 93.9762
" />
<path d="M88.3547 93.9762
L88.3071 93.9762
" />
<path d="M88.3071 93.9762
L88.2118 94.0238
" />
<path d="M88.2118 94.0238
L88.1642 94.0714
" />
<path d="M88.1642 94.0714
L88.1166 94.1667
" />
<path d="M88.1166 94.1667
L88.1166 94.3571
" />
<path d="M88.1166 94.3571
L88.0690 94.4524
" />
<path d="M88.0690 94.4524
L88.0214 94.5000
" />
<path d="M88.0214 94.5000
L87.9261 94.5476
" />
<path d="M87.9261 94.5476
L87.7357 94.5476
" />
<path d="M87.7357 94.5476
L87.6404 94.5000
" />
<path d="M87.6404 94.5000
L87.5928 94.4524
" />
<path d="M87.5928 94.4524
L87.5452 94.3571
" />
<path d="M87.5452 94.3571
L87.5452 94.1667
" />
<path d="M87.5452 94.1667
L87.5928 94.0714
" />
<path d="M87.5928 94.0714
L87.6404 94.0238
" />
<path d="M87.6404 94.0238
L87.7357 93.9762
" />
<path d="M87.7357 93.9762
L87.9261 93.9762
" />
<path d="M87.9261 93.9762
L88.0214 94.0238
" />
<path d="M88.0214 94.0238
L88.0690 94.0714
" />
<path d="M88.0690 94.0714
L88.1166 94.1667
" />
<path d="M88.2118 93.6429
L87.5452 93.4048
" />
<path d="M87.5452 93.4048
L88.2118 93.1667
" />
<path d="M87.5452 92.7857
L88.5452 92.7857
" />
<path d="M88.1642 92.7857
L88.2118 92.6905
" />
<path d="M88.2118 92.6905
L88.2118 92.5000
" />
<path d="M88.2118 92.5000
L88.1642 92.4048
" />
<path d="M88.1642 92.4048
L88.1166 92.3571
" />
<path d="M88.1166 92.3571
L88.0214 92.3095
" />
<path d="M88.0214 92.3095
L87.7357 92.3095
" />
<path d="M87.7357 92.3095
L87.6404 92.3571
" />
<path d="M87.6404 92.3571
L87.5928 92.4048
" />
<path d="M87.5928 92.4048
L87.5452 92.5000
" />
<path d="M87.5452 92.5000
L87.5452 92.6905
" />
<path d="M87.5452 92.6905
L87.5928 92.7857
" />
<path d="M87.5452 91.3571
L87.5452 91.9286
" />
<path d="M87.5452 91.6429
L88.5452 91.6429
" />
<path d="M88.5452 91.6429
L88.4023 91.7381
" />
<path d="M88.4023 91.7381
L88.3071 91.8333
" />
<path d="M88.3071 91.8333
L88.2595 91.9286
" />
</g><text x="74.6300" y="205.0300"
transform="scale(-1 1) translate(-149.260000 0)"
textLength="2.2024" font-size="1.3333" lengthAdjust="spacingAndGlyphs"
text-anchor="middle" opacity="0" stroke-opacity="0">D1</text>
<g class="stroked-text"><desc>D1</desc>
<path d="M75.3681 204.9848
L75.3681 203.9848
" />
<path d="M75.3681 203.9848
L75.1300 203.9848
" />
<path d="M75.1300 203.9848
L74.9871 204.0324
" />
<path d="M74.9871 204.0324
L74.8919 204.1277
" />
<path d="M74.8919 204.1277
L74.8443 204.2229
" />
<path d="M74.8443 204.2229
L74.7967 204.4134
" />
<path d="M74.7967 204.4134
L74.7967 204.5562
" />
<path d="M74.7967 204.5562
L74.8443 204.7467
" />
<path d="M74.8443 204.7467
L74.8919 204.8420
" />
<path d="M74.8919 204.8420
L74.9871 204.9372
" />
<path d="M74.9871 204.9372
L75.1300 204.9848
" />
<path d="M75.1300 204.9848
L75.3681 204.9848
" />
<path d="M73.8443 204.9848
L74.4157 204.9848
" />
<path d="M74.1300 204.9848
L74.1300 203.9848
" />
<path d="M74.1300 203.9848
L74.2252 204.1277
" />
<path d="M74.2252 204.1277
L74.3205 204.2229
" />
<path d="M74.3205 204.2229
L74.4157 204.2705
" />
</g><text x="79.7100" y="205.4000"
transform="scale(-1 1) translate(-159.420000 0)"
textLength="1.2500" font-size="1.3333" lengthAdjust="spacingAndGlyphs"
text-anchor="middle" opacity="0" stroke-opacity="0">K</text>
<g class="stroked-text"><desc>K</desc>
<path d="M79.9719 205.3548
L79.9719 204.3548
" />
<path d="M79.4005 205.3548
L79.8290 204.7834
" />
<path d="M79.4005 204.3548
L79.9719 204.9262
" />
</g><path style="fill:none; 
stroke:#000000; stroke-width:0.1000; stroke-opacity:1; 
stroke-linecap:round; stroke-linejoin:round;fill:none"
d="M 113.0000,78.0000
131.0000,78.0000
131.0000,96.0000
113.0000,96.0000
Z" /> 
</g>
<g style="fill:none; 
stroke:#000000; stroke-width:0.1000; stroke-opacity:1; 
stroke-linecap:round; stroke-linejoin:round;">
<path d="M114.2500 79.2500
L115.3500 79.2500
" />
<path d="M115.7500 79.2500
L116.8500 79.2500
" />
<path d="M117.2500 79.2500
L118.3500 79.2500
" />
<path d="M118.7500 79.2500
L119.8500 79.2500
" />
<path d="M120.2500 79.2500
L121.3500 79.2500
" />
<path d="M121.7500 79.2500
L122.8500 79.2500
" />
<path d="M123.2500 79.2500
L124.3500 79.2500
" />
<path d="M124.7500 79.2500
L125.8500 79.2500
" />
<path d="M126.2500 79.2500
L127.3500 79.2500
" />
<path d="M127.7500 79.2500
L128.8500 79.2500
" />
<path d="M129.2500 79.2500
L129.7500 79.2500
" />
<path d="M129.7500 79.2500
L129.7500 80.3500
" />
<path d="M129.7500 80.7500
L129.7500 81.8500
" />
<path d="M129.7500 82.2500
L129.7500 83.3500
" />
<path d="M129.7500 83.7500
L129.7500 84.8500
" />
<path d="M129.7500 85.2500
L129.7500 86.3500
" />
<path d="M129.7500 86.7500
L129.7500 87.8500
" />
<path d="M129.7500 88.2500
L129.7500 89.3500
" />
<path d="M129.7500 89.7500
L129.7500 90.8500
" />
<path d="M129.7500 91.2500
L129.7500 92.3500
" />
<path d="M129.7500 92.7500
L129.7500 93.8500
" />
<path d="M129.7500 94.2500
L129.7500 94.7500
" />
<path d="M129.7500 94.7500
L128.6500 94.7500
" />
<path d="M128.2500 94.7500
L127.1500 94.7500
" />
<path d="M126.7500 94.7500
L125.6500 94.7500
" />
<path d="M125.2500 94.7500
L124.1500 94.7500
" />
<path d="M123.7500 94.7500
L122.6500 94.7500
" />
<path d="M122.2500 94.7500
L121.1500 94.7500
" />
<path d="M120.7500 94.7500
L119.6500 94.7500
" />
<path d="M119.2500 94.7500
L118.1500 94.7500
" />
<path d="M117.7500 94.7500
L116.6500 94.7500
" />
<path d="M116.2500 94.7500
L115.1500 94.7500
" />
<path d="M114.7500 94.7500
L114.2500 94.7500
" />
<path d="M114.2500 94.7500
L114.2500 93.6500
" />
<path d="M114.2500 93.2500
L114.2500 92.1500
" />
<path d="M114.2500 91.7500
L114.2500 90.6500
" />
<path d="M114.2500 90.2500
L114.2500 89.1500
" />
<path d="M114.2500 88.7500
L114.2500 87.6500
" />
<path d="M114.2500 87.2500
L114.2500 86.1500
" />
<path d="M114.2500 85.7500
L114.2500 84.6500
" />
<path d="M114.2500 84.2500
L114.2500 83.1500
" />
<path d="M114.2500 82.7500
L114.2500 81.6500
" />
<path d="M114.2500 81.2500
L114.2500 80.1500
" />
<path d="M114.2500 79.7500
L114.2500 79.2500
" />
</g>
<g style="fill:none; 
stroke:#000000; stroke-width:0.1200; stroke-opacity:1; 
stroke-linecap:round; stroke-linejoin:round;">
<path d="M60.6700 205.6700
L60.6700 207.0000
" />
<path d="M62.0000 205.6700
L60.6700 205.6700
" />
<path d="M63.2700 205.6700
L63.2700 208.3300
" />
<path d="M63.2700 205.6700
L65.8700 205.6700
" />
<path d="M63.2700 208.3300
L65.8700 208.3300
" />
<path d="M65.8700 205.6700
L65.8700 208.3300
" />
</g>
<g style="fill:none; 
stroke:#000000; stroke-width:0.1000; stroke-opacity:1; 
stroke-linecap:round; stroke-linejoin:round;">
<path d="M85.7500 94.7500
L84.6500 94.7500
" />
<path d="M84.2500 94.7500
L83.1500 94.7500
" />
<path d="M82.7500 94.7500
L81.6500 94.7500
" />
<path d="M81.2500 94.7500
L80.1500 94.7500
" />
<path d="M79.7500 94.7500
L78.6500 94.7500
" />
<path d="M78.2500 94.7500
L77.1500 94.7500
" />
<path d="M76.7500 94.7500
L75.6500 94.7500
" />
<path d="M75.2500 94.7500
L74.1500 94.7500
" />
<path d="M73.7500 94.7500
L72.6500 94.7500
" />
<path d="M72.2500 94.7500
L71.1500 94.7500
" />
<path d="M70.7500 94.7500
L70.2500 94.7500
" />
<path d="M70.2500 94.7500
L70.2500 93.6500
" />
<path d="M70.2500 93.2500
L70.2500 92.1500
" />
<path d="M70.2500 91.7500
L70.2500 90.6500
" />
<path d="M70.2500 90.2500
L70.2500 89.1500
" />
<path d="M70.2500 88.7500
L70.2500 87.6500
" />
<path d="M70.2500 87.2500
L70.2500 86.1500
" />
<path d="M70.2500 85.7500
L70.2500 84.6500
" />
<path d="M70.2500 84.2500
L70.2500 83.1500
" />
<path d="M70.2500 82.7500
L70.2500 81.6500
" />
<path d="M70.2500 81.2500
L70.2500 80.1500
" />
<path d="M70.2500 79.7500
L70.2500 79.2500
" />
<path d="M70.2500 79.2500
L71.3500 79.2500
" />
<path d="M71.7500 79.2500
L72.8500 79.2500
" />
<path d="M73.2500 79.2500
L74.3500 79.2500
" />
<path d="M74.7500 79.2500
L75.8500 79.2500
" />
<path d="M76.2500 79.2500
L77.3500 79.2500
" />
<path d="M77.7500 79.2500
L78.8500 79.2500
" />
<path d="M79.2500 79.2500
L80.3500 79.2500
" />
<path d="M80.7500 79.2500
L81.8500 79.2500
" />
<path d="M82.2500 79.2500
L83.3500 79.2500
" />
<path d="M83.7500 79.2500
L84.8500 79.2500
" />
<path d="M85.2500 79.2500
L85.7500 79.2500
" />
<path d="M85.7500 79.2500
L85.7500 80.3500
" />
<path d="M85.7500 80.7500
L85.7500 81.8500
" />
<path d="M85.7500 82.2500
L85.7500 83.3500
" />
<path d="M85.7500 83.7500
L85.7500 84.8500
" />
<path d="M85.7500 85.2500
L85.7500 86.3500
" />
<path d="M85.7500 86.7500
L85.7500 87.8500
" />
<path d="M85.7500 88.2500
L85.7500 89.3500
" />
<path d="M85.7500 89.7500
L85.7500 90.8500
" />
<path d="M85.7500 91.2500
L85.7500 92.3500
" />
<path d="M85.7500 92.7500
L85.7500 93.8500
" />
<path d="M85.7500 94.2500
L85.7500 94.7500
" />
<path style="fill:none; 
stroke:#000000; stroke-width:0.1000; stroke-opacity:1; 
stroke-linecap:round; stroke-linejoin:round;fill:none"
d="M 87.0000,96.0000
69.0000,96.0000
69.0000,78.0000
87.0000,78.0000
Z" /> 
</g>
<g style="fill:none; 
stroke:#000000; stroke-width:0.1200; stroke-opacity:1; 
stroke-linecap:round; stroke-linejoin:round;">
<path d="M70.8900 207.0000
L71.9100 207.0000
" />
<path d="M71.9100 205.5300
L77.3500 205.5300
" />
<path d="M71.9100 208.4700
L71.9100 205.5300
" />
<path d="M76.3300 205.5300
L76.3300 208.4700
" />
<path d="M76.4500 205.5300
L76.4500 208.4700
" />
<path d="M76.5700 205.5300
L76.5700 208.4700
" />
<path d="M77.3500 205.5300
L77.3500 208.4700
" />
<path d="M77.3500 208.4700
L71.9100 208.4700
" />
<path d="M78.3700 207.0000
L77.3500 207.0000
" />
</g> 
</svg>
