<?xml version="1.0"?>
<!DOCTYPE svg PUBLIC "-//W3C//DTD SVG 1.1//EN" "http://www.w3.org/Graphics/SVG/1.1/DTD/svg11.dtd">
<svg width="40.800000000000054mm" height="55.80000000000006mm" viewBox="0 0 40.800000000000054 55.80000000000006" xmlns="http://www.w3.org/2000/svg" version="1.1">
<g id="Body" transform="translate(20.400000,0.400000) scale(1,-1)">
<path id="Body_f0000"  d="M -20.00000000000002 -1.9984014443252826e-15 L -20.00000000000002 -2.2204460492502894e-16 L -20.000000000000025 -25.00000000000001 L -20.000000000000025 -25.00000000000003 L -20.00000000000002 -1.998401444325287e-15 Z " stroke="#191919" stroke-width="0.7 px" style="stroke-width:0.7;stroke-miterlimit:4;stroke-dasharray:none;stroke-linecap:square;fill:#727980;fill-opacity:1.0;fill-rule: evenodd"/>
<path id="Body_f0001"  d="M 20.00000000000002 -1.9984014443252865e-15 L 20.00000000000002 -2.2204460492503091e-16 M 20.000000000000025 6.125211896056513e-32 L 10.000000000000018 2.2204460492503174e-15 L -10.000000000000021 1.998401444325287e-15 M -10.000000000000028 2.220446049250317e-15 L -20.000000000000025 1.120664825761892e-31 L -20.000000000000025 -1.998401444325287e-15 L 20.000000000000025 -1.998401444325287e-15 Z M 2.5000000000000013 0.0 M 2.500000000000001 0.0 L 2.500000000000001 -1.359631073446891e-31 Z " stroke="#191919" stroke-width="0.7 px" style="stroke-width:0.7;stroke-miterlimit:4;stroke-dasharray:none;stroke-linecap:square;fill:#727980;fill-opacity:1.0;fill-rule: evenodd"/>
<path id="Body_f0002"  d="M -20.000000000000025 -25.00000000000001 M -20.000000000000025 -25.00000000000003 L -10.000000000000032 -25.000000000000025 L -10.000000000000021 3.549874073494553e-30 M -10.000000000000028 2.220446049250317e-15 L -20.000000000000025 1.120664825761892e-31 L -20.000000000000025 -25.00000000000001 Z " stroke="#191919" stroke-width="0.7 px" style="stroke-width:0.7;stroke-miterlimit:4;stroke-dasharray:none;stroke-linecap:square;fill:#727980;fill-opacity:1.0;fill-rule: evenodd"/>
<circle cx="-10.000000000000002" cy="-20.000000000000007" r="1.5000000000000004" stroke="#191919" stroke-width="0.7 px" style="stroke-width:0.7;stroke-miterlimit:4;stroke-dasharray:none;stroke-linecap:square;fill:#727980"/>
<path id="Body_f0004"  d="M 20.000000000000025 -25.00000000000001 M 20.000000000000025 -25.00000000000003 L 10.000000000000018 -25.000000000000025 L -10.000000000000021 -25.00000000000001 M -10.000000000000028 -25.000000000000025 L -20.000000000000025 -25.00000000000003 L -20.000000000000025 -25.00000000000003 L 20.000000000000025 -25.00000000000003 L 20.00000000000002 -25.000000000000025 Z M -7.500000000000009 -25.000000000000032 M -7.500000000000008 -25.000000000000032 L -7.500000000000008 -25.000000000000025 L 7.500000000000004 -25.000000000000025 M 7.500000000000004 -25.000000000000025 L 7.500000000000007 -25.000000000000032 L -7.500000000000009 -25.000000000000032 Z " stroke="#191919" stroke-width="0.7 px" style="stroke-width:0.7;stroke-miterlimit:4;stroke-dasharray:none;stroke-linecap:square;fill:#727980;fill-opacity:1.0;fill-rule: evenodd"/>
<path id="Body_f0005"  d="M -10.000000000000007 1.9984014443252865e-15 L 10.000000000000023 1.9984014443252865e-15 L 10.000000000000021 -25.00000000000001 L -10.000000000000021 -25.00000000000001 L -10.000000000000021 3.549874073494553e-30 Z " stroke="#191919" stroke-width="0.7 px" style="stroke-width:0.7;stroke-miterlimit:4;stroke-dasharray:none;stroke-linecap:square;fill:#727980;fill-opacity:1.0;fill-rule: evenodd"/>
<path id="Body_f0006"  d="M 20.000000000000025 -25.00000000000001 L 20.000000000000025 -25.00000000000003 L 20.00000000000002 -1.998401444325287e-15 L 20.00000000000002 -2.2204460492503091e-16 L 20.000000000000025 -25.00000000000001 Z " stroke="#191919" stroke-width="0.7 px" style="stroke-width:0.7;stroke-miterlimit:4;stroke-dasharray:none;stroke-linecap:square;fill:#727980;fill-opacity:1.0;fill-rule: evenodd"/>
<path id="Body_f0007"  d="M 20.000000000000025 -2.2204460492503017e-16 M 20.000000000000025 6.125211896056513e-32 L 10.000000000000018 2.2204460492503174e-15 L 10.000000000000021 -25.00000000000001 M 10.000000000000016 -25.000000000000025 L 20.000000000000025 -25.00000000000003 L 20.000000000000025 -2.465190328815662e-31 Z " stroke="#191919" stroke-width="0.7 px" style="stroke-width:0.7;stroke-miterlimit:4;stroke-dasharray:none;stroke-linecap:square;fill:#727980;fill-opacity:1.0;fill-rule: evenodd"/>
<path id="Body_f0008"  d="M 2.5000000000000013 0.0 M 2.500000000000001 0.0 L 2.500000000000001 -1.359631073446891e-31 L 2.5000000000000013 -3.000000000000002 M 2.500000000000001 -3.000000000000002 L 2.500000000000001 -3.000000000000002 Z " stroke="#191919" stroke-width="0.7 px" style="stroke-width:0.7;stroke-miterlimit:4;stroke-dasharray:none;stroke-linecap:square;fill:#727980;fill-opacity:1.0;fill-rule: evenodd"/>
<circle cx="-10.000000000000002" cy="-20.000000000000007" r="1.5000000000000004" stroke="#191919" stroke-width="0.7 px" style="stroke-width:0.7;stroke-miterlimit:4;stroke-dasharray:none;stroke-linecap:square;fill:#727980"/>
<circle cx="0.0" cy="-20.0" r="2.0" stroke="#191919" stroke-width="0.7 px" style="stroke-width:0.7;stroke-miterlimit:4;stroke-dasharray:none;stroke-linecap:square;fill:#727980"/>
<circle cx="10.0" cy="-20.000000000000007" r="1.5000000000000004" stroke="#191919" stroke-width="0.7 px" style="stroke-width:0.7;stroke-miterlimit:4;stroke-dasharray:none;stroke-linecap:square;fill:#727980"/>
<circle cx="-15.000000000000004" cy="-5.000000000000003" r="1.5000000000000004" stroke="#191919" stroke-width="0.7 px" style="stroke-width:0.7;stroke-miterlimit:4;stroke-dasharray:none;stroke-linecap:square;fill:#727980"/>
<circle cx="15.000000000000004" cy="-5.000000000000006" r="1.5000000000000004" stroke="#191919" stroke-width="0.7 px" style="stroke-width:0.7;stroke-miterlimit:4;stroke-dasharray:none;stroke-linecap:square;fill:#727980"/>
<path id="Body_f0014"  d="M -7.500000000000008 -25.000000000000025 L -7.500000000000008 -55.00000000000006 L 7.500000000000004 -55.00000000000006 L 7.500000000000004 -25.000000000000025 L -7.500000000000009 -25.000000000000025 Z " stroke="#191919" stroke-width="0.7 px" style="stroke-width:0.7;stroke-miterlimit:4;stroke-dasharray:none;stroke-linecap:square;fill:#727980;fill-opacity:1.0;fill-rule: evenodd"/>
<path id="Body_f0015"  d="M 7.500000000000002 -25.000000000000025 M 7.500000000000002 -25.000000000000025 L 7.500000000000009 -25.000000000000025 L 7.500000000000005 -55.00000000000006 M 7.500000000000005 -55.00000000000006 L 7.5000000000000036 -55.00000000000005 L 7.500000000000004 -25.000000000000025 Z " stroke="#191919" stroke-width="0.7 px" style="stroke-width:0.7;stroke-miterlimit:4;stroke-dasharray:none;stroke-linecap:square;fill:#727980;fill-opacity:1.0;fill-rule: evenodd"/>
<path id="Body_f0016"  d="M 7.499999999999992 -25.00000000000003 L -7.500000000000008 -25.00000000000003 L -7.500000000000008 -55.00000000000006 L 7.500000000000005 -55.00000000000006 L 7.500000000000005 -25.000000000000032 Z " stroke="#191919" stroke-width="0.7 px" style="stroke-width:0.7;stroke-miterlimit:4;stroke-dasharray:none;stroke-linecap:square;fill:#727980;fill-opacity:1.0;fill-rule: evenodd"/>
<path id="Body_f0017"  d="M -7.500000000000008 -25.000000000000025 M -7.500000000000008 -25.000000000000025 L -7.500000000000009 -25.000000000000025 L -7.500000000000008 -55.00000000000006 M -7.500000000000009 -55.00000000000005 L -7.500000000000009 -55.00000000000006 L -7.500000000000009 -25.000000000000032 Z " stroke="#191919" stroke-width="0.7 px" style="stroke-width:0.7;stroke-miterlimit:4;stroke-dasharray:none;stroke-linecap:square;fill:#727980;fill-opacity:1.0;fill-rule: evenodd"/>
<path id="Body_f0018"  d="M 5.0000000000000036 -3.000000000000001 M 5.000000000000003 -3.000000000000003 L 5.000000000000002 -3.000000000000001 L -5.000000000000002 -3.0000000000000027 M -5.0000000000000036 -3.000000000000001 L -5.0000000000000036 -3.000000000000003 L 5.0000000000000036 -3.000000000000001 Z M 2.5000000000000013 -3.000000000000002 M 2.500000000000001 -3.000000000000002 L 2.500000000000001 -3.000000000000002 Z " stroke="#191919" stroke-width="0.7 px" style="stroke-width:0.7;stroke-miterlimit:4;stroke-dasharray:none;stroke-linecap:square;fill:#727980;fill-opacity:1.0;fill-rule: evenodd"/>
<circle cx="-10.000000000000002" cy="-20.000000000000004" r="1.5000000000000004" stroke="#191919" stroke-width="0.7 px" style="stroke-width:0.7;stroke-miterlimit:4;stroke-dasharray:none;stroke-linecap:square;fill:#727980"/>
<circle cx="0.0" cy="-20.0" r="2.0" stroke="#191919" stroke-width="0.7 px" style="stroke-width:0.7;stroke-miterlimit:4;stroke-dasharray:none;stroke-linecap:square;fill:#727980"/>
<circle cx="9.999999999999998" cy="-20.00000000000001" r="1.5000000000000004" stroke="#191919" stroke-width="0.7 px" style="stroke-width:0.7;stroke-miterlimit:4;stroke-dasharray:none;stroke-linecap:square;fill:#727980"/>
<circle cx="-15.000000000000004" cy="-5.000000000000003" r="1.5000000000000004" stroke="#191919" stroke-width="0.7 px" style="stroke-width:0.7;stroke-miterlimit:4;stroke-dasharray:none;stroke-linecap:square;fill:#727980"/>
<circle cx="15.000000000000002" cy="-5.000000000000006" r="1.5000000000000004" stroke="#191919" stroke-width="0.7 px" style="stroke-width:0.7;stroke-miterlimit:4;stroke-dasharray:none;stroke-linecap:square;fill:#727980"/>
<path id="Body_f0024"  d="M 7.500000000000005 -55.00000000000006 M 7.500000000000005 -55.00000000000006 L 7.5000000000000036 -55.00000000000005 L -7.500000000000009 -55.00000000000005 M -7.500000000000009 -55.00000000000005 L -7.500000000000009 -55.00000000000006 L 7.500000000000005 -55.00000000000006 Z M -5.0000000000000036 -55.00000000000006 M -5.0000000000000036 -55.000000000000064 L -5.000000000000004 -55.000000000000064 L 5.000000000000002 -55.00000000000006 M 5.000000000000002 -55.00000000000006 L 5.000000000000004 -55.00000000000006 L -5.0000000000000036 -55.00000000000006 Z " stroke="#191919" stroke-width="0.7 px" style="stroke-width:0.7;stroke-miterlimit:4;stroke-dasharray:none;stroke-linecap:square;fill:#727980;fill-opacity:1.0;fill-rule: evenodd"/>
<path id="Body_f0025"  d="M -5.0000000000000036 -3.0000000000000355 L -5.0000000000000036 -55.00000000000006 M -5.000000000000003 -55.00000000000005 L -5.0000000000000036 -55.00000000000005 L -5.0000000000000036 -3.000000000000002 M -5.0000000000000036 -3.000000000000001 L -5.0000000000000036 -3.000000000000003 Z " stroke="#191919" stroke-width="0.7 px" style="stroke-width:0.7;stroke-miterlimit:4;stroke-dasharray:none;stroke-linecap:square;fill:#727980;fill-opacity:1.0;fill-rule: evenodd"/>
<path id="Body_f0026"  d="M 4.9999999999999964 -3.0000000000000027 L -5.000000000000002 -3.0000000000000027 L -5.0000000000000036 -55.00000000000006 L 5.000000000000002 -55.00000000000006 L 5.000000000000002 -3.000000000000002 Z " stroke="#191919" stroke-width="0.7 px" style="stroke-width:0.7;stroke-miterlimit:4;stroke-dasharray:none;stroke-linecap:square;fill:#727980;fill-opacity:1.0;fill-rule: evenodd"/>
<path id="Body_f0027"  d="M 5.0000000000000036 -3.0000000000000355 L 5.0000000000000036 -55.00000000000006 L -5.0000000000000036 -55.00000000000006 L -5.0000000000000036 -3.000000000000001 L 5.0000000000000036 -3.000000000000001 Z " stroke="#191919" stroke-width="0.7 px" style="stroke-width:0.7;stroke-miterlimit:4;stroke-dasharray:none;stroke-linecap:square;fill:#727980;fill-opacity:1.0;fill-rule: evenodd"/>
<path id="Body_f0028"  d="M 5.000000000000002 -3.0000000000000355 L 5.000000000000002 -55.00000000000006 M 5.0 -55.00000000000005 L 5.000000000000004 -55.00000000000005 L 5.0000000000000036 -3.000000000000001 M 5.000000000000003 -3.000000000000003 L 5.000000000000002 -3.000000000000001 Z " stroke="#191919" stroke-width="0.7 px" style="stroke-width:0.7;stroke-miterlimit:4;stroke-dasharray:none;stroke-linecap:square;fill:#727980;fill-opacity:1.0;fill-rule: evenodd"/>
<title>b'Body'</title>
</g>
</svg>