0
SECTION
2
HEADER
9
$INSUNITS
70
4
9
$ACADVER
1
AC1014
9
$HANDSEED
5
FFFF
0
ENDSEC
0
SECTION
2
TABLES
0
TABLE
2
VPORT
5
8
100
AcDbSymbolTable
0
ENDTAB
0
TABLE
2
LTYPE
5
5
100
AcDbSymbolTable
0
LTYPE
5
14
100
AcDbSymbolTableRecord
100
AcDbLinetypeTableRecord
2
BYBLOCK
70
0
0
LTYPE
5
15
100
AcDbSymbolTableRecord
100
AcDbLinetypeTableRecord
2
BYLAYER
70
0
0
ENDTAB
0
TABLE
2
LAYER
5
2
100
AcDbSymbolTable
70
2
0
LAYER
5
50
100
AcDbSymbolTableRecord
100
AcDbLayerTableRecord
2
0
70
0
6
CONTINUOUS
0
ENDTAB
0
TABLE
2
STYLE
5
3
100
AcDbSymbolTable
70
1
0
STYLE
5
11
100
AcDbSymbolTableRecord
100
AcDbTextStyleTableRecord
2
STANDARD
70
0
0
ENDTAB
0
TABLE
2
VIEW
5
6
100
AcDbSymbolTable
70
0
0
ENDTAB
0
TABLE
2
UCS
5
7
100
AcDbSymbolTable
70
0
0
ENDTAB
0
TABLE
2
APPID
5
9
100
AcDbSymbolTable
70
2
0
APPID
5
12
100
AcDbSymbolTableRecord
100
AcDbRegAppTableRecord
2
ACAD
70
0
0
ENDTAB
0
TABLE
2
DIMSTYLE
5
A
100
AcDbSymbolTable
70
1
0
ENDTAB
0
TABLE
2
BLOCK_RECORD
5
1
100
AcDbSymbolTable
70
1
0
BLOCK_RECORD
5
1F
100
AcDbSymbolTableRecord
100
AcDbBlockTableRecord
2
*MODEL_SPACE
0
BLOCK_RECORD
5
1B
100
AcDbSymbolTableRecord
100
AcDbBlockTableRecord
2
*PAPER_SPACE
0
ENDTAB
0
ENDSEC
0
SECTION
2
BLOCKS
0
BLOCK
5
20
100
AcDbEntity
100
AcDbBlockBegin
2
*MODEL_SPACE
0
ENDBLK
5
21
100
AcDbEntity
100
AcDbBlockEnd
0
BLOCK
5
1C
100
AcDbEntity
100
AcDbBlockBegin
2
*PAPER_SPACE
0
ENDBLK
5
1D
100
AcDbEntity
100
AcDbBlockEnd
0
ENDSEC
0
SECTION
2
ENTITIES
0
LINE
5
100
100
AcDbEntity
8
0
100
AcDbLine
10
25.0225501987785
20
-24.998941020383903
30
0
11
0.022550198778500678
21
-24.998941020383903
31
0
0
LINE
5
101
100
AcDbEntity
8
0
100
AcDbLine
10
25.0225501987785
20
-21.998941020383903
30
0
11
28.000000315196445
21
-21.998941020383821
31
0
0
LINE
5
102
100
AcDbEntity
8
0
100
AcDbLine
10
28.000000315196445
20
-21.998941020383821
30
0
11
28.000000315196445
21
-16.998941020383906
31
0
0
LINE
5
103
100
AcDbEntity
8
0
100
AcDbLine
10
28.000000315196445
20
-16.998941020383906
30
0
11
25.000000315196445
21
-16.998941020383906
31
0
0
LINE
5
104
100
AcDbEntity
8
0
100
AcDbLine
10
24.99999997799998
20
-2.9999999999999987
30
0
11
28.000000312924357
21
-2.9999999999999987
31
0
0
LINE
5
105
100
AcDbEntity
8
0
100
AcDbLine
10
28.000000312924357
20
-2.9999999999999987
30
0
11
28.000000312924357
21
-7.9999999999999991
31
0
0
LINE
5
106
100
AcDbEntity
8
0
100
AcDbLine
10
28.000000312924357
20
-7.9999999999999991
30
0
11
25.000000312924357
21
-7.9999999999999991
31
0
0
LINE
5
107
100
AcDbEntity
8
0
100
AcDbLine
10
25.000000315095612
20
-13.998941020383917
30
0
11
21.000000315095594
21
-13.99894102038389
31
0
0
LINE
5
108
100
AcDbEntity
8
0
100
AcDbLine
10
21.000000315095594
20
-13.99894102038389
30
0
11
21.000000315095633
21
-15.998941020383917
31
0
0
LINE
5
109
100
AcDbEntity
8
0
100
AcDbLine
10
21.000000315095633
20
-15.998941020383917
30
0
11
18.50000031509564
21
-15.998941020383917
31
0
0
LINE
5
110
100
AcDbEntity
8
0
100
AcDbLine
10
18.50000031509564
20
-15.998941020383917
30
0
11
18.50000031509564
21
-13.998941020383917
31
0
0
LINE
5
111
100
AcDbEntity
8
0
100
AcDbLine
10
18.50000031509564
20
-13.998941020383917
30
0
11
15.50000031509564
21
-13.998941020383915
31
0
0
LINE
5
112
100
AcDbEntity
8
0
100
AcDbLine
10
15.50000031509564
20
-13.998941020383915
30
0
11
15.500000315095638
21
-10.998941020383914
31
0
0
LINE
5
113
100
AcDbEntity
8
0
100
AcDbLine
10
15.500000315095638
20
-10.998941020383914
30
0
11
18.50000031509564
21
-10.998941020383914
31
0
0
LINE
5
114
100
AcDbEntity
8
0
100
AcDbLine
10
18.50000031509564
20
-10.998941020383914
30
0
11
18.50000031509564
21
-8.9989410203839135
31
0
0
LINE
5
115
100
AcDbEntity
8
0
100
AcDbLine
10
18.50000031509564
20
-8.9989410203839135
30
0
11
21.000000315095633
21
-8.99894102038391
31
0
0
LINE
5
116
100
AcDbEntity
8
0
100
AcDbLine
10
21.000000315095633
20
-8.99894102038391
30
0
11
21.000000315095633
21
-10.998941020383912
31
0
0
LINE
5
117
100
AcDbEntity
8
0
100
AcDbLine
10
21.000000315095633
20
-10.998941020383912
30
0
11
25.000000312924385
21
-10.99880922499848
31
0
0
LINE
5
118
100
AcDbEntity
8
0
100
AcDbLine
10
25.0225501987785
20
-24.998941020383903
30
0
11
25.0225501987785
21
-21.998941020383903
31
0
0
LINE
5
119
100
AcDbEntity
8
0
100
AcDbLine
10
25.000000315196445
20
-16.998941020383906
30
0
11
25.000000315095612
21
-13.998941020383917
31
0
0
LINE
5
120
100
AcDbEntity
8
0
100
AcDbLine
10
25.000000312924385
20
-10.99880922499848
30
0
11
25.000000312924357
21
-7.9999999999999991
31
0
0
LINE
5
121
100
AcDbEntity
8
0
100
AcDbLine
10
24.99999997799998
20
-2.9999999999999987
30
0
11
24.99999997799998
21
0.001048809364890602
31
0
0
LINE
5
122
100
AcDbEntity
8
0
100
AcDbLine
10
24.99999997799998
20
0.001048809364890602
30
0
11
10.000067502677867
21
0.0010488093648924389
31
0
0
LINE
5
123
100
AcDbEntity
8
0
100
AcDbLine
10
10.000067502677867
20
0.0010488093648924389
30
0
11
10.000067502677867
21
-2.9989511906351058
31
0
0
LINE
5
124
100
AcDbEntity
8
0
100
AcDbLine
10
1.5230012746032844
20
-2.998951190635109
30
0
11
1.5230012746032859
21
-6.9989511906351254
31
0
0
LINE
5
125
100
AcDbEntity
8
0
100
AcDbLine
10
1.5230012746032859
20
-6.9989511906351254
30
0
11
3.5229502539536597
21
-6.9989511906351245
31
0
0
LINE
5
126
100
AcDbEntity
8
0
100
AcDbLine
10
3.5229502539536597
20
-6.9989511906351245
30
0
11
3.5229502539536588
21
-9.4989511906351218
31
0
0
LINE
5
127
100
AcDbEntity
8
0
100
AcDbLine
10
3.5229502539536588
20
-9.4989511906351218
30
0
11
1.5230012746032853
21
-9.4989511906351218
31
0
0
LINE
5
128
100
AcDbEntity
8
0
100
AcDbLine
10
1.5230012746032853
20
-9.4989511906351218
30
0
11
1.5230012746032857
21
-12.498951190635122
31
0
0
LINE
5
129
100
AcDbEntity
8
0
100
AcDbLine
10
0.022550198778502492
20
-12.498951190635124
30
0
11
1.5230012746032857
21
-12.498951190635122
31
0
0
LINE
5
130
100
AcDbEntity
8
0
100
AcDbLine
10
10.000067502677867
20
-2.9989511906351058
30
0
11
1.5230012746032844
21
-2.998951190635109
31
0
0
LINE
5
131
100
AcDbEntity
8
0
100
AcDbLine
10
-18.454899917538633
20
-13.998941020383914
30
0
11
-15.454899917538633
21
-13.99894102038391
31
0
0
LINE
5
132
100
AcDbEntity
8
0
100
AcDbLine
10
-24.954899917639448
20
-16.998941020383896
30
0
11
-24.954899917538611
21
-13.99894102038391
31
0
0
LINE
5
133
100
AcDbEntity
8
0
100
AcDbLine
10
-27.954899915367349
20
-7.9999999999999893
30
0
11
-24.954899915367349
21
-7.9999999999999911
31
0
0
LINE
5
134
100
AcDbEntity
8
0
100
AcDbLine
10
-9.9549671051208595
20
-2.9989511906350996
30
0
11
-1.4779008770462769
21
-2.9989511906351085
31
0
0
LINE
5
135
100
AcDbEntity
8
0
100
AcDbLine
10
-27.954899915367349
20
-2.9999999999999893
30
0
11
-27.954899915367349
21
-7.9999999999999893
31
0
0
LINE
5
136
100
AcDbEntity
8
0
100
AcDbLine
10
-24.954899580442973
20
-2.9999999999999893
30
0
11
-27.954899915367349
21
-2.9999999999999893
31
0
0
LINE
5
137
100
AcDbEntity
8
0
100
AcDbLine
10
-27.954899917639445
20
-16.998941020383896
30
0
11
-24.954899917639448
21
-16.998941020383896
31
0
0
LINE
5
138
100
AcDbEntity
8
0
100
AcDbLine
10
-18.454899917538633
20
-8.9989410203839082
30
0
11
-20.954899917538626
21
-8.9989410203839029
31
0
0
LINE
5
139
100
AcDbEntity
8
0
100
AcDbLine
10
-18.454899917538633
20
-15.99894102038391
30
0
11
-18.454899917538633
21
-13.998941020383914
31
0
0
LINE
5
140
100
AcDbEntity
8
0
100
AcDbLine
10
-24.954899917538611
20
-13.99894102038391
30
0
11
-20.954899917538597
21
-13.998941020383883
31
0
0
LINE
5
141
100
AcDbEntity
8
0
100
AcDbLine
10
-3.4778498563966527
20
-9.4989511906351218
30
0
11
-1.4779008770462796
21
-9.4989511906351218
31
0
0
LINE
5
142
100
AcDbEntity
8
0
100
AcDbLine
10
-3.4778498563966522
20
-6.9989511906351254
30
0
11
-3.4778498563966527
21
-9.4989511906351218
31
0
0
LINE
5
143
100
AcDbEntity
8
0
100
AcDbLine
10
-9.9549671051208595
20
0.0010488093648985952
30
0
11
-9.9549671051208595
21
-2.9989511906350996
31
0
0
LINE
5
144
100
AcDbEntity
8
0
100
AcDbLine
10
-1.4779008770462796
20
-9.4989511906351218
30
0
11
-1.4779008770462805
21
-12.498951190635122
31
0
0
LINE
5
145
100
AcDbEntity
8
0
100
AcDbLine
10
-24.9774498012215
20
-24.998941020383896
30
0
11
-24.9774498012215
21
-21.998941020383892
31
0
0
LINE
5
146
100
AcDbEntity
8
0
100
AcDbLine
10
-27.954899917639445
20
-21.998941020383814
30
0
11
-27.954899917639445
21
-16.998941020383896
31
0
0
LINE
5
147
100
AcDbEntity
8
0
100
AcDbLine
10
-1.4779008770462796
20
-6.9989511906351254
30
0
11
-3.4778498563966522
21
-6.9989511906351254
31
0
0
LINE
5
148
100
AcDbEntity
8
0
100
AcDbLine
10
-1.4779008770462769
20
-2.9989511906351085
30
0
11
-1.4779008770462796
21
-6.9989511906351254
31
0
0
LINE
5
149
100
AcDbEntity
8
0
100
AcDbLine
10
-24.954899915367385
20
-10.998809224998475
30
0
11
-24.954899915367349
21
-7.9999999999999911
31
0
0
LINE
5
150
100
AcDbEntity
8
0
100
AcDbLine
10
-24.954899580442973
20
-2.9999999999999893
30
0
11
-24.954899580442973
21
0.0010488093648985952
31
0
0
LINE
5
151
100
AcDbEntity
8
0
100
AcDbLine
10
-20.954899917538636
20
-10.998941020383906
30
0
11
-24.954899915367385
21
-10.998809224998475
31
0
0
LINE
5
152
100
AcDbEntity
8
0
100
AcDbLine
10
-20.954899917538597
20
-13.998941020383883
30
0
11
-20.954899917538636
21
-15.99894102038391
31
0
0
LINE
5
153
100
AcDbEntity
8
0
100
AcDbLine
10
-24.954899580442973
20
0.0010488093648985952
30
0
11
-9.9549671051208595
21
0.0010488093648985952
31
0
0
LINE
5
154
100
AcDbEntity
8
0
100
AcDbLine
10
-18.454899917538633
20
-10.99894102038391
30
0
11
-18.454899917538633
21
-8.9989410203839082
31
0
0
LINE
5
155
100
AcDbEntity
8
0
100
AcDbLine
10
-20.954899917538626
20
-8.9989410203839029
30
0
11
-20.954899917538636
21
-10.998941020383906
31
0
0
LINE
5
156
100
AcDbEntity
8
0
100
AcDbLine
10
-15.454899917538631
20
-10.99894102038391
30
0
11
-18.454899917538633
21
-10.99894102038391
31
0
0
LINE
5
157
100
AcDbEntity
8
0
100
AcDbLine
10
-15.454899917538633
20
-13.99894102038391
30
0
11
-15.454899917538631
21
-10.99894102038391
31
0
0
LINE
5
158
100
AcDbEntity
8
0
100
AcDbLine
10
-20.954899917538636
20
-15.99894102038391
30
0
11
-18.454899917538633
21
-15.99894102038391
31
0
0
LINE
5
159
100
AcDbEntity
8
0
100
AcDbLine
10
-24.9774498012215
20
-21.998941020383892
30
0
11
-27.954899917639445
21
-21.998941020383814
31
0
0
LINE
5
160
100
AcDbEntity
8
0
100
AcDbLine
10
0.022550198778502492
20
-12.498951190635124
30
0
11
-1.4779008770462805
21
-12.498951190635122
31
0
0
LINE
5
161
100
AcDbEntity
8
0
100
AcDbLine
10
-24.9774498012215
20
-24.998941020383896
30
0
11
0.022550198778500678
21
-24.998941020383903
31
0
0
ENDSEC
0
SECTION
2
OBJECTS
0
DICTIONARY
5
C
100
AcDbDictionary
3
ACAD_GROUP
350
D
3
ACAD_MLINESTYLE
350
17
0
DICTIONARY
5
D
100
AcDbDictionary
0
DICTIONARY
5
1A
330
C
100
AcDbDictionary
0
DICTIONARY
5
17
100
AcDbDictionary
0
ENDSEC
0
EOF
