0
SECTION
2
HEADER
9
$INSUNITS
70
4
9
$ACADVER
1
AC1014
9
$HANDSEED
5
FFFF
0
ENDSEC
0
SECTION
2
TABLES
0
TABLE
2
VPORT
5
8
100
AcDbSymbolTable
0
ENDTAB
0
TABLE
2
LTYPE
5
5
100
AcDbSymbolTable
0
LTYPE
5
14
100
AcDbSymbolTableRecord
100
AcDbLinetypeTableRecord
2
BYBLOCK
70
0
0
LTYPE
5
15
100
AcDbSymbolTableRecord
100
AcDbLinetypeTableRecord
2
BYLAYER
70
0
0
ENDTAB
0
TABLE
2
LAYER
5
2
100
AcDbSymbolTable
70
2
0
LAYER
5
50
100
AcDbSymbolTableRecord
100
AcDbLayerTableRecord
2
0
70
0
6
CONTINUOUS
0
ENDTAB
0
TABLE
2
STYLE
5
3
100
AcDbSymbolTable
70
1
0
STYLE
5
11
100
AcDbSymbolTableRecord
100
AcDbTextStyleTableRecord
2
STANDARD
70
0
0
ENDTAB
0
TABLE
2
VIEW
5
6
100
AcDbSymbolTable
70
0
0
ENDTAB
0
TABLE
2
UCS
5
7
100
AcDbSymbolTable
70
0
0
ENDTAB
0
TABLE
2
APPID
5
9
100
AcDbSymbolTable
70
2
0
APPID
5
12
100
AcDbSymbolTableRecord
100
AcDbRegAppTableRecord
2
ACAD
70
0
0
ENDTAB
0
TABLE
2
DIMSTYLE
5
A
100
AcDbSymbolTable
70
1
0
ENDTAB
0
TABLE
2
BLOCK_RECORD
5
1
100
AcDbSymbolTable
70
1
0
BLOCK_RECORD
5
1F
100
AcDbSymbolTableRecord
100
AcDbBlockTableRecord
2
*MODEL_SPACE
0
BLOCK_RECORD
5
1B
100
AcDbSymbolTableRecord
100
AcDbBlockTableRecord
2
*PAPER_SPACE
0
ENDTAB
0
ENDSEC
0
SECTION
2
BLOCKS
0
BLOCK
5
20
100
AcDbEntity
100
AcDbBlockBegin
2
*MODEL_SPACE
0
ENDBLK
5
21
100
AcDbEntity
100
AcDbBlockEnd
0
BLOCK
5
1C
100
AcDbEntity
100
AcDbBlockBegin
2
*PAPER_SPACE
0
ENDBLK
5
1D
100
AcDbEntity
100
AcDbBlockEnd
0
ENDSEC
0
SECTION
2
ENTITIES
0
LINE
5
100
100
AcDbEntity
8
0
100
AcDbLine
10
0
20
24.998941020383903
30
0
11
0
21
21.998941020383903
31
0
0
LINE
5
101
100
AcDbEntity
8
0
100
AcDbLine
10
0
20
21.998941020383903
30
0
11
3.0000000000000004
21
21.998941020383903
31
0
0
LINE
5
102
100
AcDbEntity
8
0
100
AcDbLine
10
3.0000000000000004
20
24.998941020383903
30
0
11
0
21
24.998941020383903
31
0
0
LINE
5
103
100
AcDbEntity
8
0
100
AcDbLine
10
0
20
24.998941020383903
30
0
11
300
21
24.998941020383903
31
0
0
LINE
5
104
100
AcDbEntity
8
0
100
AcDbLine
10
300
20
24.998941020383903
30
0
11
300
21
-0.0010589796160941445
31
0
0
LINE
5
105
100
AcDbEntity
8
0
100
AcDbLine
10
300
20
-0.0010589796160941445
30
0
11
2.1396103994577355e-21
21
-0.0010589796160947506
31
0
0
LINE
5
106
100
AcDbEntity
8
0
100
AcDbLine
10
0
20
21.998941020383903
30
0
11
3.0000000447034836
21
21.998941020383903
31
0
0
LINE
5
107
100
AcDbEntity
8
0
100
AcDbLine
10
3.0000000447034836
20
21.998941020383903
30
0
11
3.0000000447034836
21
16.998941020383903
31
0
0
LINE
5
108
100
AcDbEntity
8
0
100
AcDbLine
10
3.0000000447034836
20
16.998941020383903
30
0
11
0
21
16.998941020383903
31
0
0
LINE
5
109
100
AcDbEntity
8
0
100
AcDbLine
10
0
20
8.0000001192092896
30
0
11
3.0000000000000004
21
8.0000001192092896
31
0
0
LINE
5
110
100
AcDbEntity
8
0
100
AcDbLine
10
3.0000000000000004
20
8.0000001192092896
30
0
11
3.0000000000000004
21
3.0000000447034836
31
0
0
LINE
5
111
100
AcDbEntity
8
0
100
AcDbLine
10
3.0000000000000004
20
3.0000000447034836
30
0
11
0
21
3.0000000447034836
31
0
0
CIRCLE
5
112
100
AcDbEntity
8
0
100
AcDbCircle
10
1.5000000223517418
20
12.500000000000018
30
0
40
1.5811390303510129
210
0
220
0
230
1
0
LWPOLYLINE
5
113
100
AcDbEntity
8
0
100
AcDbPolyline
90
4
70
1
43
0.0
10
12.375
20
3.0000000447034836
10
15.375000044703484
20
3.0000000447034836
10
15.375000044703484
20
8.0000001192092896
10
12.375
20
8.0000001192092896
0
LWPOLYLINE
5
114
100
AcDbEntity
8
0
100
AcDbPolyline
90
4
70
1
43
0.0
10
12.375
20
22.000000000000071
10
12.375
20
17.00000025331974
10
15.375000044703484
20
17.00000025331974
10
15.375000044703484
20
22.000000000000071
0
CIRCLE
5
115
100
AcDbEntity
8
0
100
AcDbCircle
10
13.875000022351742
20
12.500000000000018
30
0
40
1.5811390303510129
210
0
220
0
230
1
0
LINE
5
116
100
AcDbEntity
8
0
100
AcDbLine
10
12.375
20
22.000000000000071
30
0
11
15.375
21
22.000000000000071
31
0
0
LWPOLYLINE
5
117
100
AcDbEntity
8
0
100
AcDbPolyline
90
4
70
1
43
0.0
10
24.75
20
3.0000000447034836
10
27.750000044703484
20
3.0000000447034836
10
27.750000044703484
20
8.0000001192092896
10
24.75
20
8.0000001192092896
0
LWPOLYLINE
5
118
100
AcDbEntity
8
0
100
AcDbPolyline
90
4
70
1
43
0.0
10
24.75
20
22.000000000000071
10
24.75
20
17.00000025331974
10
27.750000044703484
20
17.00000025331974
10
27.750000044703484
20
22.000000000000071
0
CIRCLE
5
119
100
AcDbEntity
8
0
100
AcDbCircle
10
26.250000022351742
20
12.500000000000018
30
0
40
1.5811390303510129
210
0
220
0
230
1
0
LINE
5
120
100
AcDbEntity
8
0
100
AcDbLine
10
24.75
20
22.000000000000071
30
0
11
27.750000000000004
21
22.000000000000071
31
0
0
LWPOLYLINE
5
121
100
AcDbEntity
8
0
100
AcDbPolyline
90
4
70
1
43
0.0
10
37.125
20
3.0000000447034836
10
40.125000044703484
20
3.0000000447034836
10
40.125000044703484
20
8.0000001192092896
10
37.125
20
8.0000001192092896
0
LWPOLYLINE
5
122
100
AcDbEntity
8
0
100
AcDbPolyline
90
4
70
1
43
0.0
10
37.125
20
22.000000000000071
10
37.125
20
17.00000025331974
10
40.125000044703484
20
17.00000025331974
10
40.125000044703484
20
22.000000000000071
0
CIRCLE
5
123
100
AcDbEntity
8
0
100
AcDbCircle
10
38.625000022351742
20
12.500000000000018
30
0
40
1.5811390303510129
210
0
220
0
230
1
0
LINE
5
124
100
AcDbEntity
8
0
100
AcDbLine
10
37.125
20
22.000000000000071
30
0
11
40.125
21
22.000000000000071
31
0
0
LWPOLYLINE
5
125
100
AcDbEntity
8
0
100
AcDbPolyline
90
4
70
1
43
0.0
10
49.5
20
3.0000000447034836
10
52.500000044703484
20
3.0000000447034836
10
52.500000044703484
20
8.0000001192092896
10
49.5
20
8.0000001192092896
0
LWPOLYLINE
5
126
100
AcDbEntity
8
0
100
AcDbPolyline
90
4
70
1
43
0.0
10
49.5
20
22.000000000000071
10
49.5
20
17.00000025331974
10
52.500000044703484
20
17.00000025331974
10
52.500000044703484
20
22.000000000000071
0
CIRCLE
5
127
100
AcDbEntity
8
0
100
AcDbCircle
10
51.000000022351742
20
12.500000000000018
30
0
40
1.5811390303510129
210
0
220
0
230
1
0
LINE
5
128
100
AcDbEntity
8
0
100
AcDbLine
10
49.5
20
22.000000000000071
30
0
11
52.5
21
22.000000000000071
31
0
0
LWPOLYLINE
5
129
100
AcDbEntity
8
0
100
AcDbPolyline
90
4
70
1
43
0.0
10
61.875
20
3.0000000447034836
10
64.875000044703484
20
3.0000000447034836
10
64.875000044703484
20
8.0000001192092896
10
61.875
20
8.0000001192092896
0
LWPOLYLINE
5
130
100
AcDbEntity
8
0
100
AcDbPolyline
90
4
70
1
43
0.0
10
61.875
20
22.000000000000071
10
61.875
20
17.00000025331974
10
64.875000044703484
20
17.00000025331974
10
64.875000044703484
20
22.000000000000071
0
CIRCLE
5
131
100
AcDbEntity
8
0
100
AcDbCircle
10
63.375000022351742
20
12.500000000000018
30
0
40
1.5811390303510129
210
0
220
0
230
1
0
LINE
5
132
100
AcDbEntity
8
0
100
AcDbLine
10
61.875
20
22.000000000000071
30
0
11
64.875
21
22.000000000000071
31
0
0
LWPOLYLINE
5
133
100
AcDbEntity
8
0
100
AcDbPolyline
90
4
70
1
43
0.0
10
74.25
20
3.0000000447034836
10
77.250000044703484
20
3.0000000447034836
10
77.250000044703484
20
8.0000001192092896
10
74.25
20
8.0000001192092896
0
LWPOLYLINE
5
134
100
AcDbEntity
8
0
100
AcDbPolyline
90
4
70
1
43
0.0
10
74.25
20
22.000000000000071
10
74.25
20
17.00000025331974
10
77.250000044703484
20
17.00000025331974
10
77.250000044703484
20
22.000000000000071
0
CIRCLE
5
135
100
AcDbEntity
8
0
100
AcDbCircle
10
75.750000022351742
20
12.500000000000018
30
0
40
1.5811390303510129
210
0
220
0
230
1
0
LINE
5
136
100
AcDbEntity
8
0
100
AcDbLine
10
74.25
20
22.000000000000071
30
0
11
77.25
21
22.000000000000071
31
0
0
LWPOLYLINE
5
137
100
AcDbEntity
8
0
100
AcDbPolyline
90
4
70
1
43
0.0
10
86.625
20
3.0000000447034836
10
89.625000044703484
20
3.0000000447034836
10
89.625000044703484
20
8.0000001192092896
10
86.625
20
8.0000001192092896
0
LWPOLYLINE
5
138
100
AcDbEntity
8
0
100
AcDbPolyline
90
4
70
1
43
0.0
10
86.625
20
22.000000000000071
10
86.625
20
17.00000025331974
10
89.625000044703484
20
17.00000025331974
10
89.625000044703484
20
22.000000000000071
0
CIRCLE
5
139
100
AcDbEntity
8
0
100
AcDbCircle
10
88.125000022351742
20
12.500000000000018
30
0
40
1.5811390303510129
210
0
220
0
230
1
0
LINE
5
140
100
AcDbEntity
8
0
100
AcDbLine
10
86.625
20
22.000000000000071
30
0
11
89.625
21
22.000000000000071
31
0
0
LWPOLYLINE
5
141
100
AcDbEntity
8
0
100
AcDbPolyline
90
4
70
1
43
0.0
10
99
20
3.0000000447034836
10
102.00000004470348
20
3.0000000447034836
10
102.00000004470348
20
8.0000001192092896
10
99
20
8.0000001192092896
0
LWPOLYLINE
5
142
100
AcDbEntity
8
0
100
AcDbPolyline
90
4
70
1
43
0.0
10
99
20
22.000000000000071
10
99
20
17.00000025331974
10
102.00000004470348
20
17.00000025331974
10
102.00000004470348
20
22.000000000000071
0
CIRCLE
5
143
100
AcDbEntity
8
0
100
AcDbCircle
10
100.50000002235174
20
12.500000000000018
30
0
40
1.5811390303510129
210
0
220
0
230
1
0
LINE
5
144
100
AcDbEntity
8
0
100
AcDbLine
10
99
20
22.000000000000071
30
0
11
102.00000000000001
21
22.000000000000071
31
0
0
LWPOLYLINE
5
145
100
AcDbEntity
8
0
100
AcDbPolyline
90
4
70
1
43
0.0
10
111.37500000000001
20
3.0000000447034836
10
114.3750000447035
20
3.0000000447034836
10
114.3750000447035
20
8.0000001192092896
10
111.37500000000001
20
8.0000001192092896
0
LWPOLYLINE
5
146
100
AcDbEntity
8
0
100
AcDbPolyline
90
4
70
1
43
0.0
10
111.37500000000001
20
22.000000000000071
10
111.37500000000001
20
17.00000025331974
10
114.3750000447035
20
17.00000025331974
10
114.3750000447035
20
22.000000000000071
0
CIRCLE
5
147
100
AcDbEntity
8
0
100
AcDbCircle
10
112.87500002235176
20
12.500000000000018
30
0
40
1.5811390303510129
210
0
220
0
230
1
0
LINE
5
148
100
AcDbEntity
8
0
100
AcDbLine
10
111.37500000000001
20
22.000000000000071
30
0
11
114.37500000000001
21
22.000000000000071
31
0
0
LWPOLYLINE
5
149
100
AcDbEntity
8
0
100
AcDbPolyline
90
4
70
1
43
0.0
10
123.75
20
3.0000000447034836
10
126.75000004470348
20
3.0000000447034836
10
126.75000004470348
20
8.0000001192092896
10
123.75
20
8.0000001192092896
0
LWPOLYLINE
5
150
100
AcDbEntity
8
0
100
AcDbPolyline
90
4
70
1
43
0.0
10
123.75
20
22.000000000000071
10
123.75
20
17.00000025331974
10
126.75000004470348
20
17.00000025331974
10
126.75000004470348
20
22.000000000000071
0
CIRCLE
5
151
100
AcDbEntity
8
0
100
AcDbCircle
10
125.25000002235174
20
12.500000000000018
30
0
40
1.5811390303510129
210
0
220
0
230
1
0
LINE
5
152
100
AcDbEntity
8
0
100
AcDbLine
10
123.75
20
22.000000000000071
30
0
11
126.75
21
22.000000000000071
31
0
0
LWPOLYLINE
5
153
100
AcDbEntity
8
0
100
AcDbPolyline
90
4
70
1
43
0.0
10
136.125
20
3.0000000447034836
10
139.12500004470348
20
3.0000000447034836
10
139.12500004470348
20
8.0000001192092896
10
136.125
20
8.0000001192092896
0
LWPOLYLINE
5
154
100
AcDbEntity
8
0
100
AcDbPolyline
90
4
70
1
43
0.0
10
136.125
20
22.000000000000071
10
136.125
20
17.00000025331974
10
139.12500004470348
20
17.00000025331974
10
139.12500004470348
20
22.000000000000071
0
CIRCLE
5
155
100
AcDbEntity
8
0
100
AcDbCircle
10
137.62500002235174
20
12.500000000000018
30
0
40
1.5811390303510129
210
0
220
0
230
1
0
LINE
5
156
100
AcDbEntity
8
0
100
AcDbLine
10
136.125
20
22.000000000000071
30
0
11
139.125
21
22.000000000000071
31
0
0
LWPOLYLINE
5
157
100
AcDbEntity
8
0
100
AcDbPolyline
90
4
70
1
43
0.0
10
148.5
20
3.0000000447034836
10
151.50000004470348
20
3.0000000447034836
10
151.50000004470348
20
8.0000001192092896
10
148.5
20
8.0000001192092896
0
LWPOLYLINE
5
158
100
AcDbEntity
8
0
100
AcDbPolyline
90
4
70
1
43
0.0
10
148.5
20
22.000000000000071
10
148.5
20
17.00000025331974
10
151.50000004470348
20
17.00000025331974
10
151.50000004470348
20
22.000000000000071
0
CIRCLE
5
159
100
AcDbEntity
8
0
100
AcDbCircle
10
150.00000002235174
20
12.500000000000018
30
0
40
1.5811390303510129
210
0
220
0
230
1
0
LINE
5
160
100
AcDbEntity
8
0
100
AcDbLine
10
148.5
20
22.000000000000071
30
0
11
151.50000000000003
21
22.000000000000071
31
0
0
LWPOLYLINE
5
161
100
AcDbEntity
8
0
100
AcDbPolyline
90
4
70
1
43
0.0
10
160.87500000000003
20
3.0000000447034836
10
163.87500004470351
20
3.0000000447034836
10
163.87500004470351
20
8.0000001192092896
10
160.87500000000003
20
8.0000001192092896
0
LWPOLYLINE
5
162
100
AcDbEntity
8
0
100
AcDbPolyline
90
4
70
1
43
0.0
10
160.87500000000003
20
22.000000000000071
10
160.87500000000003
20
17.00000025331974
10
163.87500004470351
20
17.00000025331974
10
163.87500004470351
20
22.000000000000071
0
CIRCLE
5
163
100
AcDbEntity
8
0
100
AcDbCircle
10
162.37500002235177
20
12.500000000000018
30
0
40
1.5811390303510129
210
0
220
0
230
1
0
LINE
5
164
100
AcDbEntity
8
0
100
AcDbLine
10
160.87500000000003
20
22.000000000000071
30
0
11
163.87500000000003
21
22.000000000000071
31
0
0
LWPOLYLINE
5
165
100
AcDbEntity
8
0
100
AcDbPolyline
90
4
70
1
43
0.0
10
173.25
20
3.0000000447034836
10
176.25000004470348
20
3.0000000447034836
10
176.25000004470348
20
8.0000001192092896
10
173.25
20
8.0000001192092896
0
LWPOLYLINE
5
166
100
AcDbEntity
8
0
100
AcDbPolyline
90
4
70
1
43
0.0
10
173.25
20
22.000000000000071
10
173.25
20
17.00000025331974
10
176.25000004470348
20
17.00000025331974
10
176.25000004470348
20
22.000000000000071
0
CIRCLE
5
167
100
AcDbEntity
8
0
100
AcDbCircle
10
174.75000002235174
20
12.500000000000018
30
0
40
1.5811390303510129
210
0
220
0
230
1
0
LINE
5
168
100
AcDbEntity
8
0
100
AcDbLine
10
173.25
20
22.000000000000071
30
0
11
176.25
21
22.000000000000071
31
0
0
LWPOLYLINE
5
169
100
AcDbEntity
8
0
100
AcDbPolyline
90
4
70
1
43
0.0
10
185.625
20
3.0000000447034836
10
188.62500004470348
20
3.0000000447034836
10
188.62500004470348
20
8.0000001192092896
10
185.625
20
8.0000001192092896
0
LWPOLYLINE
5
170
100
AcDbEntity
8
0
100
AcDbPolyline
90
4
70
1
43
0.0
10
185.625
20
22.000000000000071
10
185.625
20
17.00000025331974
10
188.62500004470348
20
17.00000025331974
10
188.62500004470348
20
22.000000000000071
0
CIRCLE
5
171
100
AcDbEntity
8
0
100
AcDbCircle
10
187.12500002235174
20
12.500000000000018
30
0
40
1.5811390303510129
210
0
220
0
230
1
0
LINE
5
172
100
AcDbEntity
8
0
100
AcDbLine
10
185.625
20
22.000000000000071
30
0
11
188.625
21
22.000000000000071
31
0
0
LWPOLYLINE
5
173
100
AcDbEntity
8
0
100
AcDbPolyline
90
4
70
1
43
0.0
10
198
20
3.0000000447034836
10
201.00000004470348
20
3.0000000447034836
10
201.00000004470348
20
8.0000001192092896
10
198
20
8.0000001192092896
0
LWPOLYLINE
5
174
100
AcDbEntity
8
0
100
AcDbPolyline
90
4
70
1
43
0.0
10
198
20
22.000000000000071
10
198
20
17.00000025331974
10
201.00000004470348
20
17.00000025331974
10
201.00000004470348
20
22.000000000000071
0
CIRCLE
5
175
100
AcDbEntity
8
0
100
AcDbCircle
10
199.50000002235174
20
12.500000000000018
30
0
40
1.5811390303510129
210
0
220
0
230
1
0
LINE
5
176
100
AcDbEntity
8
0
100
AcDbLine
10
198
20
22.000000000000071
30
0
11
201
21
22.000000000000071
31
0
0
LWPOLYLINE
5
177
100
AcDbEntity
8
0
100
AcDbPolyline
90
4
70
1
43
0.0
10
210.375
20
3.0000000447034836
10
213.37500004470348
20
3.0000000447034836
10
213.37500004470348
20
8.0000001192092896
10
210.375
20
8.0000001192092896
0
LWPOLYLINE
5
178
100
AcDbEntity
8
0
100
AcDbPolyline
90
4
70
1
43
0.0
10
210.375
20
22.000000000000071
10
210.375
20
17.00000025331974
10
213.37500004470348
20
17.00000025331974
10
213.37500004470348
20
22.000000000000071
0
CIRCLE
5
179
100
AcDbEntity
8
0
100
AcDbCircle
10
211.87500002235174
20
12.500000000000018
30
0
40
1.5811390303510129
210
0
220
0
230
1
0
LINE
5
180
100
AcDbEntity
8
0
100
AcDbLine
10
210.375
20
22.000000000000071
30
0
11
213.37500000000003
21
22.000000000000071
31
0
0
LWPOLYLINE
5
181
100
AcDbEntity
8
0
100
AcDbPolyline
90
4
70
1
43
0.0
10
222.75000000000003
20
3.0000000447034836
10
225.75000004470351
20
3.0000000447034836
10
225.75000004470351
20
8.0000001192092896
10
222.75000000000003
20
8.0000001192092896
0
LWPOLYLINE
5
182
100
AcDbEntity
8
0
100
AcDbPolyline
90
4
70
1
43
0.0
10
222.75000000000003
20
22.000000000000071
10
222.75000000000003
20
17.00000025331974
10
225.75000004470351
20
17.00000025331974
10
225.75000004470351
20
22.000000000000071
0
CIRCLE
5
183
100
AcDbEntity
8
0
100
AcDbCircle
10
224.25000002235177
20
12.500000000000018
30
0
40
1.5811390303510129
210
0
220
0
230
1
0
LINE
5
184
100
AcDbEntity
8
0
100
AcDbLine
10
222.75000000000003
20
22.000000000000071
30
0
11
225.75000000000003
21
22.000000000000071
31
0
0
LWPOLYLINE
5
185
100
AcDbEntity
8
0
100
AcDbPolyline
90
4
70
1
43
0.0
10
235.125
20
3.0000000447034836
10
238.12500004470348
20
3.0000000447034836
10
238.12500004470348
20
8.0000001192092896
10
235.125
20
8.0000001192092896
0
LWPOLYLINE
5
186
100
AcDbEntity
8
0
100
AcDbPolyline
90
4
70
1
43
0.0
10
235.125
20
22.000000000000071
10
235.125
20
17.00000025331974
10
238.12500004470348
20
17.00000025331974
10
238.12500004470348
20
22.000000000000071
0
CIRCLE
5
187
100
AcDbEntity
8
0
100
AcDbCircle
10
236.62500002235174
20
12.500000000000018
30
0
40
1.5811390303510129
210
0
220
0
230
1
0
LINE
5
188
100
AcDbEntity
8
0
100
AcDbLine
10
235.125
20
22.000000000000071
30
0
11
238.125
21
22.000000000000071
31
0
0
LWPOLYLINE
5
189
100
AcDbEntity
8
0
100
AcDbPolyline
90
4
70
1
43
0.0
10
247.5
20
3.0000000447034836
10
250.50000004470348
20
3.0000000447034836
10
250.50000004470348
20
8.0000001192092896
10
247.5
20
8.0000001192092896
0
LWPOLYLINE
5
190
100
AcDbEntity
8
0
100
AcDbPolyline
90
4
70
1
43
0.0
10
247.5
20
22.000000000000071
10
247.5
20
17.00000025331974
10
250.50000004470348
20
17.00000025331974
10
250.50000004470348
20
22.000000000000071
0
CIRCLE
5
191
100
AcDbEntity
8
0
100
AcDbCircle
10
249.00000002235174
20
12.500000000000018
30
0
40
1.5811390303510129
210
0
220
0
230
1
0
LINE
5
192
100
AcDbEntity
8
0
100
AcDbLine
10
247.5
20
22.000000000000071
30
0
11
250.5
21
22.000000000000071
31
0
0
LWPOLYLINE
5
193
100
AcDbEntity
8
0
100
AcDbPolyline
90
4
70
1
43
0.0
10
259.875
20
3.0000000447034836
10
262.87500004470348
20
3.0000000447034836
10
262.87500004470348
20
8.0000001192092896
10
259.875
20
8.0000001192092896
0
LWPOLYLINE
5
194
100
AcDbEntity
8
0
100
AcDbPolyline
90
4
70
1
43
0.0
10
259.875
20
22.000000000000071
10
259.875
20
17.00000025331974
10
262.87500004470348
20
17.00000025331974
10
262.87500004470348
20
22.000000000000071
0
CIRCLE
5
195
100
AcDbEntity
8
0
100
AcDbCircle
10
261.37500002235174
20
12.500000000000018
30
0
40
1.5811390303510129
210
0
220
0
230
1
0
LINE
5
196
100
AcDbEntity
8
0
100
AcDbLine
10
259.875
20
22.000000000000071
30
0
11
262.875
21
22.000000000000071
31
0
0
LWPOLYLINE
5
197
100
AcDbEntity
8
0
100
AcDbPolyline
90
4
70
1
43
0.0
10
272.25
20
3.0000000447034836
10
275.25000004470348
20
3.0000000447034836
10
275.25000004470348
20
8.0000001192092896
10
272.25
20
8.0000001192092896
0
LWPOLYLINE
5
198
100
AcDbEntity
8
0
100
AcDbPolyline
90
4
70
1
43
0.0
10
272.25
20
22.000000000000071
10
272.25
20
17.00000025331974
10
275.25000004470348
20
17.00000025331974
10
275.25000004470348
20
22.000000000000071
0
CIRCLE
5
199
100
AcDbEntity
8
0
100
AcDbCircle
10
273.75000002235174
20
12.500000000000018
30
0
40
1.5811390303510129
210
0
220
0
230
1
0
LINE
5
200
100
AcDbEntity
8
0
100
AcDbLine
10
272.25
20
22.000000000000071
30
0
11
275.25
21
22.000000000000071
31
0
0
LWPOLYLINE
5
201
100
AcDbEntity
8
0
100
AcDbPolyline
90
4
70
1
43
0.0
10
284.625
20
3.0000000447034836
10
287.62500004470348
20
3.0000000447034836
10
287.62500004470348
20
8.0000001192092896
10
284.625
20
8.0000001192092896
0
LWPOLYLINE
5
202
100
AcDbEntity
8
0
100
AcDbPolyline
90
4
70
1
43
0.0
10
284.625
20
22.000000000000071
10
284.625
20
17.00000025331974
10
287.62500004470348
20
17.00000025331974
10
287.62500004470348
20
22.000000000000071
0
CIRCLE
5
203
100
AcDbEntity
8
0
100
AcDbCircle
10
286.12500002235174
20
12.500000000000018
30
0
40
1.5811390303510129
210
0
220
0
230
1
0
LINE
5
204
100
AcDbEntity
8
0
100
AcDbLine
10
284.625
20
22.000000000000071
30
0
11
287.625
21
22.000000000000071
31
0
0
LWPOLYLINE
5
205
100
AcDbEntity
8
0
100
AcDbPolyline
90
4
70
1
43
0.0
10
297
20
3.0000000447034836
10
300.00000004470348
20
3.0000000447034836
10
300.00000004470348
20
8.0000001192092896
10
297
20
8.0000001192092896
0
LWPOLYLINE
5
206
100
AcDbEntity
8
0
100
AcDbPolyline
90
4
70
1
43
0.0
10
297
20
22.000000000000071
10
297
20
17.00000025331974
10
300.00000004470348
20
17.00000025331974
10
300.00000004470348
20
22.000000000000071
0
CIRCLE
5
207
100
AcDbEntity
8
0
100
AcDbCircle
10
298.50000002235174
20
12.500000000000018
30
0
40
1.5811390303510129
210
0
220
0
230
1
0
LINE
5
208
100
AcDbEntity
8
0
100
AcDbLine
10
297
20
22.000000000000071
30
0
11
300.00000000000006
21
22.000000000000071
31
0
0
LINE
5
209
100
AcDbEntity
8
0
100
AcDbLine
10
0
20
24.998941020383903
30
0
11
0
21
21.998941020383903
31
0
0
LINE
5
210
100
AcDbEntity
8
0
100
AcDbLine
10
3.0000000013475652
20
21.998941020383903
30
0
11
3.0000000447034836
21
16.998941020383903
31
0
0
LINE
5
211
100
AcDbEntity
8
0
100
AcDbLine
10
0
20
16.998941020383903
30
0
11
0
21
8.0000001192092896
31
0
0
LINE
5
212
100
AcDbEntity
8
0
100
AcDbLine
10
0
20
0
30
0
11
0
21
3.0000000447034836
31
0
0
LINE
5
213
100
AcDbEntity
8
0
100
AcDbLine
10
3.0000000000000004
20
3.0000000447034836
30
0
11
0
21
3.0000000447034836
31
0
0
LINE
5
214
100
AcDbEntity
8
0
100
AcDbLine
10
3.0000000000000004
20
8.0000001192092896
30
0
11
0
21
8.0000001192092896
31
0
0
ENDSEC
0
SECTION
2
OBJECTS
0
DICTIONARY
5
C
100
AcDbDictionary
3
ACAD_GROUP
350
D
3
ACAD_MLINESTYLE
350
17
0
DICTIONARY
5
D
100
AcDbDictionary
0
DICTIONARY
5
1A
330
C
100
AcDbDictionary
0
DICTIONARY
5
17
100
AcDbDictionary
0
ENDSEC
0
EOF
